<svg xmlns="http://www.w3.org/2000/svg" width="24" height="24" fill="none" viewBox="0 0 24 24"><g fill="currentColor" clip-path="url(#a)"><path d="M15.253 7.805a.67.67 0 0 1 .942 0 .67.67 0 0 1 0 .941l-3.262 3.263 3.262 3.262a.67.67 0 0 1 0 .942.66.66 0 0 1-.942 0L11.99 12.95l-3.26 3.263a.66.66 0 0 1-.942 0 .67.67 0 0 1 0-.941l3.262-3.263-3.263-3.263a.67.67 0 0 1 0-.941.67.67 0 0 1 .943 0l3.261 3.261z"/><path fill-rule="evenodd" d="M12 2c5.511 0 10 4.489 10 10 0 5.52-4.489 10-10 10l-.009.009a9.9 9.9 0 0 1-7.066-2.934A9.94 9.94 0 0 1 2 12C2 6.489 6.489 2 12 2m-.014 1.342c-4.78.002-8.662 3.886-8.662 8.667 0 2.31.898 4.49 2.533 6.134a8.62 8.62 0 0 0 6.125 2.542c4.783 0 8.666-3.885 8.666-8.667 0-4.781-3.881-8.674-8.662-8.676" clip-rule="evenodd"/></g><defs><clipPath id="a"><path fill="currentColor" d="M0 0h24v24H0z"/></clipPath></defs></svg>