<svg width="24" height="24" viewBox="0 0 24 24" fill="none" xmlns="http://www.w3.org/2000/svg">
<g clip-path="url(#clip0_1_2091)">
<path fill-rule="evenodd" clip-rule="evenodd" d="M18.1504 9C18.6147 9 18.9998 9.3714 19 9.81934V14.1807C18.9998 14.6286 18.6147 15 18.1504 15H5.84961C5.38532 15 5.00019 14.6286 5 14.1807V9.81934C5.00019 9.3714 5.38532 9 5.84961 9H18.1504ZM6.69922 13.3604H17.3008V10.6396H6.69922V13.3604Z" fill="#1D1B20"/>
<path fill-rule="evenodd" clip-rule="evenodd" d="M12 1C18.0704 1 23 5.92955 23 12C23 18.0704 18.0704 23 12 23C5.92955 23 1 18.0704 1 12C1 5.92955 5.92955 1 12 1ZM12 2.61426C6.8229 2.61426 2.61426 6.8229 2.61426 12C2.61426 17.1771 6.8229 21.3857 12 21.3857C17.1771 21.3857 21.3857 17.1771 21.3857 12C21.3857 6.8229 17.1771 2.61426 12 2.61426Z" fill="#1D1B20"/>
</g>
<defs>
<clipPath id="clip0_1_2091">
<rect width="24" height="24" fill="white"/>
</clipPath>
</defs>
</svg>
