<svg xmlns="http://www.w3.org/2000/svg" width="24" height="24" fill="none" viewBox="0 0 24 24"><g fill="currentColor" fill-rule="evenodd" clip-path="url(#a)" clip-rule="evenodd"><path d="M18.15 9c.465 0 .85.371.85.82v4.36c0 .449-.385.82-.85.82H5.85c-.465 0-.85-.371-.85-.82V9.82c0-.449.385-.82.85-.82zM6.7 13.36h10.6v-2.72H6.7z"/><path d="M12 1c6.07 0 11 4.93 11 11s-4.93 11-11 11S1 18.07 1 12 5.93 1 12 1m0 1.614c-5.177 0-9.386 4.209-9.386 9.386S6.823 21.386 12 21.386s9.386-4.209 9.386-9.386S17.177 2.614 12 2.614"/></g><defs><clipPath id="a"><path fill="currentColor" d="M0 0h24v24H0z"/></clipPath></defs></svg>