<svg xmlns="http://www.w3.org/2000/svg" width="24" height="24" fill="none" viewBox="0 0 24 24"><g fill="currentColor" clip-path="url(#a)"><path d="M12.04 10.073c.41 0 .75.34.75.751v3.814c0 .48.39.86.86.86h.6c.41 0 .75.34.75.751 0 .41-.34.751-.75.751h-.6c-1.3 0-2.36-1.061-2.36-2.362v-3.814c0-.41.34-.75.75-.75M12.03 7a1.03 1.03 0 1 1-.002 2.06A1.03 1.03 0 0 1 12.03 7"/><path fill-rule="evenodd" d="M12 2c5.512 0 10 4.488 10 10s-4.488 10-10 10v-.01C6.488 21.99 2 17.5 2 12S6.488 2 12 2m0 1.67A8.33 8.33 0 1 0 20.33 12c0-4.6-3.742-8.33-8.33-8.33" clip-rule="evenodd"/></g><defs><clipPath id="a"><path fill="currentColor" d="M0 0h24v24H0z"/></clipPath></defs></svg>