<svg width="24" height="24" viewBox="0 0 24 24" fill="none" xmlns="http://www.w3.org/2000/svg">
<g clip-path="url(#clip0_1_2140)">
<path d="M11.9951 16C12.5069 16 12.9999 16.4833 13 16.9951C13 17.507 12.507 18 11.9951 18C11.4833 17.9999 11 17.5069 11 16.9951C11.0001 16.4834 11.4834 16.0001 11.9951 16Z" fill="#1D1B20"/>
<path d="M12 6C12.551 6 13 6.43605 13 6.9707V14.0293C13 14.564 12.551 15 12 15C11.449 15 11 14.564 11 14.0293V6.9707C11 6.43605 11.449 6 12 6Z" fill="#1D1B20"/>
<path fill-rule="evenodd" clip-rule="evenodd" d="M12 2C17.5122 2 22 6.48775 22 12C22 17.5122 17.5122 22 12 22V21.9893C6.48775 21.9893 2 17.5011 2 12C2 6.49889 6.48775 2 12 2ZM12 3.66992C7.40089 3.66992 3.66992 7.40089 3.66992 12C3.66992 16.5991 7.40089 20.3301 12 20.3301C16.5991 20.3301 20.3301 16.5991 20.3301 12C20.3301 7.40089 16.588 3.66992 12 3.66992Z" fill="#1D1B20"/>
</g>
<defs>
<clipPath id="clip0_1_2140">
<rect width="24" height="24" fill="white"/>
</clipPath>
</defs>
</svg>
