<svg xmlns="http://www.w3.org/2000/svg" fill="currentColor" viewBox="0 0 24 24"><path fill="currentColor" d="M12.993 2c.666 0 1.27.325 1.623.858l9.052 14.024a2.07 2.07 0 0 1 .104 2.04A1.94 1.94 0 0 1 22.045 20H3.942c-.728 0-1.384-.408-1.727-1.078a2.05 2.05 0 0 1 .104-2.04L11.37 2.858c.343-.544.957-.858 1.623-.858m0 1.57c-.009 0-.23.013-.311.146L3.63 17.739a.5.5 0 0 0-.02.472c.072.136.197.22.332.22h18.092c.135 0 .27-.084.333-.22a.5.5 0 0 0-.02-.472L13.306 3.716c-.084-.136-.26-.147-.313-.147M12.986 15c.512 0 1.004.483 1.004.995S13.498 17 12.986 17c-.511 0-.994-.493-.994-1.005s.483-.995.994-.995m.005-9c.55 0 1 .387 1 .862v6.276c0 .475-.45.862-1 .862s-.999-.387-.999-.862V6.862c0-.475.449-.862 1-.862"/></svg>