<svg xmlns="http://www.w3.org/2000/svg" fill="currentColor" viewBox="0 0 24 24"><path fill="currentColor" d="M16.154 12.13c.35-.2.75-.25 1.13-.15C20.57 12.87 23 15.96 23 19.65c0 1.3-1.01 2.35-2.269 2.35H5.891c-1.25 0-2.269-1.05-2.269-2.35l.096.107c.49.514 1.144.743 1.762.743.47 0 .97-.14 1.4-.44l4.647-3.17.03-.02c.33-.25.6-.59.77-.99l.04-.1.06-.21c.1-.35.109-.72.03-1.08v-.07l-.1-.26c-.19-.5-.54-.86-.88-1.09l-1.659-1.13c.23.01.45.08.66.19a5.7 5.7 0 0 0 2.838.75c1.03 0 1.989-.27 2.838-.75m-11.163.32c-.87-.64.15-1.77.98-1.21l1.76 1.204c1.036.71 2.173 1.488 2.847 1.946.15.08.25.25.31.4.07.31-.04.6-.29.8L5.97 18.74c-.79.6-1.85-.55-.98-1.18l2.38-1.62.259-.19h-5.8c-.46 0-.83-.34-.83-.75s.37-.75.83-.75h5.8l-.26-.18-.974-.662c-.523-.355-1.087-.738-1.405-.958M13.306 2c2.548 0 4.617 2.14 4.617 4.77s-2.069 4.77-4.617 4.77S8.688 9.4 8.688 6.77 10.758 2 13.306 2"/></svg>