<svg xmlns="http://www.w3.org/2000/svg" fill="currentColor" viewBox="0 0 24 24"><path fill="currentColor" d="M12.095 1c4.358 0 7.933 3.32 8.31 7.533a.1.1 0 0 1 .05-.01h.228C22.376 8.523 23 10.085 23 12v2.74c0 1.915-.624 3.466-2.317 3.466h-.248c-.03 1.896-1.595 3.428-3.507 3.428h-1.466A2.125 2.125 0 0 1 13.47 23h-2.754c-1.179 0-2.13-.944-2.13-2.102.001-1.16.951-2.102 2.13-2.102h2.754c.91 0 1.694.57 1.99 1.365h1.467c1.11 0 2.021-.894 2.021-2.004v-.55a1.1 1.1 0 0 1-.367-.814V9.947c0-.334.14-.6.357-.805-.057-3.578-2.923-6.482-6.497-6.66l-.347-.008C8.36 2.474 5.24 5.518 5.24 9.26a.3.3 0 0 1-.01.097c.108.167.178.364.178.59v6.846c0 1.08-1.456 1.413-1.862 1.413h-.238C1.614 18.206 1 16.656 1 14.74V12c0-1.915.614-3.476 2.308-3.477h.238q.09 0 .237.03C4.15 4.33 7.736 1 12.095 1m0 8.24a.49.49 0 0 1 .495.49v7.711c0 .275-.218.49-.495.49a.49.49 0 0 1-.496-.49v-7.71a.49.49 0 0 1 .496-.492m-2.606 1.542c.277 0 .495.217.495.491v4.625a.49.49 0 0 1-.495.492.49.49 0 0 1-.495-.492v-4.625c0-.274.218-.49.495-.49m5.2 0a.49.49 0 0 1 .496.491v4.625a.49.49 0 0 1-.495.492.49.49 0 0 1-.496-.492v-4.625c0-.274.218-.49.495-.49m-7.795 1.542a.49.49 0 0 1 .496.491v1.601a.49.49 0 0 1-.496.491.49.49 0 0 1-.496-.491v-1.6a.49.49 0 0 1 .496-.492m10.4 0a.49.49 0 0 1 .496.491v1.601a.49.49 0 0 1-.495.491.49.49 0 0 1-.495-.491v-1.6c0-.276.218-.492.495-.492"/></svg>