<svg xmlns="http://www.w3.org/2000/svg" fill="currentColor" viewBox="0 0 24 24"><path fill="currentColor" d="M17.042 11.083A5.97 5.97 0 0 1 23 17.042a5.959 5.959 0 1 1-5.958-5.959m2.353 3.675a.7.7 0 0 0-.456.267l-2.658 3.557-1.375-1.375a.68.68 0 0 0-.75-.152.7.7 0 0 0-.221.152.68.68 0 0 0 0 .972l1.375 1.375a1.376 1.376 0 0 0 2.07-.148l2.66-3.547a.692.692 0 0 0-.645-1.101M19.333 1a1.376 1.376 0 0 1 1.375 1.375v7.947a.22.22 0 0 1-.33.193 7.3 7.3 0 0 0-3.336-.807 7.34 7.34 0 0 0-6.912 4.886.23.23 0 0 1-.211.156H8.508L4.51 18.298a.46.46 0 0 1-.495.082.47.47 0 0 1-.266-.422V14.75H2.375a1.34 1.34 0 0 1-.967-.376A1.34 1.34 0 0 1 1 13.421V2.375A1.376 1.376 0 0 1 2.375 1z"/></svg>