<svg xmlns="http://www.w3.org/2000/svg" fill="currentColor" viewBox="0 0 24 24"><path fill="currentColor" d="M12.005 1c4.528 0 8.213 3.534 8.434 7.952A3.27 3.27 0 0 1 23 12.13v2.77c0 1.54-1.095 2.83-2.55 3.167v.288c0 1.935-1.598 3.514-3.555 3.514h-1.757A1.9 1.9 0 0 1 13.4 23h-2.8c-1.045 0-1.9-.844-1.9-1.876s.854-1.887 1.899-1.887h2.8c.784 0 1.457.467 1.738 1.142h1.757a2.04 2.04 0 0 0 2.048-2.026v-.208c-.452-.02-1.847-.328-1.847-1.171v-6.92c0-.823 1.335-1.151 1.817-1.181-.233-3.453-3.067-6.207-6.567-6.376l-.341-.008c-3.655 0-6.677 2.82-6.918 6.384.482.03 1.817.358 1.817 1.182v6.919c0 .873-1.515 1.181-1.897 1.181h-.703C2.486 18.155 1 16.696 1 14.9v-2.77a3.27 3.27 0 0 1 2.56-3.177C3.782 4.534 7.477 1 12.006 1"/></svg>