<svg xmlns="http://www.w3.org/2000/svg" fill="currentColor" viewBox="0 0 24 24"><path fill="currentColor" d="M9.374 4.009a.99.99 0 0 1 .97.459c.101.16.155.347.156.537v2.607a.27.27 0 0 0 .08.181.28.28 0 0 0 .18.071c1.73-.06 5.86.121 8.86 2.819 2.24 2.01 3.38 4.99 3.38 8.82a.51.51 0 0 1-.38.482.496.496 0 0 1-.56-.25c-3.23-6.102-9.45-5.345-11.36-4.94a.26.26 0 0 0-.2.252v3.092a1.02 1.02 0 0 1-.575.916.99.99 0 0 1-1.065-.139L1.35 12.22a1.01 1.01 0 0 1-.35-.77 1.02 1.02 0 0 1 .36-.777l7.5-6.436a1 1 0 0 1 .514-.228"/></svg>