<svg xmlns="http://www.w3.org/2000/svg" fill="currentColor" viewBox="0 0 24 24"><path fill="currentColor" d="M19.452 9.264a.69.69 0 0 1 .548.674V12a7.57 7.57 0 0 1-2.209 5.348 7.53 7.53 0 0 1-5.106 2.21v2.755a.686.686 0 1 1-1.37 0v-2.754a7.53 7.53 0 0 1-5.106-2.211A7.57 7.57 0 0 1 4 12V9.938a.687.687 0 1 1 1.371 0V12c0 1.64.65 3.215 1.808 4.375a6.16 6.16 0 0 0 4.364 1.813h.914a6.16 6.16 0 0 0 4.364-1.813A6.2 6.2 0 0 0 18.63 12V9.938c0-.38.307-.688.685-.688zM12 1a4.81 4.81 0 0 1 4.806 4.818v6.166A4.81 4.81 0 0 1 12 16.803a4.81 4.81 0 0 1-4.806-4.819V5.818A4.81 4.81 0 0 1 12 1"/></svg>