<svg xmlns="http://www.w3.org/2000/svg" fill="currentColor" viewBox="0 0 24 24"><path fill="currentColor" d="M5.217 8.82a.71.71 0 0 1 .552.696v2.423a6.33 6.33 0 0 0 1.88 4.357 6.02 6.02 0 0 0 4.337 1.736H12a6.4 6.4 0 0 0 2.611-.565c.35-.157.76.006.913.365a.717.717 0 0 1-.355.934 7.7 7.7 0 0 1-2.476.654v2.87c0 .392-.31.71-.692.71a.7.7 0 0 1-.693-.71v-2.86a7.4 7.4 0 0 1-4.615-2.11 7.77 7.77 0 0 1-2.307-5.357V9.516c0-.392.31-.71.692-.71zM12 .35a4.83 4.83 0 0 1 4.486 2.97c.25.586.37 1.21.37 1.843v5.5c.082 1.191-.26 2.392-.915 3.419l1.034 1.072c.323-.412.61-.843.813-1.32a5.6 5.6 0 0 0 .452-2.19V9.287c0-.376.314-.688.692-.688l.138.014a.696.696 0 0 1 .555.674v2.355a7.1 7.1 0 0 1-1.67 4.528l2.851 2.953-.01-.01a.68.68 0 0 1-.018.971.69.69 0 0 1-.978-.017L7.357 7.188 3.194 2.889a.68.68 0 0 1 .018-.971.69.69 0 0 1 .978.018l2.973 3.089a4.9 4.9 0 0 1 .35-1.695 4.8 4.8 0 0 1 1.053-1.57A4.8 4.8 0 0 1 10.144.716C10.734.47 11.381.368 12 .35m-4.014 9.89a.71.71 0 0 1 .553.695c0 1.21.24 2.05.567 2.634.325.58.758.95 1.207 1.19.927.492 1.932.433 2.127.41a.697.697 0 0 1 .765.627.706.706 0 0 1-.611.784c-.305.034-1.635.12-2.918-.562a4.34 4.34 0 0 1-1.771-1.742c-.47-.841-.751-1.936-.751-3.34a.7.7 0 0 1 .692-.71z"/></svg>