<svg xmlns="http://www.w3.org/2000/svg" fill="currentColor" viewBox="0 0 24 24"><path fill="currentColor" d="M5.499 1.04c1.644-.31 2.62 1.242 3.269 2.263l.09.15c.647 1.012 1.464 2.293 1.106 3.755-.19.791-.758 1.252-1.216 1.613-.08.07-.16.13-.24.2-.119.11-.259.21-.408.32-.28.21-.598.451-.658.651-.199.701.379 1.611.598 1.962A13.9 13.9 0 0 0 11 15.31c.438.36 1.176.971 1.725.861.368-.07.628-.34 1.026-.78.468-.51 1.056-1.153 2.043-1.303 1.545-.24 2.592.702 3.36 1.383l.528.46c.797.66 1.883 1.573 1.794 2.904-.07.891-.689 1.422-1.137 1.813l-.09.08c-.14.12-.279.25-.408.38-.289.27-.588.56-.927.78-1.116.732-2.442 1.102-3.947 1.102l.01.011h-.3c-1.644-.05-2.93-.63-3.976-1.181-2.342-1.252-4.106-3.075-5.391-4.517-1.814-2.043-3.09-4.116-3.789-6.148C.515 8.19.984 5.075 2.768 3.032c.239-.27.548-.53.857-.79l.448-.381c.349-.31.778-.7 1.426-.82m10.349.063a.675.675 0 0 1 .9.168c.2.28.119.66-.179.847l-1.894 1.196 3.796-.001.234.004C21.11 3.403 23 4.732 23 7.368c0 1.778-1.5 3.722-4.8 3.722H17c-.358 0-.648-.274-.648-.611s.29-.61.648-.61h1.2c3.3 0 3.502-1.723 3.502-2.5 0-2.223-1.44-2.835-3.244-2.835h-3.847l2 1.486c.28.209.33.593.108.858a.677.677 0 0 1-.912.102l-3.56-2.644a.6.6 0 0 1-.246-.504.6.6 0 0 1 .287-.484z"/></svg>