<svg xmlns="http://www.w3.org/2000/svg" fill="currentColor" viewBox="0 0 24 24"><path fill="currentColor" d="M6.846 1C8.118 1 8.934 2.254 9.55 3.197l.107.156c.646.994 1.463 2.227 1.124 3.585-.17.694-.69 1.099-1.156 1.461l-.265.217c-.117.104-.265.208-.413.322-.36.269-.742.549-.838.88-.255.891.424 1.948.679 2.342a15.3 15.3 0 0 0 3.233 3.566c.678.549 1.463 1.108 2.163.973.53-.103.891-.487 1.305-.922.477-.507 1.028-1.088 1.94-1.222 1.453-.218 2.439.642 3.255 1.346l.563.477h-.011c.827.663 1.845 1.503 1.76 2.674-.063.767-.626 1.233-1.081 1.616l-.096.083c-.127.114-.255.228-.445.404-.287.27-.594.55-.933.767-1.113.715-2.46 1.078-3.977 1.078h-.297c-1.664-.052-2.98-.622-4.05-1.182-2.428-1.264-4.274-3.119-5.62-4.59-1.888-2.083-3.224-4.177-3.955-6.239-1.04-2.932-.562-6 1.272-8.02.223-.249.541-.508.86-.767l.497-.415c.34-.3.743-.652 1.315-.756A2 2 0 0 1 6.846 1"/></svg>