<svg xmlns="http://www.w3.org/2000/svg" fill="currentColor" viewBox="0 0 24 24"><path fill="currentColor" d="M21.386 1.762a.98.98 0 0 1 1.339 0v.01c.37.352.37.923 0 1.277L2.622 22.237a1 1 0 0 1-1.348 0 .874.874 0 0 1 0-1.277l4.708-4.494c-1.442-1.658-2.505-3.334-3.103-4.983-.977-2.672-.522-5.48 1.177-7.329.227-.235.522-.472.806-.698l.437-.362.02-.016c.328-.278.732-.62 1.337-.727 1.557-.28 2.497 1.114 3.114 2.038l.094.136c.617.915 1.395 2.075 1.054 3.398-.19.715-.72 1.123-1.157 1.458H9.76l-.114.09-.114.091a6 6 0 0 1-.245.185l-.144.105c-.266.19-.57.408-.626.59-.19.642.36 1.466.569 1.775q.268.394.55.761zM16.47 14.174c1.46-.215 2.442.612 3.17 1.226l.028.025.503.407h-.009c.76.598 1.803 1.422 1.708 2.627-.056.791-.646 1.28-1.072 1.633l-.01.006-.085.074-.137.119q-.13.11-.252.224l-.075.067c-.252.225-.515.46-.808.64-1.063.662-2.325.996-3.758.996h-.275c-1.566-.045-2.791-.56-3.788-1.068-1.015-.516-1.983-1.169-2.96-1.993a.66.66 0 0 1-.238-.49.65.65 0 0 1 .21-.498l2.713-2.555a.75.75 0 0 1 .93-.054c.56.39.978.562 1.282.498.35-.072.598-.317.977-.707.446-.462 1.007-1.042 1.946-1.177"/></svg>