<svg xmlns="http://www.w3.org/2000/svg" fill="currentColor" viewBox="0 0 24 24"><path fill="currentColor" d="M5.499 1.04c1.638-.308 2.613 1.23 3.26 2.25l.009.013.09.15c.647 1.012 1.465 2.294 1.106 3.756-.19.79-.758 1.252-1.216 1.612q-.06.052-.12.1l-.12.1c-.107.1-.232.19-.364.288l-.044.033c-.28.21-.598.45-.658.65-.196.693.365 1.59.59 1.95l.008.013A13.9 13.9 0 0 0 11 15.309l.01.01c.44.36 1.17.96 1.715.852.368-.07.628-.34 1.026-.78.468-.511 1.056-1.153 2.043-1.303 1.533-.239 2.575.686 3.34 1.366l.02.016.528.46c.797.661 1.883 1.573 1.794 2.905-.07.883-.678 1.412-1.125 1.802l-.012.01-.09.08c-.14.12-.279.251-.408.381l-.08.073c-.264.249-.539.507-.847.707-1.116.731-2.442 1.102-3.947 1.102l.01.01h-.3c-1.644-.05-2.93-.63-3.976-1.18-2.342-1.253-4.106-3.076-5.391-4.518-1.814-2.042-3.09-4.115-3.789-6.148C.515 8.19.984 5.076 2.768 3.033c.239-.27.548-.53.857-.791l.448-.38.02-.018c.346-.308.77-.685 1.406-.803m7.335.21C18.445 1.26 23 5.828 23 11.466c0 .45-.369.82-.817.82a.824.824 0 0 1-.818-.82c-.01-4.737-3.827-8.582-8.54-8.582a.823.823 0 0 1-.818-.822c0-.45.369-.82.817-.82zm0 3.265c3.807 0 6.907 3.105 6.907 6.94 0 .45-.369.82-.817.82a.823.823 0 0 1-.818-.82c0-2.924-2.362-5.308-5.282-5.308l.01.01a.823.823 0 0 1-.817-.821c0-.45.369-.82.817-.82"/></svg>