<svg xmlns="http://www.w3.org/2000/svg" fill="currentColor" viewBox="0 0 24 24"><path fill="currentColor" d="M20.25 10.792c.183 0 .357.072.486.2l2.063 2.063a.69.69 0 0 1 .149.75.69.69 0 0 1-.635.424v.001h-1.38a9.167 9.167 0 0 1-15.764 4.05.917.917 0 0 1 1.366-1.222 7.334 7.334 0 0 0 12.504-2.829h-.85a.689.689 0 0 1-.487-1.174l2.062-2.062a.7.7 0 0 1 .487-.201M12 9.418a2.751 2.751 0 1 1 .002 5.502A2.751 2.751 0 0 1 12 9.418M8.728 3.604a9.17 9.17 0 0 1 10.104 2.45.919.919 0 0 1-.73 1.545.92.92 0 0 1-.636-.322 7.335 7.335 0 0 0-12.503 2.828h.85a.688.688 0 0 1 .673.821.7.7 0 0 1-.188.352l-2.063 2.063a.687.687 0 0 1-.972 0l-2.062-2.063a.688.688 0 0 1 .486-1.173h1.381a9.17 9.17 0 0 1 5.66-6.5"/></svg>