<svg xmlns="http://www.w3.org/2000/svg" fill="currentColor" viewBox="0 0 24 24"><path fill="currentColor" d="M1.702 5c.388 0 .702.314.702.702V18.81a.702.702 0 0 1-1.404 0V5.702C1 5.314 1.314 5 1.702 5m20.596 0c.388 0 .702.314.702.702V18.81a.702.702 0 0 1-1.404 0V5.702c0-.388.314-.702.702-.702m-7.77.937a4.897 4.897 0 0 1 4.914 4.914 4.897 4.897 0 0 1-4.901 4.915l-4.107.15 2.05 1.373a.702.702 0 1 1-.78 1.167l-3.852-2.58a.702.702 0 0 1-.044-1.135l3.851-3.037a.702.702 0 1 1 .87 1.103l-2.164 1.706 4.137-.15.025-.002a3.493 3.493 0 0 0 3.511-3.51 3.49 3.49 0 0 0-3.328-3.506l-.183-.004H5.166a.703.703 0 0 1 0-1.404z"/></svg>