<svg xmlns="http://www.w3.org/2000/svg" width="24" height="24" fill="none" viewBox="0 0 24 24"><g clip-path="url(#a)"><path fill="currentColor" d="M7.875 23a6.94 6.94 0 0 1-4.864-1.968 6.63 6.63 0 0 1 0-9.513l8.266-8.092c1.838-1.859 4.884-1.908 6.793-.11a4.65 4.65 0 0 1 .122 6.66L9.814 18.18c-.538.507-1.259.795-1.97.765a2.75 2.75 0 0 1-1.93-.825 2.636 2.636 0 0 1 0-3.737l8.277-8.102a.7.7 0 0 1 .975 0 .674.674 0 0 1 0 .954L6.9 15.326a1.325 1.325 0 0 0 0 1.859c.254.258.599.407.965.407h.02c.355 0 .7-.129.954-.377l8.358-8.171a3.32 3.32 0 0 0-.082-4.752c-1.36-1.292-3.544-1.253-4.864.08l-8.266 8.091a5.314 5.314 0 0 0 0 7.615c2.143 2.097 5.636 2.097 7.779 0l10.063-9.852a.7.7 0 0 1 .975 0 .674.674 0 0 1 0 .955l-10.063 9.85A6.93 6.93 0 0 1 7.875 23"/></g><defs><clipPath id="a"><path fill="currentColor" d="M0 0h24v24H0z"/></clipPath></defs></svg>