<svg xmlns="http://www.w3.org/2000/svg" width="24" height="24" fill="none" viewBox="0 0 24 24"><g fill="currentColor" fill-rule="evenodd" clip-path="url(#a)" clip-rule="evenodd"><path d="M3.653 2.405a.235.235 0 0 0-.236.234v1.537a.705.705 0 0 1-.709.703A.705.705 0 0 1 2 4.176V2.64C2 1.734 2.74 1 3.653 1h1.115c.391 0 .708.315.708.703a.705.705 0 0 1-.708.702zm3.381-.702c0-.388.317-.703.708-.703h1.971c.391 0 .709.315.709.703a.705.705 0 0 1-.709.702h-1.97a.705.705 0 0 1-.71-.702m5.088 0c0-.388.318-.703.709-.703h1.07c.58 0 1.118.302 1.417.796l.852 1.41a.7.7 0 0 1-.243.964.71.71 0 0 1-.972-.241l-.852-1.41a.24.24 0 0 0-.202-.114h-1.07a.705.705 0 0 1-.708-.702M2.708 7.81c.392 0 .709.314.709.702v3.092a.706.706 0 0 1-.709.703.706.706 0 0 1-.708-.703V8.512c0-.388.317-.702.708-.702m0 7.285c.392 0 .709.315.709.703v1.58c0 .129.105.234.236.234h1.33c.391 0 .708.314.708.702a.705.705 0 0 1-.708.703h-1.33A1.646 1.646 0 0 1 2 17.377v-1.579c0-.388.317-.703.708-.703M7.572 6.24a1.95 1.95 0 0 1 1.374-.564h8.748a1.95 1.95 0 0 1 1.373.564l2.364 2.345c.364.361.569.851.569 1.362v10.477A2.587 2.587 0 0 1 19.403 23H8.946a1.95 1.95 0 0 1-1.374-.565m0 0a1.92 1.92 0 0 1-.57-1.362V7.603c0-.51.206-1 .57-1.362m1.374.84a.53.53 0 0 0-.372.153.52.52 0 0 0-.154.37v13.469a.53.53 0 0 0 .526.522h10.457c.652 0 1.18-.525 1.18-1.171V9.947a.52.52 0 0 0-.154-.369l-2.735-2.497m0 0H8.946z"/></g><defs><clipPath id="a"><path fill="currentColor" d="M0 0h24v24H0z"/></clipPath></defs></svg>