<svg xmlns="http://www.w3.org/2000/svg" width="24" height="24" fill="none" viewBox="0 0 24 24"><g clip-path="url(#a)"><path fill="currentColor" d="M14.106 1a2.106 2.106 0 0 1 2.107 2.106v1.64h6.085a.702.702 0 0 1 0 1.403h-2.132l-1.128 14.874a2.3 2.3 0 0 1-.46 1.202c-.366.461-.947.771-1.76.771h-9.92a2.08 2.08 0 0 1-1.31-.351c-.505-.354-.833-.95-.896-1.791-.052-.704-.276-3.488-.53-6.653-.224-2.774-.47-5.84-.645-8.052H1.702a.703.703 0 0 1 0-1.404h6.085V3.106A2.106 2.106 0 0 1 9.894 1zM5.561 14.077c.255 3.172.48 5.967.533 6.672.038.515.21.682.3.745.119.084.284.11.432.1l.051-.002h9.94c.421 0 .581-.142.659-.24a.9.9 0 0 0 .164-.452l1.117-14.734H4.927c.174 2.194.415 5.192.634 7.911M9.894 9.66c.387 0 .701.315.702.702v7.022a.702.702 0 0 1-1.405 0V10.36c0-.387.315-.702.703-.702m4.212 0c.388 0 .702.315.703.702v7.022a.702.702 0 0 1-1.405 0V10.36c0-.387.315-.702.702-.702M9.894 2.404a.7.7 0 0 0-.703.702v1.64h5.618v-1.64a.7.7 0 0 0-.703-.702z"/></g><defs><clipPath id="a"><path fill="currentColor" d="M0 0h24v24H0z"/></clipPath></defs></svg>