<svg xmlns="http://www.w3.org/2000/svg" width="24" height="24" fill="none" viewBox="0 0 24 24"><g clip-path="url(#a)"><path fill="currentColor" d="M12 1C5.93 1 1 5.93 1 12s4.93 11 11 11 11-4.93 11-11S18.06 1 12 1M2.4 12a9.5 9.5 0 0 1 .328-2.428H7.07A29 29 0 0 0 6.958 12c0 .831.046 1.634.112 2.419H2.718A9.4 9.4 0 0 1 2.401 12m5.958 0c0-.831.047-1.634.112-2.428h7.06c.065.785.112 1.597.112 2.428s-.047 1.634-.112 2.419H8.48A29 29 0 0 1 8.368 12zm8.563-2.428h4.342A9.4 9.4 0 0 1 21.591 12a9.8 9.8 0 0 1-.317 2.419H16.93c.066-.794.112-1.597.112-2.419s-.046-1.634-.112-2.428zm3.875-1.4h-4.015c-.27-1.98-.738-3.754-1.373-5.136a9.66 9.66 0 0 1 5.388 5.135M13.55 2.54c.85 1.26 1.485 3.268 1.821 5.63H8.629c.336-2.362.962-4.379 1.82-5.63A9.4 9.4 0 0 1 12 2.4a9.4 9.4 0 0 1 1.55.14m-4.958.495C7.966 4.418 7.49 6.192 7.228 8.17H3.204a9.66 9.66 0 0 1 5.388-5.135M3.204 15.819h4.015c.27 1.98.738 3.754 1.373 5.136a9.66 9.66 0 0 1-5.388-5.136m7.255 5.64c-.84-1.242-1.484-3.268-1.82-5.64h6.723c-.337 2.372-.98 4.398-1.821 5.64A9.4 9.4 0 0 1 12 21.6a9.4 9.4 0 0 1-1.54-.14m4.94-.504c.635-1.382 1.102-3.156 1.373-5.136h4.015a9.66 9.66 0 0 1-5.388 5.136"/></g><defs><clipPath id="a"><path fill="currentColor" d="M0 0h24v24H0z"/></clipPath></defs></svg>