<svg xmlns="http://www.w3.org/2000/svg" width="24" height="24" fill="none" viewBox="0 0 24 24"><g clip-path="url(#a)"><path fill="currentColor" d="M7.213 6.5c1.376 0 2.683.667 3.6 1.833.28.35.25.883-.06 1.2a.692.692 0 0 1-1.057-.068C9.068 8.66 8.16 8.197 7.213 8.197H5.847c-1.845 0-3.35 1.71-3.35 3.803s1.505 3.803 3.35 3.803h1.366c.947 0 1.845-.465 2.474-1.268a.692.692 0 0 1 1.056-.068c.31.316.34.849.06 1.2-.917 1.165-2.224 1.833-3.59 1.833H5.847C3.174 17.5 1 15.033 1 12s2.174-5.5 4.847-5.5zm10.94 0C20.826 6.5 23 8.967 23 12s-2.174 5.5-4.847 5.5h-1.366c-1.376 0-2.683-.668-3.6-1.833a.93.93 0 0 1 .06-1.2.693.693 0 0 1 1.057.068c.628.803 1.536 1.268 2.483 1.268h1.366c1.845 0 3.35-1.71 3.35-3.803s-1.505-3.803-3.35-3.803h-1.366c-.947 0-1.845.464-2.473 1.268a.685.685 0 0 1-1.057.068c-.31-.305-.34-.85-.06-1.2.907-1.166 2.224-1.833 3.59-1.833zm-1.366 4.651c.409 0 .748.385.748.849s-.34.848-.748.848H7.213c-.409 0-.747-.384-.747-.848s.338-.848.747-.849z"/></g><defs><clipPath id="a"><path fill="currentColor" d="M0 0h24v24H0z"/></clipPath></defs></svg>