<svg xmlns="http://www.w3.org/2000/svg" width="24" height="24" fill="none" viewBox="0 0 24 24"><path fill="currentColor" d="M11.747 17.72c.415 0 .758.359.758.79v3.7c0 .432-.343.79-.758.79s-.758-.358-.758-.79v-3.7c0-.431.343-.79.758-.79m-3.315.232a.74.74 0 0 1 1.07 0 .817.817 0 0 1 0 1.115l-1.384 1.44a.737.737 0 0 1-1.072 0 .816.816 0 0 1 0-1.113zm5.55 0a.743.743 0 0 1 1.072 0l1.385 1.442a.816.816 0 0 1 0 1.114.736.736 0 0 1-1.072 0l-1.386-1.44a.817.817 0 0 1 0-1.116M5.811 7.016h1.79c.414 0 .758.347.758.789a.773.773 0 0 1-.758.788h-1.83c-1.738-.105-3.174 1.461-3.265 3.438.09 1.904 1.556 3.46 3.224 3.365h1.86c.415 0 .76.348.76.79a.775.775 0 0 1-.76.789H5.58c-2.407 0-4.46-2.178-4.581-4.944.132-2.923 2.265-5.152 4.813-5.015m12.406 0c2.467-.127 4.65 2.092 4.782 4.942-.131 2.85-2.184 5.017-4.61 5.017h-2.012c-.415 0-.758-.348-.758-.79 0-.441.344-.787.758-.787h1.83c1.749.084 3.175-1.463 3.266-3.44-.091-1.903-1.558-3.47-3.226-3.365h-1.86a.77.77 0 0 1-.758-.788c0-.442.343-.79.758-.79zM7.046 3.534a.743.743 0 0 1 1.072 0l1.385 1.44a.817.817 0 0 1 0 1.116.736.736 0 0 1-1.071 0L7.046 4.648a.816.816 0 0 1 0-1.114M11.747 1c.415 0 .758.358.758.79v3.742c0 .431-.343.79-.758.79s-.758-.359-.758-.79V1.79c0-.431.343-.789.758-.789m3.62 2.534a.74.74 0 0 1 1.072 0 .816.816 0 0 1 0 1.114L15.054 6.09a.736.736 0 0 1-1.073 0 .817.817 0 0 1 0-1.115z"/></svg>