<svg xmlns="http://www.w3.org/2000/svg" width="24" height="24" fill="none" viewBox="0 0 24 24"><g clip-path="url(#a)"><path fill="currentColor" d="M12.005 1a4.5 4.5 0 0 1 3.114 1.219 4.1 4.1 0 0 1 1.223 2.206h2.938a2.3 2.3 0 0 1 1.572.61c.422.386.648.919.648 1.48V20.91a2.05 2.05 0 0 1-.648 1.48c-.41.397-.976.61-1.572.61H4.72a2.32 2.32 0 0 1-1.573-.61 2.03 2.03 0 0 1-.647-1.48V6.515c0-.561.236-1.084.647-1.48.411-.397.987-.61 1.573-.61h2.938a4.06 4.06 0 0 1 1.223-2.206A4.54 4.54 0 0 1 12.005 1m2.024 2.234c-1.079-1.015-2.98-1.015-4.058 0a2.64 2.64 0 0 0-.843 1.907c0 .396-.35.725-.77.725H4.72a.7.7 0 0 0-.484.194.65.65 0 0 0-.205.455V20.91c0 .174.072.34.205.455a.76.76 0 0 0 .484.194h14.56c.185 0 .36-.068.484-.194a.65.65 0 0 0 .205-.455V6.515a.6.6 0 0 0-.205-.455.74.74 0 0 0-.484-.194h-3.637c-.422 0-.77-.329-.77-.725a2.65 2.65 0 0 0-.844-1.907m2.333 13.526c.422 0 .77.329.77.725 0 .397-.349.726-.77.726H7.628c-.421 0-.77-.329-.77-.726s.349-.725.77-.725zm0-3.425c.422 0 .77.329.77.725 0 .397-.349.726-.77.726H7.628c-.421 0-.77-.329-.77-.726s.349-.725.77-.725zm0-3.435c.422 0 .77.33.77.726 0 .397-.349.725-.77.726H7.628c-.421 0-.77-.33-.77-.726 0-.397.349-.726.77-.726zm-4.367-6.162c.627 0 1.13.484 1.13 1.065 0 .58-.514 1.063-1.13 1.063v.01c-.627 0-1.13-.484-1.13-1.064s.514-1.064 1.13-1.064z"/></g><defs><clipPath id="a"><path fill="currentColor" d="M0 0h24v24H0z"/></clipPath></defs></svg>