<svg xmlns="http://www.w3.org/2000/svg" width="24" height="24" fill="none" viewBox="0 0 24 24"><g clip-path="url(#a)"><path fill="currentColor" d="M11.532 1c1.596 0 3.094.603 4.223 1.703a5.8 5.8 0 0 1 1.748 4.114v2.611c0 .129-.033.25-.09.358h1.413c1.206 0 2.174.954 2.174 2.129v8.967C21 22.056 20.032 23 18.826 23H5.185C3.979 23 3 22.056 3 20.882v-8.967c0-1.175.98-2.13 2.185-2.13h10.78a.8.8 0 0 1-.091-.357v-2.61c0-1.111-.466-2.2-1.27-2.994a4.4 4.4 0 0 0-3.072-1.237A4.4 4.4 0 0 0 8.46 3.824 4.24 4.24 0 0 0 7.32 5.78a.81.81 0 0 1-.988.571c-.434-.106-.705-.539-.586-.962A5.76 5.76 0 0 1 7.31 2.703 6 6 0 0 1 11.532 1M5.185 11.292a.634.634 0 0 0-.64.623v8.967c0 .34.29.612.64.612h13.641c.35 0 .628-.271.628-.612v-8.967a.625.625 0 0 0-.628-.623zm6.876 2.937c1.138 0 2.06.9 2.06 2.008s-.923 2.008-2.06 2.008-2.06-.9-2.061-2.008.922-2.008 2.06-2.008"/></g><defs><clipPath id="a"><path fill="currentColor" d="M0 0h24v24H0z"/></clipPath></defs></svg>