<svg xmlns="http://www.w3.org/2000/svg" width="24" height="24" fill="none" viewBox="0 0 24 24"><g fill="currentColor" clip-path="url(#a)"><path d="M5.126 9.938c0-.38.307-.688.687-.688h8.25a.687.687 0 0 1 0 1.375h-8.25a.687.687 0 0 1-.687-.687"/><path fill-rule="evenodd" d="M16.824 15.85a9 9 0 0 0 2.166-5.856 8.995 8.995 0 1 0-3.139 6.829l5.975 5.976a.687.687 0 1 0 .973-.973zM9.994 2.375a7.62 7.62 0 1 0 0 15.24 7.62 7.62 0 0 0 0-15.24" clip-rule="evenodd"/></g><defs><clipPath id="a"><path fill="currentColor" d="M0 0h24v24H0z"/></clipPath></defs></svg>