<svg xmlns="http://www.w3.org/2000/svg" width="24" height="24" fill="none" viewBox="0 0 24 24"><g clip-path="url(#a)"><path fill="currentColor" fill-rule="evenodd" d="M7.03 1.21c.13-.13.31-.21.5-.21h8.94c.19 0 .37.08.5.21l5.84 6.04c.12.13.19.3.19.48v8.54c0 .18-.07.35-.19.48l-5.84 6.04c-.13.13-.31.21-.5.21H7.53c-.19 0-.37-.08-.5-.21l-5.84-6.04a.7.7 0 0 1-.19-.48V7.73c0-.18.07-.35.19-.48zM12 17.82c-.82 0-1.49-.67-1.49-1.49s.67-1.49 1.49-1.49 1.49.67 1.49 1.49-.67 1.49-1.49 1.49m1.14-12.14a1.15 1.15 0 0 0-2.3 0v6.65a1.15 1.15 0 0 0 2.3 0z" clip-rule="evenodd"/></g><defs><clipPath id="a"><path fill="currentColor" d="M0 0h24v24H0z"/></clipPath></defs></svg>