<svg xmlns="http://www.w3.org/2000/svg" fill="currentColor" viewBox="0 0 24 24"><path fill="currentColor" d="M16.47 1c.19 0 .37.08.5.21l5.84 6.04c.12.13.19.3.19.48v8.54c0 .18-.07.35-.19.48l-5.84 6.04c-.13.13-.31.21-.5.21H7.53c-.19 0-.37-.08-.5-.21l-5.84-6.04a.7.7 0 0 1-.19-.48V7.73c0-.18.07-.35.19-.48l5.84-6.04c.13-.13.31-.21.5-.21zM12 14.84c-.82 0-1.49.67-1.49 1.49s.67 1.49 1.49 1.49 1.49-.67 1.49-1.49-.67-1.49-1.49-1.49m-.01-10.31c-.64 0-1.15.51-1.15 1.15v6.65a1.15 1.15 0 0 0 2.3 0V5.68c0-.63-.51-1.15-1.15-1.15"/></svg>