<svg xmlns="http://www.w3.org/2000/svg" width="24" height="24" fill="none" viewBox="0 0 24 24"><g clip-path="url(#a)"><path fill="currentColor" fill-rule="evenodd" d="m13.63 3.858 9.047 14.034c.396.607.438 1.392.105 2.04-.344.67-1 1.079-1.729 1.079H2.947a1.94 1.94 0 0 1-1.728-1.078 2.07 2.07 0 0 1 .104-2.041L10.38 3.858A1.94 1.94 0 0 1 12.005 3c.667 0 1.281.314 1.625.858m-1.594 11.773c-.562 0-1.02-.46-1.02-1.025V7.144c0-.565.458-1.025 1.02-1.025s1.02.46 1.02 1.025v7.462c0 .565-.457 1.025-1.02 1.025m0 3.59c-.562 0-1.093-.544-1.093-1.11 0-.564.531-1.098 1.094-1.098.562 0 1.103.534 1.103 1.099s-.541 1.109-1.103 1.109" clip-rule="evenodd"/></g><defs><clipPath id="a"><path fill="currentColor" d="M0 0h24v24H0z"/></clipPath></defs></svg>