<svg xmlns="http://www.w3.org/2000/svg" fill="currentColor" viewBox="0 0 24 24"><path fill="currentColor" d="M12.555 1.014q.238.012.474.035l.059.005q.229.023.455.055l.088.012c1.613.24 3.11.83 4.415 1.69l.065.043q.164.11.324.227l.123.088q.154.116.304.236l.117.092q.836.687 1.523 1.524l.092.116q.121.15.236.304.045.061.088.123.117.16.227.324l.043.065a10.94 10.94 0 0 1 1.765 7.035l-.018.2q-.019.157-.04.313a11 11 0 0 1-.152.857l-.038.163a11 11 0 0 1-.919 2.499l-.035.068a11 11 0 0 1-.895 1.433l-.096.128q-.103.136-.21.269l-.096.118a11 11 0 0 1-.29.334l-.081.088a11 11 0 0 1-.987.944l-.116.099q-.177.144-.359.281l-.137.1a11 11 0 0 1-1.868 1.101q-.046.022-.093.042-.695.315-1.437.533l-.087.024a11 11 0 0 1-1.729.342l-.183.021q-.243.024-.486.037l-.097.004q-.214.01-.428.011L12 23l-.053-.002q-.255 0-.51-.013l-.025-.002a11 11 0 0 1-1.848-.257l-.16-.037a11 11 0 0 1-.323-.084l-.052-.014q-.755-.212-1.464-.525l-.088-.04a11 11 0 0 1-.881-.447q-.102-.057-.201-.115-.105-.061-.207-.126l-.186-.12q-.107-.068-.212-.139-.176-.12-.348-.248l-.113-.087a11 11 0 0 1-.623-.513l-.16-.142a11 11 0 0 1-.636-.637q-.072-.079-.142-.159a12 12 0 0 1-.513-.623l-.087-.113q-.128-.172-.248-.348-.071-.105-.14-.212l-.119-.186-.126-.206q-.059-.1-.115-.202-.243-.43-.447-.88l-.04-.09a11 11 0 0 1-.622-1.837l-.038-.161a11 11 0 0 1-.272-2.383L1 12l.002-.077q.001-.214.01-.428l.005-.097q.012-.243.037-.486l.021-.184a11 11 0 0 1 .114-.756q.093-.495.228-.972l.017-.06.06-.211q.203-.645.48-1.253l.042-.093a11 11 0 0 1 1.1-1.868l.1-.137q.138-.182.282-.358.049-.06.099-.117a11 11 0 0 1 .944-.987l.088-.081q.164-.149.334-.29l.118-.096q.132-.107.269-.21.063-.049.128-.096.129-.095.26-.185l.144-.1.007-.004q.172-.116.348-.224.107-.065.216-.128.095-.056.192-.11.132-.074.266-.144l.068-.035c.783-.403 1.62-.713 2.499-.92l.163-.037a11 11 0 0 1 1.17-.192l.2-.018a11 11 0 0 1 1.544-.032M6.5 9.938c-1.135 0-1.145 1.123-1.146 1.145v1.834c0 1.146 1.146 1.146 1.146 1.146h11c1.134 0 1.145-1.124 1.145-1.146v-1.834c0-1.138-1.13-1.145-1.145-1.146z"/></svg>