<svg xmlns="http://www.w3.org/2000/svg" width="24" height="24" fill="none" viewBox="0 0 24 24"><g clip-path="url(#a)"><path fill="currentColor" fill-rule="evenodd" d="M2 12c0 5.501 4.488 9.989 10 9.989V22c5.512 0 10-4.488 10-10S17.512 2 12 2 2 6.499 2 12m10.03-2.938a1.03 1.03 0 1 0-.001-2.06 1.03 1.03 0 0 0 .001 2.06M14.25 17h-.6c-1.3 0-2.36-1.061-2.36-2.362v-3.814c0-.41.34-.75.75-.75s.75.34.75.75v3.814c0 .48.39.86.86.86h.6c.41 0 .75.34.75.751 0 .41-.34.751-.75.751" clip-rule="evenodd"/></g><defs><clipPath id="a"><path fill="currentColor" d="M0 0h24v24H0z"/></clipPath></defs></svg>