<svg xmlns="http://www.w3.org/2000/svg" width="24" height="24" fill="none" viewBox="0 0 24 24"><g clip-path="url(#a)"><path fill="currentColor" fill-rule="evenodd" d="M2 12.006C2 6.49 6.49 2 12.006 2 17.51 2 22.01 6.49 22.01 12.006c0 5.515-4.49 10.005-10.005 10.005S2 17.521 2 12.006m8.97 2.507 4.478-6.663.023-.012a.84.84 0 0 1 1.159-.222c.378.256.479.78.222 1.158l-4.858 7.232c-.2.3-.512.479-.858.512h-.089a1.14 1.14 0 0 1-.835-.368l-2.964-3.22a.82.82 0 0 1 .044-1.18.84.84 0 0 1 1.181.044z" clip-rule="evenodd"/></g><defs><clipPath id="a"><path fill="currentColor" d="M0 0h24v24H0z"/></clipPath></defs></svg>