<svg xmlns="http://www.w3.org/2000/svg" fill="currentColor" viewBox="0 0 24 24"><path fill="currentColor" d="M12 2c5.523 0 10 4.477 10 10s-4.477 10-10 10S2 17.523 2 12 6.477 2 12 2m0 14.477c-.612 0-1.102.49-1.102 1.102s.5 1.102 1.102 1.103c.613 0 1.102-.49 1.102-1.103 0-.612-.49-1.102-1.102-1.102m0-11.17a3.483 3.483 0 0 0-3.485 3.486c0 .456.378.835.835.835a.84.84 0 0 0 .835-.835c0-.869.69-1.815 1.815-1.815.869 0 1.815.69 1.815 1.815 0 .869-.69 1.815-1.815 1.815a.84.84 0 0 0-.835.835v2.617c0 .457.379.835.835.835a.84.84 0 0 0 .835-.835v-1.882A3.487 3.487 0 0 0 12 5.308"/></svg>