<svg xmlns="http://www.w3.org/2000/svg" width="24" height="24" fill="none" viewBox="0 0 24 24"><g clip-path="url(#a)"><path fill="currentColor" d="M12 2C6.488 2 2 6.488 2 12s4.488 10 10 10 10-4.488 10-10S17.501 2 12 2m0 16.682c-.601 0-1.102-.49-1.102-1.103 0-.612.49-1.102 1.102-1.102s1.102.49 1.102 1.102-.49 1.102-1.102 1.102m.835-6.504v1.882a.84.84 0 0 1-.835.835.84.84 0 0 1-.835-.835v-2.617c0-.456.378-.835.835-.835 1.125 0 1.815-.947 1.815-1.815 0-1.125-.946-1.815-1.815-1.815-1.125 0-1.815.946-1.815 1.815a.84.84 0 0 1-.835.835.84.84 0 0 1-.836-.835A3.484 3.484 0 0 1 12 5.307a3.487 3.487 0 0 1 .835 6.87"/></g><defs><clipPath id="a"><path fill="currentColor" d="M0 0h24v24H0z"/></clipPath></defs></svg>