<svg xmlns="http://www.w3.org/2000/svg" fill="currentColor" viewBox="0 0 24 24"><path fill="currentColor" d="M12.006 3c.666 0 1.28.314 1.624.858l9.048 14.034c.395.607.436 1.392.103 2.04-.343.67-.999 1.079-1.727 1.079H2.947a1.94 1.94 0 0 1-1.728-1.078 2.07 2.07 0 0 1 .104-2.041l9.058-14.034A1.94 1.94 0 0 1 12.006 3m.031 14.013c-.562 0-1.094.533-1.094 1.098s.532 1.11 1.094 1.11 1.104-.545 1.104-1.11c0-.564-.542-1.098-1.104-1.098m0-10.895c-.563 0-1.02.462-1.02 1.027v7.46c0 .565.457 1.027 1.02 1.027.561 0 1.02-.461 1.02-1.027v-7.46c0-.566-.459-1.027-1.02-1.027"/></svg>