<svg xmlns="http://www.w3.org/2000/svg" width="24" height="24" fill="none" viewBox="0 0 24 24"><g fill="currentColor" clip-path="url(#a)"><path d="M6.953 13.615c.436-.17.935-.03 1.205.34l1.35 2.034c.55.778.27 1.725.083 2.653L8.438 23v-.01H4.337C3.039 22.99 2 21.973 2 20.716c0-2.234.976-4.239 2.544-5.645a7 7 0 0 1 1.153-.847c.301-.19.82-.42 1.256-.609m8.889.339c.27-.369.768-.508 1.204-.339.436.19.956.42 1.257.609.405.239.8.528 1.152.847C21.023 16.477 22 18.482 22 20.716c0 1.256-1.039 2.274-2.337 2.274h-4.101V23l-1.154-4.358c-.187-.928-.467-1.875.083-2.653zm-3.208-.548-.312.09 1.776 7.549c.072.309-.062.629-.353.828l-1.391.997a.63.63 0 0 1-.717 0l-1.392-.997c-.29-.21-.426-.529-.353-.838l1.774-7.543-.31-.086-.156-.578h1.59zM12 1c3.132 0 5.67 2.438 5.67 5.445s-2.54 5.446-5.67 5.446-5.67-2.438-5.67-5.446S8.87 1 12 1"/></g><defs><clipPath id="a"><path fill="currentColor" d="M0 0h24v24H0z"/></clipPath></defs></svg>