<svg xmlns="http://www.w3.org/2000/svg" fill="currentColor" viewBox="0 0 24 24"><path fill="currentColor" d="M19.56 7.08c1.92 0 3.44 1.45 3.44 3.37v9.18c0 1.83-1.61 3.37-3.44 3.37H4.44C2.52 23 1 21.55 1 19.63v-9.18c0-1.92 1.52-3.37 3.44-3.37zm-7.6 8.87c-2.25 0-4.13 1.69-4.36 3.92h-.01c-.03.25.18.46.44.46h7.85c.25 0 .46-.21.44-.46a4.357 4.357 0 0 0-4.36-3.92m-.01-6.4c-1.4.03-2.51 1.18-2.48 2.58a2.527 2.527 0 0 0 2.48 2.48c1.4 0 2.53-1.13 2.53-2.53s-1.13-2.53-2.53-2.53m8.37-5.58c.51 0 .92.41.92.92s-.41.92-.92.92H3.59c-.51 0-.92-.41-.92-.92s.41-.92.92-.92zM17.69 1c.51 0 .92.41.92.92s-.41.92-.92.92H6.21c-.51 0-.92-.41-.92-.92S5.7 1 6.21 1z"/></svg>