<svg xmlns="http://www.w3.org/2000/svg" width="24" height="24" fill="none" viewBox="0 0 24 24"><g clip-path="url(#a)"><path fill="currentColor" d="M15.183 3c1.163.058 2.038.993 1.988 2.082v5.754h-2.943a2.13 2.13 0 0 0 .337-1.147 2.15 2.15 0 0 0-.655-1.533 2.23 2.23 0 0 0-1.58-.635 2.3 2.3 0 0 0-1.582.635l-3.42 3.317a2.2 2.2 0 0 0-.486.703 2.14 2.14 0 0 0 0 1.668c.11.27.278.5.486.703l3.41 3.305a2.23 2.23 0 0 0 1.581.637c.597 0 1.153-.232 1.58-.637a2.1 2.1 0 0 0 .657-1.532c0-.414-.12-.809-.338-1.146h2.942v5.783c.05 1.05-.825 1.985-1.948 2.043H3.988C2.825 22.942 1.95 22.007 2 20.918V5.043C1.95 3.993 2.825 3.058 3.948 3zm-3.391 6.179a.767.767 0 0 1 1.054 0 .71.71 0 0 1 0 1.021l-2.148 2.082h12.556c.407 0 .746.328.746.723s-.338.722-.746.722H10.698l2.148 2.083a.71.71 0 0 1 0 1.021.75.75 0 0 1-.528.212.75.75 0 0 1-.526-.212l-3.42-3.315a.8.8 0 0 1-.16-.232.67.67 0 0 1 0-.558.6.6 0 0 1 .16-.232z"/></g><defs><clipPath id="a"><path fill="currentColor" d="M0 0h24v24H0z"/></clipPath></defs></svg>