<svg xmlns="http://www.w3.org/2000/svg" width="24" height="24" fill="none" viewBox="0 0 24 24"><g clip-path="url(#a)"><path fill="currentColor" d="M14.173 2c1.163.058 2.038.993 1.988 2.082v5.754h-8.26c-1.233 0-2.237.974-2.237 2.169s1.004 2.169 2.236 2.169h8.261v5.783c.05 1.05-.825 1.985-1.948 2.043H2.99c-1.163-.058-2.038-.993-1.988-2.082V4.043C.952 2.993 1.827 2.058 2.95 2zm4.136 6.179a.767.767 0 0 1 1.053 0l3.42 3.315a.6.6 0 0 1 .158.232.67.67 0 0 1 0 .558.8.8 0 0 1-.159.232l-3.419 3.315a.75.75 0 0 1-.527.212.75.75 0 0 1-.526-.212.71.71 0 0 1 0-1.021l2.146-2.083H7.9a.74.74 0 0 1-.745-.722.74.74 0 0 1 .745-.723h12.555L18.31 9.2a.71.71 0 0 1 0-1.021"/></g><defs><clipPath id="a"><path fill="currentColor" d="M0 0h24v24H0z"/></clipPath></defs></svg>