<svg xmlns="http://www.w3.org/2000/svg" fill="currentColor" viewBox="0 0 24 24"><path fill="currentColor" d="M21.166 3C22.178 3 23 3.84 23 4.896v14.209C23 20.15 22.178 21 21.166 21H2.834C1.812 21 1 20.15 1 19.105V4.895C1 3.84 1.812 3 2.834 3zM3.286 4.885a.38.38 0 0 0-.321.145.44.44 0 0 0-.14.331v13.267c0 .259.2.477.46.477h17.42a.2.2 0 0 0 .067-.011q.025-.009.053-.01a.49.49 0 0 0 .341-.456V5.36a.47.47 0 0 0-.37-.466l-.09-.01zM9.658 6.12c1.544.08 2.767 1.395 2.767 3.01a5.38 5.38 0 0 1-1.093 3.667c-.03.165-.03.342 0 .508 1.874.704 2.957 1.253 3.398 2.195.23.497.391 1.015.461 1.554l.02-.011a.58.58 0 0 1-.14.538.61.61 0 0 1-.49.25H4.366a.63.63 0 0 1-.44-.28.66.66 0 0 1-.14-.54c.08-.527.24-1.035.46-1.511.441-.942 1.524-1.491 3.488-2.258-.09-.052-.09-.383-.09-.508a5.3 5.3 0 0 1-1.052-3.603c0-1.668 1.303-3.015 2.917-3.015zm9.462 4.678c.381 0 .692.321.692.715s-.311.715-.692.715h-4.38a.705.705 0 0 1-.691-.715c0-.394.31-.715.691-.715zm.201-2.838c.38 0 .692.321.692.715s-.311.713-.692.714h-4.58a.705.705 0 0 1-.692-.714c0-.394.31-.715.691-.715z"/></svg>