<svg xmlns="http://www.w3.org/2000/svg" fill="currentColor" viewBox="0 0 24 24"><path fill="currentColor" d="M12.146 18.038a6.25 6.25 0 0 1 5.347 3.281.6.6 0 0 1 .046.212.47.47 0 0 1-.469.469H6.778a.43.43 0 0 1-.212-.056h-.008a.47.47 0 0 1-.184-.625 6.23 6.23 0 0 1 5.555-3.282zm-.217-9.132a4.212 4.212 0 1 1 0 8.423h-.019c-2.318 0-4.193-1.886-4.193-4.212a4.21 4.21 0 0 1 4.212-4.21m-8.885 1.342a1.663 1.663 0 0 1 2.17.92h1.794l.128.013a.62.62 0 0 1 .498.612.62.62 0 0 1-.626.625H5.215a1.64 1.64 0 0 1-.92.92 1.663 1.663 0 0 1-2.171-.92c-.35-.855.065-1.82.92-2.17m17.291-.138a1.664 1.664 0 1 1 0 3.33 1.68 1.68 0 0 1-1.545-1.022h-1.794a.62.62 0 0 1-.625-.625.62.62 0 0 1 .625-.625h1.794a1.675 1.675 0 0 1 1.545-1.066zm-3.541-5.268a1.67 1.67 0 0 1 2.354.017v-.008a1.664 1.664 0 0 1-1.177 2.85c-.23 0-.45-.046-.653-.129l-1.27 1.27a.62.62 0 0 1-.882 0 .633.633 0 0 1 0-.883l1.27-1.27a1.67 1.67 0 0 1 .358-1.847m-12.288.542a1.673 1.673 0 0 1 2.19-.883 1.67 1.67 0 0 1 .882 2.188l1.27 1.27v-.01l.078.097a.636.636 0 0 1-.078.786.66.66 0 0 1-.442.185.62.62 0 0 1-.441-.185l-1.27-1.269a1.8 1.8 0 0 1-.653.13 1.67 1.67 0 0 1-1.187-.488 1.65 1.65 0 0 1-.35-1.821M12.012 2c.92.01 1.664.754 1.664 1.674l-.009-.01c0 .68-.414 1.287-1.04 1.545v1.793a.62.62 0 0 1-.625.626.62.62 0 0 1-.625-.626V5.209a1.66 1.66 0 0 1-1.04-1.545c.01-.92.755-1.673 1.675-1.664"/></svg>