<svg xmlns="http://www.w3.org/2000/svg" fill="currentColor" viewBox="0 0 24 24"><path fill="currentColor" d="M14.93 13.204c.36-.2.78-.25 1.17-.15 3.39.89 5.9 3.96 5.9 7.62 0 1.29-1.05 2.33-2.34 2.33H4.34c-1.29 0-2.34-1.04-2.34-2.33 0-3.66 2.5-6.74 5.9-7.62.4-.1.81-.04 1.17.15.87.47 1.87.74 2.93.74s2.06-.26 2.93-.74m1.59-5.83c.09 2.34-1.61 4.41-3.98 4.69-2.38.29-4.53-1.33-4.98-3.64zm-5.47-6.27c.12-.13.32-.14.45-.02l2.14 2.44c0 .01.02.03.02.03.12.12.33.12.45-.01l1.68-1.65c.06-.03.12-.05.19-.05.18.01.31.16.31.34l-.06 3.71-8.72 1.02-.9-3.58a.28.28 0 0 1 0-.2c.06-.17.25-.25.42-.19l2.01 1.19c.01.01.02.02.03.02.16.08.35.02.43-.14l1.52-2.87c.01-.02.02-.03.03-.04"/></svg>