<svg xmlns="http://www.w3.org/2000/svg" fill="currentColor" viewBox="0 0 24 24"><path fill="currentColor" d="M14.945 13.415a1.6 1.6 0 0 1 1.164-.142h-.01C19.495 14.14 22 17.15 22 20.725 22 21.983 20.951 23 19.662 23H4.338C3.048 23 2 21.983 2 20.725c0-3.585 2.516-6.586 5.912-7.452.388-.1.807-.05 1.163.142.87.463 1.867.725 2.936.725a6.2 6.2 0 0 0 2.934-.725M12.021 1c3.135 0 5.671 2.437 5.671 5.447s-2.536 5.448-5.67 5.448S6.35 9.458 6.35 6.447C6.35 3.437 8.887 1 12.02 1m-.272 4.4c-1.363-.362-3.26-.332-4.256-.181-.126.03-.125.533-.031.563a.7.7 0 0 1 .283.273c.004.01.067.2.22.836.146.651.552.773.556.774s.485.121 1.047.121c.566 0 .913-.03 1.28-.21.373-.18.52-.646.523-.656.005-.01.19-.417.314-.805.021-.12.65-.12.682 0 .113.375.296.788.304.805.003.01.161.476.524.655.367.181.713.211 1.269.211.553 0 1.053-.12 1.059-.121.005-.001.399-.095.555-.774.154-.672.208-.821.21-.827a.7.7 0 0 1 .282-.271h.022c.126-.04.126-.574 0-.574-.985-.151-2.893-.171-4.256.181z"/></svg>