<svg xmlns="http://www.w3.org/2000/svg" width="24" height="24" fill="none" viewBox="0 0 24 24"><g fill="currentColor" clip-path="url(#a)"><path d="M14.93 12.198a1.6 1.6 0 0 1 1.17-.148c3.39.884 5.9 3.952 5.9 7.616C22 20.956 20.95 22 19.66 22H4.34A2.337 2.337 0 0 1 2 19.666c0-3.654 2.5-6.732 5.9-7.616.4-.1.81-.04 1.17.148a6.1 6.1 0 0 0 2.93.745 6.1 6.1 0 0 0 2.93-.745M12 2a4.546 4.546 0 1 1 0 9.092A4.546 4.546 0 0 1 12 2"/></g><defs><clipPath id="a"><path fill="currentColor" d="M0 0h24v24H0z"/></clipPath></defs></svg>