<svg width="24" height="24" viewBox="0 0 24 24" fill="none" xmlns="http://www.w3.org/2000/svg">
<g clip-path="url(#clip0_92_780)">
<path d="M14.9297 12.1982C15.2896 11.9997 15.7097 11.9506 16.0996 12.0498C19.4895 12.9336 21.9999 16.0018 22 19.666C22 20.9569 20.9501 21.9999 19.6602 22H4.33984C3.04992 21.9999 2 20.9569 2 19.666C2.00015 16.0117 4.50049 12.9336 7.90039 12.0498C8.30029 11.9506 8.71041 12.0096 9.07031 12.1982C9.94029 12.6749 10.94 12.9434 12 12.9434C13.06 12.9434 14.0597 12.6749 14.9297 12.1982Z" fill="#1D1B20"/>
<path d="M12 2C14.5104 2 16.5459 4.03551 16.5459 6.5459C16.5457 9.05608 14.5102 11.0908 12 11.0908C9.48978 11.0908 7.45532 9.05607 7.45508 6.5459C7.45508 4.03553 9.48963 2.00002 12 2Z" fill="#1D1B20"/>
</g>
<defs>
<clipPath id="clip0_92_780">
<rect width="24" height="24" fill="white"/>
</clipPath>
</defs>
</svg>
