<svg xmlns="http://www.w3.org/2000/svg" fill="currentColor" viewBox="0 0 24 24"><path fill="currentColor" d="M10.27 18.845a5.28 5.28 0 0 1 4.056.232 5.25 5.25 0 0 1 2.698 3.044.66.66 0 0 1-.614.879H7.623a.68.68 0 0 1-.533-.283.66.66 0 0 1-.081-.596 5.29 5.29 0 0 1 3.262-3.276M4.413 13.04c.362 0 .654.293.654.657v2.538a1.42 1.42 0 0 0 1.42 1.426h.694c.362 0 .654.293.654.657a.655.655 0 0 1-.654.658h-.695a2.743 2.743 0 0 1-2.727-2.74v-2.539c0-.364.292-.657.654-.657m15.21 0c.361 0 .653.293.653.657v2.538a2.743 2.743 0 0 1-2.727 2.74h-.695a.655.655 0 0 1-.655-.657c0-.363.292-.657.654-.657h.696a1.42 1.42 0 0 0 1.419-1.426v-2.538c0-.364.292-.657.654-.657m-7.6-.758c1.61 0 2.918 1.315 2.918 2.943a2.927 2.927 0 0 1-2.918 2.931 2.936 2.936 0 0 1 0-5.874m-7.72-4.721a5.2 5.2 0 0 1 4.046.232 5.3 5.3 0 0 1 2.708 3.044c.07.202.03.424-.091.596a.65.65 0 0 1-.534.273H1.654a.65.65 0 0 1-.533-.273.7.7 0 0 1-.09-.596A5.3 5.3 0 0 1 4.3 7.562m11.907 0a5.24 5.24 0 0 1 4.056.232 5.3 5.3 0 0 1 2.698 3.044.66.66 0 0 1-.081.596.67.67 0 0 1-.533.273H13.56a.65.65 0 0 1-.534-.273.66.66 0 0 1-.08-.596 5.26 5.26 0 0 1 3.261-3.276M6.043 1a2.94 2.94 0 0 1 2.929 2.942 2.936 2.936 0 0 1-2.929 2.932 2.937 2.937 0 0 1-2.93-2.932C3.113 2.325 4.433 1 6.043 1M17.95 1a2.94 2.94 0 0 1 2.929 2.942 2.93 2.93 0 0 1-2.929 2.932 2.92 2.92 0 0 1-2.919-2.932C15.031 2.325 16.34 1 17.951 1"/></svg>