<svg xmlns="http://www.w3.org/2000/svg" width="24" height="24" fill="none" viewBox="0 0 24 24"><g clip-path="url(#a)"><path fill="currentColor" d="M13.91 19.988c-.13 0-.26-.04-.37-.11l-5.43-3.527H6.07c-2.24 0-4.06-1.958-4.06-4.357s1.81-4.357 4.05-4.357H8.1l5.44-3.527c.21-.14.49-.15.71-.02s.36.37.36.64v14.539c0 .26-.14.51-.36.64-.11.06-.22.09-.34.09zm5.4-2.038a.7.7 0 0 1-.48-.2.745.745 0 0 1-.02-1.03c2.4-2.597 2.4-6.824 0-9.412a.745.745 0 0 1 .02-1.03.68.68 0 0 1 .99.02c2.92 3.148 2.92 8.284 0 11.432-.14.15-.32.22-.5.22zm-2.14-2.328a.7.7 0 0 1-.48-.2.745.745 0 0 1-.02-1.03c1.22-1.319 1.22-3.457 0-4.776a.745.745 0 0 1 .02-1.03.68.68 0 0 1 .99.02c1.73 1.87 1.73 4.927 0 6.796-.14.15-.32.22-.5.22z"/></g><defs><clipPath id="a"><path fill="currentColor" d="M0 0h24v24H0z"/></clipPath></defs></svg>