<svg xmlns="http://www.w3.org/2000/svg" width="24" height="24" fill="none" viewBox="0 0 24 24"><g fill="currentColor" clip-path="url(#a)"><path d="M21.35 10.244c.54 0 1.036.277 1.348.726v.011c.291.426.378.979.227 1.486l-2.49 8.335A1.634 1.634 0 0 1 18.86 22H2.983a1.65 1.65 0 0 1-1.347-.726 1.76 1.76 0 0 1-.227-1.484L3.9 11.44c.216-.714.842-1.197 1.575-1.197z"/><path d="M6.831 2.012c.7 0 1.37.357 1.79.956l1.477 2.106h7.966l.229.013c1.131.122 2.013 1.141 2.013 2.383v1.346H4.848c-.852 0-1.595.52-1.865 1.302L1 16.301V4.395C1 3.071 2.003 2 3.242 2.012z"/></g><defs><clipPath id="a"><path fill="currentColor" d="M0 0h24v24H0z"/></clipPath></defs></svg>