<svg xmlns="http://www.w3.org/2000/svg" width="24" height="24" fill="none" viewBox="0 0 24 24"><g fill="currentColor" clip-path="url(#a)"><path d="M22.455 16.413c.3 0 .545.241.545.535v1.781c0 1.803-1.496 3.27-3.335 3.27H4.335C2.496 22 1 20.533 1 18.73v-1.76c0-.294.246-.535.545-.535h1.443c.3 0 .545.24.545.534v1.437c0 .807.268 1.194 1.743 1.194h13.448c1.485 0 1.743-.387 1.743-1.194v-1.447c0-.294.246-.535.545-.535h1.443zM12 3.308c.214 0 .428.095.577.241v.011l4.18 4.098a.8.8 0 0 1 .181.88.83.83 0 0 1-.758.494h-2.267c-.075.02-.15.073-.16.146v5.631c0 .88-.78 1.604-1.753 1.604-.962 0-1.742-.703-1.753-1.573V9.168c-.01-.074-.085-.126-.16-.147H7.82a.815.815 0 0 1-.758-.493.8.8 0 0 1 .181-.88l4.18-4.099A.8.8 0 0 1 12 3.31"/></g><defs><clipPath id="a"><path fill="currentColor" d="M0 0h24v24H0z"/></clipPath></defs></svg>