<svg xmlns="http://www.w3.org/2000/svg" fill="currentColor" viewBox="0 0 24 24"><path fill="currentColor" d="M14.105 20.256a.2.2 0 0 1 .079.042.2.2 0 0 1 .057.067.2.2 0 0 1 .027.086 3 3 0 0 1 0 .257c0 .608-.238 1.191-.66 1.621a2.23 2.23 0 0 1-1.59.671 2.23 2.23 0 0 1-1.591-.67 2.32 2.32 0 0 1-.66-1.622 3 3 0 0 1 0-.257.225.225 0 0 1 .217-.201h4.033a.2.2 0 0 1 .088.006M12 1c.239 0 .468.097.637.269a.93.93 0 0 1 .263.648v1.897a7.18 7.18 0 0 1 4.26 2.604 7.42 7.42 0 0 1 1.59 4.793v4.456c0 .365.142.714.395.972.254.258.597.403.955.403.238 0 .468.097.636.268a.925.925 0 0 1 0 1.296.9.9 0 0 1-.636.269H3.9a.9.9 0 0 1-.636-.269.927.927 0 0 1 0-1.296.9.9 0 0 1 .636-.268c.358 0 .701-.146.954-.403.254-.258.396-.607.396-.972v-4.456a7.42 7.42 0 0 1 1.59-4.793 7.18 7.18 0 0 1 4.26-2.604V1.917c0-.243.095-.477.264-.648A.9.9 0 0 1 12 1"/></svg>