<svg xmlns="http://www.w3.org/2000/svg" fill="currentColor" viewBox="0 0 24 24"><path fill="currentColor" d="M8.05 23h-.009l.005-.001zm2.941-19.5c1.933-1.957 5.149-2.006 7.163-.108a4.86 4.86 0 0 1 1.547 3.478 4.86 4.86 0 0 1-1.425 3.528c-.04.04-.08.09-.131.13l-7.896 7.722a3.17 3.17 0 0 1-2.219.864 3.1 3.1 0 0 1-2.176-.924 2.965 2.965 0 0 1 0-4.204l7.935-7.752a1.144 1.144 0 0 1 1.588 0 1.08 1.08 0 0 1 0 1.551l-7.926 7.741c-.305.308-.305.826.01 1.154a.87.87 0 0 0 1.21.02l7.906-7.732.081-.08a2.72 2.72 0 0 0 .794-1.968 2.7 2.7 0 0 0-.864-1.947 2.88 2.88 0 0 0-2.015-.776 2.84 2.84 0 0 0-1.994.845l-7.936 7.752a4.62 4.62 0 0 0-1.414 3.32c0 1.251.498 2.434 1.414 3.319a4.85 4.85 0 0 0 3.398 1.38 4.8 4.8 0 0 0 3.399-1.38l9.645-9.422a1.143 1.143 0 0 1 1.587 0 1.08 1.08 0 0 1 0 1.55l-9.646 9.421A7.1 7.1 0 0 1 8.046 23a7.1 7.1 0 0 1-4.98-2.017A6.76 6.76 0 0 1 1 16.113c0-1.838.733-3.568 2.065-4.87z"/></svg>