<svg xmlns="http://www.w3.org/2000/svg" fill="currentColor" viewBox="0 0 24 24"><path fill="currentColor" fill-rule="evenodd" d="M13.959 1.016a.6.6 0 0 1 .356.023.5.5 0 0 1 .275.228.4.4 0 0 1 .031.329l-1.98 7.666h7.815l.072.002q.108.013.203.062a.47.47 0 0 1 .19.182.4.4 0 0 1-.03.511L10.3 22.81a.56.56 0 0 1-.292.172.64.64 0 0 1-.354-.016.52.52 0 0 1-.276-.229.4.4 0 0 1-.031-.329l1.98-7.665H3.514a.6.6 0 0 1-.264-.089.46.46 0 0 1-.17-.194.4.4 0 0 1-.08-.238c0-.083.027-.167.08-.238l10.588-12.79a.54.54 0 0 1 .291-.178" clip-rule="evenodd"/></svg>