<svg xmlns="http://www.w3.org/2000/svg" fill="currentColor" viewBox="0 0 24 24"><path fill="currentColor" d="M5.756 9.567c.128.011.25.062.355.145l12.64 10.113a.76.76 0 0 1 .213.276c.05.109.077.23.078.352v1.032c0 .59-.278 1.09-.71 1.342-.421.249-.937.228-1.369-.058l-.04-.03-4.9-3.817-4.896 3.817a1.275 1.275 0 0 1-1.412.089c-.43-.253-.708-.752-.708-1.342V10.34a.84.84 0 0 1 .103-.403.73.73 0 0 1 .276-.286V9.65a.64.64 0 0 1 .37-.082M17.043 1c1.128 0 1.998.966 1.999 2.219v11.908l3.583 2.774c.194.16.324.399.363.663a1.13 1.13 0 0 1-.154.755.93.93 0 0 1-.585.423.85.85 0 0 1-.685-.147L1.422 4.018a1 1 0 0 1-.263-.289 1.1 1.1 0 0 1-.142-.378 1.2 1.2 0 0 1 .003-.412q.04-.204.147-.377a1 1 0 0 1 .268-.283.84.84 0 0 1 .715-.129.9.9 0 0 1 .335.175l2.43 1.878V3.22c0-1.254.87-2.22 1.998-2.22z"/></svg>