<svg width="24" height="24" viewBox="0 0 24 24" fill="none" xmlns="http://www.w3.org/2000/svg">
<g clip-path="url(#clip0_402_261)">
<path d="M22.9902 10.7207V20.8721C22.99 21.7214 22.4266 23 20.8613 23H3.12793C2.2787 22.9998 1.00023 22.4371 1 20.8721V10.7207H22.9902ZM16.7783 1C17.1979 1 17.5459 1.34804 17.5459 1.76758V3.73242H20.8721C21.7214 3.73262 22.9999 4.29513 23 5.86035V9.18652H1V5.86035C1.00005 5.00082 1.56293 3.73242 3.13867 3.73242H6.46387V1.76758C6.46387 1.3481 6.81199 1.0001 7.23145 1C7.65098 1 7.99902 1.34804 7.99902 1.76758V3.73242H16.0107V1.76758C16.0107 1.34814 16.3589 1.00016 16.7783 1Z" fill="#212121"/>
</g>
<defs>
<clipPath id="clip0_402_261">
<rect width="24" height="24" fill="white"/>
</clipPath>
</defs>
</svg>
