<svg xmlns="http://www.w3.org/2000/svg" width="24" height="24" fill="none" viewBox="0 0 24 24"><g fill="currentColor" clip-path="url(#a)"><path fill-rule="evenodd" d="M22.99 20.939c0 .82-.55 2.06-2.058 2.061H3.06C2.24 23 1 22.45 1 20.939V10.624h21.99zm-7.157-8.114a.686.686 0 0 0-.959.14l-3.648 4.873-2.19-2.192a.68.68 0 0 0-.962-.006.68.68 0 0 0 .003.966l2.748 2.752c.13.13.31.2.49.2h.05c.19-.01.37-.11.49-.27l4.119-5.502c.23-.3.159-.73-.141-.96" clip-rule="evenodd"/><path d="M16.804 1c.38 0 .69.31.69.69v2.061h-1.371v2.752c0 .38.31.69.69.69s.69-.31.69-.69V3.75h3.438c.82 0 2.059.551 2.059 2.062h-.01v3.44H1v-3.44c0-.83.55-2.062 2.06-2.062h3.427V1.69c0-.38.31-.691.69-.691s.69.31.69.69V3.75H6.498v2.752a.69.69 0 0 0 1.379 0V3.75h8.236V1.69c0-.38.31-.691.69-.691"/></g><defs><clipPath id="a"><path fill="currentColor" d="M0 0h24v24H0z"/></clipPath></defs></svg>