<svg xmlns="http://www.w3.org/2000/svg" fill="currentColor" viewBox="0 0 24 24"><path fill="currentColor" d="M1.506 11.756a1.37 1.37 0 0 1 1.963.192l3.641 4.519a1.37 1.37 0 0 1 1.591-.099 1.45 1.45 0 0 1 .463 1.965l-.4.672-.014.023-.001.001-.001.002-.009.016-.017.026a3 3 0 0 1-.226.297 2 2 0 0 1-.348.32c-.134.097-.463.31-.924.31-.377 0-.668-.137-.809-.213a2.4 2.4 0 0 1-.378-.258 3 3 0 0 1-.282-.265l-.02-.024-.01-.009-.002-.004-.003-.003q-.024-.025-.046-.052L1.32 13.77a1.456 1.456 0 0 1 .186-2.014m18.909-7.07a1.376 1.376 0 0 1 1.917-.477 1.45 1.45 0 0 1 .464 1.965l-7.637 12.83-.014.024v.001l-.001.002-.01.016-.017.026a3 3 0 0 1-.225.297c-.07.08-.19.206-.348.32-.134.097-.463.31-.925.31a1.7 1.7 0 0 1-.809-.213 2.4 2.4 0 0 1-.377-.258 3 3 0 0 1-.283-.265l-.02-.024-.009-.009-.003-.004-.003-.003-.046-.052-4.353-5.402a1.456 1.456 0 0 1 .185-2.014 1.37 1.37 0 0 1 1.963.192l3.583 4.444zm-6.395 0a1.376 1.376 0 0 1 1.917-.477c.656.411.864 1.291.463 1.965l-3.22 5.41a1.375 1.375 0 0 1-1.915.476 1.45 1.45 0 0 1-.465-1.964z"/></svg>