<svg xmlns="http://www.w3.org/2000/svg" width="24" height="24" fill="none" viewBox="0 0 24 24"><g clip-path="url(#a)"><path fill="currentColor" d="m14.128 11.999 8.429-8.423c.59-.59.59-1.543 0-2.133a1.507 1.507 0 0 0-2.134 0l-8.429 8.423-8.429-8.411a1.493 1.493 0 0 0-2.122 0c-.579.59-.59 1.542 0 2.12L9.872 12l-8.429 8.42c-.59.59-.59 1.543 0 2.133.29.29.675.446 1.061.446a1.46 1.46 0 0 0 1.061-.446l8.429-8.423 8.429 8.423c.289.29.675.446 1.06.446a1.46 1.46 0 0 0 1.062-.446c.59-.59.59-1.542 0-2.133L14.116 12z"/></g><defs><clipPath id="a"><path fill="currentColor" d="M0 0h24v24H0z"/></clipPath></defs></svg>