<svg xmlns="http://www.w3.org/2000/svg" width="24" height="24" fill="none" viewBox="0 0 24 24"><g clip-path="url(#a)"><path fill="currentColor" fill-rule="evenodd" d="M6.374 18.365a.92.92 0 0 1-.273.655.94.94 0 0 1-.66.271H3.867c-.495 0-.97-.195-1.32-.543A1.85 1.85 0 0 1 2 17.439v-1.563a.92.92 0 0 1 .273-.655.937.937 0 0 1 1.32 0c.175.173.274.41.274.655v1.563H5.44a.925.925 0 0 1 .933.927m-3.44-5.73a.94.94 0 0 1-.66-.271.92.92 0 0 1-.274-.655V8.583a.92.92 0 0 1 .273-.655.937.937 0 0 1 1.32 0c.175.173.274.41.274.655v3.126a.92.92 0 0 1-.274.655.94.94 0 0 1-.66.271m0-7.292a.94.94 0 0 1-.66-.271A.92.92 0 0 1 2 4.417V2.854c0-.492.197-.963.547-1.311S3.372 1 3.867 1h1.085c.248 0 .485.098.66.271a.924.924 0 0 1 0 1.311.94.94 0 0 1-.66.272H3.867v1.563a.92.92 0 0 1-.274.655.94.94 0 0 1-.66.271m13.346-.507A.937.937 0 0 1 15 4.52l-1.007-1.665H12.91a.94.94 0 0 1-.66-.272.923.923 0 0 1 0-1.31.94.94 0 0 1 .66-.272h1.084a1.88 1.88 0 0 1 1.602.9L16.6 3.566a.923.923 0 0 1-.32 1.27m-5.332-2.91a.92.92 0 0 1-.273.656.94.94 0 0 1-.66.272h-2.17a.94.94 0 0 1-.66-.272.924.924 0 0 1 0-1.31.94.94 0 0 1 .66-.272h2.171c.248 0 .485.098.66.271s.274.41.274.656zM9.099 5.86a1.93 1.93 0 0 0-1.357.559 1.9 1.9 0 0 0-.562 1.348v13.327c0 .506.202.991.562 1.349.36.357.848.558 1.358.558h10.334a2.58 2.58 0 0 0 1.815-.747A2.55 2.55 0 0 0 22 20.451V10.085a1.9 1.9 0 0 0-.562-1.348l-2.336-2.32a1.93 1.93 0 0 0-1.357-.558z" clip-rule="evenodd"/></g><defs><clipPath id="a"><path fill="currentColor" d="M0 0h24v24H0z"/></clipPath></defs></svg>