<svg xmlns="http://www.w3.org/2000/svg" fill="currentColor" viewBox="0 0 24 24"><path fill="currentColor" d="M17.744 5.858c.51 0 .997.202 1.358.559l2.337 2.32c.359.358.56.843.561 1.348v10.366a2.53 2.53 0 0 1-.752 1.803 2.57 2.57 0 0 1-1.814.746H9.099c-.51 0-.998-.201-1.358-.559a1.9 1.9 0 0 1-.562-1.347V7.767a1.9 1.9 0 0 1 1.184-1.763c.233-.096.483-.146.736-.146zm-14.81 9.09c.247 0 .485.098.66.272.175.173.273.41.273.655v1.563H5.44c.248 0 .486.097.66.271a.924.924 0 0 1-.66 1.582H3.867c-.495 0-.97-.195-1.32-.543A1.85 1.85 0 0 1 2 17.438v-1.563a.92.92 0 0 1 .273-.655.94.94 0 0 1 .66-.272m0-7.292c.247 0 .485.098.66.272s.273.41.273.655v3.125a.926.926 0 0 1-.933.928.926.926 0 0 1-.934-.928V8.583c0-.246.098-.481.273-.655a.94.94 0 0 1 .66-.272M4.952 1c.248 0 .485.098.66.271a.924.924 0 0 1-.66 1.583H3.867v1.563a.92.92 0 0 1-.273.655.94.94 0 0 1-1.32 0A.92.92 0 0 1 2 4.417V2.854c0-.492.197-.963.547-1.311S3.372 1 3.867 1zm9.041 0a1.86 1.86 0 0 1 1.601.9l1.007 1.665a.924.924 0 0 1-.663 1.393.94.94 0 0 1-.939-.44l-1.006-1.664h-1.085a.94.94 0 0 1-.659-.272.924.924 0 0 1 0-1.31.94.94 0 0 1 .66-.272zm-3.977 0c.247 0 .485.098.66.271s.273.41.273.656a.92.92 0 0 1-.274.655.94.94 0 0 1-.66.272h-2.17a.94.94 0 0 1-.66-.272A.924.924 0 0 1 7.846 1z"/></svg>