<svg xmlns="http://www.w3.org/2000/svg" fill="currentColor" viewBox="0 0 24 24"><path fill="currentColor" d="M14.315 1.01a2.106 2.106 0 0 1 1.898 2.096v1.64h6.085l.142.013a.702.702 0 0 1-.142 1.39h-1.984l-1.128 14.874a2.3 2.3 0 0 1-.461 1.202c-.366.461-.947.771-1.76.771H7.047a2.08 2.08 0 0 1-1.31-.351c-.506-.354-.833-.95-.896-1.791-.053-.704-.278-3.489-.532-6.653-.224-2.774-.47-5.841-.646-8.053h-1.96a.702.702 0 0 1 0-1.403h6.084V3.106A2.106 2.106 0 0 1 9.894 1h4.212zM9.894 9.66a.7.7 0 0 0-.703.701v7.022a.702.702 0 1 0 1.405 0V10.36a.703.703 0 0 0-.702-.702m4.212 0a.7.7 0 0 0-.702.701v7.022a.702.702 0 1 0 1.405 0V10.36a.703.703 0 0 0-.703-.702M9.894 2.403a.7.7 0 0 0-.703.702v1.64h5.618v-1.64a.7.7 0 0 0-.565-.688l-.138-.014z"/></svg>