<svg xmlns="http://www.w3.org/2000/svg" width="24" height="24" fill="none" viewBox="0 0 24 24"><g clip-path="url(#a)"><path fill="currentColor" d="M14.106 1a2.107 2.107 0 0 1 2.107 2.106v1.64h6.085a.702.702 0 1 1 0 1.402h-1.984l-1.128 14.875a2.3 2.3 0 0 1-.461 1.202c-.366.461-.947.771-1.76.771H7.047a2.08 2.08 0 0 1-1.31-.351c-.506-.354-.833-.95-.896-1.791-.053-.704-.278-3.488-.532-6.653-.224-2.774-.47-5.841-.645-8.053H1.702a.702.702 0 0 1 0-1.403h6.085V3.106A2.106 2.106 0 0 1 9.894 1zM9.894 9.66a.7.7 0 0 0-.703.702v7.022a.703.703 0 0 0 1.405 0v-7.022a.7.7 0 0 0-.702-.702m4.212 0a.7.7 0 0 0-.702.702v7.022a.703.703 0 0 0 1.405 0v-7.022a.7.7 0 0 0-.703-.702M9.894 2.404a.7.7 0 0 0-.703.702v1.64h5.618v-1.64a.7.7 0 0 0-.703-.702z"/></g><defs><clipPath id="a"><path fill="currentColor" d="M0 0h24v24H0z"/></clipPath></defs></svg>