<svg xmlns="http://www.w3.org/2000/svg" fill="currentColor" viewBox="0 0 24 24"><path fill="currentColor" d="M13.735 19.776c.06 0 .132.02.182.05.05.02.138.107.142.11l-.01.011 1.907 2.328a.4.4 0 0 1 .08.23.4.4 0 0 1-.05.242.48.48 0 0 1-.403.25H8.185a.5.5 0 0 1-.263-.05.42.42 0 0 1-.182-.19.4.4 0 0 1-.07-.241c0-.09.03-.17.07-.24l1.937-2.329a.6.6 0 0 1 .162-.12c.06-.03.122-.05.192-.05zM21.94 1A1.05 1.05 0 0 1 23 2.054v15.434c0 .281-.11.552-.312.742a1.08 1.08 0 0 1-.748.312H2.06c-.283 0-.556-.11-.757-.312A1.05 1.05 0 0 1 1 17.489V2.054c0-.281.11-.552.313-.742C1.504 1.12 1.777 1 2.06 1zM2.372 15.065H21.75V3.645H2.372z"/></svg>