<svg xmlns="http://www.w3.org/2000/svg" fill="currentColor" viewBox="0 0 24 24"><path fill="currentColor" d="M17.95 1c1.71.02 3.071 1.34 3.05 2.96 0 1.26-.856 2.38-2.122 2.78v.11c0 3.74-3.198 6.77-7.146 6.77H8.06v3.66c.939.29 1.668.99 1.974 1.87.528 1.54-.349 3.19-1.974 3.7-1.626.5-3.367-.33-3.906-1.87-.527-1.54.35-3.19 1.975-3.7V6.74c-.94-.29-1.669-.99-1.975-1.87-.527-1.54.35-3.19 1.975-3.7 1.625-.5 3.367.33 3.905 1.87.528 1.54-.349 3.19-1.974 3.7v5.09h3.673c2.882 0 5.214-2.21 5.214-4.94v-.18c-1.277-.4-2.142-1.54-2.12-2.82C14.847 2.27 16.24.98 17.95 1"/></svg>