<svg width="24" height="24" viewBox="0 0 24 24" fill="none" xmlns="http://www.w3.org/2000/svg">
<g clip-path="url(#clip0_402_419)">
<path d="M8 17.5C8.66304 17.5 9.29874 17.7636 9.76758 18.2324C10.2364 18.7013 10.5 19.337 10.5 20C10.5 20.663 10.2364 21.2987 9.76758 21.7676C9.29874 22.2364 8.66304 22.5 8 22.5C7.33696 22.5 6.70126 22.2364 6.23242 21.7676C5.76358 21.2987 5.5 20.663 5.5 20C5.5 19.337 5.76358 18.7013 6.23242 18.2324C6.70126 17.7636 7.33696 17.5 8 17.5ZM16 17.5C16.3283 17.5 16.6537 17.5648 16.957 17.6904C17.2602 17.8161 17.5355 18.0004 17.7676 18.2324C17.9996 18.4645 18.1839 18.7398 18.3096 19.043C18.4352 19.3463 18.5 19.6717 18.5 20C18.5 20.3283 18.4352 20.6537 18.3096 20.957C18.1839 21.2602 17.9996 21.5355 17.7676 21.7676C17.5355 21.9996 17.2602 22.1839 16.957 22.3096C16.6537 22.4352 16.3283 22.5 16 22.5C15.6717 22.5 15.3463 22.4352 15.043 22.3096C14.7398 22.1839 14.4645 21.9996 14.2324 21.7676C14.0004 21.5355 13.8161 21.2602 13.6904 20.957C13.5648 20.6537 13.5 20.3283 13.5 20C13.5 19.6717 13.5648 19.3463 13.6904 19.043C13.8161 18.7398 14.0004 18.4645 14.2324 18.2324C14.4645 18.0004 14.7398 17.8161 15.043 17.6904C15.3463 17.5648 15.6717 17.5 16 17.5ZM8 9.5C8.66304 9.5 9.29874 9.76358 9.76758 10.2324C10.2364 10.7013 10.5 11.337 10.5 12C10.5 12.663 10.2364 13.2987 9.76758 13.7676C9.29874 14.2364 8.66304 14.5 8 14.5C7.33696 14.5 6.70126 14.2364 6.23242 13.7676C5.76358 13.2987 5.5 12.663 5.5 12C5.5 11.337 5.76358 10.7013 6.23242 10.2324C6.70126 9.76358 7.33696 9.5 8 9.5ZM16 9.5C16.3283 9.5 16.6537 9.56479 16.957 9.69043C17.2602 9.81606 17.5355 10.0004 17.7676 10.2324C17.9996 10.4645 18.1839 10.7398 18.3096 11.043C18.4352 11.3463 18.5 11.6717 18.5 12C18.5 12.3283 18.4352 12.6537 18.3096 12.957C18.1839 13.2602 17.9996 13.5355 17.7676 13.7676C17.5355 13.9996 17.2602 14.1839 16.957 14.3096C16.6537 14.4352 16.3283 14.5 16 14.5C15.6717 14.5 15.3463 14.4352 15.043 14.3096C14.7398 14.1839 14.4645 13.9996 14.2324 13.7676C14.0004 13.5355 13.8161 13.2602 13.6904 12.957C13.5648 12.6537 13.5 12.3283 13.5 12C13.5 11.6717 13.5648 11.3463 13.6904 11.043C13.8161 10.7398 14.0004 10.4645 14.2324 10.2324C14.4645 10.0004 14.7398 9.81606 15.043 9.69043C15.3463 9.56479 15.6717 9.5 16 9.5ZM8 1.5C8.66304 1.5 9.29874 1.76358 9.76758 2.23242C10.2364 2.70126 10.5 3.33696 10.5 4C10.5 4.66304 10.2364 5.29874 9.76758 5.76758C9.29874 6.23642 8.66304 6.5 8 6.5C7.33696 6.5 6.70126 6.23642 6.23242 5.76758C5.76358 5.29874 5.5 4.66304 5.5 4C5.5 3.33696 5.76358 2.70126 6.23242 2.23242C6.70126 1.76358 7.33696 1.5 8 1.5ZM16 1.5C16.3283 1.5 16.6537 1.56479 16.957 1.69043C17.2602 1.81606 17.5355 2.00036 17.7676 2.23242C17.9996 2.46449 18.1839 2.73978 18.3096 3.04297C18.4352 3.34628 18.5 3.6717 18.5 4C18.5 4.3283 18.4352 4.65372 18.3096 4.95703C18.1839 5.26022 17.9996 5.53551 17.7676 5.76758C17.5355 5.99964 17.2602 6.18394 16.957 6.30957C16.6537 6.43521 16.3283 6.5 16 6.5C15.6717 6.5 15.3463 6.43521 15.043 6.30957C14.7398 6.18394 14.4645 5.99964 14.2324 5.76758C14.0004 5.53551 13.8161 5.26022 13.6904 4.95703C13.5648 4.65372 13.5 4.3283 13.5 4C13.5 3.6717 13.5648 3.34628 13.6904 3.04297C13.8161 2.73978 14.0004 2.46449 14.2324 2.23242C14.4645 2.00036 14.7398 1.81606 15.043 1.69043C15.3463 1.56479 15.6717 1.5 16 1.5Z" fill="#212121"/>
</g>
<defs>
<clipPath id="clip0_402_419">
<rect width="24" height="24" fill="white"/>
</clipPath>
</defs>
</svg>
