<svg xmlns="http://www.w3.org/2000/svg" fill="currentColor" viewBox="0 0 24 24"><path fill="currentColor" d="M8 17.5a2.5 2.5 0 1 1 0 5 2.5 2.5 0 0 1 0-5m8 0a2.5 2.5 0 0 1 2.5 2.5 2.5 2.5 0 0 1-2.5 2.5 2.5 2.5 0 0 1-2.5-2.5 2.5 2.5 0 0 1 2.5-2.5m-8-8a2.5 2.5 0 1 1 0 5 2.5 2.5 0 0 1 0-5m8 0a2.5 2.5 0 0 1 2.31 3.457 2.502 2.502 0 0 1-4.078.81 2.5 2.5 0 0 1-.542-2.724A2.5 2.5 0 0 1 16 9.5m-8-8a2.5 2.5 0 1 1 0 5 2.5 2.5 0 0 1 0-5m8 0a2.5 2.5 0 0 1 2.31 3.457 2.502 2.502 0 0 1-4.62 0 2.5 2.5 0 0 1 1.353-3.267c.303-.125.629-.19.957-.19"/></svg>