<svg xmlns="http://www.w3.org/2000/svg" fill="currentColor" viewBox="0 0 24 24"><path fill="currentColor" d="M20.973 6.302c.561 0 1.027.496 1.027 1.102s-.456 1.102-1.027 1.102h-.117v3.13c0 4.244-3.242 7.704-7.278 7.87v2.216c0 .705-.55 1.278-1.228 1.278h-.721c-.678 0-1.229-.573-1.229-1.278v-2.216c-4.035-.166-7.277-3.626-7.277-7.87v-3.13h-.096C2.467 8.506 2 8.01 2 7.404s.455-1.102 1.027-1.102zM8.748 1c.583 0 1.059.496 1.059 1.103v2.535c0 .606-.477 1.101-1.059 1.101s-1.06-.495-1.06-1.101V2.103c0-.607.477-1.103 1.06-1.103m6.356 0c.582 0 1.06.496 1.06 1.103v2.535c-.001.606-.478 1.101-1.06 1.101s-1.059-.495-1.06-1.101V2.103c0-.607.477-1.103 1.06-1.103"/></svg>