<svg xmlns="http://www.w3.org/2000/svg" width="24" height="24" fill="none" viewBox="0 0 24 24"><path fill="currentColor" d="M20.838 3.219a.756.756 0 0 1 1.063 0 .76.76 0 0 1 0 1.065l-3.3 3.308a19.8 19.8 0 0 1 3.812 3.237v-.01a2.27 2.27 0 0 1 0 3.045c-2.408 2.654-6.4 5.42-10.423 5.389h-.14c-1.365 0-2.719-.331-4.013-.874l-3.39 3.397a.74.74 0 0 1-.533.221c-.19 0-.38-.07-.531-.22a.76.76 0 0 1 0-1.066l3.02-3.026 2.256-2.262 6.43-6.444 2.178-2.181zM9.854 16.369c.661.35 1.384.562 2.156.562a4.53 4.53 0 0 0 3.23-1.337 4.54 4.54 0 0 0 1.335-3.238c0-.774-.211-1.507-.562-2.16zM12 5.45c1.294-.03 2.568.242 3.792.704l-1.996 2A4.6 4.6 0 0 0 12 7.782a4.573 4.573 0 0 0-4.193 6.374h-.01l-2.729 2.735a19.2 19.2 0 0 1-3.481-3.006 2.27 2.27 0 0 1 0-3.046C3.995 8.195 7.947 5.359 12 5.45"/></svg>