<svg xmlns="http://www.w3.org/2000/svg" width="24" height="24" fill="none" viewBox="0 0 24 24"><path fill="currentColor" d="M12.383 5.002c3.903.087 7.706 2.863 10.03 5.457a2.32 2.32 0 0 1 0 3.084C20.004 16.23 16.01 19.03 11.985 19h-.14c-3.955 0-7.89-2.81-10.258-5.457a2.32 2.32 0 0 1 0-3.084c2.324-2.594 6.117-5.37 10.038-5.457zm-.378 2.372c-2.52 0-4.566 2.077-4.567 4.632a4.63 4.63 0 0 0 1.335 3.278 4.5 4.5 0 0 0 3.232 1.354 4.5 4.5 0 0 0 3.231-1.354 4.63 4.63 0 0 0 1.335-3.278 4.63 4.63 0 0 0-1.335-3.277 4.5 4.5 0 0 0-3.231-1.355M12 9.134c.13 0 .261.02.392.04a1.52 1.52 0 0 0-.422 1.05c0 .834.662 1.506 1.485 1.506l-.01-.01a1.48 1.48 0 0 0 1.204-.631c.09.295.15.59.15.906 0 .764-.29 1.476-.822 2.016a2.77 2.77 0 0 1-1.987.835 2.77 2.77 0 0 1-1.987-.835 2.85 2.85 0 0 1-.823-2.016c0-1.578 1.264-2.861 2.82-2.861"/></svg>