<svg xmlns="http://www.w3.org/2000/svg" fill="currentColor" viewBox="0 0 24 24"><path fill="currentColor" d="M16.089 16.762c.58 0 1.147.18 1.63.518.483.339.86.821 1.086 1.386h3.047c.633 0 1.147.544 1.147 1.214H23c0 .67-.514 1.213-1.146 1.213h-3.047a3.1 3.1 0 0 1-1.086 1.387c-.483.339-1.051.52-1.631.52s-1.147-.181-1.63-.52a3.1 3.1 0 0 1-1.087-1.387H2.146c-.304 0-.595-.128-.81-.356A1.25 1.25 0 0 1 1 19.88c0-.322.12-.63.336-.858.215-.228.506-.356.81-.356h11.227a3.1 3.1 0 0 1 1.087-1.386 2.83 2.83 0 0 1 1.629-.518M7.91 8.88c.58 0 1.147.18 1.63.52.483.338.86.82 1.086 1.384h11.227c.632 0 1.146.544 1.146 1.214s-.514 1.214-1.146 1.214H10.629A3.1 3.1 0 0 1 9.543 14.6a2.84 2.84 0 0 1-1.632.521c-.58 0-1.147-.182-1.63-.521a3.1 3.1 0 0 1-1.087-1.388H2.147c-.303 0-.595-.128-.81-.356A1.25 1.25 0 0 1 1 12c0-.322.12-.63.336-.858.215-.228.506-.356.81-.356h3.048A3.1 3.1 0 0 1 6.282 9.4a2.84 2.84 0 0 1 1.63-.52M16.09 1c.58 0 1.147.18 1.63.52.482.338.86.82 1.086 1.384h3.047c.304 0 .596.128.811.356s.336.536.336.858-.12.631-.336.859a1.12 1.12 0 0 1-.81.355h-3.047a3.1 3.1 0 0 1-1.086 1.387c-.483.339-1.051.52-1.631.52s-1.147-.181-1.63-.52a3.1 3.1 0 0 1-1.087-1.387H2.147c-.304 0-.595-.128-.81-.355A1.25 1.25 0 0 1 1 4.118c0-.322.12-.63.336-.858.215-.228.506-.356.81-.356h11.227A3.1 3.1 0 0 1 14.46 1.52 2.84 2.84 0 0 1 16.09 1"/></svg>