<svg xmlns="http://www.w3.org/2000/svg" fill="currentColor" viewBox="0 0 24 24"><path fill="currentColor" d="M10.038 13.068a.894.894 0 0 1 .894.893v7.145a.894.894 0 0 1-.894.894H2.894A.894.894 0 0 1 2 21.106v-7.145a.893.893 0 0 1 .894-.893zm11.068 0a.894.894 0 0 1 .894.893v7.145a.894.894 0 0 1-.894.894h-7.144a.894.894 0 0 1-.894-.894v-7.145a.893.893 0 0 1 .894-.893zM10.038 2a.894.894 0 0 1 .894.894v7.145a.893.893 0 0 1-.894.893H2.894A.894.894 0 0 1 2 10.039V2.894A.894.894 0 0 1 2.894 2zm11.068 0a.894.894 0 0 1 .894.894v7.145a.89.89 0 0 1-.894.893h-7.144a.894.894 0 0 1-.894-.893V2.894A.894.894 0 0 1 13.962 2z"/></svg>