<svg xmlns="http://www.w3.org/2000/svg" fill="currentColor" viewBox="0 0 24 24"><path fill="currentColor" d="M10.9 3.2a10 10 0 0 1 1.348.091c.47.064.524.648.412 1.11q-.158.65-.16 1.349a5.75 5.75 0 0 0 7.1 5.589c.462-.112 1.045-.058 1.109.412a10 10 0 0 1 .09 1.349c0 5.472-4.427 9.9-9.899 9.9A9.895 9.895 0 0 1 1 13.1c0-5.472 4.438-9.9 9.9-9.9m-.396 4.536a.825.825 0 0 0-.827.827v4.62a.8.8 0 0 0 .232.529l4.123 3.744a.825.825 0 0 0 1.15-.043.02.02 0 0 1 .015-.007.02.02 0 0 0 .016-.007.825.825 0 0 0-.065-1.149l-3.46-3.184a1.1 1.1 0 0 1-.356-.81V8.564a.826.826 0 0 0-.828-.827M18.499 1a.91.91 0 0 1 .908.91v2.683h2.662l.211.02a.91.91 0 0 1 .72.888c0 .21-.074.412-.206.573l-.06.067a.92.92 0 0 1-.644.266h-2.683V9.09a.91.91 0 0 1-.908.91.907.907 0 0 1-.906-.91V6.407H14.91a.907.907 0 1 1 0-1.814h2.683V1.91c0-.241.097-.475.266-.644l.067-.06A.9.9 0 0 1 18.499 1"/></svg>