<svg xmlns="http://www.w3.org/2000/svg" fill="currentColor" viewBox="0 0 24 24"><path fill="currentColor" d="M17.034 1C18.117 1 19 1.915 19 3.036v2.055c0 3.235-2.042 5.97-4.872 6.904C16.958 12.93 19 15.664 19 18.9v2.055c0 1.12-.883 2.045-1.966 2.045H6.966C5.883 23 5 22.075 5 20.954V18.9c0-3.235 2.051-5.97 4.872-6.904C7.052 11.061 5 8.326 5 5.091V3.036C5 1.916 5.883 1 6.966 1zm-4.379 14.122a.844.844 0 0 0-1.206-.078 1 1 0 0 1-.066.078l-2.831 3.305a.897.897 0 0 0 .076 1.239.84.84 0 0 0 .56.217h5.662c.465 0 .844-.394.844-.876a.9.9 0 0 0-.209-.58zM9.464 7.344a.43.43 0 0 0-.36.255.44.44 0 0 0 0 .433c.57 1.13 1.68 1.848 2.915 1.878 1.234-.04 2.346-.767 2.916-1.908a.52.52 0 0 0 0-.442.42.42 0 0 0-.37-.216z"/></svg>