<svg width="24" height="24" viewBox="0 0 24 24" fill="none" xmlns="http://www.w3.org/2000/svg">
<g clip-path="url(#clip0_402_550)">
<path fill-rule="evenodd" clip-rule="evenodd" d="M14.519 1C13.628 1 12.913 1.71464 12.913 2.6052V6.72814C12.913 7.61869 13.628 8.33333 14.519 8.33333H21.394C22.285 8.33333 23 7.61869 23 6.72814V2.6052C23 1.71464 22.285 1 21.394 1H14.519ZM14.519 10.1694C13.628 10.1694 12.913 10.8841 12.913 11.7746V21.3948C12.913 22.2854 13.628 23 14.519 23H21.394C22.285 23 23 22.2854 23 21.3948V11.7746C23 10.8841 22.285 10.1694 21.394 10.1694H14.519ZM1 2.6052C1 1.71464 1.715 1 2.606 1H9.481C10.372 1 11.087 1.71464 11.087 2.6052V12.2254C11.087 13.1159 10.372 13.8306 9.481 13.8306H2.606C1.715 13.8306 1 13.1159 1 12.2254V2.6052ZM2.606 15.6667C1.715 15.6667 1 16.3813 1 17.2719V21.3948C1 22.2854 1.715 23 2.606 23H9.481C10.372 23 11.087 22.2854 11.087 21.3948V17.2719C11.087 16.3813 10.372 15.6667 9.481 15.6667H2.606Z" fill="#212121"/>
</g>
<defs>
<clipPath id="clip0_402_550">
<rect width="24" height="24" fill="white"/>
</clipPath>
</defs>
</svg>
