<svg xmlns="http://www.w3.org/2000/svg" fill="currentColor" viewBox="0 0 24 24"><path fill="currentColor" d="M9.481 15.667a1.6 1.6 0 0 1 1.606 1.604v4.124A1.6 1.6 0 0 1 9.48 23H2.606A1.6 1.6 0 0 1 1 21.395v-4.123a1.6 1.6 0 0 1 1.606-1.605zm11.913-5.498c.89 0 1.606.715 1.606 1.605v9.62A1.6 1.6 0 0 1 21.394 23h-6.875a1.6 1.6 0 0 1-1.606-1.605v-9.62a1.6 1.6 0 0 1 1.606-1.606zM9.48 1a1.6 1.6 0 0 1 1.606 1.605v9.62a1.6 1.6 0 0 1-1.606 1.606H2.606c-.89 0-1.606-.715-1.606-1.605v-9.62A1.6 1.6 0 0 1 2.606 1zm11.913 0C22.284 1 23 1.715 23 2.605V6.73a1.6 1.6 0 0 1-1.606 1.604h-6.875a1.6 1.6 0 0 1-1.606-1.604V2.605A1.6 1.6 0 0 1 14.52 1z"/></svg>