<svg xmlns="http://www.w3.org/2000/svg" width="24" height="24" fill="none" viewBox="0 0 24 24"><g clip-path="url(#a)"><path fill="currentColor" d="M11.993 1c.958 0 1.776.612 2.09 1.464h4.4a.76.76 0 0 1 .782.419l3.651 7.305a.764.764 0 0 1-.348 1.034.8.8 0 0 1-.338.082h-.01a.76.76 0 0 1-.685-.43l-2.958-5.92-2.963 5.93a.77.77 0 0 1-.685.42h-.01a.8.8 0 0 1-.338-.082.78.78 0 0 1-.348-1.034l3.094-6.19h-3.244a2.24 2.24 0 0 1-1.321 1.322v16.145h3.61c.418 0 .766.348.766.767S16.79 23 16.37 23H7.606a.773.773 0 0 1-.766-.768c0-.42.347-.767.766-.767h3.62V5.32a2.24 2.24 0 0 1-1.323-1.323H6.671l3.094 6.19a.764.764 0 0 1-.348 1.034.8.8 0 0 1-.338.082h-.01a.76.76 0 0 1-.685-.43L5.423 4.948l-2.961 5.926a.78.78 0 0 1-.685.43h-.01a.8.8 0 0 1-.337-.082.78.78 0 0 1-.348-1.034l3.65-7.305.003-.007a.78.78 0 0 1 .346-.341.8.8 0 0 1 .233-.07l.013-.001a1 1 0 0 1 .116-.005h.046l.042.005h4.372A2.23 2.23 0 0 1 11.993 1M9.07 12c.42 0 .767.348.767.768a4.427 4.427 0 0 1-4.418 4.42A4.427 4.427 0 0 1 1 12.767c0-.42.347-.768.767-.768zm13.156 0c.419 0 .766.348.766.768a4.427 4.427 0 0 1-4.418 4.42 4.427 4.427 0 0 1-4.418-4.42c0-.42.349-.768.768-.768zM11.993 2.535a.696.696 0 1 0 .002 1.393.696.696 0 0 0-.002-1.393"/></g><defs><clipPath id="a"><path fill="currentColor" d="M0 0h24v24H0z"/></clipPath></defs></svg>