<svg xmlns="http://www.w3.org/2000/svg" fill="currentColor" viewBox="0 0 24 24"><path fill="currentColor" d="M22.53 17.038c.25 0 .46.211.46.461H23v.92a2.29 2.29 0 0 1-2.29 2.291v1.37c0 .51-.41.92-.919.92a.917.917 0 0 1-.919-.92v-1.15c0-.13-.1-.23-.23-.23H5.358c-.13 0-.23.1-.23.23v1.15c0 .51-.41.92-.919.92s-.92-.41-.92-.92v-1.37A2.297 2.297 0 0 1 1 18.419v-.92c0-.25.21-.46.46-.46zM6.277 1.003c.51 0 .92.41.92.92v13.745c0 .25-.21.46-.46.46H3.07c-.25 0-.46-.21-.46-.46V1.923c0-.51.41-.92.92-.92zm6.408 0c.51 0 .92.41.92.92v13.745c0 .25-.21.46-.46.46H9.477c-.25 0-.46-.21-.46-.46V1.923c0-.51.41-.92.92-.92zm5.437.01c.48-.08.95.24 1.04.73l2.469 13.195c.04.24-.12.47-.36.52l-3.518.66h-.01a.443.443 0 0 1-.51-.36l-2.48-13.204a.91.91 0 0 1 .73-1.041z"/></svg>