<svg xmlns="http://www.w3.org/2000/svg" fill="currentColor" viewBox="0 0 24 24"><path fill="currentColor" d="M12 1c1.17 0 2.28.435 3.112 1.219a4.1 4.1 0 0 1 1.222 2.204h2.938c.595 0 1.15.223 1.57.619.422.396.658.919.658 1.48v14.39a2.02 2.02 0 0 1-.657 1.479 2.27 2.27 0 0 1-1.572.609H4.72a2.27 2.27 0 0 1-1.572-.61 2 2 0 0 1-.647-1.479V6.521c0-.56.226-1.083.647-1.479s.976-.62 1.572-.62h2.936A4.1 4.1 0 0 1 8.878 2.22 4.55 4.55 0 0 1 12 1M7.635 16.763c-.431 0-.77.32-.77.725 0 .406.339.725.77.725h8.73c.421 0 .77-.329.77-.725s-.349-.725-.77-.725zm0-3.424c-.431 0-.77.33-.77.726 0 .406.339.725.77.725h8.73c.421 0 .77-.33.77-.725 0-.397-.349-.726-.77-.726zm0-3.423c-.431 0-.77.33-.77.726s.339.724.77.724h8.73c.421 0 .77-.328.77-.724 0-.397-.349-.726-.77-.726zM12 3.756c-.626 0-1.14.474-1.14 1.063 0 .59.524 1.065 1.14 1.065s1.13-.475 1.13-1.065-.514-1.063-1.13-1.063"/></svg>