<svg xmlns="http://www.w3.org/2000/svg" width="24" height="24" fill="none" viewBox="0 0 24 24"><g clip-path="url(#a)"><path fill="currentColor" d="M20.843 5.042a2.28 2.28 0 0 0-1.572-.619h-2.937a4.1 4.1 0 0 0-1.222-2.205A4.52 4.52 0 0 0 12 1a4.55 4.55 0 0 0-3.122 1.218 4.1 4.1 0 0 0-1.222 2.205H4.718c-.595 0-1.15.223-1.571.62A2 2 0 0 0 2.5 6.521v14.39c0 .56.226 1.082.647 1.479a2.27 2.27 0 0 0 1.571.609h14.553a2.27 2.27 0 0 0 1.572-.61 2.02 2.02 0 0 0 .657-1.479V6.521a2.02 2.02 0 0 0-.657-1.479M7.635 16.762h8.73c.42 0 .77.33.77.726s-.35.725-.77.725h-8.73c-.431 0-.77-.319-.77-.725s.339-.725.77-.725m-.77-2.697c0-.397.339-.726.77-.726h8.73c.42 0 .77.33.77.726s-.35.725-.77.725h-8.73c-.431 0-.77-.32-.77-.725m9.5-2.698h-8.73c-.431 0-.77-.33-.77-.726s.339-.725.77-.725h8.73c.42 0 .77.329.77.725 0 .397-.35.726-.77.726M12 3.756c.616 0 1.13.474 1.13 1.064S12.616 5.884 12 5.884s-1.14-.474-1.14-1.064.514-1.064 1.14-1.064"/></g><defs><clipPath id="a"><path fill="currentColor" d="M0 0h24v24H0z"/></clipPath></defs></svg>