<svg xmlns="http://www.w3.org/2000/svg" width="24" height="24" fill="none" viewBox="0 0 24 24"><g clip-path="url(#a)"><path fill="currentColor" fill-rule="evenodd" d="M12 1c-4.97 0-9 4.059-9 9.065 0 5.964 5.063 11.257 8.48 12.837.292.136.77.126 1.04 0C15.144 21.69 21 16.03 21 10.065 21 5.06 16.97 1 12 1m0 12.246c1.864 0 3.375-1.496 3.375-3.34 0-1.845-1.511-3.34-3.375-3.34s-3.375 1.495-3.375 3.34 1.511 3.34 3.375 3.34" clip-rule="evenodd"/></g><defs><clipPath id="a"><path fill="currentColor" d="M0 0h24v24H0z"/></clipPath></defs></svg>