<svg xmlns="http://www.w3.org/2000/svg" width="24" height="24" fill="none" viewBox="0 0 24 24"><g clip-path="url(#a)"><path fill="currentColor" d="M16.034 9.524a.474.474 0 0 1-.476.476H8.453a.474.474 0 0 1-.477-.476V7.395c0-2.223 1.8-4.023 4.024-4.023a4.03 4.03 0 0 1 4.034 4.023zm3.081.476h-.72V7.395A6.39 6.39 0 0 0 12 1a6.38 6.38 0 0 0-6.385 6.395V10h-.72A1.9 1.9 0 0 0 3 11.895v9.22C3 22.153 3.858 23 4.895 23h14.22A1.89 1.89 0 0 0 21 21.115v-9.22A1.89 1.89 0 0 0 19.115 10m-7.104 8.5a2.124 2.124 0 0 1-2.118-2.118 2.117 2.117 0 1 1 4.235 0 2.11 2.11 0 0 1-2.117 2.118"/></g><defs><clipPath id="a"><path fill="currentColor" d="M0 0h24v24H0z"/></clipPath></defs></svg>