<svg xmlns="http://www.w3.org/2000/svg" fill="currentColor" viewBox="0 0 24 24"><path fill="currentColor" d="M12.01 1a6.406 6.406 0 0 1 6.385 6.417v1.604h.71A1.9 1.9 0 0 1 21 10.917v10.188A1.9 1.9 0 0 1 19.105 23H4.895A1.894 1.894 0 0 1 3 21.105V10.917c0-1.048.847-1.896 1.896-1.896h10.65a.475.475 0 0 0 .477-.476V7.417a4.02 4.02 0 0 0-2.869-3.854 4.023 4.023 0 0 0-5.018 2.7 1.18 1.18 0 0 1-1.473.794 1.194 1.194 0 0 1-.794-1.483A6.39 6.39 0 0 1 12.011 1M12 13.606a2.123 2.123 0 0 0-2.117 2.118c0 1.164.952 2.117 2.117 2.117a2.11 2.11 0 0 0 2.117-2.117A2.116 2.116 0 0 0 12 13.606"/></svg>