<svg xmlns="http://www.w3.org/2000/svg" width="24" height="24" fill="none" viewBox="0 0 24 24"><g clip-path="url(#a)"><path fill="currentColor" d="M19.105 9.021h-.71V7.417A6.405 6.405 0 0 0 12.011 1a6.39 6.39 0 0 0-6.142 4.574c-.19.625.17 1.292.795 1.483.624.19 1.291-.17 1.471-.794a4.023 4.023 0 0 1 5.02-2.7 4.02 4.02 0 0 1 2.868 3.854v1.128a.474.474 0 0 1-.476.476H4.895A1.893 1.893 0 0 0 3 10.917v10.188C3 22.153 3.847 23 4.895 23h14.21A1.9 1.9 0 0 0 21 21.105V10.917a1.9 1.9 0 0 0-1.895-1.896M12 17.841a2.124 2.124 0 0 1-2.118-2.117 2.117 2.117 0 1 1 4.235 0A2.11 2.11 0 0 1 12 17.84"/></g><defs><clipPath id="a"><path fill="currentColor" d="M0 0h24v24H0z"/></clipPath></defs></svg>