<svg xmlns="http://www.w3.org/2000/svg" fill="currentColor" viewBox="0 0 24 24"><path fill="currentColor" d="M12 1a6.39 6.39 0 0 1 6.395 6.396V10h.72c1.038 0 1.885.847 1.885 1.896v9.22A1.89 1.89 0 0 1 19.115 23H4.895A1.9 1.9 0 0 1 3 21.115v-9.22A1.9 1.9 0 0 1 4.896 10h.72V7.396A6.38 6.38 0 0 1 12 1m.01 13.265a2.125 2.125 0 0 0-2.117 2.118c0 1.164.953 2.117 2.118 2.117a2.11 2.11 0 0 0 2.117-2.117 2.117 2.117 0 0 0-2.117-2.118M12 3.372a4.02 4.02 0 0 0-4.023 4.024v2.127c0 .265.211.477.476.477h7.105a.475.475 0 0 0 .476-.477V7.396A4.03 4.03 0 0 0 12 3.372"/></svg>