<svg xmlns="http://www.w3.org/2000/svg" fill="currentColor" viewBox="0 0 24 24"><path fill="currentColor" fill-rule="evenodd" d="m7.18 15.05-2.298 2.298a.74.74 0 0 0 0 1.036.727.727 0 0 0 1.036 0l2.415-2.415 1.398 1.115c1.291 1.007 3.247 1.017 4.538 0l1.398-1.115 2.415 2.415a.726.726 0 0 0 1.036 0 .74.74 0 0 0 0-1.036L16.82 15.05l4.713-3.735H23V20.8a2.16 2.16 0 0 1-.645 1.555c-.411.42-.969.645-1.555.645H3.2a2.16 2.16 0 0 1-1.554-.645A2.16 2.16 0 0 1 1 20.8v-9.485h1.467zm3.363-13.749a3.68 3.68 0 0 1 2.914 0q.707.306 1.222.86l7.87 6.905.178.156-.138-.078a.75.75 0 0 0-.322-.078.8.8 0 0 0-.46.156l-.274.215-.41.332-7.764 6.161c-.772.606-1.946.606-2.718 0L2.887 9.77l-.42-.332-.275-.215a.7.7 0 0 0-.332-.147l-.117-.01H1.47l7.9-6.952a3.5 3.5 0 0 1 1.173-.812" clip-rule="evenodd"/></svg>