<svg xmlns="http://www.w3.org/2000/svg" fill="currentColor" viewBox="0 0 24 24"><path fill="currentColor" d="M17.19 1c.745 0 1.46.29 1.987.806A2.72 2.72 0 0 1 20 3.75v16.5a2.72 2.72 0 0 1-.823 1.944 2.84 2.84 0 0 1-1.988.806H6.811c-.746 0-1.46-.29-1.988-.806A2.72 2.72 0 0 1 4 20.25V3.75c0-.73.296-1.429.823-1.944A2.84 2.84 0 0 1 6.811 1zM6.81 2.833a.95.95 0 0 0-.663.269.9.9 0 0 0-.274.648v16.5c0 .243.099.477.274.648a.95.95 0 0 0 .664.269h10.378a.95.95 0 0 0 .663-.269.9.9 0 0 0 .274-.648V3.75a.9.9 0 0 0-.274-.648.95.95 0 0 0-.663-.269h-1.226l-.122.312c-.09.424-.324.806-.664 1.083s-.768.431-1.21.439h-3.934a1.98 1.98 0 0 1-1.221-.434 1.9 1.9 0 0 1-.671-1.088l-.104-.312z"/></svg>