<svg xmlns="http://www.w3.org/2000/svg" fill="currentColor" viewBox="0 0 24 24"><path fill="currentColor" d="M3.567 16.19a.5.5 0 0 1 .2.115l3.904 3.927a.45.45 0 0 1 .128.457.48.48 0 0 1-.302.33l-5.87 1.96a.46.46 0 0 1-.492-.147.45.45 0 0 1-.11-.467l1.984-5.877a.44.44 0 0 1 .329-.302.5.5 0 0 1 .23.004m11.934-12.1c.12 0 .237.047.324.132l3.913 3.918a.47.47 0 0 1 0 .65L9.298 19.233a.44.44 0 0 1-.494.103.4.4 0 0 1-.146-.103l-3.913-3.918a.46.46 0 0 1 0-.65L15.177 4.222a.47.47 0 0 1 .324-.132M19.766 1a3.3 3.3 0 0 1 2.285.924 3.235 3.235 0 0 1 0 4.577l-.667.64a.47.47 0 0 1-.64 0l-3.913-3.917a.46.46 0 0 1-.1-.501.5.5 0 0 1 .1-.149l.65-.65A3.3 3.3 0 0 1 19.766 1"/></svg>