<svg xmlns="http://www.w3.org/2000/svg" width="24" height="24" fill="none" viewBox="0 0 24 24"><g clip-path="url(#a)"><path fill="currentColor" d="M3.567 16.19c.075.021.145.06.2.115l3.904 3.927a.45.45 0 0 1 .128.457.48.48 0 0 1-.302.33l-5.87 1.96a.46.46 0 0 1-.492-.147.45.45 0 0 1-.11-.467l1.984-5.877a.44.44 0 0 1 .329-.302.5.5 0 0 1 .23.004m11.934-12.1c.121 0 .237.047.324.132l3.913 3.918a.47.47 0 0 1 0 .65L9.298 19.233a.44.44 0 0 1-.494.103.4.4 0 0 1-.146-.103l-3.913-3.918a.46.46 0 0 1 0-.65L15.177 4.222a.47.47 0 0 1 .324-.132M19.766 1c.852 0 1.671.331 2.285.924a3.233 3.233 0 0 1 0 4.577l-.667.64a.467.467 0 0 1-.64 0l-3.913-3.917a.457.457 0 0 1 0-.65l.65-.65A3.3 3.3 0 0 1 19.766 1"/></g><defs><clipPath id="a"><path fill="currentColor" d="M0 0h24v24H0z"/></clipPath></defs></svg>