<svg xmlns="http://www.w3.org/2000/svg" fill="currentColor" viewBox="0 0 24 24"><path fill="currentColor" d="M12.579 1c.49 0 .971.205 1.319.553l1.975 1.975c.04.051.082.102.102.154a.47.47 0 0 1-.245.614c-.737.317-1.32.89-1.627 1.627-.644 1.545.082 3.336 1.627 3.981a3.05 3.05 0 0 0 3.98-1.627.47.47 0 0 1 .768-.153l1.974 1.975a1.885 1.885 0 0 1 0 2.651l-2.425 2.426a3.97 3.97 0 0 1 2.895 3.07 3.974 3.974 0 0 1-7.745 1.781l-2.425 2.425a1.883 1.883 0 0 1-2.65 0l-1.975-1.975a.7.7 0 0 1-.101-.154.47.47 0 0 1 .245-.613 3.05 3.05 0 0 0 1.627-1.628 3.05 3.05 0 0 0-1.627-3.981 3.05 3.05 0 0 0-3.98 1.627.47.47 0 0 1-.767.153l-1.975-1.975a1.884 1.884 0 0 1 0-2.65L3.974 8.83A3.97 3.97 0 0 1 1.13 5.984a3.974 3.974 0 0 1 2.845-4.851 3.97 3.97 0 0 1 4.85 2.846l2.425-2.426A1.82 1.82 0 0 1 12.567 1z"/></svg>