<svg xmlns="http://www.w3.org/2000/svg" fill="currentColor" viewBox="0 0 24 24"><path fill="currentColor" d="M21.83 17.018c.674 0 1.17.534 1.17 1.273v3.436c0 .599-.487 1.273-1.17 1.273H7.787c-.674 0-1.17-.553-1.17-1.273V18.29c0-.73.496-1.273 1.17-1.273zM12.468 1c.674 0 1.17.534 1.17 1.273v1.011h2.107c.674 0 1.17.544 1.17 1.274v7.76l.627-.767a.7.7 0 0 1 .983-.094.7.7 0 0 1 .103.983l-1.835 2.238-.037.055a.66.66 0 0 1-.394.235c-.046 0-.093.018-.15.018-.055 0-.102-.009-.158-.018a.64.64 0 0 1-.384-.235l-.037-.055-1.835-2.238a.69.69 0 0 1 .093-.983.71.71 0 0 1 .993.094l.627.767v-7.63h-1.872V5.71c0 .6-.488 1.273-1.171 1.273H2.17C1.496 6.982 1 6.43 1 5.71V2.273C1 1.543 1.496 1 2.17 1z"/></svg>