<svg xmlns="http://www.w3.org/2000/svg" fill="currentColor" viewBox="0 0 24 24"><path fill="currentColor" d="M11.991 1a1.43 1.43 0 0 1 1.332.888l2.057 5.79a.47.47 0 0 0 .443.307h5.75c.291.003.576.093.814.26s.418.403.516.675a1.395 1.395 0 0 1-.368 1.55l-4.9 4.025a.46.46 0 0 0-.15.504l2.058 6.099a1.39 1.39 0 0 1-.498 1.64 1.43 1.43 0 0 1-1.73-.062l-5.05-3.661a.47.47 0 0 0-.557 0l-5.042 3.66a1.43 1.43 0 0 1-1.676.004 1.4 1.4 0 0 1-.513-.71 1.38 1.38 0 0 1 .008-.871l2.059-6.099a.46.46 0 0 0-.151-.504l-4.89-4.015a1.405 1.405 0 0 1-.425-1.541c.098-.273.277-.51.516-.676a1.43 1.43 0 0 1 .815-.26h5.75a.475.475 0 0 0 .443-.307l2.067-5.762A1.4 1.4 0 0 1 11.991 1"/></svg>