<svg xmlns="http://www.w3.org/2000/svg" fill="currentColor" viewBox="0 0 24 24"><path fill="currentColor" d="M17.106 5.232a.92.92 0 0 1 1.11-.695l4.057.957c.36.08.64.373.7.746l.01-.01a.94.94 0 0 1-.399.947l-1.25.785a.26.26 0 0 0-.09.293c.47 1.19.71 2.459.71 3.739 0 5.532-4.459 10.006-9.946 10.006-1 .01-1.999-.142-2.948-.444h-.011a1.157 1.157 0 0 1-.75-1.451v-.01c.19-.614.84-.957 1.45-.765a7.6 7.6 0 0 0 4.658-.041c4.008-1.33 6.177-5.673 4.858-9.704a.28.28 0 0 0-.15-.15.23.23 0 0 0-.2 0l-1.33.835a.86.86 0 0 1-.49.151q-.3-.015-.54-.181a.93.93 0 0 1-.369-.927zM2.551 8.99C4.212 3.72 9.799.799 15.026 2.47c.03.01.05.03.08.03.6.222.92.887.7 1.492-.22.604-.88.926-1.479.705A7.56 7.56 0 0 0 6.61 6.562v-.01a7.74 7.74 0 0 0-1.88 7.769q.045.105.15.151c.06.03.131.03.201 0l1.24-.816a.91.91 0 0 1 1.029 0c.3.201.45.565.39.928l-.84 4.11a.93.93 0 0 1-.4.585c-.15.1-.33.16-.51.16h-.18l-4.078-.916a.92.92 0 0 1-.72-.735.94.94 0 0 1 .4-.927l1.29-.867c.09-.06.13-.182.09-.283a10.08 10.08 0 0 1-.24-6.72"/></svg>