<svg width="24" height="24" viewBox="0 0 24 24" fill="none" xmlns="http://www.w3.org/2000/svg">
<g clip-path="url(#clip0_402_772)">
<path d="M10.3662 1C15.5337 1 19.7322 5.19905 19.7324 10.3672C19.7324 12.3272 19.1273 14.1472 18.0957 15.6523L22.4893 20.0469C23.1698 20.7275 23.1698 21.8231 22.4893 22.4922C22.1548 22.8266 21.7049 23 21.2666 23C20.8284 22.9999 20.3783 22.8266 20.0439 22.4922L15.6504 18.0977C14.1455 19.1294 12.326 19.7354 10.3662 19.7354V19.7236C5.19863 19.7235 1 15.5239 1 10.3672C1.00021 5.21064 5.19876 1.00009 10.3662 1ZM10.3662 4.46094C7.11356 4.46102 4.46115 7.10261 4.46094 10.3672C4.46094 13.6319 7.11343 16.2743 10.3662 16.2744C13.6191 16.2744 16.2725 13.6205 16.2725 10.3672C16.2722 7.11409 13.6189 4.46094 10.3662 4.46094Z" fill="#212121"/>
</g>
<defs>
<clipPath id="clip0_402_772">
<rect width="24" height="24" fill="white"/>
</clipPath>
</defs>
</svg>
