<svg xmlns="http://www.w3.org/2000/svg" width="24" height="24" fill="none" viewBox="0 0 24 24"><g clip-path="url(#a)"><path fill="currentColor" d="M10.366 1c5.168 0 9.366 4.199 9.366 9.367 0 1.96-.605 3.78-1.636 5.285l4.393 4.395c.68.68.68 1.776 0 2.445a1.74 1.74 0 0 1-1.222.508c-.439 0-.889-.173-1.223-.508l-4.394-4.394a9.3 9.3 0 0 1-5.284 1.637v-.011C5.2 19.724 1 15.524 1 10.367S5.199 1 10.366 1m0 3.46a5.91 5.91 0 0 0-5.905 5.907 5.91 5.91 0 0 0 5.905 5.907 5.92 5.92 0 0 0 5.907-5.907 5.92 5.92 0 0 0-5.907-5.906"/></g><defs><clipPath id="a"><path fill="currentColor" d="M0 0h24v24H0z"/></clipPath></defs></svg>