<svg xmlns="http://www.w3.org/2000/svg" fill="currentColor" viewBox="0 0 24 24"><path fill="currentColor" d="M13.582 1c.691 0 1.287.48 1.413 1.13l.44 2.318c.587.24 1.153.55 1.676.92l2.315-.79c.65-.23 1.393.02 1.739.61l1.645 2.64c.345.579.209 1.299-.315 1.738l-1.917 1.519c.073.6.073 1.22 0 1.83h-.01l1.885 1.519c.524.43.66 1.16.315 1.739l-1.603 2.639c-.346.58-1.09.84-1.74.61l-2.314-.79a9.6 9.6 0 0 1-1.676.92l-.44 2.318c-.125.65-.722 1.13-1.413 1.13h-3.206c-.691-.01-1.287-.48-1.413-1.13l-.44-2.318a9.3 9.3 0 0 1-1.676-.92l-2.315.79c-.66.22-1.393-.03-1.739-.61l-1.603-2.64a1.345 1.345 0 0 1 .315-1.738l1.917-1.519a7.6 7.6 0 0 1 0-1.83L1.505 9.566c-.524-.44-.66-1.16-.315-1.739l1.603-2.639c.346-.59 1.08-.85 1.74-.61l2.314.79a8.2 8.2 0 0 1 1.675-.92l.44-2.318C9.09 1.48 9.686 1 10.377 1zm-1.571 8.256c-1.582 0-2.881 1.24-2.881 2.749s1.3 2.749 2.88 2.749c1.593 0 2.88-1.22 2.88-2.75 0-1.528-1.298-2.748-2.88-2.748"/></svg>