<svg xmlns="http://www.w3.org/2000/svg" width="24" height="24" fill="none" viewBox="0 0 24 24"><g clip-path="url(#a)"><path fill="currentColor" d="M20.578 12.915a7.6 7.6 0 0 0 0-1.83l1.917-1.519c.524-.44.66-1.16.314-1.74l-1.644-2.638c-.346-.59-1.09-.84-1.739-.61l-2.315.79a8.5 8.5 0 0 0-1.675-.92l-.44-2.319C14.87 1.48 14.273 1 13.582 1h-3.206c-.69 0-1.288.48-1.414 1.13l-.44 2.318c-.596.24-1.152.55-1.675.92l-2.315-.79c-.66-.24-1.393.02-1.739.61L1.191 7.827c-.346.58-.21 1.3.314 1.74l1.917 1.518a7.6 7.6 0 0 0 0 1.83l-1.917 1.519c-.524.43-.66 1.16-.314 1.74l1.602 2.638c.346.58 1.079.83 1.739.61l2.315-.79c.523.36 1.079.67 1.676.92l.44 2.319c.125.65.722 1.119 1.414 1.129h3.205c.69 0 1.288-.48 1.414-1.13l.44-2.318a9.7 9.7 0 0 0 1.675-.92l2.315.79c.65.23 1.393-.03 1.739-.61l1.602-2.639c.346-.58.21-1.31-.314-1.74l-1.885-1.518zm-8.567 1.839c-1.582 0-2.88-1.24-2.88-2.749s1.298-2.749 2.88-2.749 2.88 1.22 2.88 2.749-1.288 2.749-2.88 2.749"/></g><defs><clipPath id="a"><path fill="currentColor" d="M0 0h24v24H0z"/></clipPath></defs></svg>