<svg xmlns="http://www.w3.org/2000/svg" fill="currentColor" viewBox="0 0 24 24"><path fill="currentColor" d="M20.468 1c.58 0 1.062.148 1.447.404.38.254.626.588.782.9A2.95 2.95 0 0 1 23 3.488l.001.028v16.952c0 .58-.148 1.062-.404 1.447-.254.38-.588.626-.9.782a3 3 0 0 1-1.184.302l-.028.001H3.532c-.58 0-1.062-.148-1.447-.404a2.3 2.3 0 0 1-.782-.9A2.95 2.95 0 0 1 1 20.512V3.532c0-.58.148-1.062.404-1.447a2.3 2.3 0 0 1 .9-.782A2.95 2.95 0 0 1 3.488 1h.028zM7.896 21.596h12.568a1 1 0 0 0 .174-.02c.125-.02.282-.06.43-.135a.9.9 0 0 0 .36-.305c.086-.13.168-.334.168-.668V3.536a1 1 0 0 0-.02-.174 1.6 1.6 0 0 0-.135-.43.9.9 0 0 0-.305-.36c-.13-.086-.334-.168-.668-.168H7.896zm7.677-14.16a.701.701 0 1 1 .992.992L12.995 12l3.57 3.572a.701.701 0 1 1-.992.992l-4.068-4.068a.7.7 0 0 1 0-.992z"/></svg>