<svg xmlns="http://www.w3.org/2000/svg" fill="currentColor" viewBox="0 0 24 24"><path fill="currentColor" d="M11.995 7.64a2.76 2.76 0 0 1 2.56 1.862c.524 1.464-.22 3.09-1.643 3.617v7.945c0 .516-.41.936-.913.936a.925.925 0 0 1-.91-.936v-7.945a2.82 2.82 0 0 1-1.812-2.638c-.021-1.548 1.202-2.827 2.718-2.841M4.354 2.278a.897.897 0 0 1 1.299 0 .954.954 0 0 1 0 1.325C3.84 5.454 2.836 7.973 2.835 10.6a9.93 9.93 0 0 0 2.818 6.987.953.953 0 0 1 0 1.323.93.93 0 0 1-.65.28.88.88 0 0 1-.649-.28c-4.472-4.597-4.472-12.035 0-16.632m13.993 0a.897.897 0 0 1 1.299 0c4.472 4.597 4.472 12.036 0 16.632a.93.93 0 0 1-.65.28.88.88 0 0 1-.649-.28.954.954 0 0 1 0-1.323l.01-.01c3.75-3.866 3.75-10.12-.01-13.974a.955.955 0 0 1 0-1.325M15.75 4.927a.906.906 0 0 1 1.3 0h.01v.032c3.027 3.133 3.027 8.182 0 11.304a.92.92 0 0 1-.65.268.9.9 0 0 1-.66-.279.96.96 0 0 1 0-1.335l.011-.01c2.315-2.39 2.315-6.266-.01-8.645a.97.97 0 0 1 0-1.335m-8.797 0a.894.894 0 0 1 1.289 0 .96.96 0 0 1 0 1.335c-2.315 2.39-2.315 6.265 0 8.655a.94.94 0 0 1 0 1.13.906.906 0 0 1-1.29.183c-3.026-3.132-3.026-8.181 0-11.303"/></svg>