<svg xmlns="http://www.w3.org/2000/svg" fill="currentColor" viewBox="0 0 24 24"><path fill="currentColor" d="M12 1c.51 0 .92.41.92.92v20.16c0 .51-.41.919-.92.919s-.92-.41-.92-.919V1.92c0-.51.41-.92.92-.92M8.33 2.83c.51 0 .92.41.92.919v16.492c0 .51-.41.92-.92.92s-.92-.41-.92-.92V3.75c0-.51.41-.92.92-.92m7.34 0c.51 0 .92.41.92.919v16.492c0 .51-.41.92-.92.92s-.92-.41-.92-.92V3.75c0-.51.41-.92.92-.92m-11 3.668c.51 0 .92.41.92.919v9.166c0 .51-.41.92-.92.92s-.92-.41-.92-.92V7.417c0-.51.41-.919.92-.919m14.66 0c.51 0 .92.41.92.919v9.166c0 .51-.41.92-.92.92s-.92-.41-.92-.92V7.417c0-.51.41-.919.92-.919M1.92 10.166c.51 0 .92.41.92.92v1.829c0 .51-.41.919-.92.919s-.92-.41-.92-.919v-1.83c0-.509.41-.919.92-.919m20.16 0c.51 0 .92.41.92.92v1.829c0 .51-.41.919-.92.919s-.92-.41-.92-.919v-1.83c0-.509.41-.919.92-.919"/></svg>