<svg xmlns="http://www.w3.org/2000/svg" fill="currentColor" viewBox="0 0 24 24"><path fill="currentColor" d="M11.422 1.176a.99.99 0 0 1 1.386.26l2.113 3.63c.17.3.17.66 0 .96-.16.3-.478.48-.817.48h-.737c-.11 0-.2.08-.22.19v7.122c.01.1.07.18.16.21.09.04.19.01.25-.06a11.9 11.9 0 0 1 3.966-3.11c.12-.05.169-.18.12-.29l-.21-.5a.91.91 0 0 1 .967-1.25l3.817.519a.91.91 0 0 1 .708.56c.13.31.09.66-.11.92l-2.302 3.07a.9.9 0 0 1-.848.361.93.93 0 0 1-.717-.56l-.229-.56a.24.24 0 0 0-.14-.12.19.19 0 0 0-.18 0 9.44 9.44 0 0 0-5.252 8.472v.38c0 .63-.508 1.14-1.136 1.14h-.09a1.15 1.15 0 0 1-1.106-1.18v-.38a9.44 9.44 0 0 0-5.213-8.472.19.19 0 0 0-.18 0c-.06.02-.11.06-.14.12l-.229.56c-.06.15-.16.28-.289.38a.916.916 0 0 1-1.275-.18l-2.303-3.03a.9.9 0 0 1-.18-.441c-.06-.5.29-.96.788-1.03l3.778-.53a.915.915 0 0 1 1.007 1.26l-.21.5c-.04.11.01.24.12.29 1.525.74 2.86 1.811 3.937 3.121.06.07.16.1.25.06a.23.23 0 0 0 .159-.21V6.696c0-.13-.1-.23-.23-.23h-.737a.92.92 0 0 1-.818-.48.97.97 0 0 1 0-.96l2.114-3.59c.07-.1.159-.19.258-.26"/></svg>