<svg xmlns="http://www.w3.org/2000/svg" fill="currentColor" viewBox="0 0 24 24"><path fill="currentColor" d="m20.234 1.661.03.001.09.005a2.7 2.7 0 0 1 1.125.352c.652.377 1.221 1.099 1.26 2.312a1 1 0 0 1 .012.133v2.573a1 1 0 0 1-.01.121v6.946a.8.8 0 0 1 0 .242v5.056l-.005.09a3.6 3.6 0 0 1-.278 1.19c-.145.336-.38.71-.758 1.002-.388.3-.885.477-1.484.477H3.728l-.09-.007a2.7 2.7 0 0 1-1.125-.35c-.675-.391-1.262-1.152-1.262-2.447V4.448l.001-.028q0-.035.004-.09a3.6 3.6 0 0 1 .278-1.19c.146-.337.38-.71.758-1.002.389-.3.885-.477 1.484-.477zM2.751 14.975v4.382c0 .76.302 1.025.514 1.148a1.2 1.2 0 0 0 .497.154l.022.002h4.131v-5.686zm6.664 5.686h5.163v-5.686H9.415zm6.663-5.686v5.686h4.138c.288 0 .457-.08.568-.165q.181-.141.297-.41a2 2 0 0 0 .14-.515 2 2 0 0 0 .02-.212v-4.384zM2.751 7.787v5.688h5.164V7.787zm6.664 5.688h5.163V7.787H9.415zm6.663-5.688v5.688h5.163V7.787z"/></svg>