<svg xmlns="http://www.w3.org/2000/svg" fill="currentColor" viewBox="0 0 24 24"><path fill="currentColor" d="M7.407 3.759c.82.03 1.61.36 2.21.919L19.69 14.754c.72.71.72 1.87 0 2.589l-5.117 5.117c-.34.34-.8.54-1.29.54-.48 0-.95-.2-1.289-.54v-.01L1.92 12.375c-.56-.6-.89-1.39-.92-2.209V5.588c0-1.01.82-1.83 1.83-1.83zM10.176 1c.82.03 1.61.36 2.209.92L22.46 11.995c.72.71.72 1.87 0 2.589l-.61.61c-.06.06-.14.08-.22.06a.23.23 0 0 1-.17-.16c-.159-.5-.43-.95-.79-1.32L10.597 3.7A4.78 4.78 0 0 0 7.64 2.39l-.222-.01H4.139c-.08.01-.15-.04-.19-.11a.22.22 0 0 1 0-.22C4.248 1.41 4.887 1 5.597 1zM6.038 7.417c-.76 0-1.38.62-1.38 1.379 0 .76.62 1.38 1.38 1.38s1.379-.62 1.379-1.38-.62-1.379-1.379-1.379"/></svg>