<svg xmlns="http://www.w3.org/2000/svg" fill="currentColor" viewBox="0 0 24 24"><path fill="currentColor" d="M12.415 1.56a1.884 1.884 0 0 1 2.663-.018l2.052 2.052a.71.71 0 0 1 0 1.011 1.62 1.62 0 0 0-.496 1.155c0 .43.152.831.458 1.136a1.58 1.58 0 0 0 1.136.458c.439-.01.85-.182 1.165-.497a.716.716 0 0 1 1.011 0L22.446 8.9c.353.353.554.83.554 1.336-.02.497-.21.974-.564 1.327l-2.29 2.29h-.019l-8.562 8.582a1.884 1.884 0 0 1-2.663.018l-2.051-2.052a.71.71 0 0 1 0-1.011c.649-.64.658-1.661.038-2.291-.62-.62-1.651-.6-2.29.039a.716.716 0 0 1-1.012 0l-2.043-2.043A1.9 1.9 0 0 1 1 13.749c.01-.487.21-.974.563-1.327zM10.63 5.37l8.008 7.987 1.003-1.021-8.008-7.988z"/></svg>