<svg xmlns="http://www.w3.org/2000/svg" fill="currentColor" viewBox="0 0 24 24"><path fill="currentColor" d="M14.235 1c.132 0 .263.038.374.108a.69.69 0 0 1 .29.655l-.15 2.065a9.85 9.85 0 0 1 6.712 7.581A9.834 9.834 0 0 1 11.805 23a9.82 9.82 0 0 1-7.095-3.028.95.95 0 0 1-.26-.67.94.94 0 0 1 1.615-.63 7.947 7.947 0 0 0 12.449-1.01 7.946 7.946 0 0 0-3.495-11.696l-.42-.165-.149 1.869a.71.71 0 0 1-.43.599.9.9 0 0 1-.271.046.7.7 0 0 1-.458-.169L9.683 4.95a.703.703 0 0 1 .065-1.112l4.113-2.73A.7.7 0 0 1 14.235 1m-2.28 8.082a.7.7 0 0 1 .644.418.7.7 0 0 1 .056.264v4.674a.7.7 0 0 1-.206.496l-2.803 2.803a.72.72 0 0 1-.497.206.74.74 0 0 1-.495-.206.7.7 0 0 1 0-.99l2.599-2.58V9.782a.7.7 0 0 1 .701-.7M3.008 11.68a.94.94 0 0 1 .829.629c.04.116.056.24.049.362a7.9 7.9 0 0 0 .551 3.477.936.936 0 0 1-1.394 1.13.94.94 0 0 1-.344-.428 10.1 10.1 0 0 1-.682-4.291.94.94 0 0 1 .99-.88m3.88-6.925a.94.94 0 0 1 1.13.772.94.94 0 0 1-.486.965 7.8 7.8 0 0 0-2.468 2.496.94.94 0 0 1-.794.449.937.937 0 0 1-.795-1.421A9.45 9.45 0 0 1 6.54 4.911a.9.9 0 0 1 .347-.157"/></svg>