<svg xmlns="http://www.w3.org/2000/svg" fill="currentColor" viewBox="0 0 24 24"><path fill="currentColor" d="M19.79 20.589c.665 0 1.21.543 1.21 1.206S20.455 23 19.79 23H4.209A1.21 1.21 0 0 1 3 21.795c0-.663.544-1.206 1.209-1.206zm-.685-1.336h-.01l.004-.001zM18.54 1.14a1.213 1.213 0 0 1 1.633.492 1.206 1.206 0 0 1-.493 1.628L6.759 10.13l12.91 6.862c.584.312.806 1.045.494 1.627a1.206 1.206 0 0 1-1.623.492L4.592 11.7a1.5 1.5 0 0 1-.282-.21 1.92 1.92 0 0 1 0-2.723c.08-.08.181-.151.282-.211z"/></svg>