<svg xmlns="http://www.w3.org/2000/svg" fill="currentColor" viewBox="0 0 24 24"><path fill="currentColor" d="M8.003 9.606c.25 0 .49.102.67.276.18.184.27.428.27.683v.48h1.402c.37-.01.73.144 1 .41.26.275.4.642.4 1.02v7.167h.94v-.48c0-.256.1-.5.27-.684a.93.93 0 0 1 .671-.276l-.02.02h8.434c.25 0 .49.103.67.276.18.184.27.429.27.684v2.869c0 .234-.1.459-.24.622a.9.9 0 0 1-.69.327h-8.434a.97.97 0 0 1-.67-.275.97.97 0 0 1-.27-.685v-.48h-1.402c-.35 0-.72-.122-1-.408s-.4-.664-.4-1.021v-7.166h-.94v.48c0 .234-.1.459-.24.622a.9.9 0 0 1-.691.327H3.32a.97.97 0 0 1-.67-.276.97.97 0 0 1-.27-.683v-2.87c0-.255.1-.5.27-.683a.93.93 0 0 1 .67-.276zM10.354 1c.25 0 .49.092.67.275.17.184.27.43.27.685v.48h2.342c.35 0 .72.122 1 .408s.4.664.4 1.021v4.777h1.402v-.479c0-.255.089-.5.269-.685a.97.97 0 0 1 .67-.275h4.683c.25 0 .49.092.67.275.17.184.27.43.27.685v2.868c0 .235-.1.46-.24.623a.91.91 0 0 1-.69.326h-4.682a.93.93 0 0 1-.671-.275 1 1 0 0 1-.27-.684v-.48h-1.87c-.37 0-.73-.143-1-.408a1.44 1.44 0 0 1-.401-1.02V4.348h-1.871v.48c0 .234-.1.459-.24.622a.91.91 0 0 1-.691.326H1.94a.93.93 0 0 1-.67-.275A1 1 0 0 1 1 4.818V1.96c0-.255.08-.5.27-.685h-.02A.97.97 0 0 1 1.92 1z"/></svg>