<svg xmlns="http://www.w3.org/2000/svg" fill="currentColor" viewBox="0 0 24 24"><path fill="currentColor" d="M10.197 1.01a9.65 9.65 0 0 1 6.591 2.204 9.62 9.62 0 0 1 1.825 12.823l3.85 3.846a1.83 1.83 0 0 1 0 2.586 1.83 1.83 0 0 1-2.578 0l-3.86-3.856a9.65 9.65 0 0 1-12.83-1.868 9.624 9.624 0 0 1 .64-12.937 9.65 9.65 0 0 1 6.362-2.798m.46 1.89a7.8 7.8 0 0 0-5.494 2.278 7.77 7.77 0 0 0-2.28 5.488 7.77 7.77 0 0 0 9.29 7.615 7.762 7.762 0 0 0-1.517-15.38m3.201 6.852a.915.915 0 0 1 .915.914.913.913 0 0 1-.915.913h-6.4a.917.917 0 0 1-.915-.913.914.914 0 0 1 .915-.914z"/></svg>