<svg xmlns="http://www.w3.org/2000/svg" width="24" height="24" fill="none" viewBox="0 0 24 24"><g fill="currentColor" clip-path="url(#a)"><path d="M9.961 14.466a.92.92 0 0 1-.268-.65v-2.295H7.398a.918.918 0 1 1 0-1.836h2.295V7.39a.918.918 0 1 1 1.835 0v2.295h2.295a.918.918 0 0 1 0 1.836h-2.295v2.296a.918.918 0 0 1-1.567.65"/><path fill-rule="evenodd" d="m18.597 16.002 3.864 3.866a1.837 1.837 0 0 1 0 2.598 1.836 1.836 0 0 1-2.588 0L15.999 18.6a9.619 9.619 0 0 1-14.988-8.44 9.623 9.623 0 0 1 9.148-9.149 9.62 9.62 0 0 1 9.982 8.23 9.62 9.62 0 0 1-1.544 6.761M14.945 4.114A7.8 7.8 0 0 0 10.61 2.8a7.81 7.81 0 0 0-7.802 7.804 7.806 7.806 0 0 0 9.325 7.655 7.802 7.802 0 0 0 5.686-10.641 7.8 7.8 0 0 0-2.873-3.503" clip-rule="evenodd"/></g><defs><clipPath id="a"><path fill="currentColor" d="M0 0h24v24H0z"/></clipPath></defs></svg>