<svg xmlns="http://www.w3.org/2000/svg" fill="currentColor" viewBox="0 0 24 24"><path fill="currentColor" d="M10.159 1.011a9.62 9.62 0 0 1 9.982 8.23 9.63 9.63 0 0 1-1.544 6.761l3.864 3.865a1.84 1.84 0 0 1 0 2.6 1.836 1.836 0 0 1-2.587 0L16 18.6a9.62 9.62 0 0 1-14.99-8.44 9.623 9.623 0 0 1 9.148-9.15m.452 1.788a7.81 7.81 0 0 0-7.803 7.804 7.81 7.81 0 0 0 4.817 7.21A7.803 7.803 0 1 0 10.61 2.8m0 3.673a.92.92 0 0 1 .918.918v2.295h2.295a.92.92 0 0 1 0 1.837h-2.295v2.295a.92.92 0 0 1-1.568.65.92.92 0 0 1-.268-.65v-2.295H7.398a.92.92 0 0 1 0-1.837h2.295V7.39a.92.92 0 0 1 .918-.918"/></svg>