<svg xmlns="http://www.w3.org/2000/svg" width="24" height="24" fill="none" viewBox="0 0 24 24"><g clip-path="url(#a)"><path fill="currentColor" d="M18.518 13.129a1.7 1.7 0 0 0 .357-.513l.005-.011c.076-.189.12-.4.12-.604 0-.195-.032-.412-.125-.614a1.7 1.7 0 0 0-.357-.513l-9.93-9.61A.94.94 0 0 0 7.933 1a.94.94 0 0 0-.656.264.91.91 0 0 0 0 1.305l9.746 9.432-9.746 9.432a.91.91 0 0 0 0 1.305c.361.35.951.35 1.313 0z"/></g><defs><clipPath id="a"><path fill="currentColor" d="M0 0h24v24H0z"/></clipPath></defs></svg>