<svg xmlns="http://www.w3.org/2000/svg" width="24" height="24" fill="none" viewBox="0 0 24 24"><g fill="currentColor" fill-rule="evenodd" clip-path="url(#a)" clip-rule="evenodd"><path d="M15.7 11.73c.13 0 .27.02.4.05 3.39.908 5.9 4.06 5.9 7.824C22 20.929 20.95 22 19.66 22H4.34C3.05 22 2 20.93 2 19.604c0-3.754 2.5-6.916 5.9-7.824a1.58 1.58 0 0 1 1.17.153c.87.49 1.87.765 2.93.765s2.06-.275 2.93-.764c.24-.133.5-.204.77-.204m-7.42 1.53c-2.81.755-4.78 3.365-4.78 6.344 0 .479.38.866.84.866h15.31c.46 0 .84-.387.84-.866 0-2.979-1.96-5.59-4.78-6.344h-.01c-.02 0-.04.01-.05.01a7.5 7.5 0 0 1-7.3 0c-.02-.01-.05-.01-.05-.01zM12 2a4.55 4.55 0 0 1 4.546 4.546A4.55 4.55 0 0 1 12 11.09a4.547 4.547 0 0 1-4.545-4.545A4.547 4.547 0 0 1 12 2m0 1.43a3.12 3.12 0 0 0-3.113 3.116A3.12 3.12 0 0 0 12 9.66c1.719 0 3.113-1.4 3.113-3.115A3.12 3.12 0 0 0 12 3.43"/></g><defs><clipPath id="a"><path fill="currentColor" d="M0 0h24v24H0z"/></clipPath></defs></svg>