<svg xmlns="http://www.w3.org/2000/svg" width="24" height="24" fill="none" viewBox="0 0 24 24"><g clip-path="url(#a)"><path fill="currentColor" d="M11.78 1.329 1.733 10.305A2.5 2.5 0 0 0 1 11.951a2.5 2.5 0 0 0 .733 1.647l10.084 8.976a1.3 1.3 0 0 0 .972.426 1.28 1.28 0 0 0 .96-.454 1.32 1.32 0 0 0 .302-1.03 1.32 1.32 0 0 0-.557-.914l-7.755-6.93a.23.23 0 0 1-.064-.26.23.23 0 0 1 .21-.149h15.823a1.28 1.28 0 0 0 .913-.384A1.3 1.3 0 0 0 23 11.95a1.33 1.33 0 0 0-.379-.927 1.3 1.3 0 0 0-.913-.384H5.886a.23.23 0 0 1-.211-.149.24.24 0 0 1 .064-.26l7.755-6.93a1.3 1.3 0 0 0 .436-.904 1.34 1.34 0 0 0-.321-.952 1.3 1.3 0 0 0-.89-.442 1.28 1.28 0 0 0-.939.326"/></g><defs><clipPath id="a"><path fill="currentColor" d="M0 0h24v24H0z"/></clipPath></defs></svg>