<svg xmlns="http://www.w3.org/2000/svg" width="24" height="24" fill="none" viewBox="0 0 24 24"><g clip-path="url(#a)"><path fill="currentColor" d="m1.329 12.22 8.976 10.047a2.5 2.5 0 0 0 1.646.733 2.5 2.5 0 0 0 1.647-.733l8.976-10.084a1.3 1.3 0 0 0 .426-.972 1.28 1.28 0 0 0-.454-.96 1.32 1.32 0 0 0-1.03-.302 1.33 1.33 0 0 0-.914.557l-6.93 7.755a.23.23 0 0 1-.26.064.23.23 0 0 1-.149-.21V2.291a1.28 1.28 0 0 0-.384-.913A1.3 1.3 0 0 0 11.95 1a1.33 1.33 0 0 0-.927.379 1.3 1.3 0 0 0-.384.914v15.821a.23.23 0 0 1-.149.211.24.24 0 0 1-.26-.064L3.3 10.506a1.3 1.3 0 0 0-.904-.436 1.34 1.34 0 0 0-.952.321 1.3 1.3 0 0 0-.442.89 1.28 1.28 0 0 0 .326.939"/></g><defs><clipPath id="a"><path fill="currentColor" d="M0 0h24v24H0z"/></clipPath></defs></svg>