<svg xmlns="http://www.w3.org/2000/svg" width="24" height="24" fill="none" viewBox="0 0 24 24"><path fill="currentColor" d="m12.22 22.671 10.047-8.976A2.5 2.5 0 0 0 23 12.049a2.5 2.5 0 0 0-.733-1.647L12.183 1.426A1.3 1.3 0 0 0 11.211 1a1.28 1.28 0 0 0-.96.455 1.32 1.32 0 0 0-.302 1.03 1.32 1.32 0 0 0 .557.913l7.755 6.93a.23.23 0 0 1 .064.26.23.23 0 0 1-.21.149H2.291a1.28 1.28 0 0 0-.913.384A1.3 1.3 0 0 0 1 12.05a1.33 1.33 0 0 0 .379.927 1.3 1.3 0 0 0 .914.384h15.821a.23.23 0 0 1 .211.149.24.24 0 0 1-.064.26l-7.755 6.93a1.3 1.3 0 0 0-.436.904 1.34 1.34 0 0 0 .321.952 1.3 1.3 0 0 0 .89.442 1.28 1.28 0 0 0 .939-.326"/></svg>