<svg xmlns="http://www.w3.org/2000/svg" width="24" height="24" fill="none" viewBox="0 0 24 24"><g fill="currentColor" clip-path="url(#a)"><path fill-rule="evenodd" d="M2.48 3.22a.75.75 0 0 1 1.061 0l5.132 5.129.85.854 4.032 4.035 1.05 1.043 1.992 1.989h-.011l3.262 3.26c.3.287.29.765 0 1.053a.74.74 0 0 1-.53.218.74.74 0 0 1-.53-.218l-4.183-4.184v3.875c0 .269-.14.507-.36.636-.11.06-.22.09-.34.09a.7.7 0 0 1-.37-.11l-5.432-3.507H6.062C3.82 17.383 2 15.444 2 13.049s1.82-4.333 4.062-4.333h.86L2.48 4.273a.74.74 0 0 1 0-1.053m3.582 6.937c-1.46 0-2.661 1.292-2.662 2.892s1.191 2.892 2.662 2.892h2.24a.7.7 0 0 1 .37.11l4.533 2.915v-3.95l-4.852-4.859z" clip-rule="evenodd"/><path d="M18.827 7.355a.684.684 0 0 1 .99.02c2.811 3.02 2.902 7.86.301 11.01l-1.02-1.023c2.08-2.594 2-6.52-.29-8.984a.74.74 0 0 1 .02-1.023"/><path d="M16.687 9.66a.684.684 0 0 1 .99.02c1.64 1.779 1.7 4.602.21 6.48l-1-1.004c.98-1.322.92-3.25-.221-4.472a.74.74 0 0 1 .02-1.024m-3.141-4.452c.22-.139.49-.15.71-.02.22.129.36.378.36.636v7.046l-1.4-1.391V7.126l.01-.01-2.652 1.71-1.04-1.034z"/></g><defs><clipPath id="a"><path fill="currentColor" d="M0 0h24v24H0z"/></clipPath></defs></svg>