<svg xmlns="http://www.w3.org/2000/svg" width="24" height="24" fill="none" viewBox="0 0 24 24"><g fill="currentColor" clip-path="url(#a)"><path d="M22.198 15.756c.439 0 .802.35.802.775v1.314c0 1.872-1.571 3.404-3.517 3.404H4.517C2.582 21.249 1 19.727 1 17.845V16.53c0-.424.363-.775.802-.775.438 0 .801.35.802.775v1.314c0 1.024.854 1.852 1.913 1.852h14.966c1.048 0 1.913-.828 1.913-1.852V16.53c0-.424.364-.775.802-.775"/><path d="M12 3.752c.438 0 .802.351.802.775v8.59l2.715-2.627c.31-.3.823-.3 1.133 0s.31.797 0 1.097l-4.084 3.95-.01.012a.84.84 0 0 1-.545.207.82.82 0 0 1-.545-.207l-.01-.011h-.022L7.35 11.587a.763.763 0 0 1 0-1.097c.31-.3.823-.3 1.133 0l2.715 2.627v-8.59c0-.424.364-.775.802-.775"/></g><defs><clipPath id="a"><path fill="currentColor" d="M0 0h24v24H0z"/></clipPath></defs></svg>