<svg xmlns="http://www.w3.org/2000/svg" width="24" height="24" fill="none" viewBox="0 0 24 24"><g clip-path="url(#a)"><path fill="currentColor" d="M22.573 9.714c-.439-.679-1.173-1.093-1.94-1.093V7.458c0-1.324-1.02-2.395-2.28-2.395h-8.101L8.75 2.956A2.25 2.25 0 0 0 6.93 2H3.28C2.02 2 1 3.07 1 4.395v15.21C1 20.93 2.02 22 3.28 22h15.072c.099 0 .187-.023.285-.035h.044c.91-.138 1.644-.84 1.875-1.75v-.023l2.345-8.267c.22-.76.099-1.566-.317-2.21zM3.28 3.727h3.65c.198 0 .395.104.504.265l1.754 2.452a.8.8 0 0 0 .658.346h8.506c.351 0 .636.3.636.668v1.151H5.714c-1.053 0-1.963.725-2.27 1.808l-.8 2.832V4.395c0-.369.285-.668.636-.668m18.043 7.703-2.346 8.267c-.099.346-.373.576-.69.576H3.379a.73.73 0 0 1-.592-.334.94.94 0 0 1-.11-.748l2.346-8.268c.099-.345.373-.575.69-.575h14.908c.23 0 .45.126.592.334a.94.94 0 0 1 .11.748"/></g><defs><clipPath id="a"><path fill="currentColor" d="M0 0h24v24H0z"/></clipPath></defs></svg>