<svg xmlns="http://www.w3.org/2000/svg" fill="currentColor" viewBox="0 0 24 24"><path fill="currentColor" d="M15.67 1c.264 0 .526.048.77.14.243.093.464.23.65.401l4.32 3.96c.187.17.335.373.437.597.1.223.153.463.153.705v14.364c0 .486-.21.952-.586 1.296A2.1 2.1 0 0 1 20 23H4c-.53 0-1.039-.193-1.414-.537A1.76 1.76 0 0 1 2 21.167V2.833c0-.486.21-.952.586-1.296A2.1 2.1 0 0 1 4 1zM11.5 11.08a1.1 1.1 0 0 0-.5.122l-2.86 2.072a.54.54 0 0 1-.31.101H6.5c-.265 0-.52.097-.707.269a.88.88 0 0 0-.293.648v1.833a.88.88 0 0 0 .293.648c.187.172.442.269.707.269h1.33a.54.54 0 0 1 .31.1l2.87 2.063a1.07 1.07 0 0 0 1 0 .96.96 0 0 0 .36-.335.86.86 0 0 0 .13-.453l-.01-6.426a.86.86 0 0 0-.132-.454.96.96 0 0 0-.358-.335 1.1 1.1 0 0 0-.5-.122m5.186.342a.8.8 0 0 0-.518.201.66.66 0 0 0-.219.474.66.66 0 0 0 .201.48c.35.32.627.699.816 1.116s.286.867.286 1.319-.097.9-.286 1.317a3.4 3.4 0 0 1-.816 1.116.66.66 0 0 0-.22.486c0 .182.08.357.22.486a.83.83 0 0 0 .53.201.8.8 0 0 0 .53-.201 4.8 4.8 0 0 0 1.14-1.562c.264-.585.4-1.21.4-1.843s-.136-1.26-.4-1.844a4.8 4.8 0 0 0-1.14-1.562.8.8 0 0 0-.524-.184m-2.131 1.927a.8.8 0 0 0-.294.05.8.8 0 0 0-.25.15.7.7 0 0 0-.165.23.64.64 0 0 0 .01.537q.062.128.174.223c.14.13.218.305.22.486a.65.65 0 0 1-.126.381l-.187.21a.65.65 0 0 0-.127.381c0 .182.08.357.22.485.14.129.331.201.53.202.198 0 .39-.073.53-.202.421-.386.658-.91.658-1.457a1.98 1.98 0 0 0-.658-1.458.8.8 0 0 0-.243-.159.8.8 0 0 0-.292-.06"/></svg>