<svg xmlns="http://www.w3.org/2000/svg" fill="currentColor" viewBox="0 0 24 24"><path fill="currentColor" d="M17.36 1c.53 0 1.04.22 1.42.6l2.62 2.63c.19.2.34.43.45.68.1.26.15.53.15.8v15.21c0 .55-.21 1.07-.58 1.47-.38.39-.9.61-1.44.61H4.03c-.54 0-1.06-.22-1.44-.61-.38-.4-.59-.92-.59-1.47V3.07c0-.54.21-1.07.59-1.46S3.49 1 4.03 1zM10.4 8.93a.677.677 0 0 0-.98 0l-3.49 3.51c-.27.27-.27.72 0 .99l3.49 3.51c.27.28.71.28.98 0 .28-.27.28-.72 0-.99l-2.99-3.01 2.99-3.02c.28-.27.28-.72 0-.99m4.19 0a.69.69 0 0 0-.99 0c-.27.27-.27.72 0 .99l3 3.02-3 3.01c-.27.27-.27.72 0 .99.27.28.72.28.99 0l3.49-3.51c.27-.27.27-.72 0-.99z"/></svg>