<svg xmlns="http://www.w3.org/2000/svg" fill="currentColor" viewBox="0 0 24 24"><path fill="currentColor" d="M14.75 1c.066 0 .13.024.177.067A.22.22 0 0 1 15 1.23v3.896c0 .608.264 1.19.732 1.62a2.62 2.62 0 0 0 1.768.672h4.25l.049.004q.074.014.128.062a.22.22 0 0 1 .073.163v13.521c0 .486-.21.952-.586 1.296A2.1 2.1 0 0 1 20 23H4c-.53 0-1.039-.193-1.414-.537A1.76 1.76 0 0 1 2 21.167V2.833c0-.486.21-.952.586-1.296A2.1 2.1 0 0 1 4 1zM8.5 12.807a3.78 3.78 0 0 0-2.442 1.032 3.2 3.2 0 0 0-.997 2.29c0 .853.357 1.673.997 2.29.64.62 1.514.988 2.442 1.033a.65.65 0 0 0 .394-.19.55.55 0 0 0 .157-.382.55.55 0 0 0-.157-.382.65.65 0 0 0-.394-.191 2.6 2.6 0 0 1-.957-.123 2.4 2.4 0 0 1-.824-.462 2.2 2.2 0 0 1-.557-.725 2.03 2.03 0 0 1 0-1.735c.13-.274.32-.52.557-.724s.518-.361.824-.462a2.6 2.6 0 0 1 .957-.124.65.65 0 0 0 .394-.19.55.55 0 0 0 .157-.382.55.55 0 0 0-.157-.382.65.65 0 0 0-.394-.191m3.3 0c-.51 0-.998.185-1.358.515s-.562.778-.562 1.244a1.66 1.66 0 0 0 .224.835c.149.258.364.479.627.642l1.84 1.118c.122.073.215.18.266.307a.58.58 0 0 1 .015.392.63.63 0 0 1-.246.323.7.7 0 0 1-.406.124h-1.7a.65.65 0 0 0-.394.191.55.55 0 0 0-.157.382c0 .14.056.276.157.382a.65.65 0 0 0 .394.19h1.7c.412-.005.812-.13 1.14-.357.33-.227.571-.545.69-.906.12-.362.11-.749-.027-1.105a1.8 1.8 0 0 0-.733-.877l-1.84-1.118a.66.66 0 0 1-.226-.226.6.6 0 0 1-.084-.297.6.6 0 0 1 .202-.434.72.72 0 0 1 .478-.18h1.7a.65.65 0 0 0 .394-.19.55.55 0 0 0 .157-.382.55.55 0 0 0-.157-.382.65.65 0 0 0-.394-.191zm6.7 0a.7.7 0 0 0-.237.043.6.6 0 0 0-.202.123.6.6 0 0 0-.134.184.5.5 0 0 0-.047.218v1.375a6 6 0 0 1-.7 2.75.2.2 0 0 1-.08.059.25.25 0 0 1-.28-.059 6 6 0 0 1-.7-2.75v-1.375a.55.55 0 0 0-.182-.402.65.65 0 0 0-.438-.166.65.65 0 0 0-.438.166.55.55 0 0 0-.182.402v1.375c0 1.612.569 3.181 1.62 4.474q.09.106.222.166a.675.675 0 0 0 .778-.166c1.051-1.293 1.62-2.862 1.62-4.474v-1.375a.5.5 0 0 0-.047-.218.6.6 0 0 0-.134-.184.6.6 0 0 0-.202-.123.7.7 0 0 0-.237-.043M16.303 1.329q.073.016.127.066l5.14 4.71q.054.05.07.118t-.011.132a.23.23 0 0 1-.09.104.27.27 0 0 1-.139.041h-3.9c-.398 0-.78-.145-1.06-.402a1.32 1.32 0 0 1-.44-.973V1.55q.001-.07.044-.127a.25.25 0 0 1 .114-.083.3.3 0 0 1 .145-.01"/></svg>