<svg xmlns="http://www.w3.org/2000/svg" fill="currentColor" viewBox="0 0 24 24"><path fill="currentColor" d="M22.083 2a.88.88 0 0 1 .648.293c.172.188.269.442.269.707v18c0 .265-.097.52-.269.707a.88.88 0 0 1-.648.293H8.792a.88.88 0 0 1-.648-.293A1.05 1.05 0 0 1 7.875 21v-1.5h2.75c.48-.003.95-.143 1.365-.406s.76-.64 1-1.094h1.302v-3.38h-.917v-1.93h.917V9.31h-.917V7.38h.917V4H9.708v.5H7.875V3c0-.265.097-.52.269-.707A.88.88 0 0 1 8.792 2zM10.625 6c.365 0 .715.158.973.44.257.28.402.662.402 1.06v9c0 .398-.145.78-.402 1.06a1.32 1.32 0 0 1-.973.44h-8.25a1.32 1.32 0 0 1-.973-.44A1.57 1.57 0 0 1 1 16.5v-9c0-.398.145-.78.402-1.06A1.32 1.32 0 0 1 2.375 6zm5.958 8.62V18h4.584v-3.38zM3.686 8.5 5.693 12l-2.007 3.5h1.623L6.5 13.42l1.191 2.08h1.623L7.307 12l2.007-3.5H7.691L6.5 10.58 5.309 8.5zm12.897.81v3.38h4.584V9.31zm0-5.31v3.38h4.584V4z"/></svg>