<svg xmlns="http://www.w3.org/2000/svg" fill="currentColor" viewBox="0 0 24 24"><path fill="currentColor" d="M17.358 1c.53 0 1.042.216 1.423.6l2.614 2.63c.196.196.345.43.447.683.111.253.158.524.158.796v15.213c0 .543-.205 1.067-.586 1.46a2 2 0 0 1-1.442.618H4.028c-.54 0-1.06-.225-1.442-.618A2.13 2.13 0 0 1 2 20.922V3.069c0-.543.214-1.067.586-1.46A2.05 2.05 0 0 1 4.028 1zm-3.47 8.5a1.35 1.35 0 0 0-.66.15 1.45 1.45 0 0 0-.502.45l-1.423 2.05-.577-.459a1.5 1.5 0 0 0-.512-.262 1.37 1.37 0 0 0-1.106.178 1.3 1.3 0 0 0-.41.403l-2.373 3.576a.72.72 0 0 0-.037.72.69.69 0 0 0 .614.375h11.145c.26 0 .492-.14.613-.374a.72.72 0 0 0-.027-.721l-3.6-5.458a1.3 1.3 0 0 0-.503-.459 1.3 1.3 0 0 0-.641-.169M7.313 7.553c-.577 0-1.042.468-1.042 1.049 0 .58.465 1.057 1.042 1.057a1.052 1.052 0 0 0 0-2.107"/></svg>