<svg xmlns="http://www.w3.org/2000/svg" fill="currentColor" viewBox="0 0 24 24"><path fill="currentColor" d="M14.75 1c.066 0 .13.024.177.067A.22.22 0 0 1 15 1.23v3.896c0 .608.264 1.19.732 1.62a2.62 2.62 0 0 0 1.768.672h4.25c.066 0 .13.024.177.066a.22.22 0 0 1 .073.163v13.521c0 .486-.21.952-.586 1.296A2.1 2.1 0 0 1 20 23H4c-.53 0-1.039-.193-1.414-.537A1.76 1.76 0 0 1 2 21.167V2.833c0-.486.21-.952.586-1.296A2.1 2.1 0 0 1 4 1zM6 12.339a.66.66 0 0 0-.44.173.56.56 0 0 0-.18.405v5.5c0 .15.065.295.182.401a.65.65 0 0 0 .438.167.65.65 0 0 0 .438-.167.55.55 0 0 0 .182-.401v-1.943a.23.23 0 0 1 .076-.17.27.27 0 0 1 .184-.069h.62a2.2 2.2 0 0 0 1.411-.616c.368-.361.573-.837.573-1.332s-.205-.971-.573-1.333A2.2 2.2 0 0 0 7.5 12.34zm5 0a.66.66 0 0 0-.44.173.56.56 0 0 0-.18.405v5.5c0 .15.065.295.181.401a.65.65 0 0 0 .439.167 3.78 3.78 0 0 0 2.442-1.033 3.2 3.2 0 0 0 .998-2.29c0-.852-.358-1.672-.998-2.29A3.78 3.78 0 0 0 11 12.34m6 0c-.213 0-.425.039-.622.114a1.6 1.6 0 0 0-.527.324c-.15.14-.27.305-.351.486-.08.18-.121.374-.12.57v4.584c0 .15.065.295.181.401a.65.65 0 0 0 .439.167c.164 0 .322-.06.439-.167a.55.55 0 0 0 .181-.401v-1.943a.23.23 0 0 1 .076-.17.26.26 0 0 1 .184-.069H18a.65.65 0 0 0 .394-.191.55.55 0 0 0 .157-.382.55.55 0 0 0-.157-.382.65.65 0 0 0-.394-.191h-1.12a.27.27 0 0 1-.18-.066.23.23 0 0 1-.08-.163v-1.027c0-.092.04-.18.111-.246a.4.4 0 0 1 .269-.102h2a.65.65 0 0 0 .394-.191.55.55 0 0 0 .157-.382.55.55 0 0 0-.157-.382.65.65 0 0 0-.394-.191zm-5 1.329c.415.177.765.46 1.01.814.244.354.373.766.37 1.185a2.03 2.03 0 0 1-.36 1.197 2.3 2.3 0 0 1-1.02.82.26.26 0 0 1-.22-.019.23.23 0 0 1-.078-.075.2.2 0 0 1-.032-.099v-3.667c0-.201.23-.156.33-.156m-4.5-.183a1 1 0 0 1 .364.035.9.9 0 0 1 .318.168.8.8 0 0 1 .215.271.75.75 0 0 1 0 .656.8.8 0 0 1-.215.272.9.9 0 0 1-.318.168 1 1 0 0 1-.364.034h-.62a.27.27 0 0 1-.18-.066.23.23 0 0 1-.08-.163v-1.136a.23.23 0 0 1 .076-.17.27.27 0 0 1 .184-.069zM16.3 1.33a.3.3 0 0 1 .13.055l5.14 4.72q.054.05.07.118t-.011.132a.23.23 0 0 1-.09.104.27.27 0 0 1-.139.041h-3.9c-.398 0-.78-.145-1.06-.402a1.32 1.32 0 0 1-.44-.973V1.55a.23.23 0 0 1 .048-.123.26.26 0 0 1 .111-.082.3.3 0 0 1 .142-.015"/></svg>