<svg xmlns="http://www.w3.org/2000/svg" fill="currentColor" viewBox="0 0 24 24"><path fill="currentColor" fill-rule="evenodd" d="M13.67 2.005a9.35 9.35 0 0 1 4.232 1.17 9.8 9.8 0 0 1 3.462 3.25 10.25 10.25 0 0 1 1.586 4.557 10.36 10.36 0 0 1-.665 4.8 10 10 0 0 1-2.758 3.907 9.5 9.5 0 0 1-4.203 2.104 9.3 9.3 0 0 1-4.662-.198 9.55 9.55 0 0 1-4.024-2.452h3.987a2.7 2.7 0 0 0 1.945-.837 2.92 2.92 0 0 0 .806-2.02V7.714c0-.758-.29-1.484-.806-2.02a2.7 2.7 0 0 0-1.945-.837H6.638C8.436 3.023 10.856 1.997 13.376 2zm-3.044 4.281c.365 0 .714.15.972.418.257.268.403.631.403 1.01v8.572c0 .379-.146.742-.403 1.01a1.35 1.35 0 0 1-.972.419H2.375c-.365 0-.715-.151-.973-.42A1.46 1.46 0 0 1 1 16.287V7.714c0-.379.145-.742.402-1.01a1.35 1.35 0 0 1 .973-.418zm-6.647 8.686h1.375v-1.906H6.73c.608 0 1.19-.25 1.62-.697a2.43 2.43 0 0 0 .672-1.683c0-.632-.242-1.237-.671-1.683a2.26 2.26 0 0 0-1.394-.687l-.227-.011H3.98zm2.75-5.239a.9.9 0 0 1 .649.28c.172.178.268.42.268.673a.97.97 0 0 1-.268.673.9.9 0 0 1-.649.28H5.354V9.733zm8.022.457c0 .197.075.387.209.526a.7.7 0 0 0 .506.218h5.803a7.2 7.2 0 0 0-1.896-4.88 6.66 6.66 0 0 0-4.622-2.15z" clip-rule="evenodd"/></svg>