<svg xmlns="http://www.w3.org/2000/svg" fill="currentColor" viewBox="0 0 24 24"><path fill="currentColor" d="M17.32 1c.53 0 1.04.21 1.42.59l2.65 2.64h.01c.19.2.34.43.45.68.1.26.15.53.15.8v15.21c0 .55-.21 1.07-.58 1.46-.38.4-.9.62-1.44.62H4.03c-.54 0-1.06-.22-1.44-.62-.38-.39-.59-.91-.59-1.46V3.07c0-.54.21-1.07.59-1.46S3.49 1 4.03 1zm-8.34 9.36c-.6 0-1.18.22-1.62.62-.44.41-.71.98-.71 1.58v3.87c0 .6.27 1.17.71 1.58.44.4 1.02.62 1.62.62h4.23c.54 0 1.08-.19 1.5-.54.28-.23.5-1.31.64-1.64l1.44 1.16h.02c.16.03.33.04.49.01s.32-.1.46-.2.26-.22.34-.38c.09-.15.14-.33.15-.51v-.02l-.04-4.06v-.02l-.02-.13c-.02-.13-.06-.26-.12-.38-.07-.11-.15-.21-.25-.3l-.1-.08-.1-.06a1.1 1.1 0 0 0-.36-.13c-.16-.04-.33-.04-.49 0h-.02l-1.36 1.43c-.14-.33-.44-1.68-.72-1.9-.43-.34-.96-.52-1.5-.52z"/></svg>