<svg xmlns="http://www.w3.org/2000/svg" fill="currentColor" viewBox="0 0 24 24"><path fill="currentColor" d="M23 21c0 .265-.097.52-.269.707a.88.88 0 0 1-.648.293H8.792a.88.88 0 0 1-.648-.293A1.05 1.05 0 0 1 7.875 21v-1.5h2.75a2.6 2.6 0 0 0 1.481-.477 2.94 2.94 0 0 0 1.012-1.273H23zM10.625 6c.365 0 .715.158.973.44.257.28.402.662.402 1.06v9c0 .398-.145.78-.402 1.06a1.32 1.32 0 0 1-.973.44h-8.25a1.32 1.32 0 0 1-.973-.44A1.57 1.57 0 0 1 1 16.5v-9c0-.197.035-.392.104-.574q.105-.275.298-.487c.128-.139.28-.25.447-.325S2.194 6 2.375 6zM23 16.25h-9.625v-3.5H23zM4.759 12.42l-.762-3.91H2.622a.5.5 0 0 0 0 .16l1.339 6.83h1.42L6.5 11.23l1.118 4.27H9.04l1.348-6.84.007-.08-.007-.08H9.003l-.762 3.91L7.215 8.5h-1.43zM23 11.25h-9.625v-3.5H23zM22.083 2a.88.88 0 0 1 .648.293c.172.187.269.442.269.707v3.25h-9.882a2.94 2.94 0 0 0-1.012-1.272 2.6 2.6 0 0 0-1.481-.478h-2.75V3c0-.265.097-.52.269-.707A.88.88 0 0 1 8.792 2z"/></svg>