<svg xmlns="http://www.w3.org/2000/svg" width="24" height="24" fill="none" viewBox="0 0 24 24"><g fill="currentColor" clip-path="url(#a)"><path d="M10.86 3.709c.419 0 .767.349.767.77 0 .42-.348.769-.768.769h-7.2c-.624 0-1.125.503-1.125 1.129v9.83c0 .626.501 1.129 1.125 1.129h2.067c.419 0 .766.349.766.77v3.17c0 .082.041.144.112.164.072.031.144.01.195-.04L10 17.9a1.7 1.7 0 0 1 1.269-.554h6.648c.624 0 1.125-.503 1.125-1.128v-3.613c0-.42.347-.769.767-.77.419 0 .767.35.767.77v3.613a2.67 2.67 0 0 1-2.659 2.668h-6.648c-.006 0-.103.021-.133.061l-3.201 3.5a1.68 1.68 0 0 1-1.882.43 1.71 1.71 0 0 1-1.095-1.6v-2.402H3.659A2.664 2.664 0 0 1 1 16.207v-9.83a2.67 2.67 0 0 1 2.66-2.668z"/><path fill-rule="evenodd" d="M18.367 1c.368 0 .685.257.757.626.327 1.662 1.637 3.007 3.263 3.335.368.072.613.4.613.759a.78.78 0 0 1-.613.76c-1.626.328-2.936 1.662-3.263 3.334a.78.78 0 0 1-.757.626.77.77 0 0 1-.757-.626c-.327-1.662-1.636-3.006-3.262-3.335a.77.77 0 0 1-.615-.76c0-.358.257-.686.615-.758 1.626-.329 2.935-1.663 3.262-3.335A.78.78 0 0 1 18.367 1m-.01 2.853a6 6 0 0 1-1.841 1.877 5.76 5.76 0 0 1 1.84 1.878 6 6 0 0 1 1.841-1.878 5.76 5.76 0 0 1-1.84-1.877" clip-rule="evenodd"/></g><defs><clipPath id="a"><path fill="currentColor" d="M0 0h24v24H0z"/></clipPath></defs></svg>