<svg xmlns="http://www.w3.org/2000/svg" fill="currentColor" viewBox="0 0 24 24"><path fill="currentColor" d="M21.11 5.712c1.04 0 1.89.826 1.89 1.85V21.22c0 .974-.82 1.779-1.84 1.779H8.103c-.92 0-1.682-.656-1.822-1.501a.2.2 0 0 0-.01-.06h1.57c.06.06.151.09.262.09h13.055c.19 0 .34-.13.34-.308V7.56a.38.38 0 0 0-.39-.377zm-3.012-2.415c1.05 0 1.89.834 1.89 1.858v13.66c0 .984-.82 1.79-1.84 1.79H5.092c-1.01 0-1.841-.806-1.841-1.79V8.058c.23.119.49.178.75.178s.52-.06.75-.178v10.756c0 .178.15.318.34.318h13.057c.19 0 .35-.14.35-.319V5.155a.4.4 0 0 0-.4-.387H8.003c.13-.229.19-.477.19-.736 0-.258-.06-.507-.19-.735zm-6.444 11.611c.41 0 .751.328.751.736 0 .397-.34.735-.75.735H7.302a.745.745 0 0 1-.75-.735c0-.398.33-.736.75-.736zm4.363-3.16c.41 0 .75.337.75.734h-.01c0 .408-.34.736-.75.736H7.303a.74.74 0 0 1-.75-.736c0-.407.33-.735.75-.735zm0-3.173c.41 0 .75.338.75.736h-.01c0 .407-.34.736-.75.736H7.303a.74.74 0 0 1-.75-.736c0-.408.33-.736.75-.736zM4 1c.11 0 .21.04.3.11.08.069.14.159.16.268.221 1.113 1.09 1.988 2.161 2.197.11.02.21.08.27.17.07.079.11.178.11.287a.475.475 0 0 1-.38.458c-1.07.208-1.94 1.083-2.16 2.197A.47.47 0 0 1 4 7.064a.47.47 0 0 1-.46-.378c-.22-1.113-1.09-1.988-2.17-2.197a.5.5 0 0 1-.271-.159.53.53 0 0 1-.1-.298c0-.11.04-.21.1-.299a.5.5 0 0 1 .27-.158c1.08-.209 1.95-1.084 2.171-2.197A.47.47 0 0 1 4.001 1"/></svg>