<svg xmlns="http://www.w3.org/2000/svg" fill="currentColor" viewBox="0 0 24 24"><path fill="currentColor" d="M11.995 3a.85.85 0 0 1 .859.844v3.772h4.734c1.868 0 5.412.874 5.412 4.21v4.954c0 .04-.071 4.22-5.412 4.22H6.4C4.533 21 1 20.116 1 16.78v-4.954c0-.045.064-4.21 5.401-4.21h4.736V3.844A.85.85 0 0 1 11.995 3M6.401 9.305c-3.532 0-3.695 2.272-3.695 2.53v4.945c0 2.481 3.541 2.523 3.695 2.532h11.187c3.534 0 3.685-2.283 3.695-2.542v-4.944c0-2.482-3.544-2.521-3.695-2.521zM8.28 12.66c.556 0 1.01.447 1.01.993v1.32c0 .547-.454.994-1.01.994-.555 0-1.01-.447-1.01-.993v-1.32c0-.547.455-.994 1.01-.994m7.431 0c.555 0 1.01.447 1.01.993v1.32c0 .547-.455.994-1.01.994a1.004 1.004 0 0 1-1.009-.993v-1.32c0-.547.454-.994 1.009-.994"/></svg>