<svg xmlns="http://www.w3.org/2000/svg" fill="currentColor" viewBox="0 0 24 24"><path fill="currentColor" d="M11.56 9.087a.63.63 0 0 1 .914 0 .687.687 0 0 1 0 .947L2.104 20.8a.64.64 0 0 1-.457.202v-.01a.64.64 0 0 1-.457-.202.687.687 0 0 1 0-.947zm7.32-7.06c.108.032.21.09.291.166a.684.684 0 0 1 .097.847c-.817 1.33-.788 3.124.116 4.465a.73.73 0 0 1 .117.443.8.8 0 0 1-.184.413.64.64 0 0 1-.389.202.64.64 0 0 1-.428-.101c-1.321-.887-3.052-.867-4.305.03a.62.62 0 0 1-.418.121.75.75 0 0 1-.399-.191.7.7 0 0 1-.098-.847c.817-1.33.788-3.124-.116-4.465a.73.73 0 0 1-.117-.443.8.8 0 0 1 .185-.413.634.634 0 0 1 .816-.1c1.322.886 3.052.866 4.306-.03a.62.62 0 0 1 .418-.122zm3.944 2.065a.2.2 0 0 1 .069.047c.039.04.068.09.068.151 0 .05-.01.11-.039.161a1.56 1.56 0 0 0 .04 1.673c.028.04.038.1.038.161a.3.3 0 0 1-.068.152.2.2 0 0 1-.146.07c-.048.01-.106-.01-.155-.04a1.43 1.43 0 0 0-1.613.01.26.26 0 0 1-.156.04.3.3 0 0 1-.146-.07.22.22 0 0 1-.068-.152c0-.05.01-.111.039-.161a1.56 1.56 0 0 0-.04-1.673.3.3 0 0 1-.037-.161.3.3 0 0 1 .067-.152.2.2 0 0 1 .146-.07l.044.002c.051.01.112.038.112.038h-.01a1.44 1.44 0 0 0 1.623-.01.26.26 0 0 1 .155-.04zm-11.086.396q.023.011.045.033c.03.03.05.06.05.101 0 .04-.01.081-.03.111-.204.333-.194.786.03 1.119.028.03.029.07.029.11a.2.2 0 0 1-.05.101c-.028.03-.057.051-.096.051a.2.2 0 0 1-.107-.03.94.94 0 0 0-1.078 0c-.03.03-.07.03-.108.03a.2.2 0 0 1-.097-.05c-.029-.03-.048-.06-.048-.101 0-.04.01-.081.029-.111a1.06 1.06 0 0 0-.03-1.119c-.029-.03-.029-.07-.029-.11a.2.2 0 0 1 .05-.102c.028-.03.057-.05.096-.05l.068.015.04.015a.94.94 0 0 0 1.077 0c.03-.03.069-.03.108-.03z"/></svg>