<svg xmlns="http://www.w3.org/2000/svg" fill="currentColor" viewBox="0 0 24 24"><path fill="currentColor" d="M20.69 2.559c1.27 0 2.31 1.062 2.31 2.347v15.746C23 21.948 21.96 23 20.69 23H5.15c-1.27 0-2.31-1.053-2.31-2.348V8.135c.06.07.13.141.2.202.31.253.67.394 1.06.404v11.921c0 .587.47 1.062 1.05 1.063h15.53c.58 0 1.05-.476 1.05-1.063V4.916c0-.587-.47-1.072-1.05-1.072H8.5a1.9 1.9 0 0 0-.35-.71 1.6 1.6 0 0 0-.82-.566h13.35zm-7.39 8.378c1 0 1.46.607 1.46 1.184v6.456c0 .577-.45 1.185-1.46 1.185h-.84c-1 0-1.46-.608-1.46-1.185v-6.456c0-.577.45-1.184 1.46-1.184zm-5.04 3.461c.85 0 1.47.628 1.47 1.488v2.378c0 .87-.62 1.487-1.47 1.487h-.84c-.84 0-1.46-.617-1.46-1.487v-2.378c0-.86.62-1.487 1.46-1.488zm10.07-8.46c.73 0 1.47.638 1.47 2.065v9.694c0 1.417-.74 2.054-1.47 2.054h-.83c-.73 0-1.47-.637-1.47-2.054V8.003c0-1.427.74-2.065 1.47-2.065zm-5.87 6.275c-.09 0-.16.01-.21.02v6.223c.05.02.11.03.21.03h.84c.1 0 .2-.03.2-.03v-6.224a.8.8 0 0 0-.2-.02zm-5.04 3.46c-.14 0-.2.061-.2.213v2.378c0 .162.06.213.2.213h.84c.15 0 .21-.051.21-.213v-2.378c0-.152-.06-.213-.21-.213zm10.08-8.46c-.05.03-.21.274-.21.79v9.694c0 .516.16.76.21.78h.83c.06-.021.21-.264.21-.78V8.003c0-.516-.15-.76-.21-.79zM4.16 1c.12 0 .22.04.3.111.09.071.15.172.17.284.23 1.184 1.15 2.115 2.28 2.358.11.02.21.08.28.172.07.08.11.192.11.304v.01a.6.6 0 0 1-.11.324c-.07.08-.17.14-.28.16-1.13.233-2.04 1.175-2.28 2.359a.47.47 0 0 1-.17.283.46.46 0 0 1-.3.112.56.56 0 0 1-.32-.112c-.1-.07-.14-.172-.17-.283a2.99 2.99 0 0 0-2.28-2.358.5.5 0 0 1-.28-.162.53.53 0 0 1-.11-.324.55.55 0 0 1 .11-.324c.07-.08.17-.14.28-.161 1.13-.233 2.05-1.174 2.28-2.358a.5.5 0 0 1 .17-.284c.09-.07.2-.111.32-.111"/></svg>