<svg xmlns="http://www.w3.org/2000/svg" fill="currentColor" viewBox="0 0 24 24"><path fill="currentColor" d="M15.9 9.86c2.951 0 5.345 2.494 5.345 5.57S18.851 21 15.9 21s-5.344-2.495-5.344-5.57c0-.24.01-.478.05-.706a5.62 5.62 0 0 1 1.994-3.668c.917-.748 2.054-1.205 3.3-1.205zm0 1.35c-2.234.001-4.05 1.892-4.05 4.22s1.806 4.229 4.05 4.23c2.233 0 4.059-1.903 4.059-4.23s-1.826-4.22-4.06-4.22m-2.144 5.498a.485.485 0 0 1 .697.01c.16.167 1.546 1.538 3.281 0a.487.487 0 0 1 .699.052c.18.219.15.541-.05.728-.808.717-1.596.977-2.304.977v-.011c-1.037 0-1.895-.56-2.334-1.028a.537.537 0 0 1 .01-.728M6.844 4c3.121 0 5.665 2.546 5.814 5.757a5.8 5.8 0 0 0-1.336 1.111c.05-.249.07-.519.07-.789 0-2.608-2.035-4.738-4.548-4.738S2.286 7.45 2.286 10.068s2.045 4.75 4.558 4.75a4.34 4.34 0 0 0 2.963-1.154 6.4 6.4 0 0 0-.24 1.756v.04a5.6 5.6 0 0 1-2.723.708C3.623 16.168 1 13.435 1 10.079S3.722 4 6.844 4m7.111 9.145c.508 0 .917.425.917.955 0 .52-.418.956-.917.956s-.897-.426-.897-.956.389-.955.897-.955m4.009 0c.508 0 .897.415.897.955 0 .53-.399.956-.897.956-.499 0-.907-.427-.907-.956 0-.53.399-.955.907-.955M4.51 12.075c1.984-1.767 3.898-.739 4.636.051.19.208.18.53-.01.728a.5.5 0 0 1-.338.145h-.01a.5.5 0 0 1-.36-.156c-.159-.167-1.546-1.538-3.27.01a.486.486 0 0 1-.698-.052.536.536 0 0 1 .05-.727m15.996-7.056c.09 0 .18.03.25.092.06.063.109.146.129.24.18.966.908 1.735 1.805 1.922.08.021.16.073.22.146a.4.4 0 0 1 .089.26.4.4 0 0 1-.089.26.37.37 0 0 1-.22.145c-.897.187-1.626.956-1.805 1.922a.38.38 0 0 1-.13.24.375.375 0 0 1-.498 0 .5.5 0 0 1-.13-.24c-.18-.966-.907-1.735-1.805-1.922a.41.41 0 0 1-.32-.405.41.41 0 0 1 .32-.406c.898-.187 1.625-.956 1.805-1.922a.38.38 0 0 1 .13-.24.37.37 0 0 1 .249-.092M4.919 7.668c.499 0 .908.426.908.956 0 .52-.41.945-.908.945s-.907-.426-.907-.945c0-.52.409-.956.907-.956m4.01 0c.508 0 .897.426.897.956 0 .52-.409.945-.897.945s-.918-.425-.918-.945.41-.956.918-.956"/></svg>