<svg xmlns="http://www.w3.org/2000/svg" width="24" height="24" fill="none" viewBox="0 0 24 24"><g clip-path="url(#a)"><path fill="currentColor" d="M22.671 11.78 13.695 1.733A2.5 2.5 0 0 0 12.049 1a2.5 2.5 0 0 0-1.647.733L1.426 11.817a1.3 1.3 0 0 0-.426.972 1.28 1.28 0 0 0 .455.96 1.32 1.32 0 0 0 1.03.302 1.32 1.32 0 0 0 .913-.557l6.93-7.755a.23.23 0 0 1 .26-.064.23.23 0 0 1 .149.21v15.823a1.28 1.28 0 0 0 .384.913 1.3 1.3 0 0 0 .928.379 1.33 1.33 0 0 0 .927-.379 1.3 1.3 0 0 0 .384-.913V5.886a.23.23 0 0 1 .149-.211.24.24 0 0 1 .26.064l6.93 7.755a1.3 1.3 0 0 0 .904.436 1.34 1.34 0 0 0 .952-.321 1.3 1.3 0 0 0 .442-.89 1.28 1.28 0 0 0-.326-.939"/></g><defs><clipPath id="a"><path fill="currentColor" d="M0 0h24v24H0z"/></clipPath></defs></svg>