<svg xmlns="http://www.w3.org/2000/svg" fill="currentColor" viewBox="0 0 24 24"><path fill="currentColor" d="M12.718 1.003a1.28 1.28 0 0 1 .89.442 1.32 1.32 0 0 1 .323.952 1.33 1.33 0 0 1-.437.904L5.74 10.23a.235.235 0 0 0 .019.367q.057.04.128.041h15.821a1.28 1.28 0 0 1 .914.385 1.32 1.32 0 0 1 .379.927 1.33 1.33 0 0 1-.379.928 1.3 1.3 0 0 1-.914.384H5.886a.23.23 0 0 0-.211.149.24.24 0 0 0 .064.26l7.755 6.93a1.324 1.324 0 0 1 .254 1.943 1.3 1.3 0 0 1-.959.455 1.28 1.28 0 0 1-.973-.426L1.733 13.597A2.5 2.5 0 0 1 1 11.951a2.5 2.5 0 0 1 .733-1.646L11.78 1.33a1.3 1.3 0 0 1 .938-.326"/></svg>