<svg width="24" height="24" viewBox="0 0 24 24" fill="none" xmlns="http://www.w3.org/2000/svg">
<path d="M12.22 22.6712L22.2667 13.695C22.7061 13.2591 22.9679 12.6714 23 12.0486C22.9679 11.4258 22.7061 10.8381 22.2667 10.4022L12.1833 1.42594C12.0601 1.28934 11.9097 1.18077 11.7422 1.10738C11.5746 1.03399 11.3936 0.997438 11.2111 1.00014C11.0286 1.00284 10.8488 1.04473 10.6834 1.12305C10.518 1.20137 10.3708 1.31435 10.2516 1.45454C10.1323 1.59473 10.0437 1.75897 9.99148 1.93643C9.93928 2.1139 9.92471 2.30057 9.94873 2.48416C9.97274 2.66775 10.0348 2.84409 10.1308 3.00159C10.2269 3.15908 10.3547 3.29416 10.5058 3.39792L18.2608 10.3278C18.2967 10.3591 18.3222 10.401 18.3337 10.4476C18.3452 10.4943 18.3421 10.5434 18.325 10.5882C18.3085 10.6315 18.2796 10.6689 18.2421 10.6954C18.2045 10.7219 18.1599 10.7364 18.1142 10.737L2.2925 10.737C2.12277 10.737 1.95469 10.771 1.79788 10.8369C1.64107 10.9028 1.49858 10.9994 1.37856 11.1212C1.25854 11.243 1.16334 11.3876 1.09838 11.5467C1.03343 11.7058 1 11.8764 1 12.0486C1 12.2208 1.03343 12.3914 1.09838 12.5505C1.16334 12.7096 1.25854 12.8542 1.37856 12.976C1.49858 13.0978 1.64107 13.1944 1.79788 13.2603C1.95469 13.3262 2.12277 13.3601 2.2925 13.3601L18.1142 13.3601C18.1599 13.3607 18.2045 13.3752 18.2421 13.4018C18.2796 13.4283 18.3085 13.4656 18.325 13.509C18.3421 13.5538 18.3452 13.6029 18.3337 13.6495C18.3222 13.6962 18.2967 13.7381 18.2608 13.7694L10.5058 20.6993C10.3782 20.8135 10.274 20.9521 10.1992 21.1071C10.1244 21.2622 10.0804 21.4307 10.0698 21.603C10.0592 21.7753 10.0821 21.9481 10.1372 22.1114C10.1924 22.2748 10.2787 22.4255 10.3912 22.555C10.5038 22.6844 10.6404 22.7902 10.7932 22.8661C10.946 22.942 11.1121 22.9866 11.2819 22.9974C11.4517 23.0082 11.622 22.985 11.7829 22.929C11.9439 22.873 12.0924 22.7854 12.22 22.6712Z" fill="#1D1B20"/>
</svg>
