<svg width="24" height="24" viewBox="0 0 24 24" fill="none" xmlns="http://www.w3.org/2000/svg">
<g clip-path="url(#clip0_1_2393)">
<path d="M1.32876 12.22L10.305 22.2667C10.7409 22.7061 11.3286 22.9679 11.9514 23C12.5742 22.9679 13.1619 22.7061 13.5978 22.2667L22.5741 12.1833C22.7107 12.0601 22.8192 11.9097 22.8926 11.7422C22.966 11.5746 23.0026 11.3936 22.9999 11.2111C22.9972 11.0286 22.9553 10.8488 22.8769 10.6834C22.7986 10.518 22.6857 10.3708 22.5455 10.2516C22.4053 10.1323 22.241 10.0437 22.0636 9.99148C21.8861 9.93928 21.6994 9.92471 21.5158 9.94873C21.3323 9.97274 21.1559 10.0348 20.9984 10.1308C20.8409 10.2269 20.7058 10.3547 20.6021 10.5058L13.6722 18.2608C13.6409 18.2967 13.599 18.3222 13.5524 18.3337C13.5057 18.3452 13.4566 18.3421 13.4118 18.325C13.3685 18.3085 13.3311 18.2796 13.3046 18.2421C13.2781 18.2045 13.2636 18.1599 13.263 18.1142L13.263 2.2925C13.263 2.12277 13.229 1.9547 13.1631 1.79788C13.0972 1.64107 13.0006 1.49858 12.8788 1.37856C12.757 1.25855 12.6124 1.16334 12.4533 1.09839C12.2942 1.03343 12.1236 1 11.9514 1C11.7792 1 11.6086 1.03343 11.4495 1.09839C11.2904 1.16334 11.1458 1.25855 11.024 1.37856C10.9022 1.49858 10.8056 1.64107 10.7397 1.79788C10.6738 1.9547 10.6399 2.12277 10.6399 2.2925L10.6399 18.1142C10.6393 18.1599 10.6248 18.2045 10.5982 18.2421C10.5717 18.2796 10.5344 18.3085 10.491 18.325C10.4462 18.3421 10.3971 18.3452 10.3505 18.3337C10.3038 18.3222 10.2619 18.2968 10.2306 18.2608L3.30075 10.5058C3.18653 10.3782 3.04793 10.2741 2.89286 10.1992C2.73779 10.1244 2.56929 10.0804 2.39697 10.0698C2.22465 10.0592 2.0519 10.0821 1.88856 10.1372C1.72523 10.1924 1.57452 10.2787 1.44504 10.3913C1.31555 10.5038 1.20984 10.6404 1.13392 10.7932C1.058 10.946 1.01337 11.1121 1.00257 11.2819C0.991775 11.4517 1.01503 11.622 1.07099 11.7829C1.12696 11.9439 1.21455 12.0924 1.32876 12.22Z" fill="#1D1B20"/>
</g>
<defs>
<clipPath id="clip0_1_2393">
<rect width="24" height="24" fill="white"/>
</clipPath>
</defs>
</svg>
