<svg xmlns="http://www.w3.org/2000/svg" fill="currentColor" viewBox="0 0 24 24"><path fill="currentColor" d="M11.95 1a1.33 1.33 0 0 1 .929.379 1.3 1.3 0 0 1 .384.914v15.821a.23.23 0 0 0 .149.211.24.24 0 0 0 .26-.064l6.93-7.755a1.323 1.323 0 0 1 1.943-.254 1.3 1.3 0 0 1 .455.959 1.28 1.28 0 0 1-.426.973l-8.977 10.083a2.5 2.5 0 0 1-1.646.733 2.5 2.5 0 0 1-1.646-.733L1.33 12.22a1.3 1.3 0 0 1-.326-.938 1.28 1.28 0 0 1 .442-.89 1.32 1.32 0 0 1 .952-.323 1.33 1.33 0 0 1 .904.437l6.93 7.755a.235.235 0 0 0 .367-.019.23.23 0 0 0 .041-.128V2.293a1.28 1.28 0 0 1 .385-.914A1.3 1.3 0 0 1 11.951 1"/></svg>