<svg xmlns="http://www.w3.org/2000/svg" fill="currentColor" viewBox="0 0 24 24"><path fill="currentColor" d="M11.21 1a1.28 1.28 0 0 1 .974.426l10.083 8.976A2.5 2.5 0 0 1 23 12.05a2.5 2.5 0 0 1-.733 1.646L12.22 22.671a1.3 1.3 0 0 1-.938.327 1.28 1.28 0 0 1-.89-.444 1.32 1.32 0 0 1-.323-.95 1.33 1.33 0 0 1 .437-.905l7.755-6.93a.234.234 0 0 0-.019-.367.23.23 0 0 0-.128-.042H2.293a1.28 1.28 0 0 1-.914-.384A1.32 1.32 0 0 1 1 12.05a1.33 1.33 0 0 1 .379-.928 1.3 1.3 0 0 1 .914-.384h15.821a.23.23 0 0 0 .211-.15.24.24 0 0 0-.064-.259l-7.755-6.93a1.324 1.324 0 0 1 .178-2.275c.165-.078.345-.12.527-.123"/></svg>