<svg xmlns="http://www.w3.org/2000/svg" fill="currentColor" viewBox="0 0 24 24"><path fill="currentColor" d="M12.049 1a2.5 2.5 0 0 1 1.646.733l8.976 10.047a1.3 1.3 0 0 1 .327.938 1.28 1.28 0 0 1-.444.89 1.32 1.32 0 0 1-.95.323 1.33 1.33 0 0 1-.905-.437l-6.93-7.755a.235.235 0 0 0-.367.019.23.23 0 0 0-.042.128v15.821a1.28 1.28 0 0 1-.384.914 1.32 1.32 0 0 1-.927.379 1.33 1.33 0 0 1-.928-.379 1.3 1.3 0 0 1-.384-.914V5.886a.23.23 0 0 0-.15-.211.24.24 0 0 0-.26.064l-6.929 7.755a1.326 1.326 0 0 1-1.943.254A1.3 1.3 0 0 1 1 12.789a1.28 1.28 0 0 1 .426-.973l8.976-10.083A2.5 2.5 0 0 1 12.05 1"/></svg>