<svg xmlns="http://www.w3.org/2000/svg" fill="currentColor" viewBox="0 0 24 24"><path fill="currentColor" d="M2.01 1.005c.457.05.813.447.813.917v11.01c0 .042.021.074.042.105.084.105.22.115.324.042L7.82 9.476a.3.3 0 0 1 .189 0 .22.22 0 0 1 .157.115c.199.387.482.722.827.974a.21.21 0 0 1 .095.178.22.22 0 0 1-.095.178l-6.076 4.673a.2.2 0 0 0-.094.178v2.42a.21.21 0 0 0 .115.22.23.23 0 0 0 .23 0l4.537-2.829a.2.2 0 0 1 .189 0 .22.22 0 0 1 .135.136c.157.408.399.765.713 1.058.052.042.073.116.073.189a.25.25 0 0 1-.104.178l-5.783 3.562a.21.21 0 0 0-.105.189v.041c0 .126.105.231.23.231h19.025l.095.004a.906.906 0 0 1 .827.907.923.923 0 0 1-.922.922H2.362A1.35 1.35 0 0 1 1 21.648V1.922c0-.512.416-.92.917-.922zm18.696 14.201c1.016 0 1.833.817 1.833 1.833a1.83 1.83 0 0 1-1.833 1.833 1.83 1.83 0 0 1-1.833-1.833c0-1.016.817-1.833 1.833-1.833m-7.05-.702 4.44 1.037a.24.24 0 0 1 .158.126l-.01-.01c.031.052.021.115 0 .167a2.7 2.7 0 0 0-.283 1.215.25.25 0 0 1-.084.188.26.26 0 0 1-.2.043l-4.41-1.027c-.073-.01-.125-.063-.157-.126a.2.2 0 0 1 0-.188c.178-.367.262-.775.262-1.184v-.021a.24.24 0 0 1 .084-.178.26.26 0 0 1 .2-.042m-3.028-1.593a1.83 1.83 0 0 1 1.833 1.834 1.83 1.83 0 0 1-1.833 1.833 1.83 1.83 0 0 1-1.833-1.833 1.83 1.83 0 0 1 1.833-1.834m0-6.411c1.016 0 1.833.817 1.833 1.833a1.83 1.83 0 0 1-1.833 1.834 1.83 1.83 0 0 1-1.833-1.834c0-1.016.817-1.833 1.833-1.833m7.281-1.026a.13.13 0 0 1 .052.104c0 .471.115.922.346 1.33h.021l.024.041c.017.043.018.09.018.138a.21.21 0 0 1-.157.125L13.624 8.49a.16.16 0 0 1-.168 0 .19.19 0 0 1-.073-.157 2.9 2.9 0 0 0-.324-1.246.22.22 0 0 1 0-.2.25.25 0 0 1 .146-.125l4.589-1.288c.031-.021.073-.021.115 0m2.797-1.72A1.83 1.83 0 0 1 22.54 5.59a1.83 1.83 0 0 1-1.833 1.833 1.83 1.83 0 0 1-1.833-1.833 1.83 1.83 0 0 1 1.833-1.834"/></svg>