<svg xmlns="http://www.w3.org/2000/svg" fill="currentColor" viewBox="0 0 24 24"><path fill="currentColor" d="M12.678 10.205a.9.9 0 0 1 .642.28.97.97 0 0 1 .012 1.333v-.002c-.725.75-1.298 2.266-1.298 4.28s.573 3.531 1.298 4.28a.97.97 0 0 1 0 1.345.9.9 0 0 1-.65.279.9.9 0 0 1-.65-.278c-1.192-1.232-1.838-3.318-1.838-5.625s.646-4.393 1.837-5.624a.9.9 0 0 1 .647-.268m7.836-.01c.243 0 .477.1.65.278C22.353 11.704 23 13.789 23 16.097s-.646 4.393-1.837 5.625a.9.9 0 0 1-.65.278.9.9 0 0 1-.65-.28.97.97 0 0 1-.27-.672c0-.252.098-.494.27-.672.724-.749 1.297-2.265 1.297-4.28 0-2.014-.573-3.53-1.297-4.28a.97.97 0 0 1-.268-.671c0-.252.096-.494.268-.672a.9.9 0 0 1 .65-.279M12.366 2c.244 0 .478.1.65.278s.27.42.27.673a.97.97 0 0 1-.27.673.9.9 0 0 1-.65.278h-.348c-1.379 0-2.574 1.018-2.84 2.47l-.003.009-.55 2.822h1.39c.244 0 .479.101.651.28.172.178.269.42.269.672a.97.97 0 0 1-.269.672.9.9 0 0 1-.65.28H8.255L6.913 17.99C6.482 20.32 4.543 22 2.27 22h-.35a.9.9 0 0 1-.65-.278.97.97 0 0 1-.269-.673c0-.252.097-.494.27-.672a.9.9 0 0 1 .65-.28h.349c1.378 0 2.572-1.016 2.838-2.467l.003-.01 1.269-6.513H4.62a.9.9 0 0 1-.651-.279.97.97 0 0 1 0-1.345.9.9 0 0 1 .65-.279H6.75l.623-3.193C7.802 3.68 9.742 2 12.017 2zm5.7 10.462a.9.9 0 0 1 .684.127.95.95 0 0 1 .402.587.98.98 0 0 1-.109.71l-1.357 2.21 1.357 2.21a.98.98 0 0 1 .11.712.95.95 0 0 1-.403.587.9.9 0 0 1-.685.126.92.92 0 0 1-.575-.405l-.893-1.455-.893 1.455a.92.92 0 0 1-.576.42.9.9 0 0 1-.693-.126.94.94 0 0 1-.405-.596 1 1 0 0 1 .121-.717l1.357-2.21-1.356-2.21a.98.98 0 0 1-.11-.711.95.95 0 0 1 .402-.587.9.9 0 0 1 .685-.127.92.92 0 0 1 .575.405l.894 1.455.892-1.455a.92.92 0 0 1 .575-.405"/></svg>