<svg xmlns="http://www.w3.org/2000/svg" fill="currentColor" viewBox="0 0 24 24"><path fill="currentColor" d="M13.37 8.283c.792.02 1.414.643 1.434 1.415v11.797h1.224v-7.222c0-.793.642-1.425 1.424-1.435h2.759c.782.01 1.415.642 1.425 1.425v7.232h.612c.411 0 .752.342.752.753s-.34.752-.752.752H1.752A.76.76 0 0 1 1 22.248c0-.411.34-.753.752-.753h.612v-4.484c0-.803.643-1.425 1.425-1.435h2.759c.782.01 1.415.633 1.425 1.425v4.494h1.223V9.718a1.457 1.457 0 0 1 1.414-1.435zM9.266 1c1.163 0 2.016.863 2.106 1.946l7.825 2.308a2.1 2.1 0 0 1 1.686-.843c1.163 0 2.116.953 2.116 2.127a2.123 2.123 0 0 1-2.116 2.116c-1.164 0-2.027-.862-2.108-1.956l-7.824-2.307a2.095 2.095 0 0 1-2.348.732L4.942 9.577c.191.311.291.673.291 1.054a2.11 2.11 0 0 1-2.116 2.116 2.118 2.118 0 0 1 0-4.233c.23 0 .452.04.662.11L7.431 4.17a2.07 2.07 0 0 1-.282-1.053A2.125 2.125 0 0 1 9.267 1"/></svg>