<svg xmlns="http://www.w3.org/2000/svg" fill="currentColor" viewBox="0 0 24 24"><path fill="currentColor" d="M12.023 1a2.175 2.175 0 0 1 2.046 1.44l.411 1.15a1.22 1.22 0 0 0 .704.741 1.26 1.26 0 0 0 1.014 0l1.114-.53A2.165 2.165 0 0 1 20.2 6.688l-.594 1.114a1.26 1.26 0 0 0 0 1.014 1.23 1.23 0 0 0 .74.704l1.151.41h.065l.155.063a2.177 2.177 0 0 1 .889 3.236 2.17 2.17 0 0 1-1.044.794l-1.152.412a1.22 1.22 0 0 0-.74.703 1.26 1.26 0 0 0 0 1.014l.53 1.115a2.166 2.166 0 0 1-2.932 2.932l-1.115-.53a1.26 1.26 0 0 0-1.014 0 1.23 1.23 0 0 0-.703.74l-.412 1.152a2.174 2.174 0 0 1-4.092 0l-.411-1.152a1.22 1.22 0 0 0-.704-.74 1.26 1.26 0 0 0-1.014 0l-1.114.53A2.165 2.165 0 0 1 3.8 17.267l.53-1.115a1.26 1.26 0 0 0 0-1.014 1.23 1.23 0 0 0-.74-.703l-1.152-.412a2.175 2.175 0 0 1 0-4.092L3.59 9.52a1.22 1.22 0 0 0 .74-.704 1.26 1.26 0 0 0 0-1.014L3.8 6.688A2.165 2.165 0 0 1 6.688 3.8l1.114.548a1.26 1.26 0 0 0 1.014 0 1.23 1.23 0 0 0 .704-.74l.457-1.17A2.175 2.175 0 0 1 12.023 1m2.595 4.644a6.97 6.97 0 0 0-5.272-.016 6.88 6.88 0 0 0-3.718 8.98 7.05 7.05 0 0 0 6.35 4.211 6.4 6.4 0 0 0 2.63-.447 6.88 6.88 0 0 0 3.764-9.026 6.97 6.97 0 0 0-3.754-3.702m2.671 5.837q.046 0 .087.021a.19.19 0 0 1 .083.155v.32a5.482 5.482 0 0 1-9.821 3.326.23.23 0 0 1 0-.174.2.2 0 0 1 .11-.137l4.44-2.385h.054l4.961-1.105a.2.2 0 0 1 .086-.02m-5.732-4.985a.22.22 0 0 1 .19.08.22.22 0 0 1 .038.203l-.365 4.723a.2.2 0 0 1-.11.174l-4.165 2.257a.21.21 0 0 1-.183 0 .19.19 0 0 1-.12-.128 5.3 5.3 0 0 1-.346-1.828 5.483 5.483 0 0 1 5.06-5.48m1.745.1a5.48 5.48 0 0 1 3.8 3.299.23.23 0 0 1 0 .172.23.23 0 0 1-.146.11l-3.965.914a.21.21 0 0 1-.256-.219l.31-4.057a.23.23 0 0 1 .093-.155.2.2 0 0 1 .164-.063"/></svg>