<svg xmlns="http://www.w3.org/2000/svg" fill="currentColor" viewBox="0 0 24 24"><path fill="currentColor" d="M6.575 12.894c.7-.001 1.38.231 1.924.658a2.93 2.93 0 0 1 1.063 1.684 2.86 2.86 0 0 1-.275 1.954 3 3 0 0 1-1.49 1.35l-3.153 1.332a1.11 1.11 0 0 0-.687 1.016v.22h4.689c.259 0 .507.1.69.278a.93.93 0 0 1 .288.669.93.93 0 0 1-.287.668 1 1 0 0 1-.691.277H2.979c-.26 0-.508-.1-.692-.277A.93.93 0 0 1 2 22.055v-1.167c0-.583.176-1.154.506-1.642s.8-.872 1.353-1.106l3.154-1.333c.23-.097.418-.268.533-.483s.15-.463.099-.7a1.05 1.05 0 0 0-.381-.603 1.1 1.1 0 0 0-.689-.235H5.104c-.238 0-.469.071-.663.203-.193.132-.34.32-.42.535a.94.94 0 0 1-.5.539 1.01 1.01 0 0 1-1.077-.15.95.95 0 0 1-.323-.654.9.9 0 0 1 .055-.365 3 3 0 0 1 1.136-1.45 3.2 3.2 0 0 1 1.792-.55zm12.145 0c.549 0 1.088.15 1.553.431.466.282.84.685 1.08 1.162a2.74 2.74 0 0 1-.334 2.984c.31.28.557.619.726.995s.255.782.255 1.192v.343c0 .795-.327 1.558-.91 2.12a3.16 3.16 0 0 1-2.193.879H17.48a3.2 3.2 0 0 1-1.793-.55A3 3 0 0 1 14.554 21a.92.92 0 0 1 .039-.723.97.97 0 0 1 .557-.483 1 1 0 0 1 .749.038.96.96 0 0 1 .5.538c.157.431.583.737 1.082.737h1.416a1.18 1.18 0 0 0 .811-.323q.16-.156.25-.36c.057-.133.086-.278.086-.423v-.343c0-.611-.513-1.108-1.146-1.108h-.708c-.26 0-.51-.1-.693-.277a.93.93 0 0 1-.287-.668c0-.251.104-.492.287-.67a1 1 0 0 1 .693-.276h.53a1 1 0 0 0 .686-.274.92.92 0 0 0 .284-.662.92.92 0 0 0-.284-.663 1 1 0 0 0-.685-.274h-1.064a1 1 0 0 0-.585.189.94.94 0 0 0-.348.492.95.95 0 0 1-.467.556c-.225.119-.49.147-.736.08a.98.98 0 0 1-.585-.442.92.92 0 0 1-.095-.71 2.83 2.83 0 0 1 1.052-1.484 3 3 0 0 1 1.764-.572zM12.642 1c.26 0 .508.1.692.277a.93.93 0 0 1 .287.668v7.269h1.853c.259 0 .508.1.691.277a.93.93 0 0 1 .287.67.93.93 0 0 1-.287.667 1 1 0 0 1-.691.277H9.806c-.26 0-.508-.1-.692-.277a.93.93 0 0 1-.287-.668.93.93 0 0 1 .287-.669 1 1 0 0 1 .692-.277h1.857v-4.48a3.2 3.2 0 0 1-1.146.211h-.71a1 1 0 0 1-.69-.277.93.93 0 0 1-.288-.669c0-.25.104-.49.287-.668a1 1 0 0 1 .692-.277h.709c.633 0 1.146-.497 1.146-1.109 0-.25.104-.49.287-.668A1 1 0 0 1 12.642 1"/></svg>