<svg xmlns="http://www.w3.org/2000/svg" fill="currentColor" viewBox="0 0 24 24"><path fill="currentColor" d="M5.495 1a1 1 0 0 1 1 1v15.5H9.03a1 1 0 0 1 .706 1.707l-3.535 3.5a1 1 0 0 1-1.413 0l-3.496-3.5a1 1 0 0 1 .706-1.707h2.497V2a1 1 0 0 1 1-1m12.38 3.298a2.14 2.14 0 0 1 2.034 1.468l1.932 5.802.015.043 1.093 3.284a1 1 0 0 1-.633 1.265 1 1 0 0 1-.762-.055 1 1 0 0 1-.501-.579l-.872-2.619h-4.612l-.872 2.62a1 1 0 0 1-.5.579 1 1 0 0 1-1.396-1.212l1.093-3.282.015-.044 1.932-5.802a2.15 2.15 0 0 1 2.034-1.468m0 2q-.046 0-.085.028a.15.15 0 0 0-.053.072l-1.5 4.51h3.278l-1.501-4.51a.15.15 0 0 0-.139-.1"/></svg>