<svg xmlns="http://www.w3.org/2000/svg" fill="currentColor" viewBox="0 0 24 24"><path fill="currentColor" d="M13.54 4.11c.21-.14.49-.15.71-.02s.36.37.36.64v14.54c0 .259-.14.509-.36.639-.11.06-.22.09-.34.09v-.01c-.13 0-.26-.04-.37-.11L8.11 16.35H6.07c-2.24 0-4.06-1.958-4.06-4.356s1.81-4.357 4.05-4.358H8.1zM8.67 8.976c-.11.07-.24.11-.37.11H6.06c-1.47 0-2.66 1.3-2.66 2.909s1.2 2.907 2.66 2.907H8.3c.13 0 .26.04.37.11l4.54 2.938V6.039zm10.16-2.698a.68.68 0 0 1 .99.02c2.92 3.148 2.92 8.284 0 11.432-.14.15-.32.22-.5.22h-.01a.7.7 0 0 1-.48-.2.746.746 0 0 1-.02-1.029c2.4-2.598 2.4-6.826 0-9.414a.746.746 0 0 1 .02-1.03m-2.14 2.308a.68.68 0 0 1 .99.021c1.73 1.869 1.73 4.926 0 6.795-.14.15-.32.22-.5.22h-.01a.7.7 0 0 1-.48-.2.745.745 0 0 1-.02-1.03c1.22-1.319 1.22-3.457 0-4.776a.746.746 0 0 1 .02-1.03"/></svg>