<svg xmlns="http://www.w3.org/2000/svg" fill="currentColor" viewBox="0 0 24 24"><path fill="currentColor" d="M2.48 3.22a.75.75 0 0 1 1.061 0l5.132 5.129.85.854 4.032 4.035 1.05 1.043 1.992 1.989h-.011l3.262 3.26c.3.287.29.765 0 1.053a.74.74 0 0 1-.53.218.74.74 0 0 1-.53-.218l-4.183-4.185v3.876c0 .269-.14.507-.36.636-.11.06-.22.09-.34.09a.7.7 0 0 1-.37-.11l-5.432-3.507H6.062C3.82 17.383 2 15.443 2 13.049c0-2.395 1.82-4.333 4.062-4.333h.86L2.48 4.273a.74.74 0 0 1 0-1.053m3.582 6.937c-1.46 0-2.661 1.292-2.662 2.892s1.191 2.892 2.662 2.892h2.24l.098.007q.147.023.273.103l4.532 2.915v-3.95l-4.852-4.859zm12.765-2.803a.684.684 0 0 1 .99.02c2.811 3.021 2.902 7.861.301 11.012l-1.02-1.024c2.08-2.594 2-6.52-.29-8.984a.74.74 0 0 1 .02-1.024m-2.14 2.306a.684.684 0 0 1 .99.02c1.64 1.779 1.7 4.602.21 6.48l-1-1.004c.98-1.322.92-3.25-.221-4.472a.74.74 0 0 1 .02-1.024m-3.142-4.452c.22-.14.49-.15.71-.02.22.129.36.378.36.636v7.046l-1.4-1.391V7.126l.01-.01-2.652 1.71-1.04-1.034z"/></svg>