<svg xmlns="http://www.w3.org/2000/svg" width="24" height="24" fill="none" viewBox="0 0 24 24"><g clip-path="url(#a)"><path fill="currentColor" d="M22.938 14.056c-.385-1.895-2.1-3.21-4.022-3.24-.52-3.259-3.398-5.756-6.91-5.816-2.577.02-4.915 1.424-6.11 3.59a5.36 5.36 0 0 0-3.42 1.565c-.976.982-1.506 2.276-1.475 3.64C.991 16.403 2.996 18.64 5.677 19h13c.218 0 1.964-.04 3.18-1.193.759-.723 1.143-1.705 1.143-2.889 0-.29-.02-.591-.073-.872zm-2.162 2.678c-.8.772-2.099.782-2.11.772H5.845c-1.881-.281-3.294-1.866-3.284-3.71v-.02a3.5 3.5 0 0 1 1.04-2.578 3.77 3.77 0 0 1 2.628-1.114h.135c.312 0 .603-.17.728-.45.862-1.886 2.785-3.11 4.894-3.13 2.94.05 5.33 2.317 5.445 5.155 0 .22.114.421.291.562a.8.8 0 0 0 .634.15c1.403-.27 2.764.622 3.045 1.976.041.18.052.36.052.561 0 .783-.229 1.404-.676 1.826"/></g><defs><clipPath id="a"><path fill="currentColor" d="M0 0h24v24H0z"/></clipPath></defs></svg>