<svg xmlns="http://www.w3.org/2000/svg" fill="currentColor" viewBox="0 0 24 24"><path fill="currentColor" d="M12.006 5c3.512.06 6.39 2.557 6.91 5.816 1.923.03 3.637 1.344 4.022 3.24l-.01-.01c.051.28.072.581.072.872 0 1.183-.385 2.167-1.143 2.889C20.64 18.96 18.895 19 18.677 19h-13c-2.68-.361-4.686-2.598-4.676-5.205-.03-1.364.5-2.658 1.476-3.64A5.36 5.36 0 0 1 5.896 8.59C7.09 6.424 9.429 5.02 12.006 5m-.021 1.504c-2.11.02-4.031 1.244-4.894 3.129a.79.79 0 0 1-.727.452h-.136a3.77 3.77 0 0 0-2.629 1.112 3.5 3.5 0 0 0-1.04 2.578v.02c-.01 1.845 1.404 3.43 3.285 3.71h12.822c.01.01 1.31 0 2.11-.772.447-.42.675-1.043.675-1.825 0-.2-.01-.38-.051-.561-.28-1.354-1.642-2.247-3.045-1.976a.8.8 0 0 1-.634-.15.73.73 0 0 1-.29-.562c-.115-2.838-2.506-5.105-5.446-5.155"/></svg>