<svg xmlns="http://www.w3.org/2000/svg" fill="currentColor" viewBox="0 0 24 24"><path fill="currentColor" d="M22.28 15.76c.4.04.72.374.72.771v1.314c0 1.872-1.571 3.404-3.517 3.404H4.517C2.582 21.249 1 19.727 1 17.845V16.53c0-.424.363-.775.802-.775l.08.004c.402.04.721.374.722.771v1.314c0 1.024.855 1.852 1.913 1.852h14.966c1.048 0 1.913-.828 1.913-1.852V16.53c0-.424.364-.775.802-.775zM12 3.752c.438 0 .802.351.802.775v8.59l2.715-2.627c.31-.3.823-.3 1.133 0s.31.797 0 1.097l-4.094 3.962a.84.84 0 0 1-.545.207.82.82 0 0 1-.545-.207l-.01-.01h-.022L7.35 11.586a.763.763 0 0 1 0-1.097c.31-.3.823-.3 1.133 0l2.715 2.627v-8.59c0-.424.364-.775.802-.775"/></svg>