<svg xmlns="http://www.w3.org/2000/svg" fill="currentColor" viewBox="0 0 24 24"><path fill="currentColor" d="M6.93 2a2.25 2.25 0 0 1 1.82.956l1.502 2.107h8.1c1.261 0 2.28 1.071 2.28 2.395v1.163c.767 0 1.502.415 1.94 1.094h.011a2.7 2.7 0 0 1 .318 2.21l-2.345 8.267v.023c-.23.91-.966 1.613-1.875 1.75h-.043c-.099.012-.187.035-.286.035H3.28C2.02 22 1 20.93 1 19.605V4.395C1 3.07 2.02 2 3.28 2zm-1.216 8.348c-.318 0-.593.23-.692.576L2.677 19.19a.94.94 0 0 0 .11.75.73.73 0 0 0 .592.332h14.907c.318 0 .593-.23.691-.575l2.346-8.267a.94.94 0 0 0-.11-.748.73.73 0 0 0-.592-.334zM3.28 3.728c-.35 0-.635.298-.635.667v8.854l.8-2.832c.306-1.082 1.217-1.808 2.269-1.808h13.274V7.458c0-.368-.285-.668-.636-.668H9.846a.8.8 0 0 1-.658-.346L7.435 3.992a.62.62 0 0 0-.504-.264z"/></svg>