<svg xmlns="http://www.w3.org/2000/svg" width="24" height="24" fill="none" viewBox="0 0 24 24"><g fill="currentColor" fill-rule="evenodd" clip-path="url(#a)" clip-rule="evenodd"><path d="M8.5 1S10 1 10 2.5v19S10 23 8.5 23h-4S3 23 3 21.5v-19S3 1 4.5 1zM4.503 2.513l-.003.02v18.962l.013.002.02.003h3.962l.002-.013.003-.02V2.505l-.013-.002-.02-.003H4.505zM19.5 1S21 1 21 2.5v19s0 1.5-1.5 1.5h-4S14 23 14 21.5v-19S14 1 15.5 1zm-3.997 1.513-.003.02v18.962l.013.002.02.003h3.962l.002-.013.003-.02V2.505l-.013-.002-.02-.003h-3.962z"/></g><defs><clipPath id="a"><path fill="currentColor" d="M0 0h24v24H0z"/></clipPath></defs></svg>