<svg width="24" height="24" viewBox="0 0 24 24" fill="none" xmlns="http://www.w3.org/2000/svg">
<g clip-path="url(#clip0_1_3308)">
<path fill-rule="evenodd" clip-rule="evenodd" d="M8.5 1C8.5 1 10 1 10 2.5V21.5C10 21.5 10 23 8.5 23H4.5C4.5 23 3 23 3 21.5V2.5C3 2.5 3 1 4.5 1H8.5ZM4.50293 2.5127C4.50153 2.52113 4.50059 2.52812 4.5 2.5332V21.4951C4.50396 21.4959 4.50856 21.4964 4.5127 21.4971C4.52113 21.4985 4.52812 21.4994 4.5332 21.5H8.49512C8.49588 21.496 8.49638 21.4914 8.49707 21.4873C8.49847 21.4789 8.49941 21.4719 8.5 21.4668V2.50488C8.49604 2.50412 8.49144 2.50362 8.4873 2.50293L8.4668 2.5H4.50488C4.50412 2.50396 4.50362 2.50856 4.50293 2.5127Z" fill="#1D1B20"/>
<path fill-rule="evenodd" clip-rule="evenodd" d="M19.5 1C19.5 1 21 1 21 2.5V21.5C21 21.5 21 23 19.5 23H15.5C15.5 23 14 23 14 21.5V2.5C14 2.5 14 1 15.5 1H19.5ZM15.5029 2.5127C15.5015 2.52113 15.5006 2.52812 15.5 2.5332V21.4951C15.504 21.4959 15.5086 21.4964 15.5127 21.4971C15.5211 21.4985 15.5281 21.4994 15.5332 21.5H19.4951C19.4959 21.496 19.4964 21.4914 19.4971 21.4873C19.4985 21.4789 19.4994 21.4719 19.5 21.4668V2.50488C19.496 2.50412 19.4914 2.50362 19.4873 2.50293L19.4668 2.5H15.5049C15.5041 2.50396 15.5036 2.50856 15.5029 2.5127Z" fill="#1D1B20"/>
</g>
<defs>
<clipPath id="clip0_1_3308">
<rect width="24" height="24" fill="white"/>
</clipPath>
</defs>
</svg>
