<svg xmlns="http://www.w3.org/2000/svg" width="24" height="24" fill="none" viewBox="0 0 24 24"><g fill="currentColor" fill-rule="evenodd" clip-path="url(#a)" clip-rule="evenodd"><path d="M22.803 1.205a.687.687 0 0 1-.008.973L9.96 14.803a.687.687 0 1 1-.964-.98L21.83 1.197a.687.687 0 0 1 .973.008"/><path d="M14.292 1.688c0-.38.308-.688.687-.688h7.334c.38 0 .687.308.687.688v7.215a.687.687 0 1 1-1.375 0V2.375h-6.646a.687.687 0 0 1-.687-.687M1.436 6.02a1.5 1.5 0 0 1 1.054-.437h9.625a.688.688 0 0 1 0 1.375H2.49a.115.115 0 0 0-.115.115V21.51a.114.114 0 0 0 .115.115h14.437a.115.115 0 0 0 .115-.115v-9.625a.687.687 0 1 1 1.375 0v9.625a1.49 1.49 0 0 1-1.49 1.49H2.49A1.49 1.49 0 0 1 1 21.51V7.073c0-.395.157-.774.436-1.053"/></g><defs><clipPath id="a"><path fill="currentColor" d="M0 0h24v24H0z"/></clipPath></defs></svg>