<svg xmlns="http://www.w3.org/2000/svg" fill="currentColor" viewBox="0 0 24 24"><path fill="currentColor" d="M12.114 5.583a.688.688 0 0 1 0 1.375H2.49a.116.116 0 0 0-.114.115v14.438c0 .03.012.06.033.08q.035.033.081.034h14.438a.115.115 0 0 0 .115-.114v-9.625a.687.687 0 1 1 1.375 0v9.625A1.49 1.49 0 0 1 16.927 23H2.489A1.49 1.49 0 0 1 1 21.51V7.074a1.49 1.49 0 0 1 1.49-1.49zM22.416 1.01a.7.7 0 0 1 .384.193l.003.002.021.026q.033.037.062.078.015.025.028.051.019.032.033.066.012.031.02.064.012.033.02.068.005.037.007.076.004.026.006.054v7.214a.687.687 0 1 1-1.375 0V3.328L9.961 14.803a.687.687 0 1 1-.964-.98L20.633 2.374H14.98a.687.687 0 1 1 0-1.375h7.338q.05.001.098.01"/></svg>