<svg xmlns="http://www.w3.org/2000/svg" width="24" height="24" fill="none" viewBox="0 0 24 24"><g fill="currentColor" clip-path="url(#a)"><path d="M22.198 15.756c.439 0 .802.35.802.775v1.314c0 1.872-1.571 3.404-3.517 3.404H4.517C2.582 21.249 1 19.727 1 17.845V16.53c0-.424.363-.775.802-.775.438 0 .801.35.802.775v1.314c0 1.024.854 1.852 1.913 1.852h14.966c1.048 0 1.913-.828 1.913-1.852V16.53c0-.424.364-.775.802-.775"/><path d="M11.99 3.752a.82.82 0 0 1 .555.217h.021L16.65 7.92c.31.3.31.796 0 1.096s-.823.3-1.133 0L12.802 6.39v8.59c0 .424-.364.777-.802.777s-.802-.353-.802-.777V6.39L8.483 9.017c-.31.3-.823.3-1.133 0a.763.763 0 0 1 0-1.096l4.084-3.952.01-.01a.84.84 0 0 1 .545-.207"/></g><defs><clipPath id="a"><path fill="currentColor" d="M0 0h24v24H0z"/></clipPath></defs></svg>