<svg xmlns="http://www.w3.org/2000/svg" fill="currentColor" viewBox="0 0 24 24"><path fill="currentColor" d="M22.28 15.76c.4.04.72.374.72.771v1.314c0 1.872-1.571 3.403-3.517 3.403H4.517C2.582 21.248 1 19.728 1 17.845V16.53c0-.424.363-.775.802-.775l.08.004c.402.04.722.374.722.771v1.314c0 1.024.855 1.852 1.913 1.852h14.966c1.048 0 1.913-.828 1.913-1.852V16.53c0-.424.364-.775.802-.775zM11.99 3.752a.82.82 0 0 1 .544.207l.01.01h.022L16.65 7.92c.31.3.31.797 0 1.097s-.823.3-1.133 0L12.802 6.39v8.59c0 .423-.364.776-.802.776s-.802-.353-.802-.777V6.39L8.483 9.019c-.31.3-.823.3-1.133 0a.763.763 0 0 1 0-1.097l4.094-3.962a.84.84 0 0 1 .545-.207"/></svg>