<svg xmlns="http://www.w3.org/2000/svg" width="24" height="24" fill="none" viewBox="0 0 24 24"><g fill="currentColor" fill-rule="evenodd" clip-path="url(#a)" clip-rule="evenodd"><path d="M14.646 7.883c.444 0 .868.177 1.193.499.325.321.498.764.498 1.219v6.25q0 .35-.13.666a1.69 1.69 0 0 1-1.562 1.063h-.01q-.326 0-.65-.133a.6.6 0 0 1-.141-.077l-2.885-2.007H9.387c-.933 0-1.692-.775-1.692-1.728v-1.796c0-.466.174-.897.5-1.23a1.65 1.65 0 0 1 1.192-.499h1.561l2.896-2.017c.007-.005.088-.056.14-.077a1.7 1.7 0 0 1 .662-.133m-2.895 3.69s-.087.056-.13.078c-.218.1-.434.144-.673.144H9.376v-.022l-.065 1.862 1.648.066c.228 0 .455.045.661.145.044.022.098.044.142.077l2.883 2.006.066-.055-.044-6.33z"/><path d="M15.08 1a2.55 2.55 0 0 1 1.81.765L20.253 5.2A2.62 2.62 0 0 1 21 7.052v13.31c0 1.452-1.15 2.627-2.57 2.627l.011.011H5.571C4.15 23 3 21.825 3 20.373V3.627C3 2.175 4.15 1 5.57 1zM5.57 2.662a.955.955 0 0 0-.943.965v16.746c0 .532.423.965.943.965h12.871c.52 0 .944-.433.944-.965V7.063a.97.97 0 0 0-.272-.676L15.752 2.95a.94.94 0 0 0-.661-.276H5.57z"/></g><defs><clipPath id="a"><path fill="currentColor" d="M0 0h24v24H0z"/></clipPath></defs></svg>