<svg xmlns="http://www.w3.org/2000/svg" fill="currentColor" viewBox="0 0 24 24"><path fill="currentColor" d="M13.113 20.673a.755.755 0 0 1 .935-.509.75.75 0 0 1 .512.93 2.66 2.66 0 0 1-.96 1.377 2.68 2.68 0 0 1-3.197 0 2.65 2.65 0 0 1-.96-1.376.75.75 0 0 1 .512-.93.753.753 0 0 1 .935.508A1.155 1.155 0 0 0 12 21.5a1.154 1.154 0 0 0 1.112-.827M11.999 1c.416 0 .754.336.754.75v1.337a7.65 7.65 0 0 1 4.638 2.184 7.57 7.57 0 0 1 2.235 5.363c0 3.162.338 4.958.65 5.938.156.488.303.766.393.907a1 1 0 0 0 .083.117v-.001l-.013-.011-.01-.009-.006-.005-.003-.002a.747.747 0 0 1-.475 1.332H3.753a.76.76 0 0 1-.677-.421.75.75 0 0 1 .082-.789l-.003.002.02-.029q.037-.056.12-.214c.107-.211.263-.567.422-1.105.32-1.077.656-2.884.657-5.71 0-2.011.803-3.941 2.233-5.363a7.65 7.65 0 0 1 4.638-2.184V1.75c0-.414.337-.75.754-.75m0 3.55a6.14 6.14 0 0 0-4.326 1.782 6.07 6.07 0 0 0-1.79 4.302c0 2.943-.352 4.896-.72 6.135q-.106.353-.21.631h14.016a8 8 0 0 1-.13-.374c-.375-1.173-.722-3.136-.722-6.392a6.07 6.07 0 0 0-1.792-4.302A6.14 6.14 0 0 0 12 4.55"/></svg>