<svg xmlns="http://www.w3.org/2000/svg" fill="currentColor" viewBox="0 0 24 24"><path fill="currentColor" d="M11.277 3.427c1.838-1.859 4.884-1.908 6.793-.11a4.65 4.65 0 0 1 .122 6.66L9.815 18.18c-.538.507-1.26.796-1.97.766a2.75 2.75 0 0 1-1.93-.826 2.637 2.637 0 0 1 0-3.738l8.276-8.101a.7.7 0 0 1 .974 0 .675.675 0 0 1 0 .955L6.9 15.325a1.325 1.325 0 0 0 0 1.86c.254.258.6.407.965.407h.02c.356 0 .7-.13.954-.378l8.358-8.17a3.32 3.32 0 0 0-.081-4.752c-1.361-1.292-3.544-1.253-4.864.08l-8.266 8.091a5.313 5.313 0 0 0 0 7.615c2.142 2.097 5.636 2.097 7.778 0l10.064-9.851a.7.7 0 0 1 .974 0 .674.674 0 0 1 0 .954l-10.063 9.85a6.93 6.93 0 0 1-4.864 1.97 6.94 6.94 0 0 1-4.864-1.97 6.63 6.63 0 0 1 0-9.512z"/></svg>