<svg xmlns="http://www.w3.org/2000/svg" fill="currentColor" viewBox="0 0 24 24"><path fill="currentColor" fill-rule="evenodd" d="M13.96 1.017a.6.6 0 0 1 .355.022c.121.045.22.126.276.229a.4.4 0 0 1 .031.328l-1.98 7.665h7.815l.072.004q.108.012.202.061a.47.47 0 0 1 .192.182.4.4 0 0 1-.031.512l-10.59 12.79-.06.058a.6.6 0 0 1-.232.114l-.09.015a.6.6 0 0 1-.178-.009l-.086-.022a.54.54 0 0 1-.226-.156l-.05-.073a.4.4 0 0 1-.031-.329l1.98-7.665H3.515l-.072-.01a.6.6 0 0 1-.132-.045l-.06-.034a.46.46 0 0 1-.17-.194.4.4 0 0 1-.034-.42l.033-.056L13.614 1.26l.055-.066a.54.54 0 0 1 .291-.177M5.642 13.243h7.624L11.9 18.526l6.43-7.765h-7.625l1.364-5.284z" clip-rule="evenodd"/></svg>