<svg xmlns="http://www.w3.org/2000/svg" fill="currentColor" viewBox="0 0 24 24"><path fill="currentColor" d="M5.854 8.451a.75.75 0 0 1 .673.747v12.134l4.954-4.75.117-.092a.75.75 0 0 1 .92.092l4.956 4.75v-1.916a.75.75 0 0 1 .75-.752l.077.004c.378.039.673.36.673.748v2.085c0 .537-.244 1.035-.695 1.308-.459.276-1.028.25-1.485-.062a1 1 0 0 1-.097-.078L12 18.164 7.303 22.67a1 1 0 0 1-.096.078c-.457.313-1.026.339-1.485.062-.451-.273-.695-.771-.696-1.308V9.198a.75.75 0 0 1 .75-.75zM16.94 1c1.235 0 2.033 1.056 2.033 2.21v12.23l3.742 2.97a.75.75 0 1 1-.932 1.178L1.284 3.324a.753.753 0 0 1-.122-1.055.75.75 0 0 1 1.054-.123l2.72 2.158V3.21c0-1.155.797-2.21 2.03-2.211zM6.967 2.502c-.23 0-.531.196-.531.709v2.283l11.038 8.756V3.21c0-.448-.232-.655-.444-.7l-.089-.008z"/></svg>