<svg xmlns="http://www.w3.org/2000/svg" fill="currentColor" viewBox="0 0 24 24"><path fill="currentColor" d="M16.707 1c.614 0 1.19.25 1.621.701S19 2.753 19 3.395v18.032c0 .31-.086.611-.259.872-.172.26-.403.46-.681.58a1.4 1.4 0 0 1-.567.121v-.01c-.096 0-.2-.01-.297-.03a1.5 1.5 0 0 1-.767-.43l-4.434-4.199-4.452 4.218c-.182.2-.452.341-.75.401a1.42 1.42 0 0 1-.862-.09 1.5 1.5 0 0 1-.672-.582c-.163-.26-.25-.56-.259-.87V3.384c0-.641.24-1.233.672-1.684A2.2 2.2 0 0 1 7.284 1zM7.284 2.503c-.22 0-.442.09-.596.26a.92.92 0 0 0-.249.622v18.032l.078.07 5.478-5.18 5.422 5.14.096.04.038-18.092a.9.9 0 0 0-.25-.631.82.82 0 0 0-.604-.261z"/></svg>