<svg width="24" height="24" viewBox="0 0 24 24" fill="none" xmlns="http://www.w3.org/2000/svg">
<g clip-path="url(#clip0_402_257)">
<path d="M20.88 3.73H17.55V1.77C17.55 1.35 17.21 1 16.78 1C16.35 1 16.01 1.34 16.01 1.77V3.73H8V1.77C8 1.35 7.66 1 7.23 1C6.8 1 6.46 1.34 6.46 1.77V3.73H3.13C1.57 3.73 1 5.01 1 5.86V20.87C1 22.43 2.27 23 3.13 23H20.87C22.43 23 23 21.72 23 20.87V5.86C23 4.3 21.72 3.73 20.87 3.73H20.88ZM21.48 20.86C21.46 21.47 21.03 21.47 20.88 21.47H3.15C2.54 21.45 2.54 21.02 2.54 20.87V10.72H21.47V20.86H21.48ZM21.48 9.19H2.54V5.87C2.56 5.26 2.99 5.26 3.14 5.26H6.47V6.54C6.47 6.96 6.81 7.31 7.24 7.31C7.67 7.31 8.01 6.97 8.01 6.54V5.26H16.03V6.54C16.03 6.96 16.37 7.31 16.8 7.31C17.23 7.31 17.57 6.97 17.57 6.54V5.26H20.89C21.5 5.28 21.5 5.71 21.5 5.86V9.19H21.48Z" fill="#212121"/>
</g>
<defs>
<clipPath id="clip0_402_257">
<rect width="24" height="24" fill="white"/>
</clipPath>
</defs>
</svg>
