<svg xmlns="http://www.w3.org/2000/svg" width="24" height="24" fill="none" viewBox="0 0 24 24"><g clip-path="url(#a)"><path fill="currentColor" d="M20.88 3.73h-3.33V1.77a.77.77 0 0 0-1.54 0v1.96H8V1.77a.77.77 0 0 0-1.54 0v1.96H3.13C1.57 3.73 1 5.01 1 5.86v15.01C1 22.43 2.27 23 3.13 23h17.74c1.56 0 2.13-1.28 2.13-2.13V5.86c0-1.56-1.28-2.13-2.13-2.13zm.6 17.13c-.02.61-.45.61-.6.61H3.15c-.61-.02-.61-.45-.61-.6V10.72h18.93v10.14zm0-11.67H2.54V5.87c.02-.61.45-.61.6-.61h3.33v1.28a.77.77 0 0 0 1.54 0V5.26h8.02v1.28a.77.77 0 0 0 1.54 0V5.26h3.32c.61.02.61.45.61.6v3.33z"/></g><defs><clipPath id="a"><path fill="currentColor" d="M0 0h24v24H0z"/></clipPath></defs></svg>