<svg xmlns="http://www.w3.org/2000/svg" width="24" height="24" fill="none" viewBox="0 0 24 24"><g fill="currentColor" clip-path="url(#a)"><path d="M14.81 12.91a.75.75 0 0 1 1.2.9l-4.1 5.47c-.13.17-.33.28-.55.3h-.05a.75.75 0 0 1-.53-.22l-2.73-2.73a.755.755 0 0 1 0-1.06c.29-.29.77-.29 1.06 0l2.12 2.12z"/><path fill-rule="evenodd" d="M16.78 1c.41 0 .75.33.75.75v1.98h3.35c.85 0 2.12.56 2.12 2.12v15.03c0 .85-.57 2.12-2.12 2.12H3.11C2.26 23 1 22.43 1 20.88V5.85c0-.85.56-2.12 2.11-2.12h3.35V1.75c0-.42.33-.75.75-.75s.75.33.75.75v1.98h8.07V1.75c0-.42.34-.75.75-.75M2.5 20.88c0 .4.21.61.62.62h17.76c.4 0 .6-.21.62-.63V10.7h-19zm.61-15.65c-.4 0-.6.21-.61.63V9.2h19V5.85c0-.4-.22-.61-.63-.62h-3.34v1.3c0 .42-.33.75-.75.75s-.75-.33-.75-.75v-1.3H7.96v1.3a.75.75 0 1 1-1.5 0v-1.3z" clip-rule="evenodd"/></g><defs><clipPath id="a"><path fill="currentColor" d="M0 0h24v24H0z"/></clipPath></defs></svg>