<svg xmlns="http://www.w3.org/2000/svg" fill="currentColor" viewBox="0 0 24 24"><path fill="currentColor" d="M16.78 1c.43 0 .77.35.77.77v1.96h3.32c.85 0 2.13.57 2.13 2.13v15.01c0 .85-.57 2.13-2.13 2.13H3.13C2.27 23 1 22.43 1 20.87V5.86c0-.85.57-2.13 2.13-2.13h3.33V1.77a.77.77 0 0 1 1.54 0v1.96h8.01V1.77c0-.43.34-.77.77-.77M2.54 10.72v10.15c0 .15 0 .58.61.6h17.73c.15 0 .58 0 .6-.61h-.01V10.72zm.6-5.46c-.15 0-.58 0-.6.61v3.32H21.5V5.86c0-.15 0-.58-.61-.6h-3.32v1.28a.77.77 0 1 1-1.54 0V5.26H8.01v1.28a.77.77 0 0 1-1.54 0V5.26z"/></svg>