<svg xmlns="http://www.w3.org/2000/svg" fill="currentColor" viewBox="0 0 24 24"><path fill="currentColor" d="M2.268 12.347a.713.713 0 0 1 1.037.103l4.526 5.751.268-.459a.72.72 0 0 1 1.013-.258c.347.223.456.7.244 1.065l-.428.738-.008.014-.001.002-.006.009-.012.02-.04.059c-.033.046-.08.113-.138.181-.056.066-.14.155-.246.234a.94.94 0 0 1-.555.194 1.1 1.1 0 0 1-.514-.143 2 2 0 0 1-.284-.199 3 3 0 0 1-.23-.222l-.016-.019-.006-.007-.004-.004q-.013-.013-.024-.028l-4.675-5.941a.8.8 0 0 1 .099-1.09M20.633 4.37a.72.72 0 0 1 1.014-.258.8.8 0 0 1 .246 1.065l-8.2 14.11-.008.013v.002l-.006.009-.013.02-.04.059c-.032.046-.08.113-.138.181a1.5 1.5 0 0 1-.246.234.94.94 0 0 1-.555.194 1.1 1.1 0 0 1-.513-.143 2 2 0 0 1-.284-.199 3 3 0 0 1-.23-.222l-.016-.019-.006-.007-.004-.004-.025-.028-4.674-5.941a.8.8 0 0 1 .098-1.09.713.713 0 0 1 1.037.103l4.527 5.751zm-4.766 0a.72.72 0 0 1 1.014-.258c.347.223.458.7.246 1.065l-5.361 9.225a.72.72 0 0 1-1.014.257.797.797 0 0 1-.244-1.063z"/></svg>