<svg xmlns="http://www.w3.org/2000/svg" fill="currentColor" viewBox="0 0 24 24"><path fill="currentColor" d="M6.867 11.259a5.874 5.874 0 0 1 5.866 5.871c0 3.238-2.63 5.87-5.866 5.87A5.874 5.874 0 0 1 1 17.13a5.874 5.874 0 0 1 5.867-5.871m7.714-10.166a2.58 2.58 0 0 1 1.975.255c.43.244.773.606 1.008 1.037H19l.113.009a.74.74 0 0 1 .57.46h1.654l.17.008a1.665 1.665 0 0 1 1.492 1.665v16.81A1.66 1.66 0 0 1 21.337 23h-8.87a.74.74 0 0 1-.732-.734.74.74 0 0 1 .733-.734h8.869a.196.196 0 0 0 .195-.195V4.527a.21.21 0 0 0-.156-.2l-.04-.006h-1.603v1.595a.74.74 0 0 1-.733.735h-7.47a.74.74 0 0 1-.734-.735V4.312H9.193c-.107 0-.194.089-.194.206v5.136a.74.74 0 0 1-.734.734.74.74 0 0 1-.733-.734V4.518c0-.92.743-1.674 1.661-1.674h1.658a.74.74 0 0 1 .68-.46h1.437a2.64 2.64 0 0 1 1.613-1.291M6.867 12.727a4.41 4.41 0 0 0-4.4 4.403 4.41 4.41 0 0 0 4.4 4.402c2.425 0 4.4-1.976 4.4-4.402a4.41 4.41 0 0 0-4.4-4.403m1.819 2.495a.737.737 0 0 1 1.036 0 .74.74 0 0 1 0 1.037l-3.266 3.267a.73.73 0 0 1-.518.216v-.01H5.87a.74.74 0 0 1-.538-.323l-.938-1.4a.73.73 0 0 1 .205-1.017.73.73 0 0 1 1.016.206l.44.656zM19 18.265c.4 0 .733.332.733.733a.74.74 0 0 1-.733.735h-3.266a.74.74 0 0 1-.733-.735c0-.4.332-.733.733-.733zm0-3.269c.4 0 .733.333.733.735a.74.74 0 0 1-.733.733h-3.266a.74.74 0 0 1-.733-.733.74.74 0 0 1 .733-.735zm.001-3.267c.4 0 .732.332.732.733a.74.74 0 0 1-.732.734h-5.135a.74.74 0 0 1-.732-.734c0-.4.332-.733.732-.733zM19 8.45c.4 0 .733.334.733.735a.74.74 0 0 1-.733.733h-7.47a.74.74 0 0 1-.734-.733.74.74 0 0 1 .733-.735zm-3.167-5.82a1.135 1.135 0 0 0-1.652.685.724.724 0 0 1-.705.538h-1.203v1.33h5.995v-1.33h-1.204a.73.73 0 0 1-.703-.538 1.1 1.1 0 0 0-.528-.685"/></svg>