<svg xmlns="http://www.w3.org/2000/svg" width="24" height="24" fill="none" viewBox="0 0 24 24"><g clip-path="url(#a)"><path fill="currentColor" d="M6.871 11.259a5.876 5.876 0 0 1 5.87 5.87A5.875 5.875 0 0 1 6.871 23 5.876 5.876 0 0 1 1 17.13a5.876 5.876 0 0 1 5.871-5.871M14.59 1.093a2.6 2.6 0 0 1 1.976.255c.43.244.773.606 1.008 1.037h1.439c.308 0 .574.196.681.469h1.658c.92 0 1.663.744 1.663 1.673v16.81c0 .92-.744 1.663-1.663 1.663h-8.875a.74.74 0 0 1-.734-.734.74.74 0 0 1 .734-.734h8.875a.196.196 0 0 0 .195-.195V4.527c0-.107-.088-.206-.195-.206h-1.605v1.595a.74.74 0 0 1-.734.734h-7.476a.74.74 0 0 1-.733-.734V4.312H9.199a.2.2 0 0 0-.195.206v5.136a.74.74 0 0 1-.734.734.74.74 0 0 1-.734-.734V4.518c0-.92.744-1.674 1.663-1.674h1.66a.74.74 0 0 1 .678-.46h1.439a2.64 2.64 0 0 1 1.614-1.291M6.87 12.727a4.41 4.41 0 0 0-4.403 4.403 4.41 4.41 0 0 0 4.403 4.402 4.41 4.41 0 0 0 4.402-4.402 4.41 4.41 0 0 0-4.402-4.403m1.82 2.495a.74.74 0 0 1 1.037 0 .74.74 0 0 1 0 1.037L6.46 19.526a.73.73 0 0 1-.519.216v-.01h-.068a.73.73 0 0 1-.538-.323l-.94-1.4a.73.73 0 0 1 .206-1.017.73.73 0 0 1 1.017.206l.44.656zm10.322 3.043a.74.74 0 0 1 .734.733.74.74 0 0 1-.734.734h-3.268a.74.74 0 0 1-.733-.734c0-.401.332-.733.733-.733zm0-3.269a.74.74 0 0 1 .734.734.74.74 0 0 1-.734.734h-3.268a.74.74 0 0 1-.733-.733.74.74 0 0 1 .733-.735zm0-3.267c.401 0 .734.332.734.733a.74.74 0 0 1-.733.734h-5.138a.74.74 0 0 1-.733-.734c0-.401.332-.733.733-.733zm0-3.279a.74.74 0 0 1 .734.735.74.74 0 0 1-.734.733h-7.476a.74.74 0 0 1-.733-.733.74.74 0 0 1 .733-.735zm-3.17-5.821a1.135 1.135 0 0 0-1.653.685.72.72 0 0 1-.706.538H12.28v1.33h5.998v-1.33h-1.204a.734.734 0 0 1-.704-.539 1.1 1.1 0 0 0-.528-.684"/></g><defs><clipPath id="a"><path fill="currentColor" d="M0 0h24v24H0z"/></clipPath></defs></svg>