<svg xmlns="http://www.w3.org/2000/svg" width="24" height="24" fill="none" viewBox="0 0 24 24"><g clip-path="url(#a)"><path fill="currentColor" d="m13.353 11.998 9.37-9.368a.963.963 0 0 0 0-1.352.963.963 0 0 0-1.354 0L12 10.646 2.63 1.277a.963.963 0 0 0-1.352 0 .963.963 0 0 0 0 1.352l9.369 9.368-9.37 9.368a.963.963 0 0 0 0 1.353.955.955 0 0 0 1.354.001L12 13.35l9.37 9.368a.95.95 0 0 0 1.352.001.963.963 0 0 0 0-1.354z"/></g><defs><clipPath id="a"><path fill="currentColor" d="M0 0h24v24H0z"/></clipPath></defs></svg>