<svg xmlns="http://www.w3.org/2000/svg" fill="currentColor" viewBox="0 0 24 24"><path fill="currentColor" d="M17.694 5.677c.515 0 1.01.202 1.373.563l2.365 2.345c.364.361.568.852.568 1.362v10.477A2.587 2.587 0 0 1 19.402 23H8.945a1.95 1.95 0 0 1-1.373-.564l.143-16.324c.345-.28.78-.435 1.23-.435zM7.444 22.294a1.92 1.92 0 0 1-.441-1.222V7.604c0-.512.205-1.002.57-1.364zM8.842 7.092a.52.52 0 0 0-.423.512v13.468a.52.52 0 0 0 .525.523h10.457c.652 0 1.181-.525 1.181-1.171V9.947a.52.52 0 0 0-.153-.369l-2.736-2.497zm-6.135 8.004c.391 0 .709.314.709.702v1.579c0 .13.105.234.235.234h1.331c.391 0 .708.316.708.703a.705.705 0 0 1-.708.703h-1.33A1.646 1.646 0 0 1 2 17.377v-1.58c0-.387.317-.701.708-.701m0-7.286c.391 0 .709.314.709.702v3.092a.706.706 0 0 1-.709.703.705.705 0 0 1-.708-.703V8.513c0-.388.317-.702.708-.702M4.768 1c.391 0 .708.314.709.702a.706.706 0 0 1-.708.703H3.652a.235.235 0 0 0-.235.235v1.536a.707.707 0 0 1-.709.703A.706.706 0 0 1 2 4.176V2.64C2 1.734 2.74 1 3.652 1zM13.9 1c.581 0 1.12.302 1.418.796l.853 1.41a.7.7 0 0 1-.243.964.713.713 0 0 1-.973-.241l-.852-1.41a.24.24 0 0 0-.203-.114h-1.068a.706.706 0 0 1-.709-.703c0-.388.318-.702.71-.702zM9.713 1c.391 0 .709.314.709.702a.707.707 0 0 1-.71.703h-1.97a.706.706 0 0 1-.708-.703c0-.388.317-.702.708-.702z"/></svg>