<svg xmlns="http://www.w3.org/2000/svg" fill="currentColor" viewBox="0 0 24 24"><path fill="currentColor" d="M13.714 19.153c.201.01.343.05.473.12.121.07.222.14.313.24l1.926 1.783c.11.16.171.349.181.548 0 .199-.03.39-.12.558-.09.17-.223.32-.394.43a1.04 1.04 0 0 1-.564.168h-7.2l-.01-.01c-.15 0-.332-.05-.504-.14a1.14 1.14 0 0 1-.443-.478c-.07-.11-.13-.309-.13-.508s.06-.399.16-.568l.121-.139 1.855-1.675a.9.9 0 0 1 .313-.218c.131-.07.292-.1.443-.11zm-4.85 2.542h6.11l-1.381-1.256h-3.338zm1.26-1.226.102-.03h-.07zM21.044 1c.514 0 1.018.21 1.38.559.374.368.576.846.576 1.364v13.58c0 .509-.212 1.007-.575 1.355a1.96 1.96 0 0 1-1.381.559H2.956a1.94 1.94 0 0 1-1.38-.568A1.92 1.92 0 0 1 1 16.493V2.913c0-.508.202-.996.575-1.354A1.97 1.97 0 0 1 2.956 1zM2.32 16.483c0 .17.072.33.183.44.12.119.282.188.453.188h18.088c.171 0 .332-.07.453-.178a.62.62 0 0 0 .182-.44V15.02H2.32zm0-2.758h19.36V4.598H2.32zm.636-11.44a.68.68 0 0 0-.453.18.62.62 0 0 0-.183.438v.399h19.36v-.389a.62.62 0 0 0-.182-.437.64.64 0 0 0-.453-.181H2.956z"/></svg>