<svg xmlns="http://www.w3.org/2000/svg" fill="currentColor" viewBox="0 0 24 24"><path fill="currentColor" d="M17.42 1C19.396 1 21 2.57 21 4.49c0 1.68-1.224 3.08-2.849 3.41-.34 3.11-3.064 5.54-6.355 5.54H8.35v2.68c1.614.34 2.817 1.73 2.817 3.4 0 1.92-1.614 3.48-3.589 3.48S4 21.44 4 19.52c0-1.66 1.203-3.05 2.808-3.4V7.89C5.203 7.54 4 6.15 4 4.49 4 2.57 5.594 1 7.58 1c1.984 0 3.588 1.57 3.588 3.49 0 1.67-1.203 3.06-2.817 3.4v4.05h3.445c2.458 0 4.484-1.77 4.803-4.07-1.584-.36-2.757-1.74-2.757-3.38 0-1.92 1.604-3.49 3.579-3.49M7.58 17.54c-1.122 0-2.037.89-2.037 1.98s.905 1.98 2.036 1.98 2.047-.89 2.047-1.98-.926-1.98-2.047-1.98m0-15.04c-1.122 0-2.037.89-2.037 1.99 0 1.09.905 1.98 2.036 1.98s2.047-.88 2.047-1.98S8.7 2.5 7.579 2.5m9.84 0c-1.12 0-2.035.9-2.035 1.99s.915 1.98 2.036 1.98 2.036-.88 2.036-1.98-.915-1.99-2.036-1.99"/></svg>