<svg width="24" height="24" viewBox="0 0 24 24" fill="none" xmlns="http://www.w3.org/2000/svg">
<g clip-path="url(#clip0_402_409)">
<path d="M8 17.5C9.38073 17.5 10.5 18.6193 10.5 20C10.5 21.3807 9.38072 22.5 8 22.5C6.61929 22.5 5.5 21.3807 5.5 20C5.50002 18.6193 6.61928 17.5 8 17.5ZM16 17.5C17.3808 17.5 18.5 18.6193 18.5 20C18.5 21.3807 17.3807 22.5 16 22.5C14.6193 22.5 13.5 21.3807 13.5 20C13.5 18.6193 14.6193 17.5 16 17.5ZM8 18.6211C7.23825 18.6211 6.62111 19.2382 6.62109 20C6.62109 20.7617 7.23821 21.3789 8 21.3789C8.76178 21.3789 9.37891 20.7618 9.37891 20C9.37889 19.2382 8.76174 18.6211 8 18.6211ZM16 18.6211C15.2383 18.6211 14.6211 19.2382 14.6211 20C14.6211 20.7618 15.2382 21.3789 16 21.3789C16.7618 21.3789 17.3789 20.7617 17.3789 20C17.3789 19.2383 16.7618 18.6211 16 18.6211ZM8 9.5C9.38071 9.5 10.5 10.6192 10.5 12C10.5 13.3807 9.38071 14.5 8 14.5C6.61929 14.5 5.5 13.3807 5.5 12C5.50002 10.6192 6.61929 9.5 8 9.5ZM16 9.5C17.3807 9.50002 18.5 10.6192 18.5 12C18.5 13.3807 17.3807 14.5 16 14.5C14.6193 14.5 13.5 13.3807 13.5 12C13.5 10.6192 14.6193 9.5 16 9.5ZM8 10.6211C7.23824 10.6211 6.62111 11.2382 6.62109 12C6.62109 12.7617 7.23821 13.3789 8 13.3789C8.76178 13.3789 9.37891 12.7618 9.37891 12C9.37889 11.2382 8.76176 10.6211 8 10.6211ZM16 10.6211C15.2383 10.6211 14.6211 11.2382 14.6211 12C14.6211 12.7618 15.2382 13.3789 16 13.3789C16.7618 13.3789 17.3789 12.7617 17.3789 12C17.3789 11.2382 16.7618 10.6211 16 10.6211ZM8 1.5C9.38073 1.5 10.5 2.6193 10.5 4C10.5 5.3807 9.38073 6.5 8 6.5C6.61928 6.5 5.5 5.38071 5.5 4C5.5 2.6193 6.61928 1.5 8 1.5ZM16 1.5C17.3808 1.50002 18.5 2.6193 18.5 4C18.5 5.3807 17.3808 6.49998 16 6.5C14.6193 6.5 13.5 5.3807 13.5 4C13.5 2.61931 14.6193 1.5 16 1.5ZM8 2.62109C7.23823 2.6211 6.62109 3.23823 6.62109 4C6.6211 4.76177 7.23823 5.3789 8 5.37891C8.76177 5.37891 9.3789 4.76178 9.37891 4C9.37891 3.23823 8.76177 2.62109 8 2.62109ZM16 2.62109C15.2383 2.62109 14.6211 3.23822 14.6211 4C14.6211 4.76179 15.2383 5.37891 16 5.37891C16.7618 5.37889 17.3789 4.76176 17.3789 4C17.3789 3.23825 16.7618 2.62111 16 2.62109Z" fill="#212121"/>
</g>
<defs>
<clipPath id="clip0_402_409">
<rect width="24" height="24" fill="white"/>
</clipPath>
</defs>
</svg>
