<svg xmlns="http://www.w3.org/2000/svg" width="24" height="24" fill="none" viewBox="0 0 24 24"><g clip-path="url(#a)"><path fill="currentColor" d="M8 17.5a2.5 2.5 0 1 1 0 5 2.5 2.5 0 0 1 0-5m8 0a2.5 2.5 0 1 1 0 5 2.5 2.5 0 0 1 0-5m-8 1.121a1.379 1.379 0 1 0 0 2.757 1.379 1.379 0 0 0 0-2.757m8 0a1.379 1.379 0 1 0 0 2.757 1.379 1.379 0 0 0 0-2.757M8 9.5a2.5 2.5 0 1 1 0 5 2.5 2.5 0 0 1 0-5m8 0a2.5 2.5 0 1 1 0 5 2.5 2.5 0 0 1 0-5m-8 1.121a1.379 1.379 0 1 0 0 2.757 1.379 1.379 0 0 0 0-2.757m8 0a1.379 1.379 0 1 0 0 2.757 1.379 1.379 0 0 0 0-2.757M8 1.5a2.5 2.5 0 1 1 0 5 2.5 2.5 0 0 1 0-5m8 0a2.5 2.5 0 1 1 0 5 2.5 2.5 0 0 1 0-5M8 2.621a1.379 1.379 0 1 0 0 2.757 1.379 1.379 0 0 0 0-2.757m8 0a1.379 1.379 0 1 0 0 2.757 1.379 1.379 0 0 0 0-2.757"/></g><defs><clipPath id="a"><path fill="currentColor" d="M0 0h24v24H0z"/></clipPath></defs></svg>