<svg xmlns="http://www.w3.org/2000/svg" fill="currentColor" viewBox="0 0 24 24"><path fill="currentColor" d="M21.207 6.61c.433 0 .793.374.793.825s-.36.825-.793.825h-.36v3.4c0 4.333-3.395 7.864-7.562 7.864h-.497v2.65c0 .452-.36.826-.793.826s-.794-.374-.794-.825v-2.65h-.486c-4.167 0-7.563-3.532-7.563-7.866v-3.4h-.359C2.359 8.26 2 7.886 2 7.436c0-.451.36-.824.793-.825zM4.739 11.66c0 3.42 2.676 6.214 5.976 6.214h2.57c3.29 0 5.976-2.783 5.976-6.215v-3.4H4.739zM8.547 1c.433 0 .793.374.793.825v3.003c0 .451-.36.825-.793.825s-.793-.374-.793-.825V1.825c0-.45.36-.825.793-.825m6.906 0c.434 0 .794.374.794.825v3.003c0 .451-.36.825-.794.825-.433 0-.793-.374-.793-.825V1.825c0-.45.36-.825.793-.825"/></svg>