<svg xmlns="http://www.w3.org/2000/svg" width="24" height="24" fill="none" viewBox="0 0 24 24"><path fill="currentColor" d="M12.378 5.002c3.902.088 7.703 2.864 10.035 5.458a2.32 2.32 0 0 1 0 3.085c-2.407 2.688-6.38 5.508-10.423 5.457h-.15c-3.953 0-7.875-2.81-10.253-5.457a2.32 2.32 0 0 1 0-3.085C3.91 7.866 7.748 5.09 11.625 5.002zm-.519 1.527c-3.47 0-7.002 2.546-9.159 4.96a.774.774 0 0 0 0 1.028c2.109 2.357 5.508 4.876 8.946 4.958h.455c3.5 0 7.031-2.546 9.188-4.958a.774.774 0 0 0 0-1.029c-2.177-2.433-5.768-5.04-9.28-4.948h-.15zM12 7.782c1.113 0 2.157.437 2.94 1.241a4.27 4.27 0 0 1 1.223 2.995c0 2.331-1.866 4.225-4.163 4.225v-.01c-2.297 0-4.163-1.895-4.163-4.226S9.703 7.782 12 7.782M12 9.3c-1.465 0-2.658 1.212-2.658 2.698 0 1.487 1.193 2.698 2.658 2.698s2.658-1.211 2.658-2.698S13.465 9.3 12 9.3"/></svg>