<svg xmlns="http://www.w3.org/2000/svg" fill="currentColor" viewBox="0 0 24 24"><path fill="currentColor" d="M16.457 16.57a3.214 3.214 0 0 1 3.125 2.464h2.668l.077.004a.75.75 0 0 1-.077 1.496h-2.669a3.214 3.214 0 0 1-6.19.21l-.059-.213H1.75a.75.75 0 0 1 0-1.5h11.583a3.216 3.216 0 0 1 3.124-2.46m0 1.5a1.713 1.713 0 1 0 0 3.426 1.713 1.713 0 0 0 0-3.426M7.543 9a3.214 3.214 0 0 1 3.124 2.46H22.25a.75.75 0 0 1 0 1.5H10.668a3.22 3.22 0 0 1-1.896 2.222 3.214 3.214 0 0 1-4.354-2.221H1.75a.75.75 0 1 1 0-1.5h2.669A3.21 3.21 0 0 1 7.543 9m0 1.5a1.712 1.712 0 0 0-1.211 2.924 1.715 1.715 0 0 0 1.866.372 1.715 1.715 0 0 0-.655-3.296M16.457 1a3.215 3.215 0 0 1 3.15 2.578h2.643l.077.004a.75.75 0 0 1-.077 1.496h-2.698a3.214 3.214 0 0 1-6.128.195l-.062-.195H1.75a.75.75 0 0 1 0-1.5h11.558A3.21 3.21 0 0 1 16.457 1m0 1.5a1.713 1.713 0 1 0 .001 3.425 1.713 1.713 0 0 0-.001-3.425"/></svg>