<svg xmlns="http://www.w3.org/2000/svg" width="24" height="24" fill="none" viewBox="0 0 24 24"><g clip-path="url(#a)"><path fill="currentColor" d="M16.457 16.57a3.215 3.215 0 0 1 3.124 2.464h2.669a.75.75 0 0 1 0 1.5h-2.67a3.2 3.2 0 0 1-.85 1.522 3.214 3.214 0 0 1-5.397-1.525H1.75a.75.75 0 0 1 0-1.5h11.584a3.21 3.21 0 0 1 3.123-2.46m0 1.5a1.712 1.712 0 1 0 0 3.425 1.712 1.712 0 0 0 0-3.425M7.543 9a3.214 3.214 0 0 1 3.123 2.46H22.25a.75.75 0 0 1 0 1.5H10.667a3.205 3.205 0 0 1-3.124 2.466 3.21 3.21 0 0 1-3.124-2.465H1.75a.75.75 0 1 1 0-1.5h2.67q.059-.244.154-.478A3.21 3.21 0 0 1 7.543 9m0 1.5a1.712 1.712 0 0 0-1.211 2.924 1.715 1.715 0 0 0 1.866.372 1.715 1.715 0 0 0-.655-3.296M16.457 1a3.215 3.215 0 0 1 3.15 2.578h2.643a.75.75 0 0 1 0 1.5h-2.7a3.212 3.212 0 0 1-6.187 0H1.75a.75.75 0 0 1 0-1.5h11.558A3.21 3.21 0 0 1 16.457 1m0 1.5a1.713 1.713 0 1 0 .001 3.425 1.713 1.713 0 0 0-.001-3.425"/></g><defs><clipPath id="a"><path fill="currentColor" d="M0 0h24v24H0z"/></clipPath></defs></svg>