<svg xmlns="http://www.w3.org/2000/svg" fill="currentColor" viewBox="0 0 24 24"><path fill="currentColor" d="M10.127 13.072a.893.893 0 0 1 .805.889v7.145a.894.894 0 0 1-.894.894H2.894l-.09-.004a.9.9 0 0 1-.477-.198l-.065-.06A.9.9 0 0 1 2 21.106v-7.145a.893.893 0 0 1 .805-.889l.089-.004h7.144zm11.068 0a.893.893 0 0 1 .805.889v7.145a.894.894 0 0 1-.894.894h-7.144l-.089-.004a.894.894 0 0 1-.805-.89v-7.145a.9.9 0 0 1 .203-.566l.06-.065a.9.9 0 0 1 .542-.258l.089-.004h7.144zM3.5 20.5h5.932v-5.932H3.5zm11.068 0H20.5v-5.932h-5.932zM10.038 2a.894.894 0 0 1 .894.894v7.145l-.004.088a.893.893 0 0 1-.89.805H2.894l-.09-.004a.9.9 0 0 1-.477-.199l-.065-.06a.9.9 0 0 1-.258-.542L2 10.039V2.894a.894.894 0 0 1 .805-.89L2.894 2zm11.068 0a.894.894 0 0 1 .894.894v7.145l-.004.088a.893.893 0 0 1-.89.805h-7.144l-.089-.004a.89.89 0 0 1-.8-.801l-.005-.088V2.894a.894.894 0 0 1 .805-.89L13.962 2zM3.5 9.432h5.932V3.5H3.5zm11.068 0H20.5V3.5h-5.932z"/></svg>