<svg xmlns="http://www.w3.org/2000/svg" fill="currentColor" viewBox="0 0 24 24"><path fill="currentColor" d="M11.995 1c.367 0 .712.11 1.005.32l8.2 6.72c1.14.93 1.8 2.3 1.8 3.75v9.57c0 .91-.765 1.64-1.696 1.64h-3.948c-.942 0-1.696-.74-1.696-1.64v-6.01c0-.44-.178-.85-.492-1.16a1.7 1.7 0 0 0-1.194-.48h-3.948c-.45 0-.879.17-1.193.48s-.492.73-.492 1.16v6.01c0 .91-.766 1.64-1.697 1.64H2.696C1.754 23 1 22.26 1 21.36v-9.57c0-1.45.66-2.82 1.8-3.75l8.19-6.72c.293-.21.65-.32 1.005-.32m0 1.51h-.042L3.816 9.17a3.4 3.4 0 0 0-1.246 2.61v9.57c0 .08.063.14.126.14h3.927c.073 0 .126-.06.126-.14v-6.01c0-.83.345-1.62.952-2.21a3.35 3.35 0 0 1 2.315-.93h3.948c.858 0 1.706.34 2.313.93s.943 1.38.943 2.21v6.01c0 .08.063.14.126.14h3.947c.073 0 .126-.07.126-.14v-9.57c0-1.01-.45-1.96-1.246-2.61L12.037 2.5z"/></svg>