<svg xmlns="http://www.w3.org/2000/svg" fill="currentColor" viewBox="0 0 24 24"><path fill="currentColor" d="M17.034 1C18.117 1 19 1.915 19 3.036v2.055c0 3.237-2.056 5.978-4.882 6.909 2.826.933 4.882 3.68 4.882 6.91v2.054c0 1.12-.883 2.036-1.966 2.036H6.966C5.883 23 5 22.085 5 20.964v-2.055c0-3.231 2.049-5.969 4.867-6.904C7.05 11.067 5 8.322 5 5.09V3.036C5 1.916 5.883 1 6.966 1zM12 13.126c-3.077 0-5.575 2.586-5.575 5.772v2.056c0 .315.247.56.54.56h10.07a.55.55 0 0 0 .54-.56v-2.056c0-3.186-2.498-5.772-5.575-5.772m-.56 1.915a.824.824 0 0 1 1.196.078v-.01l2.83 3.305a.9.9 0 0 1 .21.58c0 .492-.38.885-.846.885H9.17a.84.84 0 0 1-.56-.216.896.896 0 0 1-.076-1.24l2.83-3.304.028-.03a.3.3 0 0 1 .049-.048M6.966 2.476a.55.55 0 0 0-.541.56v2.055c0 3.186 2.498 5.773 5.575 5.773s5.575-2.587 5.575-5.773V3.036a.556.556 0 0 0-.433-.55l-.108-.01zm7.553 4.868c.142 0 .284.078.36.216a.46.46 0 0 1 0 .442c-.57 1.14-1.681 1.869-2.916 1.908l.01.01a3.41 3.41 0 0 1-2.916-1.878.46.46 0 0 1 0-.443c.066-.148.2-.255.361-.255z"/></svg>