<svg xmlns="http://www.w3.org/2000/svg" fill="currentColor" viewBox="0 0 24 24"><path fill="currentColor" d="M10.9 3.2q.707 0 1.39.097c.45.063.728.509.627.953s-.542.718-.994.662a8.25 8.25 0 1 0 7.165 7.165c-.056-.452.219-.893.663-.994s.889.177.952.628q.096.682.097 1.389c0 5.467-4.432 9.9-9.9 9.9C5.433 23 1 18.567 1 13.1s4.433-9.9 9.9-9.9m0 5.007c.36 0 .66.3.66.66v3.96l3.933 3.934a.664.664 0 0 1 0 .932.654.654 0 0 1-.933 0l-4.126-4.127a.7.7 0 0 1-.132-.19.65.65 0 0 1-.062-.276V8.867c0-.36.3-.66.66-.66M18.5 1a.91.91 0 0 1 .908.91v2.683h2.662l.211.02a.91.91 0 0 1 .72.888c0 .21-.074.412-.206.573l-.06.067a.92.92 0 0 1-.644.266h-2.683V9.09a.91.91 0 0 1-.908.91.907.907 0 0 1-.906-.91V6.407H14.91a.907.907 0 1 1 0-1.814h2.683V1.91c0-.241.097-.475.266-.644l.067-.06A.9.9 0 0 1 18.499 1m3.856 5.82-.131.02q.09-.01.18-.032c-.017.003-.033.01-.05.012"/></svg>