<svg xmlns="http://www.w3.org/2000/svg" fill="currentColor" viewBox="0 0 24 24"><path fill="currentColor" d="M12 1c6.06 0 11 4.93 11 11s-4.93 11-11 11S1 18.07 1 12 5.93 1 12 1M8.639 15.82c.336 2.37.98 4.397 1.82 5.639.504.084 1.018.14 1.541.14s1.037-.056 1.541-.14c.84-1.242 1.484-3.268 1.82-5.64zm-5.435 0a9.66 9.66 0 0 0 5.388 5.135C7.957 19.573 7.49 17.8 7.219 15.82zm13.567 0c-.27 1.979-.737 3.753-1.372 5.135a9.66 9.66 0 0 0 5.388-5.136zM2.729 9.571A9.5 9.5 0 0 0 2.4 12c0 .831.112 1.644.318 2.419h4.351A29 29 0 0 1 6.958 12c0-.831.046-1.634.111-2.428zm5.743 0A29 29 0 0 0 8.358 12h.01c0 .822.046 1.625.111 2.419h7.05c.066-.784.113-1.588.113-2.419s-.047-1.643-.113-2.428zm8.46 0c.065.794.111 1.606.111 2.428s-.046 1.625-.111 2.419h4.342A9.8 9.8 0 0 0 21.59 12c0-.84-.122-1.653-.327-2.428zM8.59 3.036a9.66 9.66 0 0 0-5.387 5.136H7.23c.261-1.98.737-3.754 1.363-5.136M12 2.4c-.532 0-1.046.057-1.55.141-.859 1.251-1.485 3.268-1.821 5.63h6.742c-.336-2.362-.972-4.37-1.821-5.63a9.4 9.4 0 0 0-1.55-.14m3.408.636c.635 1.382 1.103 3.156 1.373 5.136h4.015a9.66 9.66 0 0 0-5.388-5.136"/></svg>