<svg xmlns="http://www.w3.org/2000/svg" fill="currentColor" viewBox="0 0 24 24"><path fill="currentColor" d="M9.06 1c.948 0 1.838.37 2.51 1.042l11.016 11.014c.18.18.313.407.37.653.066.256.056.512-.02.758a1.5 1.5 0 0 1-.407.644c-.19.17-.417.284-.673.341l-5.341 1.07-1.07 5.341a1.4 1.4 0 0 1-.341.673c-.171.19-.399.332-.645.407a1.5 1.5 0 0 1-.402.057 1.5 1.5 0 0 1-.346-.038 1.45 1.45 0 0 1-.663-.379L2.042 11.569A3.53 3.53 0 0 1 1 9.06V3.132c0-.559.227-1.108.625-1.506A2.15 2.15 0 0 1 3.131 1zM3.13 2.42a.71.71 0 0 0-.71.71v5.93c0 .568.219 1.108.626 1.505L14.062 21.58l1.165-5.805a.71.71 0 0 1 .558-.56l5.807-1.154L10.566 3.046a2.15 2.15 0 0 0-1.505-.625zm2.98 2.605a1.98 1.98 0 0 1 1.529 0c.24.098.462.248.65.435a1.99 1.99 0 0 1 .435 2.177 2 2 0 0 1-.436.648c-.187.187-.41.33-.65.436-.24.097-.497.151-.763.151a2 2 0 0 1-1.414-.587 2.1 2.1 0 0 1-.436-.648 2.02 2.02 0 0 1 0-1.529c.098-.24.25-.462.436-.648a2 2 0 0 1 .65-.435m.765 1.181a.7.7 0 0 0-.472.196.7.7 0 0 0-.142.213.6.6 0 0 0-.053.258.7.7 0 0 0 .195.47.6.6 0 0 0 .214.142.63.63 0 0 0 .506 0 .7.7 0 0 0 .223-.141.7.7 0 0 0 .195-.471.73.73 0 0 0-.195-.48.7.7 0 0 0-.471-.196z"/></svg>