<svg xmlns="http://www.w3.org/2000/svg" width="24" height="24" fill="none" viewBox="0 0 24 24"><g clip-path="url(#a)"><path fill="currentColor" d="M9.768 15.282c.437 0 .854.171 1.174.48.32.31.492.737.502 1.185v4.377c0 .448-.181.875-.502 1.195-.32.31-.737.481-1.185.481h-7.07v-.01A1.683 1.683 0 0 1 1 21.313v-4.367c0-.448.182-.875.502-1.184.32-.32.748-.48 1.186-.48zM21.313 9.84A1.69 1.69 0 0 1 23 11.535v9.768c0 .928-.748 1.686-1.677 1.686h-7.08V23a1.69 1.69 0 0 1-1.687-1.686v-9.779c0-.448.17-.875.49-1.195a1.72 1.72 0 0 1 1.196-.501zM2.602 16.958v4.356s.032.074.075.074h7.08l.086-.064v-4.366l-.086-.074h-7.07zm11.555-5.433v9.778c.001.002.033.084.085.085h7.07c.005-.003.085-.055.085-.096v-9.767l-.084-.085h-7.07zM9.767 1c.93.021 1.688.78 1.688 1.708v9.767c0 .928-.748 1.686-1.677 1.686h-7.09c-.449 0-.876-.18-1.197-.49A1.68 1.68 0 0 1 1 12.475V2.687c0-.449.17-.865.491-1.185S2.24 1 2.688 1zm-7.08 1.602c-.002 0-.085.043-.085.085v9.788s.043.085.086.085h7.069s.086-.043.086-.085V2.697s-.043-.085-.086-.085h-7.07zM21.314 1.01c.971-.043 1.676.725 1.687 1.654v4.387c0 .928-.716 1.666-1.687 1.677H14.23v-.011c-.437 0-.854-.171-1.174-.48a1.65 1.65 0 0 1-.501-1.186V2.687c0-.929.757-1.676 1.675-1.676zm-7.07 1.6c-.005.002-.086.034-.086.076v4.355l.085.074h7.07c.003 0 .085-.032.085-.074V2.676c0-.003-.032-.075-.074-.075h-7.08z"/></g><defs><clipPath id="a"><path fill="currentColor" d="M0 0h24v24H0z"/></clipPath></defs></svg>