<svg xmlns="http://www.w3.org/2000/svg" fill="currentColor" viewBox="0 0 24 24"><path fill="currentColor" d="M11.993 1c.958 0 1.78.612 2.094 1.464h4.377a.77.77 0 0 1 .8.419l3.652 7.305c.194.38.04.84-.348 1.035a.8.8 0 0 1-.338.08h-.01a.76.76 0 0 1-.685-.429l-2.958-5.919-2.963 5.93a.77.77 0 0 1-.685.42h-.01a.8.8 0 0 1-.338-.082.78.78 0 0 1-.348-1.035l3.094-6.19h-3.24a2.25 2.25 0 0 1-1.325 1.326v16.14h3.61l.076.005c.384.04.69.37.69.763 0 .42-.348.768-.767.768H7.606a.773.773 0 0 1-.766-.768c0-.42.347-.767.766-.767h3.62V5.325A2.25 2.25 0 0 1 9.9 3.998H6.67l3.095 6.19c.194.38.04.84-.348 1.035a.8.8 0 0 1-.338.08h-.01a.76.76 0 0 1-.685-.429L5.423 4.949l-2.961 5.925a.78.78 0 0 1-.685.43h-.01a.8.8 0 0 1-.337-.081.78.78 0 0 1-.348-1.035l3.621-7.247a.78.78 0 0 1 .833-.477H9.9A2.24 2.24 0 0 1 11.993 1M9.07 12c.42 0 .767.348.767.768a4.427 4.427 0 0 1-4.418 4.42A4.427 4.427 0 0 1 1 12.768c0-.42.347-.768.767-.768zm13.152 0c.419 0 .766.348.766.768a4.427 4.427 0 0 1-4.418 4.42 4.427 4.427 0 0 1-4.418-4.42c0-.42.348-.768.767-.768zM2.637 13.535a2.89 2.89 0 0 0 2.781 2.118 2.89 2.89 0 0 0 2.709-1.893l.072-.225zm13.151 0a2.89 2.89 0 0 0 2.781 2.118 2.89 2.89 0 0 0 2.71-1.893l.072-.225zm-3.795-11a.697.697 0 0 0-.695.688v.016a.69.69 0 0 0 .695.688.69.69 0 0 0 .697-.69v-.012a.69.69 0 0 0-.697-.69"/></svg>