<svg xmlns="http://www.w3.org/2000/svg" width="24" height="24" fill="none" viewBox="0 0 24 24"><g clip-path="url(#a)"><path fill="currentColor" d="M7.234 1c.42 0 .935.135 1.354.453C8.917 1.181 9.365 1 9.957 1h2.733c.844 0 2.08.542 2.125 2.041.3-.271.693-.449 1.162-.517l1.351-.194c.082-.01.543-.061 1.055.103.757.255 1.238.859 1.361 1.698l1.67 11.47c.048.336.016.747-.133 1.136a2.126 2.126 0 0 1-.318 4.211v1.284c0 .42-.348.768-.768.768a.773.773 0 0 1-.767-.768v-1.279H4.583v1.28a.773.773 0 0 1-.768.767.773.773 0 0 1-.767-.768v-1.284a2.127 2.127 0 0 1-.583-4.145 2.4 2.4 0 0 1-.104-.71V3.128c0-.85.574-2.128 2.14-2.128zM3.13 18.222a.594.594 0 0 0 0 1.186h17.74a.594.594 0 0 0 0-1.187h-2.72c-.065.006-.134.01-.198.01v.011a2 2 0 0 1-.302-.02zm11.691-2.13c0 .189-.028.396-.087.605H15.9a3 3 0 0 1-.055-.276L14.82 9.38zm2.713-12.247-1.34.194c-.144.02-.574.082-.503.686l1.67 11.47c.017.122.071.451.454.502h.23l1.342-.195c.143-.02.573-.082.502-.686l-1.67-11.47c-.02-.144-.081-.573-.685-.501M4.49 2.535c-.144 0-.583 0-.594.604v12.954c0 .143.001.583.605.593h2.723c.143 0 .583 0 .593-.603V3.128c0-.144 0-.583-.603-.593zm5.467 0c-.144 0-.583 0-.594.604v12.954c0 .143 0 .583.605.593h2.722c.144 0 .584 0 .594-.603V3.128c0-.144 0-.583-.603-.593z"/></g><defs><clipPath id="a"><path fill="currentColor" d="M0 0h24v24H0z"/></clipPath></defs></svg>