<svg xmlns="http://www.w3.org/2000/svg" fill="currentColor" viewBox="0 0 24 24"><path fill="currentColor" d="M7.234 1c.42 0 .936.134 1.355.452C8.918 1.181 9.366 1 9.957 1h2.733c.843 0 2.08.541 2.128 2.037.3-.27.693-.445 1.159-.513l1.351-.194c.082-.01.543-.061 1.055.103.757.255 1.238.859 1.361 1.698l1.67 11.47c.047.335.018.746-.13 1.135a2.128 2.128 0 0 1-.321 4.215v1.281c0 .42-.348.768-.768.768a.773.773 0 0 1-.767-.768v-1.279H4.583v1.28a.773.773 0 0 1-.768.767.773.773 0 0 1-.767-.768v-1.28a2.128 2.128 0 0 1-.586-4.15 2.4 2.4 0 0 1-.1-.71V3.129C2.361 2.278 2.934 1 4.5 1zM3.13 18.222a.594.594 0 0 0 0 1.186h17.74a.594.594 0 0 0 0-1.187h-2.713a2 2 0 0 1-.205.01v.011q-.15 0-.31-.02zm11.691-2.13c0 .188-.026.396-.085.605h1.163a3 3 0 0 1-.054-.276L14.82 9.377zm2.713-12.247-1.34.194c-.144.02-.574.082-.503.686l1.67 11.47c.017.121.07.447.444.502h.24l1.342-.195c.143-.02.573-.082.502-.686l-1.67-11.47c-.02-.144-.081-.573-.685-.501M4.49 2.535c-.144 0-.583 0-.594.604v12.954c0 .143.001.583.605.593h2.723c.143 0 .583 0 .593-.603V3.128c0-.144 0-.583-.603-.593zm5.467 0c-.144 0-.583 0-.594.604v12.954c0 .143 0 .583.605.593h2.722c.144 0 .584 0 .594-.603V3.128c0-.144 0-.583-.603-.593z"/></svg>