<svg xmlns="http://www.w3.org/2000/svg" width="24" height="24" fill="none" viewBox="0 0 24 24"><g clip-path="url(#a)"><path fill="currentColor" fill-rule="evenodd" d="M3 10.202C3 5.132 7.017 1 12 1s9 4.133 9 9.202c0 3.011-1.447 5.877-3.136 8.093-1.685 2.21-3.714 3.907-5.061 4.541-.255.12-.544.162-.79.164a1.9 1.9 0 0 1-.816-.164c-1.7-.8-3.733-2.49-5.341-4.68C4.244 15.962 3 13.188 3 10.202m9-7.65c-4.106 0-7.457 3.412-7.457 7.65 0 2.556 1.07 5.013 2.554 7.032 1.486 2.023 3.328 3.525 4.752 4.195q-.001.001.04.01a.6.6 0 0 0 .227-.001q.034-.008.037-.01c1.05-.495 2.896-1.99 4.486-4.077 1.587-2.082 2.818-4.618 2.818-7.15 0-4.237-3.351-7.649-7.457-7.649m0 5.174a2.32 2.32 0 0 0-2.314 2.328A2.32 2.32 0 0 0 12 12.382a2.32 2.32 0 0 0 2.314-2.328A2.32 2.32 0 0 0 12 7.726m-3.857 2.328c0-2.143 1.727-3.88 3.857-3.88s3.857 1.737 3.857 3.88-1.727 3.88-3.857 3.88-3.857-1.737-3.857-3.88" clip-rule="evenodd"/></g><defs><clipPath id="a"><path fill="currentColor" d="M0 0h24v24H0z"/></clipPath></defs></svg>