<svg xmlns="http://www.w3.org/2000/svg" fill="currentColor" viewBox="0 0 24 24"><path fill="currentColor" d="M12 1c4.983 0 9 4.133 9 9.202 0 3.011-1.447 5.876-3.137 8.093-1.684 2.21-3.713 3.907-5.06 4.54a1.9 1.9 0 0 1-.79.165 1.9 1.9 0 0 1-.816-.164c-1.7-.8-3.733-2.49-5.342-4.68C4.243 15.962 3 13.188 3 10.202 3 5.133 7.017 1 12 1m0 1.552c-4.106 0-7.457 3.412-7.457 7.65 0 2.556 1.07 5.013 2.554 7.031 1.486 2.023 3.328 3.527 4.752 4.197l.039.009a.6.6 0 0 0 .264-.01c1.05-.495 2.897-1.992 4.488-4.078 1.586-2.082 2.817-4.618 2.817-7.149 0-4.238-3.351-7.65-7.457-7.65m0 3.622c2.13 0 3.857 1.737 3.857 3.88s-1.727 3.88-3.857 3.88-3.857-1.737-3.857-3.88S9.87 6.174 12 6.174m0 1.552a2.32 2.32 0 0 0-2.314 2.328A2.32 2.32 0 0 0 12 12.382a2.32 2.32 0 0 0 2.315-2.328A2.32 2.32 0 0 0 12 7.726"/></svg>