<svg xmlns="http://www.w3.org/2000/svg" width="24" height="24" fill="none" viewBox="0 0 24 24"><g clip-path="url(#a)"><path fill="currentColor" d="M11.968 1a5.64 5.64 0 0 1 4.028 1.669 5.67 5.67 0 0 1 1.669 4.028v2.741h1.161c1.206 0 2.174.979 2.174 2.184v9.204A2.17 2.17 0 0 1 18.826 23H5.185A2.177 2.177 0 0 1 3 20.826v-9.204c0-1.205.98-2.184 2.185-2.184H6.27v-2.74c0-1.515.587-2.947 1.668-4.029A5.67 5.67 0 0 1 11.968 1m-6.783 9.983a.64.64 0 0 0-.64.64v9.203c0 .35.29.63.64.63l13.641-.002c.35 0 .628-.278.628-.628v-9.204a.633.633 0 0 0-.628-.639zM12.06 14a2.06 2.06 0 1 1 0 4.121 2.06 2.06 0 0 1 0-4.121m-.104-11.444A4.12 4.12 0 0 0 9.031 3.77a4.12 4.12 0 0 0-1.216 2.926v2.741H16.1v-2.74a4.12 4.12 0 0 0-1.215-2.927 4.12 4.12 0 0 0-2.927-1.215"/></g><defs><clipPath id="a"><path fill="currentColor" d="M0 0h24v24H0z"/></clipPath></defs></svg>