<svg xmlns="http://www.w3.org/2000/svg" fill="currentColor" viewBox="0 0 24 24"><path fill="currentColor" d="M11.532 1a6 6 0 0 1 4.224 1.703 5.8 5.8 0 0 1 1.747 4.114V9.43c0 .128-.032.25-.089.357h1.412l.223.012c1.1.109 1.951 1.016 1.951 2.117v8.967C21 22.056 20.032 23 18.826 23H5.185C3.979 23 3 22.056 3 20.882v-8.967c0-1.174.98-2.129 2.185-2.129h10.779a.8.8 0 0 1-.089-.357V6.817c0-1.11-.467-2.2-1.27-2.993a4.4 4.4 0 0 0-3.073-1.237A4.4 4.4 0 0 0 8.46 3.824 4.24 4.24 0 0 0 7.32 5.78a.807.807 0 0 1-.987.572c-.434-.106-.706-.54-.587-.962A5.76 5.76 0 0 1 7.31 2.703 6 6 0 0 1 11.532 1M5.185 11.292a.634.634 0 0 0-.64.623v8.967c.001.341.29.612.64.612h13.641c.35 0 .628-.271.628-.612v-8.967a.624.624 0 0 0-.5-.61l-.128-.013zm6.876 2.938c1.138 0 2.06.899 2.06 2.007s-.923 2.008-2.06 2.008-2.06-.9-2.061-2.008.922-2.007 2.06-2.007"/></svg>