<svg xmlns="http://www.w3.org/2000/svg" fill="currentColor" viewBox="0 0 24 24"><path fill="currentColor" d="M12 1a3.67 3.67 0 0 1 2.643 1.127L22.75 9.25c.158.14.249.34.249.55v11a2.2 2.2 0 0 1-2.2 2.2H3.2A2.2 2.2 0 0 1 1 20.8V9.802a.73.73 0 0 1 .249-.551l8.107-7.124A3.67 3.67 0 0 1 12 1m4.824 14.054 2.294 2.295a.733.733 0 0 1-1.037 1.037l-2.414-2.414-1.4 1.11-.002.002a3.67 3.67 0 0 1-4.53 0l-.003-.002-1.4-1.11-2.413 2.414a.734.734 0 0 1-1.037-1.037l2.294-2.295-4.71-3.736V20.8a.734.734 0 0 0 .734.733h17.6a.734.734 0 0 0 .733-.733v-9.482zM12 2.467a2.2 2.2 0 0 0-1.608.698l-.052.05-7.464 6.557 7.766 6.159.148.107a2.2 2.2 0 0 0 2.568-.107l7.765-6.159-7.463-6.556-.052-.051A2.2 2.2 0 0 0 12 2.467"/></svg>