<svg xmlns="http://www.w3.org/2000/svg" fill="currentColor" viewBox="0 0 24 24"><path fill="currentColor" d="M17.375 1.001q.035 0 .09.005a3.3 3.3 0 0 1 1.161.291c.329.153.68.393.948.765.271.378.426.85.426 1.42v17.053l-.001.026q0 .033-.005.084a2.8 2.8 0 0 1-.313 1.078 2.3 2.3 0 0 1-.825.881c-.406.252-.915.396-1.527.396H6.653l-.028-.001q-.035 0-.09-.004a3.3 3.3 0 0 1-1.16-.292 2.4 2.4 0 0 1-.95-.765c-.27-.378-.425-.85-.425-1.42V3.467l.001-.028q0-.031.005-.083.006-.102.034-.266c.038-.213.117-.509.28-.812.165-.305.422-.633.824-.881C5.55 1.144 6.059 1 6.67 1h10.676zM6.671 2.375c-.353 0-.57.08-.706.165a.9.9 0 0 0-.322.352 1.4 1.4 0 0 0-.164.592V20.52c0 .328.087.529.178.656a.94.94 0 0 0 .38.299 1.7 1.7 0 0 0 .637.151h10.655c.353 0 .57-.08.706-.165a.9.9 0 0 0 .322-.352 1.4 1.4 0 0 0 .162-.562l.002-.027V3.48c0-.328-.087-.529-.178-.656a.94.94 0 0 0-.38-.299 1.7 1.7 0 0 0-.637-.151h-.321l-.258 1.613v.002A1.63 1.63 0 0 1 16.145 5a1.86 1.86 0 0 1-1.006.395l-.159.005H9.02a1.87 1.87 0 0 1-1.164-.399 1.63 1.63 0 0 1-.601-1.009l-.001-.003-.257-1.615zm2.048 1.413a.28.28 0 0 0 .101.171.32.32 0 0 0 .2.067h5.961a.32.32 0 0 0 .2-.067.28.28 0 0 0 .102-.174l.225-1.41H8.493z"/></svg>