<svg xmlns="http://www.w3.org/2000/svg" fill="currentColor" viewBox="0 0 24 24"><path fill="currentColor" d="M12.007 17.286q.766 0 1.311.545.546.546.546 1.312 0 .765-.546 1.311-.544.546-1.311.546-.765 0-1.312-.546a1.8 1.8 0 0 1-.545-1.311q0-.766.545-1.312a1.8 1.8 0 0 1 1.312-.545m0-7.143q.766 0 1.311.545.546.546.546 1.312t-.546 1.312q-.544.545-1.311.545-.765 0-1.312-.545A1.8 1.8 0 0 1 10.15 12q0-.766.545-1.312.546-.545 1.312-.545m0-7.143q.766 0 1.311.546.546.545.546 1.311t-.546 1.312a1.8 1.8 0 0 1-1.311.545q-.765 0-1.312-.545a1.8 1.8 0 0 1-.545-1.312q0-.765.545-1.311Q11.241 3 12.007 3"/></svg>