<svg xmlns="http://www.w3.org/2000/svg" fill="currentColor" viewBox="0 0 24 24"><path fill="currentColor" d="M16.75 1a2.75 2.75 0 1 1-.832 5.37l-1.44 2.492a4 4 0 0 1 1.45 2.388h1.68A2.747 2.747 0 0 1 23 12a2.747 2.747 0 0 1-5.393.75h-1.68a4 4 0 0 1-1.433 2.372l1.444 2.501q.387-.122.812-.123a2.75 2.75 0 1 1-2.07.943l-1.513-2.62a3.95 3.95 0 0 1-2.252.024L9.378 18.51a2.75 2.75 0 1 1-1.236-.86l1.428-2.474a4 4 0 0 1-1.498-2.426h-1.68A2.747 2.747 0 0 1 1 12a2.747 2.747 0 0 1 5.393-.75h1.68a4 4 0 0 1 1.531-2.452L8.182 6.332a2.7 2.7 0 0 1-.932.168A2.75 2.75 0 1 1 10 3.75c0 .644-.224 1.233-.595 1.701l1.552 2.689a4 4 0 0 1 2.191.03l1.517-2.63A2.73 2.73 0 0 1 14 3.75 2.75 2.75 0 0 1 16.75 1m-9.5 17.5a1.75 1.75 0 1 0 0 3.5 1.75 1.75 0 0 0 0-3.5m9.5 0a1.75 1.75 0 1 0 0 3.5 1.75 1.75 0 0 0 0-3.5M12 9a3 3 0 1 0 0 6 3 3 0 0 0 0-6m-8.25 1.25a1.75 1.75 0 1 0 0 3.5 1.75 1.75 0 0 0 0-3.5m16.5 0a1.75 1.75 0 1 0 0 3.5 1.75 1.75 0 0 0 0-3.5M7.25 2a1.75 1.75 0 1 0 0 3.5 1.75 1.75 0 0 0 0-3.5m9.5 0a1.75 1.75 0 1 0 0 3.5 1.75 1.75 0 0 0 0-3.5"/></svg>