<svg xmlns="http://www.w3.org/2000/svg" fill="currentColor" viewBox="0 0 24 24"><path fill="currentColor" d="M20.879 4C21.729 4 23 4.551 23 6.057v11.886C23 18.77 22.44 20 20.879 20H3.12C2.271 20 1 19.449 1 17.943V6.057C1 5.23 1.56 4 3.121 4zm.43 6.938H2.502v7.005c0 .374.21.572.63.581H20.88c.15 0 .6 0 .62-.59v-7.011a2 2 0 0 1-.19.014M8.874 16.084a.75.75 0 0 1 .751.738.75.75 0 0 1-.751.738H4.091a.75.75 0 0 1-.75-.738.75.75 0 0 1 .75-.738zM3.121 5.476c-.15 0-.6 0-.62.59v2.116H21.31q.096.001.189.014v-2.14c0-.373-.21-.57-.63-.58z"/></svg>