<svg xmlns="http://www.w3.org/2000/svg" width="24" height="24" fill="none" viewBox="0 0 24 24"><g clip-path="url(#a)"><path fill="currentColor" d="M18.959 1a4.03 4.03 0 0 1 2.866 1.172l.002.002a4.02 4.02 0 0 1-.035 5.713L8.502 21.175a.7.7 0 0 1-.315.18L1.859 22.98a.688.688 0 0 1-.837-.837l1.623-6.33a.7.7 0 0 1 .18-.315l13.287-13.29A4.02 4.02 0 0 1 18.96 1M2.642 21.358l4.583-1.175-3.41-3.408zm1.97-5.706 3.735 3.735 12.04-12.04-3.735-3.735zM18.968 2.375a2.65 2.65 0 0 0-1.288.346l3.596 3.596q.077-.13.137-.27a2.65 2.65 0 0 0-.56-2.901 2.65 2.65 0 0 0-1.885-.771"/></g><defs><clipPath id="a"><path fill="currentColor" d="M0 0h24v24H0z"/></clipPath></defs></svg>