<svg xmlns="http://www.w3.org/2000/svg" fill="currentColor" viewBox="0 0 24 24"><path fill="currentColor" d="M18.959 1a4.03 4.03 0 0 1 2.866 1.172l.002.002a4.024 4.024 0 0 1-.035 5.713L8.502 21.175a.7.7 0 0 1-.315.18L1.859 22.98a.688.688 0 0 1-.837-.837l1.623-6.33a.7.7 0 0 1 .18-.315l13.287-13.29A4.02 4.02 0 0 1 18.96 1M2.642 21.358l4.583-1.175-3.409-3.407zm1.97-5.705 3.735 3.734 12.04-12.04-3.734-3.735zM18.97 2.375a2.65 2.65 0 0 0-1.29.345l3.6 3.6a2.66 2.66 0 0 0 .346-1.29 2.65 2.65 0 0 0-.77-1.884 2.65 2.65 0 0 0-1.886-.771"/></svg>