<svg xmlns="http://www.w3.org/2000/svg" fill="currentColor" viewBox="0 0 24 24"><path fill="currentColor" d="M4.364 1.081a4.2 4.2 0 0 1 2.408.232c.766.322 1.41.847 1.874 1.532.17.252.302.514.413.786l2.014-2.016c.796-.796 2.206-.796 3.002 0L15.99 3.54a.77.77 0 0 1 .211.675.79.79 0 0 1-.453.555 2.6 2.6 0 0 0-1.027.775 2.6 2.6 0 0 0-.544 1.169c-.08.423-.06.867.06 1.28.131.413.353.796.665 1.109A2.74 2.74 0 0 0 16 9.768a2.71 2.71 0 0 0 2.458-.483 2.6 2.6 0 0 0 .766-1.03.77.77 0 0 1 .553-.452c.252-.04.504.03.675.212l1.924 1.914c.403.403.625.937.625 1.502 0 .564-.222 1.109-.625 1.502l-2.015 2.014a4.16 4.16 0 0 1 2.317 2.288 4.2 4.2 0 0 1 .242 2.409 4.14 4.14 0 0 1-1.138 2.136 4.14 4.14 0 0 1-2.136 1.139c-.271.05-.543.081-.815.081a4.4 4.4 0 0 1-1.592-.312 4.16 4.16 0 0 1-2.287-2.319l-2.014 2.016c-.796.796-2.207.796-3.002 0L8.02 20.47a.77.77 0 0 1-.211-.676.75.75 0 0 1 .453-.554 2.6 2.6 0 0 0 1.027-.776 2.67 2.67 0 0 0 .474-2.459 2.5 2.5 0 0 0-.665-1.099A2.8 2.8 0 0 0 8 14.242a2.8 2.8 0 0 0-1.29-.07c-.422.08-.826.272-1.168.544a2.7 2.7 0 0 0-.775 1.028.77.77 0 0 1-.555.453.75.75 0 0 1-.675-.212l-1.913-1.914a2.114 2.114 0 0 1 0-3.004L3.64 9.053a4.16 4.16 0 0 1-2.317-2.288 4.2 4.2 0 0 1-.232-2.409A4.14 4.14 0 0 1 2.229 2.22a4.14 4.14 0 0 1 2.135-1.14m1.854 1.662A2.655 2.655 0 0 0 2.602 4.68a2.66 2.66 0 0 0 .15 1.531A2.63 2.63 0 0 0 5.2 7.844c.302 0 .585.181.696.464.12.282.05.604-.162.826l-3.011 3.014a.603.603 0 0 0 0 .866l1.228 1.23c.192-.253.423-.485.665-.686A4.15 4.15 0 0 1 6.45 12.7a4.26 4.26 0 0 1 2.015.1c.645.202 1.25.555 1.733 1.039a4.2 4.2 0 0 1 1.037 1.733 4.14 4.14 0 0 1 .101 2.016 4.1 4.1 0 0 1-.857 1.824 4 4 0 0 1-.684.665l1.229 1.23a.634.634 0 0 0 .856 0l3.012-3.013a.76.76 0 0 1 .53-.222.757.757 0 0 1 .748.755c0 .524.153 1.038.455 1.472a2.74 2.74 0 0 0 1.189.977 2.655 2.655 0 0 0 2.89-.574 2.66 2.66 0 0 0 .574-2.893 2.7 2.7 0 0 0-.976-1.189 2.63 2.63 0 0 0-1.47-.443.75.75 0 0 1-.696-.463.76.76 0 0 1 .16-.826l3.013-3.014a.63.63 0 0 0 .181-.434.6.6 0 0 0-.181-.433L20.08 9.778a4.16 4.16 0 0 1-2.498 1.541 4.3 4.3 0 0 1-2.015-.1 4.3 4.3 0 0 1-1.733-1.038 4.2 4.2 0 0 1-1.037-1.734 4.14 4.14 0 0 1-.1-2.015 4.1 4.1 0 0 1 .856-1.824c.201-.252.433-.474.684-.666l-1.228-1.23a.635.635 0 0 0-.857 0L9.14 5.728a.757.757 0 0 1-1.29-.534c0-.525-.152-1.039-.444-1.472a2.7 2.7 0 0 0-1.188-.978"/></svg>