<svg xmlns="http://www.w3.org/2000/svg" fill="currentColor" viewBox="0 0 24 24"><path fill="currentColor" d="M21.83 17.02c.348 0 .666.15.883.415.207.253.287.565.287.859v3.432c0 .277-.103.561-.26.78-.157.22-.461.494-.91.494H7.787a1.13 1.13 0 0 1-.883-.415 1.35 1.35 0 0 1-.287-.86v-3.431c0-.294.08-.606.287-.86.218-.265.535-.414.883-.415zM8.021 21.596h13.575v-3.172H8.02zM12.468 1c.348 0 .666.15.884.415.207.253.287.566.287.86v1.013h2.106c.348 0 .666.15.883.415.207.253.287.566.287.86v7.76l.627-.767a.701.701 0 1 1 1.086.888l-1.872 2.288a.702.702 0 0 1-1.086 0l-1.872-2.288a.701.701 0 1 1 1.086-.888l.627.766v-7.63h-1.872v1.014c0 .278-.103.562-.26.781-.157.22-.462.493-.911.493H2.17c-.348 0-.666-.15-.883-.415A1.35 1.35 0 0 1 1 5.706V2.274c0-.293.08-.606.287-.859C1.504 1.15 1.822 1 2.17 1zM2.404 5.576h9.83V2.404h-9.83z"/></svg>