<svg xmlns="http://www.w3.org/2000/svg" fill="currentColor" viewBox="0 0 24 24"><path fill="currentColor" d="M11.991 1c.401 0 .793.118 1.126.34a2 2 0 0 1 .742.906l.006.014 1.885 5.307h5.249c.41.003.81.132 1.145.367.332.233.585.56.724.94a1.97 1.97 0 0 1-.52 2.174l-.012.01-4.502 3.7 1.88 5.574a1.96 1.96 0 0 1-.707 2.299 2.01 2.01 0 0 1-2.421-.073l-4.599-3.336-4.603 3.345a2.01 2.01 0 0 1-2.362.004 1.98 1.98 0 0 1-.724-1c-.128-.4-.123-.83.013-1.228v-.001l1.882-5.583-4.487-3.688a2 2 0 0 1-.635-.99 2 2 0 0 1 .038-1.174l.059-.146a2 2 0 0 1 .67-.812 2 2 0 0 1 1.15-.364h5.246l1.888-5.265v-.002a1.97 1.97 0 0 1 .722-.952A2 2 0 0 1 11.988 1zm.002 1.317a.66.66 0 0 0-.615.436l-.001.004-1.942 5.417-.001.004a1.12 1.12 0 0 1-1.043.725h-5.4a.67.67 0 0 0-.624.435.67.67 0 0 0 .2.73l4.588 3.77a1.1 1.1 0 0 1 .353 1.183l-.003.007-1.934 5.734v.003a.65.65 0 0 0 .237.743.67.67 0 0 0 .787-.001l4.734-3.44a1.11 1.11 0 0 1 1.316 0l4.758 3.45.017.013a.67.67 0 0 0 .812.03.65.65 0 0 0 .233-.77l-.004-.015-1.94-5.754a1.09 1.09 0 0 1 .351-1.183l.003-.003 4.585-3.769a.67.67 0 0 0 .164-.724l-.006-.016a.67.67 0 0 0-.627-.441h-5.398c-.228 0-.45-.07-.637-.2a1.1 1.1 0 0 1-.406-.525l-.002-.006-1.927-5.426a.68.68 0 0 0-.628-.41"/></svg>