<svg xmlns="http://www.w3.org/2000/svg" fill="currentColor" viewBox="0 0 24 24"><path fill="currentColor" d="M22.308 4.707A.69.69 0 0 1 23 5.39a.68.68 0 0 1-.692.674H19.89a9.426 9.426 0 0 1-1.235 12.282 9.68 9.68 0 0 1-6.66 2.655 9.7 9.7 0 0 1-3.703-.734.683.683 0 0 1-.371-.891.7.7 0 0 1 .903-.367 8.32 8.32 0 0 0 8.878-1.633 8.07 8.07 0 0 0 1.164-10.371v2.457a.67.67 0 0 1-.682.672.68.68 0 0 1-.692-.672V5.39c0-.376.31-.683.692-.683zm-16.954-.07c2.758-2.605 6.822-3.357 10.353-1.91a.695.695 0 0 1 .371.89.7.7 0 0 1-.902.367c-3.02-1.238-6.512-.605-8.87 1.634a8.07 8.07 0 0 0-1.183 10.371v-2.457a.69.69 0 0 1 .692-.684c.382 0 .683.308.683.684v4.071a.68.68 0 0 1-.683.684H1.692A.69.69 0 0 1 1 17.603a.69.69 0 0 1 .692-.683H4.1A9.44 9.44 0 0 1 5.354 4.637"/></svg>