<svg xmlns="http://www.w3.org/2000/svg" width="24" height="24" fill="none" viewBox="0 0 24 24"><g clip-path="url(#a)"><path fill="currentColor" d="M10.39 2a8.39 8.39 0 0 1 6.503 13.686l4.857 4.857a.86.86 0 0 1 0 1.207.85.85 0 0 1-.604.25.85.85 0 0 1-.603-.25l-4.857-4.857a8.35 8.35 0 0 1-5.296 1.885v-.01C5.757 18.768 2 15.01 2 10.39S5.757 2 10.39 2m0 1.707a6.686 6.686 0 0 0-6.683 6.683 6.685 6.685 0 0 0 6.683 6.681 6.685 6.685 0 0 0 6.681-6.681c0-3.688-3.005-6.683-6.681-6.683"/></g><defs><clipPath id="a"><path fill="currentColor" d="M0 0h24v24H0z"/></clipPath></defs></svg>