<svg xmlns="http://www.w3.org/2000/svg" fill="currentColor" viewBox="0 0 24 24"><path fill="currentColor" d="M18.823 1a4.13 4.13 0 0 1 2.907 1.197A4.33 4.33 0 0 1 23 5.261c0 1.149-.46 2.274-1.27 3.064q-.165.165-.343.308.179.141.343.303A4.33 4.33 0 0 1 23 12c0 1.15-.46 2.274-1.27 3.065a4.08 4.08 0 0 1-2.907 1.197h-6.02v4.943h5.43l.078.005c.385.052.692.483.692.995 0 .547-.35 1-.77 1H5.771c-.42 0-.768-.453-.768-1s.348-1 .768-1h5.498v-4.943H5.177a4.13 4.13 0 0 1-2.907-1.197A4.33 4.33 0 0 1 1 12c0-1.149.46-2.274 1.27-3.064q.165-.164.344-.306a4 4 0 0 1-.344-.305A4.33 4.33 0 0 1 1 5.261a4.3 4.3 0 0 1 1.27-3.064A4.1 4.1 0 0 1 5.177 1zM5.167 9.522a2.74 2.74 0 0 0-1.915.779A2.38 2.38 0 0 0 2.525 12c0 .634.256 1.233.727 1.7a2.76 2.76 0 0 0 1.915.777h6.746a.7.7 0 0 1 .246 0h6.653a2.74 2.74 0 0 0 1.915-.777 2.38 2.38 0 0 0 .727-1.7 2.38 2.38 0 0 0-.727-1.7 2.76 2.76 0 0 0-1.915-.778zm.33.978a1.5 1.5 0 1 1-.001 3.001 1.5 1.5 0 0 1 .001-3.001m3.998 0a1.5 1.5 0 1 1-.001 3.001 1.5 1.5 0 0 1 .001-3.001M5.167 2.783a2.74 2.74 0 0 0-1.915.779 2.38 2.38 0 0 0-.727 1.699c0 .634.256 1.233.727 1.7a2.76 2.76 0 0 0 1.915.778h13.646c.716 0 1.423-.287 1.915-.778.47-.467.726-1.066.726-1.7s-.256-1.233-.727-1.7a2.76 2.76 0 0 0-1.915-.778zm.33.979a1.5 1.5 0 1 1 0 3 1.5 1.5 0 0 1 0-3m3.998 0a1.5 1.5 0 1 1 0 3 1.5 1.5 0 0 1 0-3"/></svg>