<svg xmlns="http://www.w3.org/2000/svg" width="24" height="24" fill="none" viewBox="0 0 24 24"><g clip-path="url(#a)"><path fill="currentColor" d="M13.556 1c.808 0 1.515.548 1.678 1.32l.41 2.131c.492.215.973.48 1.413.782l2.109-.723c.778-.254 1.627.05 2.047.704l1.566 2.542c.4.704.246 1.535-.368 2.054l-1.72 1.408c.031.254.041.518.051.782 0 .264-.02.528-.05.792l1.72 1.407c.583.518.735 1.291.398 1.946l-1.586 2.64c-.42.636-1.189.92-1.915.734l-2.17-.744c-.44.303-.921.568-1.412.783l-.41 2.112c-.175.792-.901 1.348-1.73 1.329h-3.143v-.01c-.798 0-1.504-.547-1.678-1.32l-.41-2.13a8.6 8.6 0 0 1-1.413-.783l-2.109.724c-.778.253-1.627-.05-2.047-.705l-1.566-2.532a1.6 1.6 0 0 1 .368-2.053l1.72-1.408c-.031-.254-.041-.518-.051-.772 0-.274.02-.538.05-.802L1.6 9.819C.996 9.291.832 8.47 1.2 7.806l1.576-2.582c.39-.675 1.24-.998 2.028-.763l2.15.772c.429-.293.88-.557 1.36-.772l.41-2.121C8.9 1.538 9.636 1 10.455 1zm0 1.467h-3.102c-.092 0-.184.058-.204.146l-.481 2.484a.75.75 0 0 1-.461.548 7.1 7.1 0 0 0-1.73.987.79.79 0 0 1-.748.117l-2.508-.9c-.051-.009-.143.02-.194.098L2.552 8.52s0 .137.061.196l2.017 1.633c.204.166.307.42.256.675a6 6 0 0 0-.082.987q.002.472.082.958a.72.72 0 0 1-.256.675l-2.027 1.662a.17.17 0 0 0-.041.215l1.545 2.512c.041.069.134.098.226.069l2.487-.86a.8.8 0 0 1 .256-.04c.174 0 .338.049.47.156a7.5 7.5 0 0 0 1.782.989.76.76 0 0 1 .47.547l.482 2.502c.01.069.093.128.185.128h3.142c.123 0 .184-.06.205-.147l.481-2.483a.76.76 0 0 1 .47-.547 7.3 7.3 0 0 0 1.782-.989.83.83 0 0 1 .737-.117l2.498.86c.008-.002.104-.031.143-.097l1.546-2.562c0-.002-.001-.117-.062-.166l-2.006-1.652a.71.71 0 0 1-.256-.675q.08-.483.082-.968c0-.312-.03-.635-.082-.957a.71.71 0 0 1 .256-.675l2.027-1.662a.174.174 0 0 0 .04-.216l-1.545-2.513c-.041-.068-.133-.097-.225-.068l-2.487.86a.8.8 0 0 1-.737-.117 7.1 7.1 0 0 0-1.782-.987.76.76 0 0 1-.47-.548l-.482-2.503c-.02-.069-.123-.157-.184-.127M12 8.51c2.006 0 3.645 1.564 3.645 3.48 0 1.917-1.639 3.48-3.645 3.48s-3.643-1.564-3.644-3.48c0-1.916 1.638-3.48 3.644-3.48m0 1.475c-1.167 0-2.108.9-2.108 2.015 0 1.114.941 2.014 2.108 2.014s2.11-.9 2.11-2.014c0-1.115-.922-2.015-2.11-2.015"/></g><defs><clipPath id="a"><path fill="currentColor" d="M0 0h24v24H0z"/></clipPath></defs></svg>