<svg xmlns="http://www.w3.org/2000/svg" fill="currentColor" viewBox="0 0 24 24"><path fill="currentColor" d="M12 1c.516 0 .943.333.943.733v20.534c0 .4-.427.733-.943.733s-.944-.332-.944-.733V1.733c0-.4.428-.733.944-.733M6.972 5.106c.516 0 .944.333.944.734v12.32c0 .401-.428.734-.944.734s-.944-.333-.944-.734V5.84c0-.4.428-.734.944-.734m10.055 0c.516 0 .945.333.945.734v12.32c0 .401-.429.734-.945.734-.515 0-.943-.333-.943-.734V5.84c0-.4.428-.733.943-.734M1.943 9.213c.516 0 .944.333.945.733v4.264c0 .4-.429.733-.945.733-.515 0-.943-.332-.943-.733V9.946c0-.4.428-.733.943-.733m20.113 0c.516 0 .944.332.944.733v4.264c0 .4-.428.733-.944.733s-.943-.332-.944-.733V9.946c0-.4.428-.733.944-.733"/></svg>