<svg xmlns="http://www.w3.org/2000/svg" fill="currentColor" viewBox="0 0 24 24"><path fill="currentColor" d="M10.933 1.623c.36-.605 1.113-.8 1.699-.449.175.098.322.254.43.43l2.147 3.816c.166.273.205.605.127.927a1.24 1.24 0 0 1-1.191.937v-.01h-1.406v8.695c.962-1.344 2.402-2.368 4.331-3.087l-.65-1.566a1.23 1.23 0 0 1 0-.948 1.26 1.26 0 0 1 .674-.672c.205-.078.43-.108.644-.079l4.198.585c.323.05.616.216.811.479s.283.586.244.918c-.03.205-.107.41-.244.576l-2.549 3.377c-.205.263-.488.44-.82.479-.058 0-.117.01-.176.01l.01.019a1.22 1.22 0 0 1-.742-.254 1.24 1.24 0 0 1-.4-.518l-.438-1.053c-3.374 1.238-4.894 3.373-4.894 6.852v1.18c0 .4-.331.733-.731.733a.74.74 0 0 1-.733-.732v-1.18c0-3.48-1.52-5.623-4.895-6.854l-.445 1.074c-.088.205-.225.38-.4.508a1.22 1.22 0 0 1-.743.254v-.01c-.059 0-.117 0-.176-.01a1.27 1.27 0 0 1-.82-.479l-2.548-3.376a1.15 1.15 0 0 1-.234-.577 1.227 1.227 0 0 1 1.054-1.386l4.199-.585c.214-.03.44 0 .644.078a1.225 1.225 0 0 1 .674 1.61l-.644 1.547c1.933.722 3.373 1.745 4.334 3.087V7.275H9.858c-.683 0-1.24-.557-1.24-1.24 0-.225.06-.44.176-.625zM19.28 14.37l2.08-2.752-3.417-.478-.01-.01zM2.663 11.6l-.01.01 2.08 2.752 1.347-3.24zm7.587-5.79h3.505l-1.757-3.105z"/></svg>