<svg xmlns="http://www.w3.org/2000/svg" fill="currentColor" viewBox="0 0 24 24"><path fill="currentColor" d="M12.732 23h-.01l.005-.001zM9.204 3.807c.583 0 1.156.227 1.575.63l9.502 9.149a2.1 2.1 0 0 1 .656 1.516 2.1 2.1 0 0 1-.656 1.517l-5.973 5.751c-.205.197-.45.355-.726.463a2.24 2.24 0 0 1-1.698 0 2.2 2.2 0 0 1-.727-.463l-9.503-9.148a2.2 2.2 0 0 1-.48-.7A2.1 2.1 0 0 1 1 11.706v-5.75a2.1 2.1 0 0 1 .654-1.517c.42-.404.982-.631 1.575-.631zM3.24 5.294a.7.7 0 0 0-.491.197.65.65 0 0 0-.204.473v5.75c0 .09.02.178.05.257s.082.157.154.216l9.492 9.14a.9.9 0 0 0 .226.147.71.71 0 0 0 .757-.148l5.973-5.75a.65.65 0 0 0 .205-.474.65.65 0 0 0-.205-.472L9.694 5.48a.7.7 0 0 0-.355-.184l-.135-.013H3.23zM11.402 1c.583 0 1.156.226 1.576.63l9.8 9.435a.723.723 0 0 1 0 1.043.77.77 0 0 1-.543.217.77.77 0 0 1-.542-.217l-9.8-9.434a.7.7 0 0 0-.355-.184l-.136-.012H4.703c-.42 0-.767-.336-.767-.74S4.284 1 4.703 1zM6.13 7.677a1.1 1.1 0 1 1 0 2.2 1.1 1.1 0 0 1 0-2.2"/></svg>