<svg xmlns="http://www.w3.org/2000/svg" fill="currentColor" viewBox="0 0 24 24"><path fill="currentColor" d="M13.751 1c.496 0 .964.19 1.317.544l2.051 2.042a.72.72 0 0 1 0 1.012 1.63 1.63 0 0 0-.486 1.164c0 .43.162.83.458 1.135s.716.44 1.136.458c.438 0 .849-.18 1.164-.496a.72.72 0 0 1 .506-.21l.14.014a.7.7 0 0 1 .365.196l2.052 2.042c.735.726.725 1.928-.01 2.662l-2.227 2.233c-.018.022-.033.047-.054.067q-.033.031-.07.056l-8.49 8.514a1.9 1.9 0 0 1-1.344.562h-.01a1.85 1.85 0 0 1-1.317-.544L6.88 20.41a.72.72 0 0 1 0-1.011c.315-.315.486-.726.486-1.165 0-.429-.162-.83-.458-1.135a1.6 1.6 0 0 0-1.136-.458c-.438 0-.849.181-1.164.496a.715.715 0 0 1-1.011 0l-2.052-2.042c-.734-.726-.725-1.928.01-2.662l10.85-10.869c.362-.362.84-.563 1.345-.563M2.587 13.443c-.181.182-.191.468-.02.64l1.604 1.593a3.1 3.1 0 0 1 1.593-.467c.801 0 1.584.305 2.157.878.572.572.887 1.345.878 2.156 0 .573-.162 1.117-.458 1.594v.01l1.602 1.592a.45.45 0 0 0 .64-.019l8.052-8.073-7.991-7.975zM13.76 2.44a.45.45 0 0 0-.334.144L11.653 4.36l7.992 7.974 1.778-1.782c.181-.181.191-.468.02-.64L19.838 8.32a3.1 3.1 0 0 1-1.594.467 2.95 2.95 0 0 1-2.156-.878 2.98 2.98 0 0 1-.878-2.156c0-.573.162-1.117.458-1.594l-1.603-1.593a.44.44 0 0 0-.22-.116z"/></svg>