<svg xmlns="http://www.w3.org/2000/svg" fill="currentColor" viewBox="0 0 24 24"><path fill="currentColor" d="M13.875 1.102a.694.694 0 0 1 .722 1.183L12.67 3.463a9.8 9.8 0 0 1 6.776 3.661 9.79 9.79 0 0 1-12.031 14.85 9.8 9.8 0 0 1-3.888-3.498.693.693 0 0 1 1.169-.746 8.404 8.404 0 0 0 14.787-1.165 8.4 8.4 0 0 0-7.6-11.754l2.328 1.892a.694.694 0 1 1-.874 1.077L9.638 4.775a.694.694 0 0 1 .075-1.13zm-1.946 7.99c.383 0 .694.31.694.692l-.001 4.624c0 .183-.074.36-.203.49L9.646 17.67a.694.694 0 0 1-.981-.98l2.57-2.57V9.783c0-.383.311-.693.694-.693m-8.964 1.764a.693.693 0 0 1 .56.804 8.75 8.75 0 0 0 .111 3.623.694.694 0 1 1-1.346.328 10.1 10.1 0 0 1-.13-4.196.694.694 0 0 1 .805-.56M6.654 4.88a.693.693 0 0 1 .728 1.18 8.5 8.5 0 0 0-2.601 2.51.694.694 0 0 1-1.153-.77 9.9 9.9 0 0 1 3.026-2.92"/></svg>