<svg xmlns="http://www.w3.org/2000/svg" fill="currentColor" viewBox="0 0 24 24"><path fill="currentColor" d="M8.118 9.385c.675 0 1.193.519 1.193 1.217v.65h1.095l.124.006c.613.06 1.069.557 1.069 1.212v7.166h.802v-.649c0-.688.508-1.217 1.193-1.217h8.213c.674 0 1.193.519 1.193 1.217v2.795c0 .58-.49 1.218-1.193 1.218h-8.213c-.675 0-1.193-.519-1.193-1.218v-.648h-1.086c-.674 0-1.193-.52-1.193-1.218v-7.167h-.811v.649c0 .578-.489 1.217-1.193 1.217H3.552c-.675 0-1.193-.519-1.193-1.217v-2.796c0-.688.508-1.217 1.193-1.217zm5.759 12.118h7.656v-2.227h-7.656zM3.835 13.118h4.009v-2.226H3.835zM10.406 1c.675 0 1.193.52 1.193 1.218v.65h1.995l.124.005c.613.06 1.068.557 1.068 1.212v4.84h1.262v-.658c0-.689.509-1.218 1.193-1.218h4.566c.674 0 1.193.519 1.193 1.218v2.795c0 .579-.49 1.217-1.193 1.217H17.24c-.674 0-1.193-.519-1.193-1.217v-.64h-1.535c-.675 0-1.193-.518-1.193-1.217v-4.84H11.6v.648c0 .579-.489 1.217-1.193 1.217H2.193C1.52 6.23 1 5.711 1 5.013V2.218C1 1.529 1.509 1 2.193 1zm7.118 9.782h4.01V8.557h-4.01zM2.467 4.733h7.656V2.497H2.467z"/></svg>