<svg width="24" height="24" viewBox="0 0 24 24" fill="none" xmlns="http://www.w3.org/2000/svg">
<g clip-path="url(#clip0_402_981)">
<path d="M5.12569 9.93751C5.12569 9.55781 5.43348 9.25001 5.81316 9.25001H14.0628C14.4424 9.25001 14.7502 9.55781 14.7502 9.93751C14.7502 10.3172 14.4424 10.625 14.0628 10.625H5.81316C5.43348 10.625 5.12569 10.3172 5.12569 9.93751Z" fill="#212121"/>
<path fill-rule="evenodd" clip-rule="evenodd" d="M16.8235 15.8501C17.0565 15.5783 17.2739 15.2919 17.4742 14.992C18.4625 13.5126 18.9898 11.7734 18.9896 9.99427C18.9894 7.60875 18.0416 5.32102 16.3548 3.6343C14.6679 1.94758 12.3802 1 9.99482 1C8.21577 1 6.47667 1.52759 4.99746 2.51604C3.51825 3.5045 2.36537 4.90943 1.6846 6.55315C1.00383 8.19688 0.825762 10.0056 1.17291 11.7505C1.52006 13.4955 2.37683 15.0983 3.63487 16.3562C4.89292 17.6142 6.49574 18.4708 8.24062 18.8178C9.98551 19.1648 11.7941 18.9865 13.4377 18.3055C14.3203 17.9398 15.1341 17.4379 15.8514 16.8225L21.8264 22.7986C22.0948 23.0671 22.5301 23.0671 22.7986 22.7987C23.0671 22.5302 23.0671 22.0949 22.7987 21.8264L16.8235 15.8501ZM9.99482 2.375C8.48771 2.375 7.01445 2.82194 5.76135 3.65931C4.50825 4.49667 3.53159 5.68684 2.95489 7.07931C2.37818 8.47178 2.22733 10.004 2.52141 11.4822C2.8155 12.9604 3.5413 14.3182 4.60705 15.3839C5.67279 16.4496 7.0306 17.1753 8.50877 17.4692C9.98693 17.7631 11.5191 17.6121 12.9114 17.0352C13.8321 16.6537 14.6643 16.0974 15.3646 15.4019C15.3707 15.3952 15.377 15.3886 15.3835 15.3822C15.3899 15.3758 15.3964 15.3695 15.403 15.3635C15.7464 15.0174 16.0575 14.6376 16.3309 14.2282C17.1681 12.975 17.6149 11.5016 17.6147 9.99442C17.6145 7.97355 16.8116 6.03552 15.3826 4.60663C13.9536 3.17773 12.0156 2.375 9.99482 2.375Z" fill="#212121"/>
</g>
<defs>
<clipPath id="clip0_402_981">
<rect width="24" height="24" fill="white"/>
</clipPath>
</defs>
</svg>
