<svg width="24" height="24" viewBox="0 0 24 24" fill="none" xmlns="http://www.w3.org/2000/svg">
<g clip-path="url(#clip0_402_971)">
<path d="M5.81316 9.25001C5.43348 9.25001 5.12569 9.55781 5.12569 9.93751C5.12569 10.3172 5.43348 10.625 5.81316 10.625H9.25049V14.0625C9.25049 14.4422 9.55828 14.75 9.93796 14.75C10.3176 14.75 10.6254 14.4422 10.6254 14.0625V10.625H14.0628C14.4424 10.625 14.7502 10.3172 14.7502 9.93751C14.7502 9.55781 14.4424 9.25001 14.0628 9.25001H10.6254V5.81251C10.6254 5.43281 10.3176 5.125 9.93796 5.125C9.55828 5.125 9.25049 5.43281 9.25049 5.81251V9.25001H5.81316Z" fill="#212121"/>
<path fill-rule="evenodd" clip-rule="evenodd" d="M15.8514 16.8225C15.134 17.438 14.3202 17.9399 13.4374 18.3056C11.7938 18.9866 9.98517 19.1648 8.24026 18.8177C6.49535 18.4707 4.89253 17.6139 3.63452 16.3559C2.37652 15.0978 1.51982 13.4949 1.17279 11.7499C0.825753 10.0049 1.00396 8.19617 1.68488 6.55246C2.3658 4.90876 3.51884 3.5039 4.99819 2.51556C6.47753 1.52722 8.21672 0.999804 9.99581 1C12.381 1.00026 14.6685 1.94796 16.3551 3.63465C18.0417 5.32135 18.9894 7.60892 18.9896 9.99427C18.9898 11.7734 18.4624 13.5127 17.4741 14.9921C17.2739 15.2919 17.0565 15.5783 16.8235 15.8501L22.7987 21.8264C23.0671 22.0949 23.0671 22.5302 22.7986 22.7987C22.5301 23.0671 22.0948 23.0671 21.8264 22.7986L15.8514 16.8225ZM5.76196 3.6589C7.01518 2.82164 8.48852 2.37484 9.99566 2.375C12.0163 2.37522 13.9541 3.17805 15.3829 4.60692C16.8117 6.03579 17.6145 7.97369 17.6147 9.99442C17.6149 11.5016 17.1681 12.9751 16.3309 14.2283C16.0575 14.6376 15.7464 15.0174 15.403 15.3634C15.4013 15.3649 15.3997 15.3665 15.3981 15.368C15.3932 15.3726 15.3883 15.3774 15.3835 15.3822C15.377 15.3886 15.3707 15.3952 15.3646 15.4019C14.6643 16.0974 13.832 16.6538 12.9112 17.0353C11.5188 17.6122 9.98665 17.7631 8.50846 17.4691C7.03027 17.1751 5.67246 16.4494 4.60675 15.3836C3.54104 14.3178 2.8153 12.96 2.52131 11.4817C2.22732 10.0034 2.37829 8.47118 2.95513 7.07873C3.53196 5.68627 4.50875 4.49616 5.76196 3.6589Z" fill="#212121"/>
</g>
<defs>
<clipPath id="clip0_402_971">
<rect width="24" height="24" fill="white"/>
</clipPath>
</defs>
</svg>
