<svg xmlns="http://www.w3.org/2000/svg" fill="currentColor" viewBox="0 0 24 24"><path fill="currentColor" d="M9.996 1a8.996 8.996 0 0 1 6.827 14.85l5.976 5.976a.688.688 0 0 1-.973.973l-5.974-5.977a9 9 0 0 1-7.612 1.995A8.995 8.995 0 0 1 9.996 1m0 1.375a7.622 7.622 0 0 0-5.39 13.009 7.62 7.62 0 0 0 10.778-.002l.014-.014.005-.005q.517-.52.928-1.134A7.622 7.622 0 0 0 9.996 2.375m-.059 2.75c.38 0 .688.308.688.688V9.25h3.438a.688.688 0 0 1 0 1.375h-3.438v3.438a.687.687 0 1 1-1.374 0v-3.438H5.813a.688.688 0 0 1 0-1.375h3.438V5.813c0-.38.307-.688.687-.688"/></svg>