<svg xmlns="http://www.w3.org/2000/svg" fill="currentColor" viewBox="0 0 24 24"><path fill="currentColor" d="M17.318 1c.54 0 1.044.212 1.425.597l2.652 2.64q.293.29.447.677c.102.257.158.523.158.788v15.236A2.05 2.05 0 0 1 19.97 23H4.029c-.54 0-1.07-.23-1.442-.614A2.08 2.08 0 0 1 2 20.938V3.063a2.1 2.1 0 0 1 .577-1.449A2 2 0 0 1 4.02 1zM4.028 2.375a.6.6 0 0 0-.436.192.74.74 0 0 0-.196.495v17.876c0 .183.075.366.196.495a.62.62 0 0 0 .436.192H19.98a.6.6 0 0 0 .438-.192.74.74 0 0 0 .195-.495V5.701q0-.15-.055-.274a.8.8 0 0 0-.15-.23l-2.652-2.64a.6.6 0 0 0-.428-.183zm7.325 7.81c.25-.028.512.028.735.166a1.35 1.35 0 0 1 .633 1.162v6.931c0 .23-.057.45-.15.652-.111.22-.27.393-.465.521-.185.12-.4.175-.613.175h-.14a1.22 1.22 0 0 1-.68-.312l-2.698-2.43H6.96a1.18 1.18 0 0 1-.922-.45 1.2 1.2 0 0 1-.232-.43 1.6 1.6 0 0 1-.076-.467v-1.43c0-.156.03-.312.076-.467.055-.165.13-.312.232-.431.112-.137.242-.247.4-.32.158-.083.345-.13.522-.13h1.014l2.708-2.438c.186-.165.418-.275.67-.302m5.006 1.842a.71.71 0 0 1 .988 0 4.5 4.5 0 0 1 1.33 3.21c0 .595-.111 1.19-.344 1.74a4.5 4.5 0 0 1-.986 1.467.7.7 0 0 1-.494.201.685.685 0 0 1-.494-1.173 3.1 3.1 0 0 0 .68-1.017 3.2 3.2 0 0 0 0-2.438 3.2 3.2 0 0 0-.68-1.018.685.685 0 0 1 0-.972m-7.63 2.081a.7.7 0 0 1-.475.184H7.09l.046 1.375h1.108l.13.012a.7.7 0 0 1 .344.172l2.633 2.364-.027-6.444zm5.574-.789a.71.71 0 0 1 .987 0c.251.248.438.533.577.854.13.32.195.66.195 1.008s-.065.688-.195 1.008-.326.615-.577.853a.7.7 0 0 1-.493.201.686.686 0 0 1-.494-1.174 1.23 1.23 0 0 0 .364-.888c0-.165-.038-.33-.094-.495a1.15 1.15 0 0 0-.27-.394.686.686 0 0 1 0-.973"/></svg>