<svg xmlns="http://www.w3.org/2000/svg" fill="currentColor" viewBox="0 0 24 24"><path fill="currentColor" d="M17.356 1c.534 0 1.044.216 1.421.597l2.618 2.637A2.1 2.1 0 0 1 22 5.714v15.21c0 .545-.21 1.071-.587 1.462a2 2 0 0 1-1.44.614H4.027a2 2 0 0 1-1.44-.614A2.1 2.1 0 0 1 2 20.925V3.075c0-.544.21-1.07.587-1.46A2 2 0 0 1 4.027 1zM4.025 2.404a.6.6 0 0 0-.44.19.7.7 0 0 0-.19.481v17.85c0 .183.07.356.19.48s.28.19.44.19h15.948c.16 0 .32-.066.44-.19a.7.7 0 0 0 .19-.48V5.714a.68.68 0 0 0-.197-.487L17.79 2.589a.6.6 0 0 0-.434-.185zM9.414 8.93a.695.695 0 0 1 .986 0 .706.706 0 0 1 0 .993l-2.995 3.015L10.4 15.95a.706.706 0 0 1 0 .993.695.695 0 0 1-.986 0l-3.488-3.51a.705.705 0 0 1 0-.993zm4.186 0a.695.695 0 0 1 .986 0l3.488 3.51a.705.705 0 0 1 0 .994l-3.488 3.51a.694.694 0 0 1-.986 0 .706.706 0 0 1 0-.993l2.995-3.013L13.6 9.922a.706.706 0 0 1 0-.993"/></svg>