<svg xmlns="http://www.w3.org/2000/svg" fill="currentColor" viewBox="0 0 24 24"><path fill="currentColor" d="M14.477 1.01c.41.039.803.194 1.128.45l.158.136 5.602 5.375.143.152c.314.368.492.835.492 1.326v12.476C22 22.102 21.015 23 19.871 23H4.13C2.996 23 2 22.091 2 20.925V3.075C2 1.908 2.996 1 4.129 1H14.27zM4.129 2.404c-.426 0-.733.342-.733.671v17.85c0 .328.307.67.733.67H19.87c.437 0 .733-.331.734-.67V9.27h-5.028a2.16 2.16 0 0 1-1.493-.597 2.05 2.05 0 0 1-.635-1.479v-4.79zm4.19 11.432c.311 0 .564.24.564.534s-.253.533-.564.533c-.448 0-.879.17-1.196.47s-.496.707-.496 1.132v1.07c0 .424.18.83.496 1.131.317.3.748.47 1.196.47.311 0 .564.24.564.534s-.253.533-.564.533a2.9 2.9 0 0 1-1.993-.782 2.6 2.6 0 0 1-.826-1.887v-1.07a2.6 2.6 0 0 1 .826-1.886 2.9 2.9 0 0 1 1.993-.782m4.51 0c.311 0 .563.24.564.534 0 .295-.253.533-.564.533h-1.127a.58.58 0 0 0-.4.157.52.52 0 0 0-.164.377c0 .502.31.755.902 1.176.535.38 1.352.929 1.353 2.029 0 .424-.179.832-.495 1.132a1.75 1.75 0 0 1-1.196.47h-1.129c-.31-.001-.562-.24-.562-.534s.251-.534.562-.534h1.13a.58.58 0 0 0 .397-.156.52.52 0 0 0 .165-.378c0-.502-.31-.755-.902-1.176-.535-.38-1.352-.928-1.352-2.029 0-.424.178-.832.495-1.132s.748-.47 1.196-.47zm4.624.01c.257.05.45.266.45.524v1.812a6.64 6.64 0 0 1-1.222 3.824.57.57 0 0 1-.47.237.57.57 0 0 1-.469-.237 6.64 6.64 0 0 1-1.222-3.824V14.37c0-.295.253-.534.564-.534s.564.24.564.534v1.812c0 .844.195 1.674.564 2.434.37-.76.563-1.59.563-2.434V14.37c0-.295.254-.534.565-.534zm-2.608-6.652a.64.64 0 0 0 .202.463c.135.13.325.208.53.208h4.697l-5.43-5.21z"/></svg>