<svg xmlns="http://www.w3.org/2000/svg" fill="currentColor" viewBox="0 0 24 24"><path fill="currentColor" d="M21.383 2c.446 0 .862.182 1.16.486.298.303.457.704.457 1.114v16.8c0 .41-.16.81-.456 1.114a1.63 1.63 0 0 1-1.161.486H8.339a1.63 1.63 0 0 1-1.161-.486 1.6 1.6 0 0 1-.456-1.114v-2.133h-4.12l-.078-.004a1.9 1.9 0 0 1-.697-.193 1.5 1.5 0 0 1-.578-.511A1.6 1.6 0 0 1 1 16.667V7.32l.001-.018.003-.053a1.8 1.8 0 0 1 .176-.664 1.5 1.5 0 0 1 .5-.581c.258-.175.575-.27.937-.27h4.105V3.6c0-.41.159-.81.456-1.114A1.63 1.63 0 0 1 8.338 2zM8.339 3.333a.2.2 0 0 0-.134.062.3.3 0 0 0-.079.205v2.133h3.66l.02.001a1.5 1.5 0 0 1 .231.025c.135.023.327.07.524.17.201.103.416.265.579.512.163.25.249.551.249.892v9.347l-.001.018a2 2 0 0 1-.022.217c-.02.128-.064.31-.157.5a1.5 1.5 0 0 1-.5.581c-.258.175-.575.27-.937.27H8.125V20.4c0 .085.033.159.08.206a.2.2 0 0 0 .133.061h13.044a.2.2 0 0 0 .134-.062.3.3 0 0 0 .079-.205v-3.067h-6.73c-.388 0-.703-.298-.703-.666v-4.565a.6.6 0 0 1 0-.204V7.435a.6.6 0 0 1 0-.204V3.333zM2.52 7.077l-.024.01a.2.2 0 0 0-.044.061.5.5 0 0 0-.049.19v9.329c0 .125.03.175.037.188.01.014.024.026.051.04a.4.4 0 0 0 .106.034l.034.005h9.14a.4.4 0 0 0 .095-.011l.025-.01a.2.2 0 0 0 .043-.061.5.5 0 0 0 .05-.19V7.333c0-.126-.03-.176-.038-.188a.13.13 0 0 0-.05-.04.4.4 0 0 0-.14-.039h-9.14c-.05 0-.08.007-.096.011M15.567 16h6.029v-3.333h-6.029zM8.698 8.792a.73.73 0 0 1 .987-.118.644.644 0 0 1 .124.934L7.854 12l1.955 2.392a.644.644 0 0 1-.124.934.73.73 0 0 1-.987-.118l-1.732-2.121-1.734 2.121a.73.73 0 0 1-.986.118.644.644 0 0 1-.124-.934L6.076 12 4.122 9.608a.644.644 0 0 1 .124-.934.73.73 0 0 1 .986.118l1.734 2.12zm6.87 2.541h6.028V8h-6.029zm0-4.666h6.028V3.6a.3.3 0 0 0-.08-.205.2.2 0 0 0-.133-.062h-5.816z"/></svg>