<svg xmlns="http://www.w3.org/2000/svg" fill="currentColor" viewBox="0 0 24 24"><path fill="currentColor" d="M17.358 1c.53 0 1.042.215 1.423.599l2.614 2.63c.195.197.345.431.447.684.111.253.158.525.158.796v15.213c0 .543-.205 1.067-.586 1.46a2 2 0 0 1-1.441.618H4.027c-.539 0-1.06-.225-1.441-.618A2.13 2.13 0 0 1 2 20.922V3.069c0-.543.214-1.067.586-1.46A2.05 2.05 0 0 1 4.027 1zM4.028 2.404a.62.62 0 0 0-.437.188.7.7 0 0 0-.195.477v17.853c0 .187.074.356.195.477a.6.6 0 0 0 .436.197h15.946a.6.6 0 0 0 .445-.197.67.67 0 0 0 .187-.477V5.709a.8.8 0 0 0-.046-.262.7.7 0 0 0-.15-.225l-2.613-2.639a.65.65 0 0 0-.438-.179zm10.028 7.107c.166.02.328.074.474.158.205.103.372.262.502.459l3.6 5.458c.14.215.149.495.028.72a.68.68 0 0 1-.613.375H6.902a.7.7 0 0 1-.613-.375.71.71 0 0 1 .037-.72l2.372-3.577a1.3 1.3 0 0 1 .408-.403c.158-.102.345-.176.53-.205.196-.028.392-.02.578.028.186.056.363.14.512.262l.577.46 1.423-2.051a1.45 1.45 0 0 1 .502-.45c.205-.102.428-.158.66-.149zm-2.037 4.061a.72.72 0 0 1-.475.291.7.7 0 0 1-.54-.15l-1.152-.927-1.648 2.49h8.55l-2.885-4.372zm-4.707-6.02a1.052 1.052 0 0 1 0 2.107A1.05 1.05 0 0 1 6.27 8.602c0-.58.465-1.05 1.042-1.05"/></svg>