<svg xmlns="http://www.w3.org/2000/svg" fill="currentColor" viewBox="0 0 24 24"><path fill="currentColor" d="M14.266 1c.567 0 1.113.217 1.514.604l5.593 5.382c.401.387.627.912.627 1.458v12.494C22 22.077 21.04 23 19.857 23H4.143C2.97 23 2 22.066 2 20.938V3.063C2 1.934 2.97 1 4.143 1zM4.143 2.375c-.384 0-.714.318-.714.688v17.875c0 .369.33.687.714.687h15.714a.7.7 0 0 0 .714-.687V9.25h-5a2.2 2.2 0 0 1-1.514-.604 2.02 2.02 0 0 1-.628-1.459V2.375zm4.471 11.458c.47.033.911.246 1.233.595a1.9 1.9 0 0 1 0 2.573 1.86 1.86 0 0 1-1.059.573l-.174.02h-.542l-.045.006a.23.23 0 0 0-.116.062.23.23 0 0 0-.065.163v1.876l-.011.108a.54.54 0 0 1-.832.35l-.082-.07a.55.55 0 0 1-.16-.388v-5.31c0-.146.058-.287.159-.391a.55.55 0 0 1 .383-.167zm3.058 0a3.16 3.16 0 0 1 2.135.998c.558.597.87 1.388.87 2.211s-.311 1.614-.87 2.21a3.16 3.16 0 0 1-2.135.998.54.54 0 0 1-.3-.092l-.083-.07a.55.55 0 0 1-.148-.28l-.01-.107v-5.31a.56.56 0 0 1 .157-.391.55.55 0 0 1 .384-.167m6.99 0a.55.55 0 0 1 .343.185.56.56 0 0 1 .138.369l-.01.1a.56.56 0 0 1-.128.269l-.072.068a.6.6 0 0 1-.174.094l-.097.022h-1.748l-.064.006a.33.33 0 0 0-.268.33v.992a.23.23 0 0 0 .228.22h.978a.55.55 0 0 1 .344.185.56.56 0 0 1 .137.369l-.01.1a.56.56 0 0 1-.127.268l-.072.07a.6.6 0 0 1-.174.093l-.098.022h-.978l-.045.005a.23.23 0 0 0-.183.225v1.876l-.01.108a.54.54 0 0 1-.832.35l-.082-.07a.55.55 0 0 1-.15-.28L15.5 19.7v-4.425q0-.213.059-.418l.046-.133q.08-.199.213-.364l.093-.104q.15-.151.335-.253l.125-.06q.196-.083.405-.103l.14-.008zm-6.579 5.424a2.2 2.2 0 0 0 1.017-.617 2.34 2.34 0 0 0 .626-1.598 2.34 2.34 0 0 0-.626-1.599 2.2 2.2 0 0 0-1.017-.617zm-4.37-2.525q.172-.053.36-.053h.494a.9.9 0 0 0 .568-.286c.163-.178.26-.42.26-.68 0-.258-.097-.5-.26-.678a.9.9 0 0 0-.568-.285h-.853zm7.144-9.544c0 .182.075.357.21.486a.73.73 0 0 0 .504.201h4.703L14.857 2.66z"/></svg>