<svg xmlns="http://www.w3.org/2000/svg" fill="currentColor" viewBox="0 0 24 24"><path fill="currentColor" fill-rule="evenodd" d="M11.053 2.373a8.86 8.86 0 0 1 5.71.211c1.835.698 3.415 1.984 4.527 3.67a10.45 10.45 0 0 1 1.703 5.66L23 12q0 .044-.007.086a10.45 10.45 0 0 1-1.703 5.66c-1.112 1.686-2.692 2.972-4.527 3.67a8.87 8.87 0 0 1-5.71.211c-1.768-.529-3.343-1.595-4.54-3.055h-3.93q-.023 0-.058-.003a1.8 1.8 0 0 1-.697-.202 1.5 1.5 0 0 1-.578-.538 1.74 1.74 0 0 1-.25-.934V7.091l.001-.02a2 2 0 0 1 .021-.226 2 2 0 0 1 .158-.525c.094-.2.249-.43.5-.609.258-.184.575-.284.937-.284h3.897c1.196-1.46 2.771-2.525 4.539-3.054m3.165 1.048a7.5 7.5 0 0 0-2.76.288A7.8 7.8 0 0 0 8.44 5.427h3.367q.023 0 .057.004a1.8 1.8 0 0 1 .697.202c.202.108.417.277.579.537.163.262.249.578.249.935v9.804l-.001.02a2 2 0 0 1-.022.226c-.02.134-.064.325-.157.525-.094.2-.249.43-.5.61a1.6 1.6 0 0 1-.937.282H8.44a7.8 7.8 0 0 0 3.018 1.719c1.58.473 3.256.41 4.803-.179s2.896-1.679 3.854-3.13a9 9 0 0 0 1.45-4.285h-5.73a1.6 1.6 0 0 1-1.161-.51 1.7 1.7 0 0 1-.456-1.166zm-2.456 3.401H2.617c-.05 0-.08.007-.095.011l-.025.012a.2.2 0 0 0-.043.063.6.6 0 0 0-.05.2v9.787c0 .132.029.186.037.2q.013.021.052.043a.4.4 0 0 0 .105.036l.034.004-.005-.001h9.144a.3.3 0 0 0 .095-.011l.026-.01a.2.2 0 0 0 .043-.064.6.6 0 0 0 .043-.15l.006-.048v-9.79c0-.13-.028-.185-.037-.199a.13.13 0 0 0-.051-.044.4.4 0 0 0-.134-.039M7.424 8.364c.628 0 1.22.268 1.646.725.426.455.658 1.064.658 1.687a2.47 2.47 0 0 1-.658 1.686 2.26 2.26 0 0 1-1.646.726H6.065v1.75a.7.7 0 0 1-.702.698.7.7 0 0 1-.702-.698V9.061a.7.7 0 0 1 .702-.698zm-1.359 3.428h1.359c.22 0 .444-.094.617-.28.175-.186.282-.45.282-.736 0-.285-.107-.55-.282-.738a.85.85 0 0 0-.617-.278H6.065zm9.557-.771c0 .09.034.168.08.217a.18.18 0 0 0 .133.064h5.73a9 9 0 0 0-1.45-4.283c-.958-1.452-2.307-2.542-3.854-3.131q-.316-.12-.639-.211z" clip-rule="evenodd"/></svg>