<svg xmlns="http://www.w3.org/2000/svg" fill="currentColor" viewBox="0 0 24 24"><path fill="currentColor" d="M17.316 1a2 2 0 0 1 1.417.593l2.659 2.637.003.004A2.12 2.12 0 0 1 22 5.714v15.21c0 .545-.21 1.071-.587 1.462a2 2 0 0 1-1.44.614H4.027a2 2 0 0 1-1.44-.614A2.1 2.1 0 0 1 2 20.925V3.075c0-.544.21-1.07.587-1.46A2 2 0 0 1 4.027 1zM4.026 2.404a.6.6 0 0 0-.44.19.7.7 0 0 0-.19.481v17.85c0 .183.07.356.19.48s.28.19.44.19h15.948c.16 0 .32-.066.44-.19a.7.7 0 0 0 .19-.48V5.715l-.013-.138a.7.7 0 0 0-.184-.35l-2.654-2.635-.004-.004a.6.6 0 0 0-.434-.184zm9.137 7.957a2.4 2.4 0 0 1 1.5.518 2.2 2.2 0 0 1 .645.84l1.442-.367.01-.002.01-.001a1.2 1.2 0 0 1 .842.119l.108.067.1.08a1.14 1.14 0 0 1 .371.674l.013.134v.015l.038 4.068v.03a1.12 1.12 0 0 1-.485.887 1.2 1.2 0 0 1-.95.187l-.017-.003-1.446-.36a2.2 2.2 0 0 1-.634.849c-.423.347-.96.533-1.507.535H8.977a2.4 2.4 0 0 1-1.623-.624 2.15 2.15 0 0 1-.703-1.58v-3.862c0-.605.262-1.171.703-1.579a2.4 2.4 0 0 1 1.623-.625zm-4.186 1.405c-.266 0-.51.098-.68.255a.74.74 0 0 0-.25.544v3.863c0 .19.081.388.25.544.17.157.414.255.68.255h4.22c.241-.001.465-.084.631-.22a.76.76 0 0 0 .28-.484.91.91 0 0 1 .431-.662l.049-.029.053-.022a.96.96 0 0 1 .649-.023l1.553.387-.032-3.39-1.58.402a.97.97 0 0 1-.587-.018l-.08-.028-.072-.047a.94.94 0 0 1-.409-.63l-.001-.007a.76.76 0 0 0-.287-.477 1 1 0 0 0-.63-.213z"/></svg>