<svg xmlns="http://www.w3.org/2000/svg" fill="currentColor" viewBox="0 0 24 24"><path fill="currentColor" d="M21.396 2c.425 0 .833.171 1.134.477s.47.72.47 1.15v16.745c0 .432-.169.846-.47 1.151s-.71.477-1.135.477H8.333c-.425 0-.833-.172-1.134-.477a1.64 1.64 0 0 1-.47-1.15v-2.094H2.571l-.055-.004a1.8 1.8 0 0 1-.677-.186c-.196-.1-.414-.26-.58-.513A1.66 1.66 0 0 1 1 16.651V7.335l.001-.02a1.5 1.5 0 0 1 .022-.226c.022-.133.068-.32.165-.517a1.5 1.5 0 0 1 .505-.589 1.6 1.6 0 0 1 .911-.262H6.73V3.628c0-.432.17-.846.47-1.151C7.5 2.17 7.908 2 8.333 2zm-8.208 15.428c-.099.199-.256.42-.505.589a1.6 1.6 0 0 1-.912.262H8.104v2.093c0 .062.024.12.067.164a.23.23 0 0 0 .162.069h13.062a.234.234 0 0 0 .23-.232v-3.024h-8.402zM2.604 7.116c-.106 0-.143.025-.148.029a.1.1 0 0 0-.039.05.5.5 0 0 0-.042.163v9.293c0 .108.024.146.027.15a.13.13 0 0 0 .051.04.4.4 0 0 0 .161.043h9.157c.108 0 .145-.026.149-.029a.13.13 0 0 0 .038-.05.5.5 0 0 0 .042-.163V7.349c0-.108-.024-.145-.027-.15a.13.13 0 0 0-.051-.04.4.4 0 0 0-.161-.043zm10.771 8.837h8.25v-3.256h-8.25zM7.188 8.512a.69.69 0 0 1 .652.476l1.086 3.308.803-3.256a.69.69 0 0 1 .834-.508.7.7 0 0 1 .5.846L9.687 14.96a.69.69 0 0 1-.64.527.69.69 0 0 1-.679-.475l-1.18-3.595-1.181 3.595a.69.69 0 0 1-.679.475.69.69 0 0 1-.64-.527L3.313 9.378a.7.7 0 0 1 .5-.846.69.69 0 0 1 .833.508l.802 3.256 1.087-3.308a.69.69 0 0 1 .652-.476m6.187 2.79h8.25V8.048h-8.25zM8.333 3.397a.23.23 0 0 0-.229.232V5.72h3.7a1.5 1.5 0 0 1 .223.023c.131.022.316.07.51.167a1.5 1.5 0 0 1 .701.74h8.387V3.628a.23.23 0 0 0-.067-.164.23.23 0 0 0-.163-.068z"/></svg>