<svg width="24" height="24" viewBox="0 0 24 24" fill="none" xmlns="http://www.w3.org/2000/svg">
<g clip-path="url(#clip0_1_2419)">
<path d="M12 1C12.2283 1.00001 12.4389 1.07854 12.6054 1.20988C12.6416 1.23845 12.676 1.26971 12.7082 1.30352L22.7302 11.8266C23.1027 12.2178 23.0876 12.8368 22.6965 13.2093C22.3054 13.5818 21.6863 13.5667 21.3138 13.1756L12.9779 4.42292V22.022C12.9779 22.5621 12.5401 23 12 23C11.4598 23 11.022 22.5621 11.022 22.022V4.42302L2.68619 13.1756C2.31369 13.5667 1.69465 13.5818 1.30352 13.2093C0.912388 12.8368 0.897289 12.2178 1.26979 11.8266L11.2853 1.31038L11.2861 1.30951C11.4642 1.11934 11.7184 1 12 1Z" fill="#1D1B20"/>
</g>
<defs>
<clipPath id="clip0_1_2419">
<rect width="24" height="24" fill="white"/>
</clipPath>
</defs>
</svg>
