<svg width="24" height="24" viewBox="0 0 24 24" fill="none" xmlns="http://www.w3.org/2000/svg">
<g clip-path="url(#clip0_1_2409)">
<path d="M23 12C23 12.2283 22.9215 12.4389 22.7901 12.6054C22.7616 12.6416 22.7303 12.676 22.6965 12.7082L12.1734 22.7302C11.7822 23.1027 11.1632 23.0876 10.7907 22.6965C10.4182 22.3054 10.4333 21.6863 10.8244 21.3138L19.5771 12.9779H1.97799C1.43786 12.9779 1 12.5401 1 12C1 11.4598 1.43786 11.022 1.97799 11.022H19.577L10.8244 2.68619C10.4333 2.31369 10.4182 1.69465 10.7907 1.30352C11.1632 0.912388 11.7822 0.897289 12.1734 1.26979L22.6896 11.2853L22.6905 11.2861C22.8807 11.4642 23 11.7184 23 12Z" fill="#1D1B20"/>
</g>
<defs>
<clipPath id="clip0_1_2409">
<rect width="24" height="24" fill="white"/>
</clipPath>
</defs>
</svg>
