<svg width="24" height="24" viewBox="0 0 24 24" fill="none" xmlns="http://www.w3.org/2000/svg">
<g clip-path="url(#clip0_1_2399)">
<path d="M1 12C1.00001 11.7717 1.07854 11.5611 1.20988 11.3946C1.23845 11.3584 1.26971 11.324 1.30352 11.2918L11.8266 1.26979C12.2178 0.897291 12.8368 0.912387 13.2093 1.30352C13.5818 1.69464 13.5667 2.31369 13.1756 2.68619L4.42292 11.0221H22.022C22.5621 11.0221 23 11.4599 23 12C23 12.5402 22.5621 12.978 22.022 12.978H4.42302L13.1756 21.3138C13.5667 21.6863 13.5818 22.3054 13.2093 22.6965C12.8368 23.0876 12.2178 23.1027 11.8266 22.7302L1.31038 12.7147L1.30951 12.7139C1.11934 12.5358 1 12.2816 1 12Z" fill="#1D1B20"/>
</g>
<defs>
<clipPath id="clip0_1_2399">
<rect width="24" height="24" fill="white"/>
</clipPath>
</defs>
</svg>
