<svg width="24" height="24" viewBox="0 0 24 24" fill="none" xmlns="http://www.w3.org/2000/svg">
<g clip-path="url(#clip0_1_2389)">
<path d="M12 23C11.7717 23 11.5611 22.9215 11.3946 22.7901C11.3584 22.7616 11.324 22.7303 11.2918 22.6965L1.26979 12.1734C0.897291 11.7822 0.912387 11.1632 1.30352 10.7907C1.69464 10.4182 2.31369 10.4333 2.68619 10.8244L11.0221 19.5771L11.0221 1.97799C11.0221 1.43786 11.4599 1 12 1C12.5402 1 12.978 1.43786 12.978 1.97799L12.978 19.577L21.3138 10.8244C21.6863 10.4333 22.3054 10.4182 22.6965 10.7907C23.0876 11.1632 23.1027 11.7822 22.7302 12.1734L12.7147 22.6896L12.7139 22.6905C12.5358 22.8807 12.2816 23 12 23Z" fill="#1D1B20"/>
</g>
<defs>
<clipPath id="clip0_1_2389">
<rect width="24" height="24" fill="white"/>
</clipPath>
</defs>
</svg>
