<svg xmlns="http://www.w3.org/2000/svg" width="24" height="24" fill="none" viewBox="0 0 24 24"><g clip-path="url(#a)"><path fill="currentColor" d="M5.98 10.872a1.7 1.7 0 0 0-.39.512l-.005.011c-.082.189-.13.4-.13.604 0 .195.034.412.135.614a1.7 1.7 0 0 0 .39.513l10.833 9.61c.204.18.462.264.715.264.254 0 .512-.083.716-.264a.857.857 0 0 0 0-1.305L7.612 11.999l10.632-9.432a.857.857 0 0 0 0-1.305 1.11 1.11 0 0 0-1.431 0z"/></g><defs><clipPath id="a"><path fill="currentColor" d="M0 0h24v24H0z"/></clipPath></defs></svg>