<svg width="24" height="24" viewBox="0 0 24 24" fill="none" xmlns="http://www.w3.org/2000/svg">
<g clip-path="url(#clip0_1_2459)">
<path d="M12.6156 6.12449C12.8008 6.20951 12.9792 6.328 13.1285 6.48222L22.7378 16.4114C23.0874 16.7727 23.0874 17.3626 22.7378 17.7239C22.3815 18.092 21.7895 18.092 21.4332 17.7239L12.0011 7.97777L2.56903 17.7239C2.21271 18.092 1.62077 18.092 1.26444 17.7239C1.0834 17.5368 1 17.3001 1 17.0676C1 16.8352 1.0834 16.5985 1.26444 16.4114L10.8737 6.48222C11.023 6.328 11.2015 6.20951 11.3866 6.12449C11.5888 6.03166 11.8056 6 12.0011 6C12.2058 6 12.4164 6.04413 12.6047 6.11977L12.6156 6.12449Z" fill="#1D1B20"/>
</g>
<defs>
<clipPath id="clip0_1_2459">
<rect width="24" height="24" fill="white"/>
</clipPath>
</defs>
</svg>
