<svg xmlns="http://www.w3.org/2000/svg" width="24" height="24" fill="none" viewBox="0 0 24 24"><g clip-path="url(#a)"><path fill="currentColor" d="M12.616 6.124a1.7 1.7 0 0 1 .513.358l9.609 9.93c.35.36.35.95 0 1.312a.91.91 0 0 1-1.305 0l-9.432-9.746-9.432 9.746a.91.91 0 0 1-1.305 0A.94.94 0 0 1 1 17.068c0-.233.083-.47.264-.657l9.61-9.929a1.7 1.7 0 0 1 .513-.358c.202-.092.419-.124.614-.124.205 0 .415.044.604.12z"/></g><defs><clipPath id="a"><path fill="currentColor" d="M0 0h24v24H0z"/></clipPath></defs></svg>