<svg xmlns="http://www.w3.org/2000/svg" width="24" height="24" fill="none" viewBox="0 0 24 24"><g clip-path="url(#a)"><path fill="currentColor" d="M10.872 17.518a1.7 1.7 0 0 0 .512.357l.011.005c.189.076.4.12.604.12.195 0 .412-.032.614-.125.186-.084.364-.203.513-.357l9.61-9.93A.94.94 0 0 0 23 6.933a.94.94 0 0 0-.264-.656.91.91 0 0 0-1.305 0l-9.432 9.746-9.432-9.746a.91.91 0 0 0-1.305 0 .95.95 0 0 0 0 1.313z"/></g><defs><clipPath id="a"><path fill="currentColor" d="M0 0h24v24H0z"/></clipPath></defs></svg>