<svg xmlns="http://www.w3.org/2000/svg" fill="currentColor" viewBox="0 0 24 24"><path fill="currentColor" d="M17.114 11.943q.1.015.198.037c3.269.89 5.688 3.98 5.688 7.67 0 1.3-1.01 2.35-2.259 2.35H5.968c-1.21 0-2.199-.99-2.259-2.23.49.51 1.16.73 1.76.73.1 0 .21-.01.32-.03q.089.03.179.03H20.73c.44 0 .809-.38.809-.85 0-2.92-1.889-5.48-4.607-6.22h-.01c-.02 0-.047.01-.05.01a7.15 7.15 0 0 1-4.468.87l-.06-.15c-.19-.49-.54-.86-.87-1.08l-1.68-1.15c.26 0 .5.07.73.2.84.48 1.81.75 2.83.75a5.7 5.7 0 0 0 2.828-.75c.23-.13.48-.2.74-.2zm-12.122.516c-.87-.64.15-1.77.98-1.21l1.76 1.204c1.036.71 2.172 1.487 2.847 1.945.15.08.25.25.31.4.07.31-.04.6-.29.8L5.972 18.75c-.79.6-1.85-.55-.98-1.18l2.378-1.62.26-.19h-5.8c-.46 0-.83-.34-.83-.75s.37-.75.83-.75h5.8l-.26-.18-.973-.662a253 253 0 0 1-1.405-.958M13.355 2c2.538 0 4.587 2.14 4.587 4.77s-2.049 4.77-4.587 4.77c-2.54 0-4.588-2.14-4.588-4.77S10.816 2 13.355 2m0 1.5c-1.74 0-3.149 1.47-3.149 3.27s1.41 3.27 3.149 3.27 3.138-1.47 3.138-3.27-1.4-3.27-3.138-3.27"/></svg>