<svg xmlns="http://www.w3.org/2000/svg" fill="currentColor" viewBox="0 0 24 24"><path fill="currentColor" d="M12.1 1c4.35 0 7.937 3.31 8.313 7.523h.278C22.386 8.523 23 10.085 23 12v2.74c0 1.915-.614 3.466-2.309 3.466h-.248c-.03 1.895-1.595 3.428-3.508 3.428h-1.467A2.125 2.125 0 0 1 13.477 23H10.72c-1.18 0-2.13-.944-2.13-2.102 0-1.159.951-2.102 2.13-2.102h2.756c.911 0 1.693.57 1.99 1.365h1.469c1.11 0 2.021-.894 2.021-2.004v-.55a1.1 1.1 0 0 1-.367-.814V9.947c0-.334.14-.6.357-.805-.06-3.693-3.072-6.668-6.847-6.668S5.24 5.518 5.24 9.26c0 .039 0 .068-.01.097.11.167.18.364.18.59v6.846c-.001 1.08-1.459 1.413-1.875 1.413H3.31c-1.696 0-2.31-1.55-2.31-3.466V12c0-1.915.614-3.476 2.309-3.477h.227c.06 0 .15.01.248.03C4.151 4.33 7.75 1 12.1 1m-1.38 19.27a.64.64 0 0 0-.643.628c0 .343.287.628.644.628h2.756a.633.633 0 0 0 .644-.628.63.63 0 0 0-.644-.628zM12.1 9.24a.49.49 0 0 1 .495.49v7.711c0 .275-.218.49-.495.49a.49.49 0 0 1-.496-.49v-7.71a.49.49 0 0 1 .496-.492m-8.791.756c-.981 0-1.011.904-1.011 2.004v2.74c0 1.1.03 1.993 1.01 1.993h.228c.119 0 .407-.088.566-.176v-6.374c-.16-.089-.447-.187-.566-.187zm17.144 0c-.119 0-.396.098-.555.187v6.374c.159.088.436.176.555.176h.238c.98 0 1.01-.893 1.01-1.993V12c0-1.1-.03-2.004-1.01-2.004zm-10.96.786c.277 0 .495.217.495.491v4.625a.49.49 0 0 1-.495.492.49.49 0 0 1-.496-.492v-4.625a.49.49 0 0 1 .496-.49m5.202 0a.49.49 0 0 1 .496.491v4.625a.49.49 0 0 1-.496.492.49.49 0 0 1-.495-.492v-4.625c0-.274.218-.49.495-.49m-7.799 1.542c.278 0 .496.216.496.491v1.601a.49.49 0 0 1-.496.491.49.49 0 0 1-.495-.491v-1.6c0-.276.218-.492.495-.492m10.406 0c.277 0 .495.216.495.491v1.601a.49.49 0 0 1-.495.491.49.49 0 0 1-.495-.491v-1.6c0-.276.217-.492.495-.492"/></svg>