<svg xmlns="http://www.w3.org/2000/svg" fill="currentColor" viewBox="0 0 24 24"><path fill="currentColor" d="M16.812 10.625a.687.687 0 1 1 0 1.375 4.813 4.813 0 1 0 4.812 4.813.688.688 0 0 1 1.375 0 6.188 6.188 0 1 1-6.187-6.188M20.937 1A2.06 2.06 0 0 1 23 3.063v6.874a.687.687 0 1 1-1.375 0V3.064a.687.687 0 0 0-.687-.688H3.063a.69.69 0 0 0-.688.688v13.75a.69.69 0 0 0 .688.687h1.374c.38 0 .688.308.688.688v2.75l3.001-2.247a.687.687 0 0 1 .824 1.101l-4.1 3.07a.688.688 0 0 1-1.1-.55v-3.437h-.687A2.06 2.06 0 0 1 1 16.813V3.063A2.06 2.06 0 0 1 3.063 1zm.888 11.201a.688.688 0 0 1 .973.973l-5.014 5.012a1.38 1.38 0 0 1-.973.404 1.38 1.38 0 0 1-.972-.404l-1.575-1.575a.688.688 0 0 1 .972-.972l1.575 1.576z"/></svg>