<svg xmlns="http://www.w3.org/2000/svg" fill="currentColor" viewBox="0 0 24 24"><path fill="currentColor" d="M12 2c6.064 0 11 3.978 11 8.885l-.015.457c-.295 4.694-5.11 8.436-10.985 8.436a13 13 0 0 1-3.645-.506l-5.882 2.683a.5.5 0 0 1-.214.045l-.073-.007a.48.48 0 0 1-.373-.315l-.017-.07a.45.45 0 0 1 .046-.282l2.2-4.306a8.1 8.1 0 0 1-2.009-2.344l-.208-.392a7.9 7.9 0 0 1-.825-3.4C1 5.989 5.936 2 12 2m0 1.5c-5.544 0-9.49 3.59-9.5 7.371.016.951.244 1.888.669 2.746a6.6 6.6 0 0 0 1.806 2.229l.962.762-1.412 2.761 3.208-1.462.504-.23.533.153c1.047.3 2.134.451 3.226.448H12l.516-.01c5.277-.215 8.984-3.706 8.984-7.383C21.5 7.09 17.552 3.5 12 3.5"/></svg>