<svg xmlns="http://www.w3.org/2000/svg" fill="currentColor" viewBox="0 0 24 24"><path fill="currentColor" d="M11.995 1c4.332 0 7.9 3.355 8.24 7.6A3.48 3.48 0 0 1 23 12v2.738a3.48 3.48 0 0 1-2.73 3.393v.021a3.48 3.48 0 0 1-3.474 3.474H15.34A2.105 2.105 0 0 1 13.369 23h-2.738c-1.158 0-2.1-.942-2.1-2.1 0-1.157.941-2.1 2.1-2.1h2.738c.896 0 1.663.563 1.965 1.354h1.462c1.08 0 1.97-.861 2.002-1.943-.51-.018-2.06-.372-2.06-1.422V9.95c0-1.018 1.459-1.381 2.011-1.419-.367-3.396-3.252-6.058-6.754-6.058A6.796 6.796 0 0 0 5.241 8.53c.545.034 2.023.396 2.023 1.42v6.84c0 1.08-1.64 1.423-2.102 1.423h-.686A3.48 3.48 0 0 1 1 14.738V12a3.484 3.484 0 0 1 2.756-3.398C4.094 4.356 7.663 1 11.996 1m-1.364 19.263a.633.633 0 0 0-.629.628c0 .343.285.628.629.628h2.738a.627.627 0 1 0 0-1.256zM4.476 9.998c-1.1 0-2.003.893-2.003 2.002v2.738c0 1.1.893 2.002 2.003 2.002h.686c.138 0 .452-.088.629-.186v-6.37c-.177-.088-.501-.186-.629-.186zm14.362 0c-.137 0-.452.088-.629.187v6.369c.186.088.501.186.629.186h.578a.7.7 0 0 1 .218-.004 2.004 2.004 0 0 0 1.893-1.998V12a2.005 2.005 0 0 0-2.003-2.002z"/></svg>