<svg xmlns="http://www.w3.org/2000/svg" fill="currentColor" viewBox="0 0 24 24"><path fill="currentColor" d="M21.089 1.074a1.456 1.456 0 0 1 1.842 1.832l-6.07 18.614a2.16 2.16 0 0 1-2.037 1.473v.01c-.225 0-.45-.03-.676-.111a2.15 2.15 0 0 1-1.391-1.464l-1.976-8.217-8.188-1.965h-.03a2.1 2.1 0 0 1-1.29-1.013 2.138 2.138 0 0 1 1.187-3.08zM2.942 8.605a.6.6 0 0 0-.389.41.66.66 0 0 0 .051.46.62.62 0 0 0 .359.287l8.628 2.067a.77.77 0 0 1 .562.563l2.088 8.646a.59.59 0 0 0 .39.389.596.596 0 0 0 .767-.389l6.029-18.46z"/></svg>