<svg xmlns="http://www.w3.org/2000/svg" fill="currentColor" viewBox="0 0 24 24"><path fill="currentColor" d="M9.46 4.013a1.7 1.7 0 0 1 .823.098l.112.046.003.001a1.7 1.7 0 0 1 .974 1.522v1.803c1.89.006 5.493.362 8.219 2.741l.21.19C21.953 12.406 23 15.266 23 18.776v.013a1.23 1.23 0 0 1-1.726 1.108 1.23 1.23 0 0 1-.588-.535v-.003c-1.38-2.53-3.375-3.621-5.244-4.053-1.614-.373-3.139-.25-4.07-.1v2.338l-.005.12a1.68 1.68 0 0 1-.98 1.413 1.71 1.71 0 0 1-1.79-.228l-.01-.007-.008-.007-6.985-6.05v-.001a1.7 1.7 0 0 1-.584-1.096L1 11.504a1.68 1.68 0 0 1 .62-1.304l6.97-5.808.003-.002c.249-.205.55-.336.868-.377m.194 1.538a.2.2 0 0 0-.089.037l-6.974 5.81-.005.005h-.001a.14.14 0 0 0-.038.049.1.1 0 0 0-.012.05v.002a.1.1 0 0 0 .01.05l.039.047.009.01 6.97 6.035a.2.2 0 0 0 .087.036q.053.007.101-.014a.16.16 0 0 0 .066-.056.12.12 0 0 0 .02-.066v-2.803c.004-.231.085-.452.228-.628l.117-.121a1 1 0 0 1 .436-.224l.01-.003.01-.002c.942-.193 2.954-.474 5.147.033 1.956.451 4.053 1.532 5.635 3.822-.197-2.525-1.05-4.49-2.492-5.908l-.342-.316c-2.56-2.234-6.143-2.411-7.713-2.358h-.05a1.04 1.04 0 0 1-.636-.243l-.021-.018-.018-.018a1.02 1.02 0 0 1-.31-.687V5.684l-.005-.032a.1.1 0 0 0-.016-.033.16.16 0 0 0-.062-.054l-.048-.014a.2.2 0 0 0-.053 0"/></svg>