<svg xmlns="http://www.w3.org/2000/svg" fill="currentColor" viewBox="0 0 24 24"><path fill="currentColor" d="M5.216 9.264a.696.696 0 0 1 .553.674v2.347a6.07 6.07 0 0 0 1.883 4.225 6.17 6.17 0 0 0 4.339 1.678H12c.904 0 1.79-.192 2.612-.55l-.009.009a.69.69 0 0 1 .913.349.683.683 0 0 1-.35.907 8 8 0 0 1-2.474.623v2.787a.695.695 0 0 1-.692.688.696.696 0 0 1-.693-.688v-2.769A7.47 7.47 0 0 1 6.692 17.5a7.4 7.4 0 0 1-2.307-5.188V9.938c0-.376.313-.687.692-.688zM12 1a4.83 4.83 0 0 1 4.486 2.97c.25.587.37 1.21.37 1.843v5.5c.082 1.191-.26 2.392-.915 3.419l1.034 1.072c.323-.412.61-.843.813-1.32a5.6 5.6 0 0 0 .452-2.19V9.938c0-.376.314-.687.692-.688l.138.014a.696.696 0 0 1 .555.674v2.355a7.1 7.1 0 0 1-1.67 4.528l2.851 2.953-.01-.01a.68.68 0 0 1-.018.972.69.69 0 0 1-.978-.018L7.357 7.838 3.194 3.54a.68.68 0 0 1 .018-.972.69.69 0 0 1 .978.018l2.973 3.09c.018-.587.13-1.155.35-1.696a4.8 4.8 0 0 1 1.053-1.568 4.8 4.8 0 0 1 1.578-1.045C10.735 1.119 11.381 1.019 12 1m-4.163 9.626c.378 0 .692.311.692.687 0 1.173.25 1.98.572 2.548.323.568.757.926 1.21 1.155.922.476 1.927.413 2.122.395a.693.693 0 0 1 .767.604.69.69 0 0 1-.61.76 5.5 5.5 0 0 1-2.675-.424l-.241-.115h-.01a4.3 4.3 0 0 1-1.772-1.688c-.47-.815-.748-1.87-.748-3.235 0-.376.314-.687.693-.687M12 2.376c-.443-.037-.905.082-1.33.256a3.41 3.41 0 0 0-2.133 3.18v1.266l6.417 6.636a4.33 4.33 0 0 0 .508-2.355V5.813a3.4 3.4 0 0 0-1.007-2.438 3.4 3.4 0 0 0-1.126-.743 3.5 3.5 0 0 0-1.33-.257"/></svg>