<svg xmlns="http://www.w3.org/2000/svg" fill="currentColor" viewBox="0 0 24 24"><path fill="currentColor" d="M5.468 1.055c1.639-.308 2.615 1.229 3.263 2.25l.009.013.089.15c.648 1.012 1.466 2.293 1.107 3.755-.19.791-.758 1.252-1.217 1.613l-.119.1q-.06.048-.12.1c-.108.1-.232.19-.365.288l-.044.032c-.28.21-.598.451-.658.652-.197.692.365 1.59.59 1.949l.008.012a13.9 13.9 0 0 0 2.962 3.355l.01.009c.44.361 1.172.961 1.716.852.368-.07.629-.34 1.027-.78.469-.51 1.057-1.153 2.044-1.303 1.533-.238 2.577.687 3.343 1.366l.018.017.529.46c.797.66 1.884 1.573 1.795 2.904-.07.883-.678 1.413-1.125 1.802l-.012.01-.09.08c-.14.12-.28.252-.41.382l-.077.073c-.265.248-.542.507-.85.707-1.117.73-2.443 1.102-3.95 1.102l.012.01h-.3c-1.645-.05-2.932-.63-3.979-1.181-2.343-1.252-4.109-3.075-5.395-4.517-1.815-2.043-3.092-4.116-3.79-6.148C.482 8.205.95 5.09 2.736 3.048c.24-.27.548-.531.857-.791l.45-.381.019-.018c.345-.307.77-.685 1.406-.803m.28 1.472c-.23.04-.45.24-.699.47l-.499.42a6 6 0 0 0-.687.622c-1.416 1.612-1.785 4.216-.947 6.619.638 1.852 1.814 3.745 3.5 5.647 1.276 1.432 2.862 3.055 4.976 4.187.937.5 1.985.97 3.321 1.01 1.307.05 2.454-.25 3.381-.85.23-.15.469-.38.718-.621.15-.14.3-.28.459-.421l.089-.08c.379-.33.609-.54.629-.791.039-.555-.665-1.14-1.24-1.618l-.017-.014-.568-.491c-.639-.57-1.298-1.141-2.145-1.022-.448.07-.738.361-1.166.832-.459.5-.978 1.062-1.835 1.232-1.237.248-2.308-.628-2.958-1.16l-.015-.012a15.4 15.4 0 0 1-3.28-3.715c-.319-.5-1.157-1.823-.778-3.175.19-.69.748-1.111 1.207-1.452q.09-.072.181-.138.079-.057.148-.112c.09-.08.19-.16.28-.23v-.001c.338-.27.627-.5.697-.8.204-.822-.315-1.645-.823-2.448l-.035-.056-.15-.24c-.523-.817-.994-1.51-1.511-1.594l-.104-.008h-.01c-.006 0-.081 0-.12.01m7.06-1.262c5.615.01 10.172 4.577 10.172 10.214 0 .45-.369.821-.817.822a.823.823 0 0 1-.818-.822c-.01-4.736-3.83-8.582-8.547-8.582a.824.824 0 0 1-.818-.821c0-.45.37-.82.818-.82zm0 3.265c3.81 0 6.911 3.104 6.911 6.94 0 .45-.369.82-.817.82a.823.823 0 0 1-.819-.82c0-2.924-2.363-5.308-5.285-5.308l.01.01a.823.823 0 0 1-.817-.822c0-.45.369-.82.817-.82"/></svg>