<svg xmlns="http://www.w3.org/2000/svg" fill="currentColor" viewBox="0 0 24 24"><path fill="currentColor" d="M6.61 1.04C8.286.73 9.288 2.273 9.952 3.294l.102.15c.665 1.012 1.503 2.294 1.135 3.756-.194.79-.777 1.252-1.247 1.612-.082.07-.163.13-.245.2-.123.11-.266.21-.419.32-.286.21-.613.452-.675.652-.204.7.389 1.611.614 1.962a14.2 14.2 0 0 0 3.035 3.365c.45.36 1.206.97 1.768.86.378-.07.644-.34 1.053-.78.48-.51 1.083-1.151 2.095-1.302 1.574-.24 2.657.701 3.444 1.382l.542.46c.818.661 1.942 1.573 1.84 2.904-.072.892-.705 1.422-1.165 1.813l-.093.08c-.143.12-.276.25-.419.37-.296.28-.603.561-.95.781-1.145.731-2.504 1.102-4.047 1.102l.01.02h-.296c-1.686-.05-3.005-.631-4.078-1.192-2.392-1.251-4.211-3.074-5.53-4.515-1.86-2.043-3.168-4.106-3.883-6.149C1.5 8.19 1.98 5.075 3.81 3.033c.246-.27.563-.53.88-.78l.46-.381c.357-.31.796-.701 1.46-.831m.286 1.453v.02c-.235.04-.46.24-.725.47l-.511.42c-.266.211-.542.43-.695.611-1.452 1.612-1.83 4.216-.971 6.62.654 1.852 1.86 3.754 3.587 5.647 1.308 1.432 2.934 3.054 5.1 4.185.961.501 2.034.972 3.404 1.012 1.359.05 2.514-.25 3.465-.852.234-.15.48-.38.735-.62l.46-.42.092-.08c.388-.331.624-.541.644-.792.041-.56-.695-1.152-1.288-1.642l-.582-.49c-.654-.561-1.33-1.142-2.198-1.022-.46.07-.756.36-1.195.831-.47.5-.992 1.061-1.881 1.232-1.268.25-2.382-.64-3.046-1.171-1.319-1.052-2.412-2.274-3.363-3.716-.327-.501-1.185-1.822-.796-3.174.194-.69.766-1.112 1.236-1.452.112-.09.236-.17.338-.25.092-.08.194-.15.286-.23.347-.27.643-.501.715-.801.214-.842-.347-1.693-.889-2.504l-.153-.24c-.603-.932-1.156-1.702-1.769-1.592"/></svg>