<svg xmlns="http://www.w3.org/2000/svg" fill="currentColor" viewBox="0 0 24 24"><path fill="currentColor" d="M5.467 1.055C7.113.745 8.091 2.297 8.74 3.318l.089.15c.648 1.011 1.466 2.294 1.107 3.756-.19.79-.758 1.251-1.217 1.612-.08.07-.16.13-.239.2-.12.11-.26.21-.41.32-.278.21-.597.45-.657.65-.2.701.379 1.613.598 1.964a13.9 13.9 0 0 0 2.962 3.354c.439.36 1.177.971 1.726.862.369-.07.628-.341 1.027-.782.469-.51 1.057-1.151 2.044-1.302 1.546-.24 2.594.701 3.361 1.382l.529.461c.797.661 1.884 1.573 1.795 2.905-.07.89-.688 1.422-1.137 1.812l-.09.08c-.14.12-.28.25-.41.38-.288.27-.587.561-.926.781-1.117.731-2.444 1.102-3.95 1.102l.01.01h-.3c-1.644-.05-2.93-.631-3.978-1.182-2.343-1.252-4.109-3.074-5.395-4.516-1.815-2.042-3.092-4.115-3.79-6.148C.48 8.205.95 5.09 2.735 3.048c.24-.27.548-.53.857-.791l.45-.381c.348-.31.777-.701 1.425-.821m.28 1.472c-.23.04-.45.24-.699.471l-.499.42c-.259.21-.528.44-.687.621-1.416 1.612-1.785 4.216-.947 6.62.638 1.851 1.814 3.744 3.5 5.647 1.276 1.431 2.862 3.054 4.976 4.185.938.5 1.985.972 3.321 1.012 1.307.05 2.454-.25 3.381-.852.23-.15.469-.38.718-.62.15-.14.3-.28.459-.42l.089-.08c.379-.331.609-.541.629-.792.04-.56-.679-1.152-1.257-1.633l-.568-.49c-.639-.57-1.297-1.141-2.145-1.021-.448.07-.738.36-1.166.83-.459.501-.978 1.062-1.835 1.232-1.246.25-2.324-.64-2.973-1.17a15.4 15.4 0 0 1-3.28-3.716c-.32-.501-1.157-1.823-.778-3.174.19-.691.748-1.112 1.207-1.452.11-.09.23-.17.329-.25.09-.08.19-.16.28-.23.338-.271.627-.502.697-.802.209-.84-.34-1.683-.858-2.504l-.15-.24c-.523-.817-.994-1.51-1.511-1.594l-.104-.008h-.01a1 1 0 0 0-.12.01m10.1-1.423a.675.675 0 0 1 .9.167c.2.28.12.66-.178.848l-1.895 1.195 3.795-.002C20.985 3.32 23 4.647 23 7.369c0 1.778-1.5 3.723-4.801 3.723H17c-.359 0-.649-.274-.649-.611 0-.338.29-.612.649-.612h1.198c3.301 0 3.504-1.722 3.504-2.5 0-2.222-1.44-2.833-3.245-2.833H14.61l2 1.485c.281.209.33.593.107.858a.676.676 0 0 1-.91.101l-3.56-2.643a.6.6 0 0 1-.248-.504.6.6 0 0 1 .289-.483z"/></svg>