<svg xmlns="http://www.w3.org/2000/svg" fill="currentColor" viewBox="0 0 24 24"><path fill="currentColor" d="M21.759 1.704a.757.757 0 0 1 1.028 0 .677.677 0 0 1 0 .981L2.242 22.297a.74.74 0 0 1-.514.204.74.74 0 0 1-.514-.204.676.676 0 0 1 0-.982l4.996-4.768c-1.683-1.834-2.872-3.686-3.531-5.519-1-2.731-.533-5.602 1.203-7.491.223-.25.533-.49.824-.713l.446-.37.02-.017c.336-.284.749-.633 1.367-.742C8.13 1.41 9.08 2.832 9.71 3.776v.002l.099.139c.63.935 1.425 2.12 1.076 3.473-.185.73-.738 1.157-1.184 1.49l-.232.185a4 4 0 0 1-.356.267l-.042.03c-.271.194-.582.417-.64.602-.192.64.355 1.47.574 1.803l.008.011q.427.64.915 1.219zm-5.2 12.074c1.305-.193 2.245.437 2.959 1.019l.31.258.515.426c.776.611 1.833 1.455 1.746 2.686-.067.817-.66 1.307-1.095 1.667l-.012.009-.087.074a7 7 0 0 0-.199.17q-.097.088-.198.173a7 7 0 0 1-.902.731c-1.087.676-2.378 1.019-3.842 1.019V22h-.281c-1.6-.047-2.852-.583-3.87-1.092-1.048-.528-2.038-1.195-3.027-2.037a.65.65 0 0 1-.242-.5c0-.194.077-.38.213-.51l2.774-2.611a.75.75 0 0 1 .952-.055c.562.407.989.574 1.3.509.358-.065.61-.316.998-.723.456-.472 1.029-1.064 1.989-1.203m.233 1.361c-.436.065-.718.334-1.135.77-.446.462-.951.98-1.785 1.138-.636.121-1.236-.055-1.74-.312l-.21-.114-1.784 1.676c.708.546 1.416 1 2.153 1.37.912.463 1.93.898 3.23.935 1.28.037 2.387-.231 3.289-.787.223-.139.456-.352.699-.574l.436-.389.097-.074c.368-.296.592-.5.611-.731.04-.51-.66-1.066-1.222-1.51l-.553-.453-.023-.02c-.614-.512-1.24-1.034-2.063-.925M6.801 3.057c-.162.027-.32.132-.49.27l-.199.165-.494.407c-.262.204-.505.399-.65.556-1.368 1.49-1.737 3.898-.922 6.12.593 1.638 1.667 3.31 3.192 4.991l1.653-1.578a14 14 0 0 1-1.101-1.459c-.31-.463-1.124-1.686-.756-2.935.184-.635.721-1.023 1.156-1.337l.008-.006.043-.03c.1-.071.192-.138.277-.21.087-.074.185-.148.272-.213l.001-.001c.33-.25.61-.463.678-.74.201-.77-.32-1.542-.83-2.294l-.014-.02-.049-.075-.097-.139c-.572-.86-1.106-1.574-1.678-1.472"/></svg>