<svg xmlns="http://www.w3.org/2000/svg" fill="currentColor" viewBox="0 0 24 24"><path fill="currentColor" d="M19.764 11.014a.69.69 0 0 1 .972 0l2.063 2.062a.687.687 0 0 1-.973.972l-.936-.936a8.937 8.937 0 0 1-15.55 5.036.689.689 0 0 1 1.024-.917 7.563 7.563 0 0 0 13.126-4l-.816.817a.688.688 0 0 1-.973-.972zM12 9.208a2.98 2.98 0 1 1-.001 5.959A2.98 2.98 0 0 1 12 9.208m0 1.375a1.605 1.605 0 1 0 0 3.21 1.605 1.605 0 0 0 0-3.21M8.81 3.838a8.94 8.94 0 0 1 9.85 2.39.688.688 0 0 1-1.024.917A7.563 7.563 0 0 0 4.51 11.142l.816-.816a.688.688 0 0 1 .973.972l-2.027 2.027a.686.686 0 0 1-1.044 0L1.2 11.298a.687.687 0 1 1 .973-.972l.936.937a8.94 8.94 0 0 1 5.7-7.425"/></svg>