<svg xmlns="http://www.w3.org/2000/svg" fill="currentColor" viewBox="0 0 24 24"><path fill="currentColor" d="M18.614 12.025a1.39 1.39 0 0 1 1.215.986l.294.966a.163.163 0 0 0 .192.112l.982-.227h.003a1.4 1.4 0 0 1 1.514.664 1.39 1.39 0 0 1-.187 1.643l-.687.741a.166.166 0 0 0 0 .227l.687.74a1.393 1.393 0 0 1-1.327 2.308l-.003-.001-.98-.227a.164.164 0 0 0-.192.111l-.296.963v.002a1.388 1.388 0 0 1-2.658 0l-.295-.969a.163.163 0 0 0-.191-.111l-.982.227H15.7a1.396 1.396 0 0 1-1.691-1.516 1.4 1.4 0 0 1 .364-.79l.688-.741a.17.17 0 0 0 .044-.113.17.17 0 0 0-.045-.114l-.687-.741a1.394 1.394 0 0 1 .46-2.224c.273-.12.577-.148.867-.083h.003l.98.228a.164.164 0 0 0 .192-.111l.296-.97a1.39 1.39 0 0 1 1.332-.985zm-.114.995a.39.39 0 0 0-.371.275l-.295.969a1.164 1.164 0 0 1-1.374.797l-.982-.228a.394.394 0 0 0-.373.651l.689.74a1.17 1.17 0 0 1 0 1.59l-.689.74a.393.393 0 0 0 .373.651l.982-.226a1.165 1.165 0 0 1 1.374.795l.295.968v.002a.388.388 0 0 0 .742 0v-.002l.295-.964a1.164 1.164 0 0 1 1.374-.796l.98.227h.002l.061.009a.393.393 0 0 0 .312-.66l-.689-.74a1.167 1.167 0 0 1 0-1.59l.689-.74a.393.393 0 0 0-.373-.651h-.002l-.98.228a1.165 1.165 0 0 1-1.374-.796l-.295-.97v-.002a.39.39 0 0 0-.308-.272zM1.702 5c.388 0 .702.314.702.702V18.81a.702.702 0 0 1-1.404 0V5.702C1 5.314 1.314 5 1.702 5m9.929 6.697a.703.703 0 0 1 .87 1.103l-2.164 1.706h1.657s1.011 0 1.012.691c0 .684-.978.713-.998.713h-1.602l2.051 1.372a.703.703 0 0 1-.781 1.167l-3.853-2.58a.702.702 0 0 1-.044-1.135zm6.869 3.825a1.5 1.5 0 0 1 1.501 1.5 1.5 1.5 0 1 1-1.501-1.5m0 1a.5.5 0 1 0 0 .999.5.5 0 0 0 0-1M22.298 5c.388 0 .702.314.702.702v6.596a.702.702 0 0 1-1.404 0V5.702c0-.388.314-.702.702-.702m-7.77.93c2.728 0 4.619 2.127 4.866 4.239.001.013.09.835-.628.835-.686 0-.775-.822-.777-.835-.262-1.368-1.509-2.835-3.462-2.835H5.166a.702.702 0 0 1 0-1.404z"/></svg>