<svg xmlns="http://www.w3.org/2000/svg" width="24" height="24" fill="none" viewBox="0 0 24 24"><g clip-path="url(#a)"><path fill="currentColor" d="M12.005 2a9.98 9.98 0 0 0-7.067 2.938A9.98 9.98 0 0 0 2 12.005c0 2.755 1.037 5.184 2.929 7.066a9.92 9.92 0 0 0 7.067 2.938 9.97 9.97 0 0 0 7.066-2.928A9.94 9.94 0 0 0 22 12.005C22 6.484 17.507 2 11.996 2zm4.329 13.16a.824.824 0 0 1 0 1.174.826.826 0 0 1-1.173 0l-3.157-3.156-3.165 3.156a.826.826 0 0 1-1.173 0 .824.824 0 0 1 0-1.173l3.165-3.156-3.165-3.166a.823.823 0 0 1 0-1.173.823.823 0 0 1 1.173 0l3.165 3.165 3.157-3.165a.824.824 0 0 1 1.173 0 .824.824 0 0 1 0 1.173l-3.156 3.165z"/></g><defs><clipPath id="a"><path fill="currentColor" d="M0 0h24v24H0z"/></clipPath></defs></svg>