<svg xmlns="http://www.w3.org/2000/svg" width="24" height="24" fill="none" viewBox="0 0 24 24"><g clip-path="url(#a)"><path fill="currentColor" fill-rule="evenodd" d="M2 12c0 5.501 4.488 9.989 10 9.989V22c5.512 0 10-4.488 10-10S17.512 2 12 2 2 6.499 2 12m10 3c-.551 0-1-.436-1-.97V6.97c0-.534.449-.97 1-.97s1 .436 1 .97v7.06c0 .534-.449.97-1 .97m-.005 3c-.512 0-.995-.493-.995-1.005s.483-.995.995-.995 1.005.483 1.005.995S12.507 18 11.995 18" clip-rule="evenodd"/></g><defs><clipPath id="a"><path fill="currentColor" d="M0 0h24v24H0z"/></clipPath></defs></svg>