<svg xmlns="http://www.w3.org/2000/svg" width="24" height="24" fill="none" viewBox="0 0 24 24"><g clip-path="url(#a)"><path fill="currentColor" d="M8.051 23a7.1 7.1 0 0 1-4.986-2.017A6.76 6.76 0 0 1 1 16.113c0-1.839.733-3.568 2.065-4.87l7.926-7.742c1.934-1.958 5.149-2.007 7.163-.109a4.86 4.86 0 0 1 1.547 3.478 4.86 4.86 0 0 1-1.425 3.528c-.04.04-.08.09-.132.13L10.25 18.25a3.17 3.17 0 0 1-2.218.864 3.1 3.1 0 0 1-2.178-.924 2.965 2.965 0 0 1 0-4.204l7.937-7.752a1.143 1.143 0 0 1 1.587 0 1.08 1.08 0 0 1 0 1.55L7.45 15.528c-.306.308-.306.824.01 1.152a.87.87 0 0 0 1.21.02l7.906-7.732.082-.08a2.72 2.72 0 0 0 .793-1.967 2.7 2.7 0 0 0-.865-1.948 2.87 2.87 0 0 0-2.014-.775 2.84 2.84 0 0 0-1.994.845l-7.937 7.752a4.62 4.62 0 0 0-1.414 3.319c0 1.252.499 2.435 1.414 3.32a4.85 4.85 0 0 0 3.399 1.38 4.8 4.8 0 0 0 3.398-1.38l9.646-9.422a1.143 1.143 0 0 1 1.587 0 1.08 1.08 0 0 1 0 1.55l-9.646 9.422A7.1 7.1 0 0 1 8.041 23z"/></g><defs><clipPath id="a"><path fill="currentColor" d="M0 0h24v24H0z"/></clipPath></defs></svg>