<svg xmlns="http://www.w3.org/2000/svg" width="24" height="24" fill="none" viewBox="0 0 24 24"><g clip-path="url(#a)"><path fill="currentColor" d="M22.99 10.72v10.152c0 .85-.563 2.128-2.129 2.128H3.128C2.278 23 1 22.437 1 20.872V10.721zM16.778 1c.42 0 .768.348.768.768v1.964h3.326c.85 0 2.128.563 2.128 2.128v3.327H1V5.86c0-.86.563-2.128 2.139-2.128h3.325V1.768c0-.42.348-.768.767-.768S8 1.348 8 1.768v1.964h8.012V1.768c0-.42.348-.768.767-.768"/></g><defs><clipPath id="a"><path fill="currentColor" d="M0 0h24v24H0z"/></clipPath></defs></svg>