<svg xmlns="http://www.w3.org/2000/svg" width="24" height="24" fill="none" viewBox="0 0 24 24"><g clip-path="url(#a)"><path fill="currentColor" d="M6.72 11.702c3.16 0 5.72 2.528 5.72 5.649S9.88 23 6.72 23 1 20.471 1 17.35c0-3.12 2.56-5.648 5.72-5.648m14.61-9.056c.92.01 1.67.74 1.67 1.649v16.947c0 .909-.75 1.65-1.67 1.65H11.15c.52-.405.98-.88 1.36-1.412h8.82c.13 0 .24-.11.24-.238V4.295a.24.24 0 0 0-.24-.237h-.95V2.646zM9.69 15.148a.714.714 0 0 0-1 .14L5.93 18.93 4.5 17.519a.707.707 0 0 0-.97 0 .7.7 0 0 0-.04.998l1.43 1.412c.05.05.1.088.15.128.63.474 1.53.345 2-.277l2.76-3.644a.7.7 0 0 0-.14-.988m9.26 3.033c.39 0 .71.316.71.7 0 .386-.32.702-.71.702h-3.34a.71.71 0 0 1-.71-.701c0-.385.32-.701.71-.701zm0-3.3c.39.001.71.317.71.702s-.32.7-.71.701h-3.34a.71.71 0 0 1-.71-.701c0-.385.32-.701.71-.701zm0-3.297c.39 0 .71.316.71.701s-.32.701-.71.701h-5.24a.71.71 0 0 1-.709-.7c0-.386.32-.702.71-.702zM9.89 4.058h-.95c-.13 0-.24.109-.24.237v6.271a7 7 0 0 0-1.43-.256V4.295c0-.909.75-1.65 1.67-1.65h.95zm9.06 4.237c.39 0 .71.316.71.701s-.32.701-.71.701h-7.63a.71.71 0 0 1-.71-.7c0-.386.32-.702.71-.702zm-4.81-7.023a1.92 1.92 0 0 1 2.62.643c.17.306.48.493.83.493h.87c.26.01.48.218.48.475v1.886c0 .266-.22.474-.48.474h-6.67a.477.477 0 0 1-.48-.474V2.883c0-.267.22-.475.48-.475h.87c.35-.01.66-.197.83-.493.16-.257.38-.485.65-.643"/></g><defs><clipPath id="a"><path fill="currentColor" d="M0 0h24v24H0z"/></clipPath></defs></svg>