<svg xmlns="http://www.w3.org/2000/svg" width="24" height="24" fill="none" viewBox="0 0 24 24"><g clip-path="url(#a)"><path fill="currentColor" fill-rule="evenodd" d="M13.373 5.332H2.148c-.304 0-.596-.128-.811-.356A1.25 1.25 0 0 1 1 4.118c0-.322.12-.63.336-.858.215-.228.507-.355.81-.355h11.227a3.1 3.1 0 0 1 1.087-1.386A2.83 2.83 0 0 1 16.091 1c.579 0 1.145.18 1.628.52.483.338.861.82 1.087 1.385h3.047c.304 0 .596.127.811.355s.336.536.336.858-.12.63-.336.858a1.12 1.12 0 0 1-.81.356h-3.047a3.1 3.1 0 0 1-1.087 1.387c-.483.339-1.05.52-1.63.52s-1.147-.181-1.63-.52a3.1 3.1 0 0 1-1.087-1.387M23 11.999c0 .67-.514 1.213-1.147 1.213H10.63a3.1 3.1 0 0 1-1.086 1.389c-.484.34-1.051.52-1.631.52s-1.148-.18-1.631-.52a3.1 3.1 0 0 1-1.087-1.389H2.148c-.304 0-.596-.127-.811-.355A1.25 1.25 0 0 1 1 11.999c0-.322.12-.63.336-.858.215-.228.507-.356.81-.356h3.049A3.1 3.1 0 0 1 6.283 9.4a2.83 2.83 0 0 1 1.629-.52c.579 0 1.146.181 1.629.52s.86.82 1.086 1.385h11.226c.633 0 1.147.544 1.147 1.214m0 7.88c0 .67-.514 1.214-1.147 1.214h-3.046a3.1 3.1 0 0 1-1.087 1.387c-.483.34-1.05.52-1.63.52s-1.147-.18-1.63-.52a3.1 3.1 0 0 1-1.087-1.387H2.147c-.304 0-.596-.128-.811-.355A1.25 1.25 0 0 1 1 19.88c0-.322.12-.631.336-.859.215-.227.507-.355.81-.355h11.228a3.1 3.1 0 0 1 1.086-1.385 2.83 2.83 0 0 1 1.63-.52c.579 0 1.145.18 1.628.52.483.338.861.82 1.087 1.385h3.047c.633 0 1.147.544 1.147 1.213z" clip-rule="evenodd"/></g><defs><clipPath id="a"><path fill="currentColor" d="M0 0h24v24H0z"/></clipPath></defs></svg>