<svg xmlns="http://www.w3.org/2000/svg" width="24" height="24" fill="none" viewBox="0 0 24 24"><g clip-path="url(#a)"><path fill="currentColor" d="M7.212 15.919c.392 2.928 1.206 5.57 2.43 7.081-3.672-.823-6.652-3.531-7.94-7.081zm15.088 0c-1.29 3.55-4.27 6.258-7.94 7.081 1.223-1.512 2.045-4.153 2.428-7.081zm-6.923 0c-.589 4.162-2.036 6.965-3.372 6.966-1.336 0-2.784-2.804-3.372-6.966zM7.063 9.517a32 32 0 0 0-.103 2.488c0 .832.037 1.665.103 2.488H1.28A11.5 11.5 0 0 1 1 12.005c0-.861.103-1.685.28-2.488zm8.463 0c.075.794.113 1.627.113 2.488a30 30 0 0 1-.113 2.488H8.464a27 27 0 0 1-.111-2.488c0-.87.045-1.694.11-2.488zm7.194-.01c.177.804.28 1.627.28 2.488s-.103 1.685-.28 2.488h-5.782c.065-.832.102-1.655.102-2.488 0-.832-.037-1.665-.102-2.488zM9.65 1C8.427 2.512 7.605 5.153 7.222 8.081h-5.52C2.99 4.531 5.97 1.823 9.65 1m2.355.115c1.326 0 2.775 2.804 3.363 6.966H8.633c.588-4.162 2.045-6.966 3.372-6.966M14.359 1c3.671.823 6.651 3.531 7.95 7.081h-5.52c-.393-2.928-1.206-5.569-2.43-7.081"/></g><defs><clipPath id="a"><path fill="currentColor" d="M0 0h24v24H0z"/></clipPath></defs></svg>