<svg xmlns="http://www.w3.org/2000/svg" width="24" height="24" fill="none" viewBox="0 0 24 24"><g clip-path="url(#a)"><path fill="currentColor" d="M7.32 6.5c1.413 0 2.758.668 3.695 1.84.36.442.322 1.12-.078 1.518-.4.399-1.014.355-1.374-.086a2.91 2.91 0 0 0-2.244-1.12H5.983C4.306 8.652 2.95 10.16 2.95 12s1.366 3.348 3.033 3.348H7.32c.858 0 1.668-.41 2.244-1.12.36-.441.975-.485 1.374-.086.4.398.438 1.076.078 1.517-.937 1.162-2.282 1.83-3.696 1.841H5.993C3.233 17.5 1 15.035 1 12s2.233-5.5 4.983-5.5zm10.697 0C20.767 6.5 23 8.965 23 12s-2.233 5.5-4.983 5.5H16.68c-1.414 0-2.76-.678-3.697-1.84a1.154 1.154 0 0 1 .079-1.518c.4-.399 1.014-.355 1.374.085a2.91 2.91 0 0 0 2.244 1.12h1.336c1.677 0 3.033-1.506 3.033-3.347s-1.366-3.348-3.033-3.348H16.68c-.859 0-1.668.41-2.244 1.11-.36.44-.975.484-1.374.086a1.154 1.154 0 0 1-.079-1.518c.937-1.162 2.283-1.83 3.697-1.83zm-1.336 4.424c.536 0 .975.484.975 1.076s-.44 1.076-.975 1.076H7.319c-.536 0-.975-.484-.975-1.076s.439-1.076.975-1.076z"/></g><defs><clipPath id="a"><path fill="currentColor" d="M0 0h24v24H0z"/></clipPath></defs></svg>