<svg xmlns="http://www.w3.org/2000/svg" width="24" height="24" fill="none" viewBox="0 0 24 24"><g clip-path="url(#a)"><path fill="currentColor" d="M12 18.009c.501 0 .912.449.912.996v2.999c0 .547-.41.996-.912.996-.501 0-.912-.449-.912-.996v-3c0-.546.41-.995.912-.995m-3.41.777a.867.867 0 0 1 1.305 0 1.07 1.07 0 0 1 0 1.423L8.52 21.708a.856.856 0 0 1-1.294 0 1.056 1.056 0 0 1 0-1.412l1.374-1.5zm5.506.01a.867.867 0 0 1 1.303 0v.012l1.374 1.5a1.056 1.056 0 0 1 0 1.412.886.886 0 0 1-1.304 0l-1.373-1.5a1.07 1.07 0 0 1 0-1.423M9.253 6.506c.501 0 .912.449.912.996s-.41.996-.912.996H5.582v.023c-1.514 0-2.747 1.345-2.747 2.998v.996c0 1.652 1.233 2.998 2.747 2.999h3.67c.502 0 .913.449.913.996s-.41.996-.912.996H5.582C3.055 17.505 1 15.26 1 12.503v-.996c0-2.758 2.055-5.002 4.582-5.002zm9.164-.032c2.527 0 4.583 2.244 4.583 5.002v.996c0 2.758-2.056 5.002-4.583 5.002h-3.67c-.501 0-.912-.45-.912-.996 0-.547.411-.996.912-.997h3.67c1.514 0 2.748-1.346 2.748-2.999v-.996c0-1.652-1.234-2.998-2.748-2.998h-3.67c-.501 0-.912-.449-.912-.996s.41-.996.912-.996h3.67zM12 1c.501 0 .912.449.912.996v3c0 .546-.41.995-.912.995-.501 0-.912-.449-.912-.996V1.996c0-.547.41-.996.912-.996M7.227 2.291a.867.867 0 0 1 1.303 0l-.01.012 1.375 1.499c.36.394.36 1.018 0 1.412a.856.856 0 0 1-1.294 0l-1.374-1.5a1.07 1.07 0 0 1 0-1.423m8.243-.01a.867.867 0 0 1 1.303 0 1.07 1.07 0 0 1 0 1.422l-1.374 1.5a.9.9 0 0 1-.651.284v-.01a.9.9 0 0 1-.652-.285 1.056 1.056 0 0 1 0-1.412z"/></g><defs><clipPath id="a"><path fill="currentColor" d="M0 0h24v24H0z"/></clipPath></defs></svg>