<svg xmlns="http://www.w3.org/2000/svg" width="24" height="24" fill="none" viewBox="0 0 24 24"><g clip-path="url(#a)"><path fill="currentColor" d="M12.007 21q-.765 0-1.312-.546a1.8 1.8 0 0 1-.545-1.311q0-.766.545-1.312.546-.545 1.312-.545t1.312.545.545 1.312-.545 1.311-1.312.546m0-7.143q-.765 0-1.312-.545A1.8 1.8 0 0 1 10.15 12q0-.766.545-1.312.546-.545 1.312-.545t1.312.545.545 1.312-.545 1.312q-.546.545-1.312.545m0-7.143q-.765 0-1.312-.545a1.8 1.8 0 0 1-.545-1.312q0-.766.545-1.311Q11.241 3 12.007 3t1.312.546q.545.544.545 1.311 0 .765-.545 1.312-.546.545-1.312.545"/></g><defs><clipPath id="a"><path fill="currentColor" d="M0 0h24v24H0z"/></clipPath></defs></svg>