<svg xmlns="http://www.w3.org/2000/svg" width="24" height="24" fill="none" viewBox="0 0 24 24"><g fill="currentColor" clip-path="url(#a)"><path d="M14.505 11.312a.92.92 0 0 1-.647.267H7.457a.915.915 0 0 1-.647-1.56.92.92 0 0 1 .647-.267h6.401a.915.915 0 0 1 .647 1.56"/><path fill-rule="evenodd" d="m18.614 16.037 3.85 3.846a1.83 1.83 0 0 1 0 2.586 1.83 1.83 0 0 1-2.58 0l-3.859-3.855a9.647 9.647 0 0 1-12.83-1.87 9.62 9.62 0 0 1 .64-12.936 9.644 9.644 0 0 1 16.347 5.465 9.62 9.62 0 0 1-1.569 6.764M14.975 4.21a7.8 7.8 0 0 0-4.319-1.31 7.8 7.8 0 0 0-5.494 2.278 7.77 7.77 0 0 0-2.28 5.488 7.76 7.76 0 0 0 4.8 7.174 7.78 7.78 0 0 0 8.47-1.683 7.76 7.76 0 0 0 1.686-8.463 7.77 7.77 0 0 0-2.863-3.484" clip-rule="evenodd"/></g><defs><clipPath id="a"><path fill="currentColor" d="M0 0h24v24H0z"/></clipPath></defs></svg>