<svg xmlns="http://www.w3.org/2000/svg" fill="currentColor" viewBox="0 0 24 24"><path fill="currentColor" d="M20.822 1a2.16 2.16 0 0 1 2.167 2.166 2.16 2.16 0 0 1-3.297 1.845l-3.101 3.877c.18.316.284.683.284 1.075a2.167 2.167 0 0 1-4.333 0l.003-.078-2.447-1.086a2.16 2.16 0 0 1-2.796.176L2.61 11.789v6.373l2.475-1.241a2.16 2.16 0 0 1 2.158-2.337l.223.01a2.16 2.16 0 0 1 1.789 1.351h2.766a2.16 2.16 0 0 1 2.012-1.361c.52 0 .997.18 1.37.483l3.257-1.807a2.16 2.16 0 0 1 2.163-2.075l.222.011a2.16 2.16 0 0 1 1.944 2.155 2.163 2.163 0 0 1-3.778 1.443l-3.03 1.68q.017.135.018.275a2.16 2.16 0 0 1-2.166 2.166c-.908 0-1.69-.562-2.01-1.361H9.255a2.16 2.16 0 0 1-3.447.813L2.61 19.97v1.42h19.585c.44 0 .806.366.806.805s-.366.805-.806.805H1.805A.804.804 0 0 1 1 22.195V1.815c0-.44.366-.804.806-.804a.81.81 0 0 1 .804.804V9.91L6.46 7.6a2.16 2.16 0 0 1 2.135-2.526A2.16 2.16 0 0 1 10.76 7.24l-.005.092 2.436 1.081a2.19 2.19 0 0 1 2.146-.524l3.378-4.223A2.16 2.16 0 0 1 20.822 1M7.243 16.202a.56.56 0 0 0-.557.558q.002.094.03.18.019.027.034.056a1 1 0 0 1 .036.084c.1.144.266.237.457.237a.55.55 0 0 0 .55-.486 1 1 0 0 1 0-.15.55.55 0 0 0-.55-.479m6.79 0a.56.56 0 0 0-.557.558c0 .31.246.557.557.557s.558-.246.558-.557a.554.554 0 0 0-.558-.558m6.79-3.398a.56.56 0 0 0-.548.663l.01.033a.55.55 0 0 0 .538.419.554.554 0 0 0 .558-.558.554.554 0 0 0-.558-.557M14.71 9.405a.56.56 0 0 0-.456.239.8.8 0 0 1-.09.204.554.554 0 0 0 .547.673c.31 0 .556-.247.557-.558a.56.56 0 0 0-.162-.395q-.026-.015-.053-.034l-.054-.048a.56.56 0 0 0-.289-.08M8.595 6.693a.553.553 0 0 0-.519.763.8.8 0 0 1 .095.155.554.554 0 0 0 .981-.361.554.554 0 0 0-.557-.557M20.822 2.62a.56.56 0 0 0-.557.558c0 .31.246.556.557.556s.558-.246.558-.556a.554.554 0 0 0-.558-.558"/></svg>