<svg xmlns="http://www.w3.org/2000/svg" fill="currentColor" viewBox="0 0 24 24"><path fill="currentColor" d="M12.688 2c.38 0 .687.31.687.694a.69.69 0 0 1-.687.695h-.368c-1.588 0-2.96 1.146-3.265 2.768l-.002.008-.647 3.242h1.807l.138.015c.313.064.55.344.55.68a.69.69 0 0 1-.688.694H8.129l-1.458 7.31C6.242 20.368 4.314 22 2.054 22h-.366A.69.69 0 0 1 1 21.306a.69.69 0 0 1 .688-.695h.366c1.589 0 2.96-1.146 3.266-2.77l.002-.006 1.405-7.04H4.529a.69.69 0 0 1-.687-.693c0-.384.308-.695.687-.695h2.475l.7-3.513C8.133 3.63 10.061 2 12.32 2zm-.12 8.63a.68.68 0 0 1 .972 0 .7.7 0 0 1 0 .981c-.834.843-1.448 2.487-1.448 4.602s.614 3.76 1.448 4.601a.7.7 0 0 1 0 .983.68.68 0 0 1-.972 0c-1.182-1.195-1.851-3.255-1.851-5.584 0-2.33.669-4.389 1.851-5.583m7.609 0a.68.68 0 0 1 .971 0C22.331 11.825 23 13.884 23 16.213s-.669 4.39-1.852 5.584a.68.68 0 0 1-.971 0 .7.7 0 0 1 0-.983c.834-.842 1.448-2.486 1.448-4.601s-.614-3.76-1.448-4.602a.7.7 0 0 1 0-.981m-1.842 1.701a.683.683 0 0 1 .945-.229.7.7 0 0 1 .227.956l-1.888 3.108 1.888 3.11a.7.7 0 0 1-.227.954.684.684 0 0 1-.945-.228l-1.523-2.508-1.522 2.508a.684.684 0 0 1-.945.229.7.7 0 0 1-.227-.956l1.888-3.109-1.888-3.108a.7.7 0 0 1 .227-.956.683.683 0 0 1 .945.23l1.523 2.506z"/></svg>