<svg xmlns="http://www.w3.org/2000/svg" fill="currentColor" viewBox="0 0 24 24"><path fill="currentColor" d="M13.38 8.3c.784.01 1.406.623 1.416 1.406v11.808h1.256v-7.24c0-.793.622-1.405 1.405-1.416h2.762a1.42 1.42 0 0 1 1.415 1.407v7.249h.623a.74.74 0 0 1 .743.743.74.74 0 0 1-.743.743H1.743A.74.74 0 0 1 1 22.257a.74.74 0 0 1 .743-.743h.622v-4.498a1.43 1.43 0 0 1 1.416-1.426h2.762c.783.01 1.405.633 1.405 1.416v4.508h1.255V9.716A1.42 1.42 0 0 1 10.62 8.3zM3.843 21.514h2.63v-4.449H3.792zm6.848 0h2.62V9.775H10.63zm6.828 0h2.63v-7.179h-2.681zM9.264 1c1.104 0 2.018.854 2.098 1.948l7.853 2.32a2.1 2.1 0 0 1 1.677-.844c1.164 0 2.108.954 2.108 2.108s-.994 2.11-2.108 2.11a2.107 2.107 0 0 1-2.099-1.958l-7.843-2.31a2.1 2.1 0 0 1-1.686.843c-.241 0-.472-.04-.683-.11L4.937 9.574A2.109 2.109 0 1 1 3.109 8.52c.23 0 .461.041.672.122l3.665-4.479a2 2 0 0 1-.29-1.055A2.106 2.106 0 0 1 9.263 1m-6.156 9.007a.62.62 0 0 0-.622.622.628.628 0 1 0 1.255 0 .65.65 0 0 0-.18-.441c-.02-.01-.031-.04-.051-.04a.63.63 0 0 0-.402-.141M20.892 5.9a.62.62 0 0 0-.593.412c0 .01-.01.03-.01.04-.01.02-.01.04-.02.05-.01.04-.01.09-.01.13a.628.628 0 0 0 1.255 0 .627.627 0 0 0-.622-.632M9.264 2.486a.625.625 0 0 0-.622.622c0 .171.07.332.18.453l.04.04h.01c.11.09.241.14.392.14a.63.63 0 0 0 .592-.422c0-.01.01-.03.01-.04s.02-.04.02-.04h.01v-.13a.634.634 0 0 0-.632-.623"/></svg>