<svg xmlns="http://www.w3.org/2000/svg" fill="currentColor" viewBox="0 0 24 24"><path fill="currentColor" d="M19.268 2.001c.352 0 .701.065 1.029.191.328.127.629.314.885.553.255.24.462.527.603.846S22 4.254 22 4.603v.617a.751.751 0 0 1-1.5 0v-.618a1 1 0 0 0-.086-.404 1.1 1.1 0 0 0-.256-.356 1.3 1.3 0 0 0-.401-.25 1.4 1.4 0 0 0-.488-.091H12.75V20.5h3.215a.751.751 0 0 1 0 1.5H12.02l-.02.001-.02-.001H8.037a.75.75 0 0 1 0-1.5h3.214V3.501H4.732c-.168 0-.334.031-.488.09-.153.06-.29.146-.402.25a1.1 1.1 0 0 0-.256.357 1 1 0 0 0-.086.404v.616a.75.75 0 0 1-1.5 0v-.615c0-.349.074-.693.215-1.012s.348-.607.603-.846c.256-.239.557-.426.884-.553a2.9 2.9 0 0 1 1.03-.191z"/></svg>