<svg xmlns="http://www.w3.org/2000/svg" fill="currentColor" viewBox="0 0 24 24"><path fill="currentColor" d="M14.982 1.06a2.485 2.485 0 0 1 3.022 2.543v.002l-.067 1.285a1.11 1.11 0 0 0 1.05 1.164h.112l1.283-.067a2.487 2.487 0 0 1 2.554 3.024 2.5 2.5 0 0 1-.756 1.298l-.956.863a1.1 1.1 0 0 0-.365.765 1.1 1.1 0 0 0 .285.8l.076.076.004.003.955.863a2.486 2.486 0 0 1-1.788 4.326l-1.285-.066a1.11 1.11 0 0 0-1.163 1.037v.146l.065 1.266a2.483 2.483 0 0 1-4.325 1.793l-.862-.956a1.11 1.11 0 0 0-1.65.005l-.862.95-.001.002a2.486 2.486 0 0 1-4.325-1.793l.066-1.282a1.113 1.113 0 0 0-1.04-1.164h-.146l-1.273.066a2.484 2.484 0 0 1-1.776-4.317l.003-.002.956-.862a1.11 1.11 0 0 0-.005-1.65l-.95-.86a2.49 2.49 0 0 1-.63-2.792 2.485 2.485 0 0 1 2.416-1.532h.002l1.285.067a1.11 1.11 0 0 0 1.165-1.052v-.121L5.993 3.6a2.484 2.484 0 0 1 4.31-1.786l.003.001.87.954a1.11 1.11 0 0 0 1.566.08l.001-.001q.041-.037.078-.077l.001-.001.862-.956.003-.002a2.5 2.5 0 0 1 1.295-.752m.3 1.342a1.1 1.1 0 0 0-.578.334v.001l-.86.952a2.44 2.44 0 0 1-1.012.677 2.49 2.49 0 0 1-2.503-.502l-.174-.174-.864-.945a1.11 1.11 0 0 0-1.751.153 1.1 1.1 0 0 0-.173.642l.062 1.278q.008.132 0 .262A2.486 2.486 0 0 1 4.82 7.435l-1.282-.067a1.11 1.11 0 0 0-1.078.684 1.11 1.11 0 0 0 .28 1.246l.956.865.174.174a2.485 2.485 0 0 1-.175 3.512l-.953.859v.002a1.11 1.11 0 0 0 .79 1.925l1.279-.066h.253a2.487 2.487 0 0 1 2.359 2.359v.248l-.067 1.283a1.11 1.11 0 0 0 1.931.8l.001-.001.874-.963.171-.17a2.484 2.484 0 0 1 3.509.179l.862.955a1.11 1.11 0 0 0 1.93-.8l-.066-1.284v-.254a2.486 2.486 0 0 1 2.609-2.355l1.283.065a1.11 1.11 0 0 0 .798-1.93l-.952-.86-.185-.184a2.484 2.484 0 0 1 .18-3.507l.956-.86a1.11 1.11 0 0 0-.155-1.76 1.1 1.1 0 0 0-.477-.165l-.17-.005-1.281.067h-.26a2.486 2.486 0 0 1-2.35-2.609l.066-1.282a1.11 1.11 0 0 0-1.349-1.134M9.6 6.004a6.54 6.54 0 0 1 7.12 1.416 6.54 6.54 0 0 1 1.766 3.24l.022.106a6.532 6.532 0 0 1-6.407 7.807A6.535 6.535 0 0 1 6.669 8.41 6.53 6.53 0 0 1 9.6 6.004m1.812.924a5.16 5.16 0 0 0-4.47 5.112 5.159 5.159 0 0 0 8.756 3.696l-4.02-3.152-.266-.55zm2.255 5.467 2.88 2.258a5.17 5.17 0 0 0 .692-3.056zm-.879-1.213 4.151-.927a5.16 5.16 0 0 0-4.15-3.327z"/></svg>