<svg xmlns="http://www.w3.org/2000/svg" fill="currentColor" viewBox="0 0 24 24"><path fill="currentColor" d="M6.44 13.155c1.587 0 2.874 1.24 2.874 2.77 0 1.1-.676 2.096-1.722 2.537l-3.233 1.362a1.37 1.37 0 0 0-.854 1.259v.468h5.057l.152.014c.342.068.6.36.6.71a.74.74 0 0 1-.752.725h-5.81A.74.74 0 0 1 2 22.275v-1.192c0-1.122.69-2.137 1.756-2.587l3.233-1.362c.499-.21.82-.685.82-1.21 0-.682-.538-1.244-1.229-1.312l-.14-.007H4.93c-.619 0-1.148.382-1.344.916a.76.76 0 0 1-.96.442l-.041-.015a.717.717 0 0 1-.418-.91c.402-1.095 1.486-1.883 2.764-1.883zm12.448 0c1.518 0 2.748 1.186 2.749 2.649 0 .7-.283 1.338-.744 1.812A2.78 2.78 0 0 1 22 19.827v.35C22 21.736 20.688 23 19.07 23h-1.453c-1.277 0-2.363-.787-2.765-1.883a.72.72 0 0 1 .46-.925.76.76 0 0 1 .96.443c.196.534.725.916 1.345.916h1.452c.788 0 1.426-.616 1.426-1.374v-.35c0-.711-.561-1.297-1.28-1.367l-.146-.007h-.726a.74.74 0 0 1-.752-.726c0-.4.336-.724.752-.724h.545c.687 0 1.244-.537 1.244-1.2 0-.62-.49-1.13-1.117-1.192l-.127-.006h-1.09a1.24 1.24 0 0 0-1.197.872.757.757 0 0 1-.93.5.72.72 0 0 1-.519-.895c.327-1.111 1.387-1.927 2.646-1.927zM12.81 1.015c.342.067.6.36.6.71v7.67h2.15l.152.014c.343.068.6.36.6.71 0 .4-.336.725-.752.725H9.752c-.416 0-.753-.325-.753-.725s.338-.724.753-.724h2.154V4.192a3 3 0 0 1-1.425.356h-.727A.74.74 0 0 1 9 3.823c0-.4.337-.724.752-.724h.726c.787 0 1.425-.614 1.426-1.371v-.003c0-.4.338-.725.753-.725z"/></svg>