<svg xmlns="http://www.w3.org/2000/svg" width="24" height="24" fill="none" viewBox="0 0 24 24"><g clip-path="url(#a)"><path fill="currentColor" fill-rule="evenodd" d="M6.21 1c-.51 0-.92.41-.92.92s.41.92.92.92h11.48c.51 0 .92-.41.92-.92S18.2 1 17.69 1zM2.67 4.89c0-.51.41-.92.92-.92h16.73c.51 0 .92.41.92.92s-.41.92-.92.92H3.59c-.51 0-.92-.41-.92-.92m1.77 2.19C2.52 7.08 1 8.53 1 10.45v9.18C1 21.55 2.52 23 4.44 23h15.12c1.83 0 3.44-1.54 3.44-3.37v-9.18c0-1.92-1.52-3.37-3.44-3.37zm7.51 7.53c1.4 0 2.53-1.13 2.53-2.53s-1.13-2.53-2.53-2.53c-1.4.03-2.51 1.18-2.48 2.58a2.526 2.526 0 0 0 2.48 2.48m-4.36 5.26c-.03.25.18.46.44.46h7.85c.25 0 .46-.21.44-.46a4.357 4.357 0 0 0-4.36-3.92c-2.25 0-4.13 1.69-4.36 3.92z" clip-rule="evenodd"/></g><defs><clipPath id="a"><path fill="currentColor" d="M0 0h24v24H0z"/></clipPath></defs></svg>