<svg xmlns="http://www.w3.org/2000/svg" width="24" height="24" fill="none" viewBox="0 0 24 24"><g clip-path="url(#a)"><path fill="currentColor" fill-rule="evenodd" d="M19.091 1.582a.71.71 0 0 0-.84-.568.72.72 0 0 0-.563.568c-.334 1.722-1.68 3.088-3.332 3.425a.72.72 0 0 0-.563.847c.057.289.277.51.563.568 1.652.336 2.988 1.693 3.332 3.425a.715.715 0 0 0 1.403 0c.334-1.722 1.68-3.089 3.332-3.425a.72.72 0 0 0 .563-.847.72.72 0 0 0-.563-.568c-1.652-.337-2.988-1.693-3.332-3.425m-6.339 2.482a2.425 2.425 0 0 0 .105 3.397c.325.308.726.52 1.165.606.974.192 1.814 1.02 2.014 2.098.258 1.299 1.508 2.155 2.797 1.895a2.34 2.34 0 0 0 1.318-.76v5.12a2.397 2.397 0 0 1-2.387 2.405h-6.702a.5.5 0 0 0-.353.154l-3.227 3.55c-.888.972-2.491.337-2.491-.972v-2.723H3.387A2.397 2.397 0 0 1 1 16.43V6.48a2.397 2.397 0 0 1 2.387-2.405h9.346z" clip-rule="evenodd"/></g><defs><clipPath id="a"><path fill="currentColor" d="M0 0h24v24H0z"/></clipPath></defs></svg>