<svg xmlns="http://www.w3.org/2000/svg" fill="currentColor" viewBox="0 0 24 24"><path fill="currentColor" d="M12.752 4.064a2.425 2.425 0 0 0 .105 3.397c.325.308.726.52 1.165.606.973.193 1.814 1.02 2.014 2.098.258 1.299 1.508 2.155 2.797 1.895a2.34 2.34 0 0 0 1.317-.76v5.119a2.4 2.4 0 0 1-2.386 2.406h-6.701a.5.5 0 0 0-.354.153L7.482 22.53c-.887.972-2.492.337-2.492-.972v-2.723H3.387A2.397 2.397 0 0 1 1 16.429v-9.95a2.397 2.397 0 0 1 2.387-2.405h9.346zm5.499-3.05a.71.71 0 0 1 .84.568c.343 1.732 1.68 3.088 3.332 3.425.286.057.506.28.563.568a.72.72 0 0 1-.563.847c-1.652.337-2.998 1.703-3.332 3.425a.72.72 0 0 1-.563.568.716.716 0 0 1-.84-.568c-.344-1.732-1.68-3.089-3.332-3.425a.721.721 0 0 1 0-1.415c1.651-.337 2.997-1.703 3.332-3.425a.72.72 0 0 1 .563-.569"/></svg>