<svg xmlns="http://www.w3.org/2000/svg" fill="currentColor" viewBox="0 0 24 24"><path fill="currentColor" d="M21.11 5.702c1.04 0 1.89.826 1.89 1.86V21.21c0 .984-.82 1.789-1.84 1.789H8.103c-.92 0-1.682-.656-1.822-1.51 0-.02 0-.04-.01-.06h1.57l12.306-.05c.53 0 .961-.428.961-.954zm-3.012-2.405c1.05 0 1.9.825 1.9 1.858v13.66c0 .974-.83 1.78-1.85 1.78H5.092c-1.01 0-1.841-.806-1.841-1.78V8.058c.23.119.49.178.75.178.38 0 .75-.13 1.05-.368.3-.248.501-.586.571-.954.13-.636.62-1.143 1.24-1.272a1.65 1.65 0 0 0 1.331-1.61c0-.26-.06-.508-.19-.736zM7.303 14.908c-.42 0-.75.318-.75.736 0 .397.33.735.75.735h4.351a.74.74 0 0 0 .751-.735.74.74 0 0 0-.75-.736zm0-3.172c-.42 0-.75.32-.75.737s.33.735.75.735h8.714c.4 0 .74-.318.74-.735a.75.75 0 0 0-.74-.737zm0-3.17c-.42 0-.75.317-.75.735 0 .417.33.736.75.736h8.714c.4 0 .74-.319.74-.736a.75.75 0 0 0-.74-.736zM4 1c.11 0 .21.04.3.11.08.069.14.159.16.268.221 1.113 1.09 1.988 2.161 2.197.11.02.21.08.27.17.07.079.11.178.11.287a.475.475 0 0 1-.38.458c-1.07.208-1.94 1.083-2.16 2.197A.47.47 0 0 1 4 7.064a.47.47 0 0 1-.46-.378c-.22-1.113-1.09-1.988-2.17-2.197a.5.5 0 0 1-.271-.159.53.53 0 0 1-.1-.298c0-.11.04-.21.1-.299a.5.5 0 0 1 .27-.158c1.08-.209 1.95-1.084 2.171-2.197A.47.47 0 0 1 4.001 1"/></svg>