<svg xmlns="http://www.w3.org/2000/svg" width="24" height="24" fill="none" viewBox="0 0 24 24"><g fill="currentColor" clip-path="url(#a)"><path d="M18 13c.434 0 .81.277.947.68l.526 1.578a1.97 1.97 0 0 0 1.266 1.267l1.576.53A1 1 0 0 1 23 18a.99.99 0 0 1-.685.944l-1.576.53a2.02 2.02 0 0 0-1.266 1.268l-.526 1.578a.999.999 0 0 1-1.894 0l-.526-1.578a1.97 1.97 0 0 0-1.266-1.267l-1.576-.53A1 1 0 0 1 13 18c0-.426.274-.817.685-.944l1.576-.53a2.02 2.02 0 0 0 1.266-1.268l.526-1.578A1 1 0 0 1 18 13M10 1c.403 0 .758.271.868.653l.979 3.415a4.51 4.51 0 0 0 3.093 3.095l3.412.974A.895.895 0 0 1 19 10a.91.91 0 0 1-.648.863l-3.412.974a4.53 4.53 0 0 0-3.093 3.095l-.979 3.415A.91.91 0 0 1 10 19a.91.91 0 0 1-.868-.653l-.979-3.415a4.51 4.51 0 0 0-3.093-3.095l-3.412-.974A.895.895 0 0 1 1 10a.91.91 0 0 1 .648-.863l3.412-.974a4.53 4.53 0 0 0 3.093-3.095l.979-3.415A.91.91 0 0 1 10 1"/></g><defs><clipPath id="a"><path fill="currentColor" d="M0 0h24v24H0z"/></clipPath></defs></svg>