<svg xmlns="http://www.w3.org/2000/svg" fill="currentColor" viewBox="0 0 24 24"><path fill="currentColor" d="M12.005 3c.474 0 .848.377.848.844v3.772H17.6c1.867 0 5.4.874 5.401 4.21v4.954c0 .04-.06 4.22-5.401 4.22H6.412C4.534 21 1 20.116 1 16.78v-4.954c0-.045.065-4.21 5.412-4.21h4.735V3.844A.85.85 0 0 1 12.005 3M8.29 12.66a.99.99 0 0 0-1.01.993v1.32c0 .557.455.994 1.01.994a1 1 0 0 0 1.009-.993v-1.32a.99.99 0 0 0-1.009-.994m7.42 0a1 1 0 0 0-1.009.993v1.32c0 .556.444.994 1.009.994a.99.99 0 0 0 1.01-.993v-1.32a1 1 0 0 0-1.01-.994"/></svg>