<svg xmlns="http://www.w3.org/2000/svg" fill="currentColor" viewBox="0 0 24 24"><path fill="currentColor" d="M10.987 9.16c.41-.432 1.091-.422 1.511 0s.42 1.123 0 1.556l-9.672 9.96a1.04 1.04 0 0 1-1.51 0 1.12 1.12 0 0 1 0-1.555zM18.8 2.002c.14.01.29.083.39.185.1.103.17.248.19.402a.73.73 0 0 1-.1.432c-.82 1.308-.79 3.08.11 4.409.08.123.12.278.11.432a.7.7 0 0 1-.18.412.62.62 0 0 1-.81.093c-1.32-.875-3.031-.854-4.281.031a.67.67 0 0 1-.42.114.66.66 0 0 1-.4-.186.66.66 0 0 1-.191-.401.66.66 0 0 1 .1-.433c.82-1.308.79-3.08-.11-4.41a.72.72 0 0 1-.11-.432.7.7 0 0 1 .18-.41.624.624 0 0 1 .811-.094h.01c1.32.875 3.03.855 4.281-.03a.67.67 0 0 1 .42-.114m3.94 2.039c.06.01.11.031.15.072s.07.093.07.154c0 .062-.01.114-.04.165-.31.495-.3 1.164.04 1.659.03.051.04.103.04.165a.3.3 0 0 1-.07.154.2.2 0 0 1-.15.072.3.3 0 0 1-.16-.04c-.5-.33-1.14-.32-1.61.01a.3.3 0 0 1-.16.041.26.26 0 0 1-.15-.072.22.22 0 0 1-.07-.155c0-.061.01-.113.04-.165.31-.494.3-1.163-.04-1.658a.3.3 0 0 1-.04-.165.3.3 0 0 1 .07-.154.2.2 0 0 1 .15-.072c.057 0 .152.037.16.04.5.33 1.14.32 1.61-.01.05-.03.1-.041.16-.041m-11.003.402c.04 0 .071.01.101.041.03.03.05.062.05.103.01.04 0 .082-.02.113-.2.33-.2.773.03 1.103.03.04.03.072.03.113 0 .04-.01.072-.04.102-.03.031-.061.052-.1.052a.2.2 0 0 1-.11-.03.93.93 0 0 0-1.07 0c-.04.03-.071.03-.11.03s-.07-.01-.1-.04c-.03-.031-.05-.063-.05-.103a.15.15 0 0 1 .02-.114c.2-.33.2-.773-.03-1.102-.03-.041-.03-.072-.03-.113s.01-.073.04-.104c.03-.03.06-.05.1-.05a.4.4 0 0 1 .11.03h.01c.33.226.76.226 1.07 0 .03-.03.06-.03.1-.03"/></svg>