<svg xmlns="http://www.w3.org/2000/svg" fill="currentColor" viewBox="0 0 24 24"><path fill="currentColor" d="M20.67 2.57A2.34 2.34 0 0 1 23 4.915v15.75A2.325 2.325 0 0 1 20.67 23H5.06a2.33 2.33 0 0 1-2.33-2.335V7.964c.08.14.2.272.33.383.31.261.72.402 1.11.402s.79-.14 1.1-.402.53-.624.61-1.017c.13-.684.66-1.227 1.31-1.358.39-.08.74-.293 1-.615.19-.22.31-.482.36-.774.07-.14.1-.302.1-.453 0-.11 0-.202-.04-.282-.03-.141-.1-.282-.19-.403-.01-.01-.02-.03-.04-.04-.05-.11-.11-.2-.18-.281a1.73 1.73 0 0 0-.8-.554zM7.34 15.693c-.15 0-.21.05-.21.202v2.384c0 .161.06.212.21.212h.84c.16 0 .21-.05.21-.212v-2.384c0-.151-.05-.202-.21-.202zm5.07-3.471c-.1 0-.16.01-.21.02v6.219q.06.03.21.03h.84c.1 0 .208-.03.21-.03v-6.22a1 1 0 0 0-.21-.02zm5.05-5.002c-.05.02-.2.272-.2.795v9.691c0 .513.15.765.2.785h.85c.06-.02.21-.272.21-.785V8.015c0-.524-.15-.775-.21-.795zM4.17 1a.49.49 0 0 1 .48.402C4.89 2.59 5.8 3.516 6.94 3.758c.11.02.21.08.29.17.07.081.11.192.11.312 0 .11-.04.222-.11.322a.5.5 0 0 1-.29.162c-1.13.241-2.05 1.167-2.29 2.354a.52.52 0 0 1-.17.292.47.47 0 0 1-.31.111c-.12 0-.22-.04-.32-.11a.57.57 0 0 1-.17-.293 2.97 2.97 0 0 0-2.29-2.354.6.6 0 0 1-.29-.162.5.5 0 0 1-.1-.322c0-.12.03-.22.1-.321.08-.08.17-.141.29-.161a3 3 0 0 0 2.29-2.356.7.7 0 0 1 .17-.292c.09-.07.2-.11.32-.11"/></svg>