<svg xmlns="http://www.w3.org/2000/svg" fill="currentColor" viewBox="0 0 24 24"><path fill="currentColor" d="M19.14 13.123c.13 0 .24.04.34.12.02 0 .03.02.05.03.11.09.18.212.21.342.28 1.447 1.4 2.582 2.79 2.864a.59.59 0 0 1 .469.588c0 .138-.04.277-.129.386-.08.11-.21.18-.34.211-1.39.281-2.51 1.417-2.79 2.854a.59.59 0 0 1-.6.482c-.13 0-.27-.04-.38-.13a.6.6 0 0 1-.21-.352 3.67 3.67 0 0 0-.87-1.739c-.17-.19-.36-.37-.57-.511a3.3 3.3 0 0 0-.85-.453c-.16-.06-.33-.12-.51-.15a.6.6 0 0 1-.47-.603c0-.131.04-.272.13-.382s.21-.181.34-.211c.94-.191 1.76-.774 2.29-1.588.24-.382.42-.814.51-1.276a.62.62 0 0 1 .59-.482M10.24 4c.4 0 .72.322.72.724v3.224h3.98l-.01.011c1.57 0 4.54.763 4.54 3.616v.051c-.12-.04-.22-.04-.34-.04-.13 0-.25 0-.38.04-.25.04-.5.14-.72.272-.09.04-.17.11-.25.17-.39.322-.65.753-.74 1.245-.16.814-.82 1.498-1.59 1.649-.47.1-.92.361-1.23.743s-.48.864-.48 1.356c0 .322.08.633.21.915a1.9 1.9 0 0 0 .54.723c.28.241.61.403.96.473.18.04.34.09.49.17-.31.04-.64.07-1.01.07H5.54c-1.57 0-4.54-.753-4.54-3.606v-4.24c0-.05.056-3.618 4.54-3.618h3.98V4.724A.72.72 0 0 1 10.24 4M23 17.071l-.001-.005.001-.005zM7.12 12.22c-.5 0-.9.412-.9.904v1.135a.899.899 0 1 0 1.8 0v-1.135c0-.502-.4-.904-.9-.904m6.24 0c-.5 0-.9.412-.9.904v1.135a.899.899 0 1 0 1.8 0v-1.135c0-.502-.4-.904-.9-.904"/></svg>