<svg xmlns="http://www.w3.org/2000/svg" fill="currentColor" viewBox="0 0 24 24"><path fill="currentColor" d="M15.9 9.85c2.952 0 5.345 2.494 5.345 5.57S18.842 21 15.9 21s-5.344-2.504-5.344-5.58c0-.229.01-.468.05-.696a5.64 5.64 0 0 1 1.994-3.668 5.18 5.18 0 0 1 3.3-1.205m-1.446 6.869a.476.476 0 0 0-.697-.01c-.2.197-.2.519-.01.727.438.477 1.296 1.029 2.333 1.029.708 0 1.495-.25 2.303-.967.2-.187.23-.52.05-.728a.487.487 0 0 0-.698-.061c-1.735 1.548-3.121.176-3.28.01M6.847 4c3.12 0 5.664 2.546 5.813 5.757a6 6 0 0 0-.48.322c-.637.488-1.145 1.133-1.554 1.83a8.4 8.4 0 0 0-.818 1.765c-.04.135-.08.28-.1.416a3 3 0 0 0-.07.385c-.02.083-.03.176-.03.26-.03.228-.04.456-.04.685v.042a5.6 5.6 0 0 1-3.848.592c-2.483-.5-4.418-2.702-4.687-5.31C.664 7.087 3.417 4 6.847 4m7.119 9.145c-.499 0-.907.426-.907.956s.408.955.907.956c.498 0 .907-.427.907-.956 0-.53-.409-.957-.907-.957m3.988 0c-.498 0-.907.426-.907.956s.409.955.907.956c.508 0 .918-.427.918-.956 0-.53-.42-.957-.918-.957m-8.814-1.03c-.738-.79-2.643-1.828-4.626-.052a.53.53 0 0 0-.06.728.48.48 0 0 0 .697.052c1.734-1.537 3.12-.168 3.28 0a.477.477 0 0 0 .699.01v-.01c.2-.198.199-.52.01-.728M20.507 4.57c.09 0 .18.03.249.093.06.062.11.146.13.24.18.966.907 1.734 1.804 1.921.08.02.16.073.22.146a.4.4 0 0 1 .09.26.4.4 0 0 1-.09.26.37.37 0 0 1-.22.145c-.897.187-1.625.956-1.804 1.923a.38.38 0 0 1-.13.239.37.37 0 0 1-.25.093.37.37 0 0 1-.248-.093.5.5 0 0 1-.13-.24c-.18-.966-.907-1.735-1.805-1.922a.41.41 0 0 1-.32-.405.41.41 0 0 1 .32-.406c.898-.187 1.625-.955 1.805-1.922a.38.38 0 0 1 .13-.239.37.37 0 0 1 .249-.093M4.922 7.668c-.499 0-.907.427-.907.946 0 .135.03.27.07.384.1.218.27.395.478.5.11.04.23.071.359.071.498 0 .907-.435.907-.955s-.409-.946-.907-.946m3.999 0c-.499 0-.908.416-.908.946s.41.955.908.955.907-.436.907-.955c0-.52-.409-.946-.907-.946"/></svg>