<svg xmlns="http://www.w3.org/2000/svg" width="24" height="24" fill="none" viewBox="0 0 24 24"><g fill="currentColor" fill-rule="evenodd" clip-path="url(#a)" clip-rule="evenodd"><path d="M17.992 13c.44 0 .81.28.95.68l.53 1.58c.2.6.67 1.07 1.27 1.27l1.578.53c.41.13.68.52.68.94s-.27.81-.68.94l-1.579.53c-.6.2-1.06.67-1.27 1.27l-.53 1.58a1.003 1.003 0 0 1-1.898 0l-.53-1.58c-.2-.6-.67-1.07-1.27-1.27l-1.579-.53a.99.99 0 0 1-.68-.94c0-.42.27-.81.68-.94l1.58-.53a2.03 2.03 0 0 0 1.269-1.27l.53-1.58c.14-.4.52-.68.95-.68m-.05 2.73a3.53 3.53 0 0 1-2.218 2.22l-.15.05.16.05a3.48 3.48 0 0 1 2.218 2.23l.05.14.05-.15a3.53 3.53 0 0 1 2.22-2.22l.149-.05-.16-.05a3.48 3.48 0 0 1-2.219-2.23l-.05-.14zM9.996 1c.41 0 .76.27.87.65l.979 3.42a4.49 4.49 0 0 0 3.089 3.09l3.408.97c.39.11.65.47.65.86s-.27.75-.65.86l-3.408.97c-1.49.43-2.66 1.6-3.09 3.09l-.979 3.42c-.11.38-.46.65-.869.65-.41 0-.76-.27-.87-.65l-.98-3.42a4.49 4.49 0 0 0-3.087-3.09l-3.41-.97A.9.9 0 0 1 1 9.99c0-.39.27-.75.65-.86l3.409-.97a4.53 4.53 0 0 0 3.087-3.09l.98-3.42c.11-.38.47-.65.87-.65m-.4 4.48A6.07 6.07 0 0 1 5.478 9.6l-1.39.4 1.38.39a5.97 5.97 0 0 1 4.118 4.12l.4 1.41.4-1.41a6.07 6.07 0 0 1 4.118-4.12l1.39-.4-1.38-.39a5.97 5.97 0 0 1-4.118-4.12l-.4-1.41z"/></g><defs><clipPath id="a"><path fill="currentColor" d="M0 0h24v24H0z"/></clipPath></defs></svg>