<svg width="24" height="24" viewBox="0 0 24 24" fill="none" xmlns="http://www.w3.org/2000/svg">
<g clip-path="url(#clip0_1_3252)">
<path d="M2.48047 3.21977C2.77061 2.92188 3.25098 2.93165 3.54102 3.21977L8.67285 8.34867L9.52344 9.20316L13.5547 13.2383L14.6055 14.2823L16.5967 16.2705H16.5859L19.8477 19.5303C20.1478 19.8185 20.1377 20.2958 19.8477 20.584C19.6976 20.7331 19.5074 20.8028 19.3174 20.8028C19.1273 20.8028 18.9372 20.7331 18.7871 20.584L14.6055 16.3995V20.2754C14.6055 20.5438 14.4652 20.7829 14.2451 20.9121C14.1352 20.9717 14.0252 21.001 13.9053 21.001C13.7752 21.001 13.6452 20.9612 13.5352 20.8916L8.10254 17.3838H6.06152C3.82066 17.3837 2 15.4451 2 13.0498C2.00006 10.6546 3.8207 8.71696 6.06152 8.71684H6.92188L2.48047 4.27348C2.18038 3.98523 2.19036 3.50799 2.48047 3.21977Z" fill="#1D1B20"/>
<path d="M18.8271 7.35453C19.1073 7.07634 19.5473 7.08687 19.8174 7.37504C22.6285 10.3966 22.7192 15.237 20.1182 18.3877L19.0977 17.3633C21.1783 14.7692 21.0985 10.8428 18.8076 8.37797C18.5376 8.08972 18.5471 7.6328 18.8271 7.35453Z" fill="#1D1B20"/>
<path d="M16.6865 9.66019C16.9666 9.38225 17.4067 9.39262 17.6768 9.6807C19.3174 11.4598 19.3773 14.2827 17.8867 16.1612L16.8867 15.1573C17.8671 13.8353 17.8065 11.9071 16.666 10.6846C16.396 10.3964 16.4064 9.93847 16.6865 9.66019Z" fill="#1D1B20"/>
<path d="M13.5449 5.20805C13.7649 5.06902 14.0349 5.05862 14.2549 5.18754C14.475 5.31674 14.6152 5.56586 14.6152 5.82426V12.8711L13.2148 11.4795H13.2246L10.5732 8.82523L9.5332 7.79203L13.5449 5.20805Z" fill="#1D1B20"/>
</g>
<defs>
<clipPath id="clip0_1_3252">
<rect width="24" height="24" fill="white"/>
</clipPath>
</defs>
</svg>
