<svg xmlns="http://www.w3.org/2000/svg" width="24" height="24" fill="none" viewBox="0 0 24 24"><g fill="currentColor" clip-path="url(#a)"><path d="M2.48 3.22a.75.75 0 0 1 1.061 0l5.132 5.129.85.854 4.032 4.035 1.05 1.044 1.992 1.988h-.011l3.262 3.26c.3.288.29.766 0 1.054a.75.75 0 0 1-.53.219c-.19 0-.38-.07-.53-.219L14.604 16.4v3.875c0 .269-.14.508-.36.637a.7.7 0 0 1-.71-.02l-5.432-3.508h-2.04C3.82 17.384 2 15.445 2 13.05s1.82-4.333 4.062-4.333h.86L2.48 4.273a.74.74 0 0 1 0-1.053m16.347 4.135a.684.684 0 0 1 .99.02c2.811 3.022 2.902 7.862.301 11.013l-1.02-1.025c2.08-2.594 2-6.52-.29-8.985a.74.74 0 0 1 .02-1.023"/><path d="M16.687 9.66a.684.684 0 0 1 .99.02c1.64 1.78 1.7 4.603.21 6.481l-1-1.004c.98-1.322.92-3.25-.221-4.472a.74.74 0 0 1 .02-1.025m-3.141-4.452c.22-.139.49-.15.71-.02.22.129.36.378.36.636v7.047l-1.4-1.392h.01l-2.652-2.654-1.04-1.033z"/></g><defs><clipPath id="a"><path fill="currentColor" d="M0 0h24v24H0z"/></clipPath></defs></svg>