<svg xmlns="http://www.w3.org/2000/svg" fill="currentColor" viewBox="0 0 24 24"><path fill="currentColor" d="M2.48 3.22a.75.75 0 0 1 1.061 0l5.132 5.129.85.854 4.032 4.035 1.05 1.044 1.992 1.988h-.011l3.262 3.26c.3.288.29.766 0 1.054a.75.75 0 0 1-.53.219c-.19 0-.38-.07-.53-.22L14.604 16.4v3.876c0 .269-.14.508-.36.637a.7.7 0 0 1-.34.089c-.13 0-.26-.04-.37-.11l-5.432-3.507h-2.04C3.82 17.384 2 15.445 2 13.05s1.82-4.333 4.062-4.333h.86L2.48 4.273a.74.74 0 0 1 0-1.053m16.347 4.134a.684.684 0 0 1 .99.02c2.811 3.022 2.902 7.863.301 11.014l-1.02-1.025c2.08-2.594 2-6.52-.29-8.985a.74.74 0 0 1 .02-1.024m-2.14 2.306a.684.684 0 0 1 .99.02c1.64 1.78 1.7 4.603.21 6.481l-1-1.004c.98-1.322.92-3.25-.221-4.472a.74.74 0 0 1 .02-1.025m-3.142-4.452c.22-.14.49-.15.71-.02.22.129.36.378.36.636v7.047l-1.4-1.392h.01l-2.652-2.654-1.04-1.033z"/></svg>