<svg xmlns="http://www.w3.org/2000/svg" width="24" height="24" fill="none" viewBox="0 0 24 24"><g clip-path="url(#a)"><path fill="currentColor" d="M22.929 14.056a4.02 4.02 0 0 0-1.756-2.557 4.24 4.24 0 0 0-2.264-.682C18.389 7.557 15.512 5.06 12 5c-2.576.03-4.913 1.424-6.107 3.59a5.36 5.36 0 0 0-3.418 1.565c-.976.982-1.506 2.276-1.475 3.64C.991 16.403 2.996 18.64 5.676 19H18.68c.218 0 1.963-.04 3.179-1.193.758-.723 1.142-1.705 1.142-2.889 0-.29-.02-.581-.072-.872z"/></g><defs><clipPath id="a"><path fill="currentColor" d="M0 0h24v24H0z"/></clipPath></defs></svg>