<svg xmlns="http://www.w3.org/2000/svg" fill="currentColor" viewBox="0 0 24 24"><path fill="currentColor" d="M22.565 16.425a.54.54 0 0 1 .435.523v1.782c0 1.802-1.497 3.27-3.335 3.27H4.335C2.497 22 1 20.532 1 18.73v-1.761c0-.294.246-.534.545-.534h1.443c.3 0 .545.24.545.534v1.436c0 .807.269 1.195 1.743 1.195h13.448c1.485 0 1.743-.388 1.743-1.195v-1.447c0-.293.246-.534.545-.534h1.443v-.01zM12.177 3.316c.878.08 1.565.75 1.575 1.565v5.673c.01.073.086.125.16.146h2.267c.331 0 .63.19.759.493a.8.8 0 0 1-.182.881l-4.18 4.098a.8.8 0 0 1-.577.241.85.85 0 0 1-.577-.241v-.01l-4.18-4.098a.8.8 0 0 1-.181-.881.83.83 0 0 1 .758-.493h2.267c.075-.02.15-.074.16-.147v-5.63c0-.881.78-1.604 1.753-1.604z"/></svg>