<svg xmlns="http://www.w3.org/2000/svg" width="24" height="24" fill="none" viewBox="0 0 24 24"><g fill="currentColor" clip-path="url(#a)"><path d="M22.455 16.413c.3 0 .545.241.545.535v1.781c0 1.803-1.496 3.27-3.335 3.27H4.335C2.496 22 1 20.533 1 18.73v-1.76c0-.294.246-.535.545-.535h1.443c.3 0 .545.24.545.534v1.437c0 .807.268 1.194 1.743 1.194h13.448c1.485 0 1.743-.387 1.743-1.194v-1.447c0-.294.246-.535.545-.535h1.443zM12 3.308c.962 0 1.742.702 1.753 1.572v5.673c.01.073.085.126.16.147h2.267c.331 0 .63.189.759.493a.8.8 0 0 1-.182.88l-4.18 4.098a.8.8 0 0 1-.577.242.84.84 0 0 1-.577-.242v-.01l-4.18-4.098a.8.8 0 0 1-.181-.88.83.83 0 0 1 .758-.493h2.267c.075-.021.15-.074.16-.147V4.912c0-.88.78-1.604 1.753-1.604"/></g><defs><clipPath id="a"><path fill="currentColor" d="M0 0h24v24H0z"/></clipPath></defs></svg>