<svg width="24" height="24" viewBox="0 0 24 24" fill="none" xmlns="http://www.w3.org/2000/svg">
<g clip-path="url(#clip0_1_3300)">
<path d="M21.3506 10.2439C21.8895 10.2439 22.3856 10.5205 22.6982 10.9695V10.9812C22.9892 11.4072 23.0757 11.96 22.9248 12.4666L20.4346 20.8025C20.2298 21.5163 19.5941 21.9996 18.8613 21.9998H2.9834C2.44445 21.9998 1.94833 21.7233 1.63574 21.2742C1.34506 20.8484 1.25855 20.2961 1.40918 19.7898L3.89941 11.4412C4.11509 10.7275 4.74078 10.2439 5.47363 10.2439H21.3506Z" fill="#1D1B20"/>
<path d="M6.83105 2.01151C7.53169 2.01151 8.20071 2.36883 8.62109 2.96756L10.0977 5.07401H18.0635L18.293 5.0867C19.4243 5.20934 20.3057 6.22826 20.3057 7.46951V8.81619H4.84766C3.9963 8.81638 3.25283 9.33513 2.9834 10.118L1 16.3006V4.39529C1 3.07117 2.0026 1.99999 3.24219 2.01151H6.83105Z" fill="#1D1B20"/>
</g>
<defs>
<clipPath id="clip0_1_3300">
<rect width="24" height="24" fill="white"/>
</clipPath>
</defs>
</svg>
