<svg xmlns="http://www.w3.org/2000/svg" fill="currentColor" viewBox="0 0 24 24"><path fill="currentColor" d="M12.339 5.125a.917.917 0 0 1 0 1.833H2.833v14.209h14.209v-9.516a.916.916 0 0 1 .916-.916l.09.004a.917.917 0 0 1 .827.912v9.625A1.724 1.724 0 0 1 17.151 23H2.714A1.723 1.723 0 0 1 1 21.276V6.84a1.714 1.714 0 0 1 1.714-1.714zM22.313 1a.697.697 0 0 1 .687.688V8.9a.68.68 0 0 1-.941.636.7.7 0 0 1-.223-.15L18.82 6.419l-8.69 8.552a.917.917 0 0 1-1.292-.018.92.92 0 0 1 0-1.293L17.5 5.134l-3.007-2.961a.68.68 0 0 1-.146-.742A.68.68 0 0 1 14.98 1z"/></svg>