<svg xmlns="http://www.w3.org/2000/svg" fill="currentColor" viewBox="0 0 24 24"><path fill="currentColor" d="M22.565 16.425a.54.54 0 0 1 .435.523v1.782c0 1.802-1.497 3.27-3.335 3.27H4.335C2.497 22 1 20.532 1 18.73v-1.761c0-.294.246-.534.545-.534h1.443c.3 0 .545.24.545.534v1.436c0 .807.269 1.195 1.743 1.195h13.448c1.485 0 1.743-.388 1.743-1.195v-1.447c0-.293.246-.534.545-.534h1.443v-.01zM12 3.309c.214 0 .428.094.577.24v.012l4.18 4.098a.8.8 0 0 1 .181.88.83.83 0 0 1-.758.493h-2.267c-.075.021-.15.074-.16.147v5.63c0 .88-.78 1.604-1.753 1.604-.962 0-1.742-.702-1.753-1.572V9.168c-.008-.055-.052-.098-.105-.125l-.055-.022H7.82a.82.82 0 0 1-.758-.493.8.8 0 0 1 .181-.88l4.18-4.098A.8.8 0 0 1 12 3.309"/></svg>