<svg xmlns="http://www.w3.org/2000/svg" width="24" height="24" fill="none" viewBox="0 0 24 24"><g clip-path="url(#a)"><path fill="currentColor" d="m20.252 5.2-3.36-3.435A2.5 2.5 0 0 0 15.084 1H5.568C4.148 1 3 2.175 3 3.627v16.746C3 21.825 4.149 23 5.568 23h12.864C19.852 23 21 21.825 21 20.373V7.063a2.66 2.66 0 0 0-.748-1.851zm-4.389 10.973a.9.9 0 0 1-.075.377.956.956 0 0 1-1.268.532l-3.306-2.295a.9.9 0 0 0-.379-.077H9.101a.98.98 0 0 1-.964-.987v-1.972c0-.543.433-.987.964-.987h1.734c.13 0 .26-.022.38-.077l3.294-2.295a.9.9 0 0 1 .379-.077c.531 0 .964.443.964.986v6.883z"/></g><defs><clipPath id="a"><path fill="currentColor" d="M0 0h24v24H0z"/></clipPath></defs></svg>