<svg xmlns="http://www.w3.org/2000/svg" fill="currentColor" viewBox="0 0 24 24"><path fill="currentColor" d="M15.083 1c.683 0 1.322.266 1.81.765L20.252 5.2v.012c.477.488.748 1.163.748 1.85v13.311C21 21.825 19.851 23 18.432 23H5.568C4.148 23 3 21.825 3 20.373V3.627C3 2.175 4.149 1 5.568 1zm-.195 7.314c-.13 0-.26.023-.38.079l-3.294 2.294a.9.9 0 0 1-.379.078H9.102a.98.98 0 0 0-.965.986v1.973c0 .543.434.986.965.986h1.733a.9.9 0 0 1 .379.077l3.306 2.295a.956.956 0 0 0 1.267-.532.9.9 0 0 0 .076-.377l-.01.01V9.302a.98.98 0 0 0-.965-.987"/></svg>