<svg xmlns="http://www.w3.org/2000/svg" fill="currentColor" viewBox="0 0 24 24"><path fill="currentColor" d="M7.535 13.084c.33 0 .648.15.844.43l1.41 2.14c.52.732.334 1.621.149 2.502l-.057.276L8.687 23h-4.26C3.08 23 2 21.94 2 20.611a7.97 7.97 0 0 1 2.634-5.927c.37-.33.771-.64 1.193-.89.309-.19.854-.44 1.307-.63a1 1 0 0 1 .401-.08m8.93.001c.134 0 .268.03.401.08.453.189.998.439 1.307.629.422.25.823.56 1.193.89C20.981 16.163 22 18.262 22 20.61c0 1.321-1.09 2.39-2.428 2.39h-4.26l-1.193-4.568-.059-.295c-.176-.869-.356-1.757.152-2.484l1.41-2.138c.194-.28.514-.43.843-.43m-3.827.15v.09l1.42 7.456c.072.3-.062.61-.34.82l-1.358.989a.63.63 0 0 1-.35.11.63.63 0 0 1-.35-.11l-1.357-.98c-.288-.21-.412-.519-.34-.829l1.4-7.447.02-.09-.154-.57v-.009h1.553zm-5.291 1.49c-.41.179-.594.289-.676.338-.34.2-.658.44-.987.74a6.43 6.43 0 0 0-2.141 4.818c0 .5.391.89.885.89h3.055l.885-3.408.052-.25c.113-.54.236-1.15.093-1.36zm8.172 1.728c-.175.25-.052.85.061 1.39l.052.249.885 3.409h3.055a.88.88 0 0 0 .885-.89 6.46 6.46 0 0 0-2.15-4.828 6 6 0 0 0-.947-.71c-.092-.07-.288-.17-.7-.36zm-4.136 4.198.617.33.638-.33L12 15.757zM12 1c3.056 0 5.535 2.41 5.535 5.378s-2.48 5.377-5.535 5.377-5.535-2.409-5.535-5.377S8.945 1 12 1m0 1.499c-2.202 0-3.992 1.74-3.992 3.879s1.79 3.878 3.992 3.878 3.991-1.74 3.991-3.878S14.201 2.499 12 2.499"/></svg>