<svg xmlns="http://www.w3.org/2000/svg" width="24" height="24" fill="none" viewBox="0 0 24 24"><g fill="currentColor" clip-path="url(#a)"><path fill-rule="evenodd" d="M11.955 9.25c1.72 0 3.121 1.39 3.121 3.11a3.1 3.1 0 0 1-1.464 2.631c1.86.677 3.195 2.458 3.195 4.54 0 .41-.34.75-.75.75H7.853c-.41 0-.75-.34-.75-.75 0-2.081 1.334-3.863 3.194-4.54a3.1 3.1 0 0 1-1.463-2.63c0-1.72 1.4-3.111 3.121-3.111m0 6.95c-1.62 0-2.931 1.09-3.271 2.58h6.543c-.33-1.5-1.651-2.58-3.272-2.58m0-5.45c-.89 0-1.621.72-1.621 1.61s.73 1.61 1.621 1.61c.89 0 1.62-.72 1.62-1.61s-.73-1.61-1.62-1.61" clip-rule="evenodd"/><path fill-rule="evenodd" d="M19.519 6.54c1.95 0 3.48 1.52 3.481 3.47v9.52c0 1.88-1.59 3.47-3.481 3.47H4.48C2.53 23 1 21.47.999 19.53v-9.52c0-1.95 1.53-3.47 3.481-3.47zM4.48 8.03c-1.13 0-1.98.85-1.98 1.97v9.52c0 1.12.85 1.97 1.98 1.97h15.04c1.04 0 1.98-.94 1.98-1.97V10c0-1.12-.85-1.97-1.98-1.97z" clip-rule="evenodd"/><path d="M19.509 3.72c.41 0 .75.34.75.75s-.34.75-.75.75H4.382c-.41 0-.75-.34-.75-.75s.34-.75.75-.75zM17.237 1c.41 0 .75.34.75.75s-.34.75-.75.75H6.662c-.41 0-.75-.34-.75-.75s.34-.75.75-.75z"/></g><defs><clipPath id="a"><path fill="currentColor" d="M0 0h24v24H0z"/></clipPath></defs></svg>