<svg xmlns="http://www.w3.org/2000/svg" fill="currentColor" viewBox="0 0 24 24"><path fill="currentColor" d="M19.519 6.54c1.95 0 3.48 1.52 3.481 3.47v9.52c0 1.88-1.59 3.47-3.481 3.47H4.48C2.53 23 1 21.47.999 19.53v-9.52c0-1.95 1.53-3.47 3.481-3.47zM4.48 8.03c-1.13 0-1.98.85-1.98 1.97v9.52c0 1.12.85 1.97 1.98 1.97h15.04c1.04 0 1.98-.94 1.98-1.97V10c0-1.05-.747-1.863-1.772-1.96l-.208-.01zm7.474 1.22c1.72 0 3.121 1.39 3.121 3.11 0 1.11-.584 2.083-1.46 2.633 1.858.678 3.19 2.458 3.19 4.537 0 .41-.34.75-.75.75H7.854c-.41 0-.75-.34-.75-.75 0-2.079 1.332-3.859 3.19-4.537a3.1 3.1 0 0 1-1.459-2.633c0-1.72 1.4-3.11 3.121-3.11m0 6.95c-1.62 0-2.931 1.09-3.271 2.58h6.543c-.33-1.5-1.651-2.58-3.272-2.58m0-5.45c-.89 0-1.621.72-1.621 1.61s.73 1.61 1.621 1.61c.89 0 1.62-.72 1.62-1.61s-.73-1.61-1.62-1.61m7.554-7.03c.41 0 .75.34.75.75s-.34.75-.75.75H4.382c-.41 0-.75-.34-.75-.75s.34-.75.75-.75zM17.237 1c.41 0 .75.34.75.75s-.34.75-.75.75H6.662c-.41 0-.75-.34-.75-.75s.34-.75.75-.75z"/></svg>