<svg xmlns="http://www.w3.org/2000/svg" fill="currentColor" viewBox="0 0 24 24"><path fill="currentColor" d="M14.174 2c1.163.058 2.038.983 1.988 2.082v3.942a.733.733 0 0 1-.745.723.734.734 0 0 1-.746-.723V4.043a.58.58 0 0 0-.425-.589l-.111-.017H2.99a.557.557 0 0 0-.497.568v15.933a.58.58 0 0 0 .537.607h11.144a.55.55 0 0 0 .497-.57v-4.01c0-.394.329-.722.746-.722l.077.004a.73.73 0 0 1 .668.719v3.972c.05 1.06-.825 1.994-1.948 2.043H2.99V22c-1.163-.058-2.038-.993-1.988-2.082V4.043C.952 2.993 1.827 2.058 2.95 2zm-3.38 6.179a.767.767 0 0 1 1.054 0 .71.71 0 0 1 0 1.021L9.7 11.282h12.556l.15.015a.736.736 0 0 1 .596.708c0 .395-.339.722-.746.722H9.7l2.148 2.083a.71.71 0 0 1 0 1.021.75.75 0 0 1-.528.212.75.75 0 0 1-.526-.212l-3.42-3.315a.6.6 0 0 1-.16-.232.67.67 0 0 1 0-.558.8.8 0 0 1 .16-.232z"/></svg>