<svg xmlns="http://www.w3.org/2000/svg" width="24" height="24" fill="none" viewBox="0 0 24 24"><g fill="currentColor" clip-path="url(#a)"><path d="M14.174 2c1.163.058 2.038.983 1.988 2.082v3.942a.733.733 0 0 1-.745.723.734.734 0 0 1-.746-.723V4.043a.577.577 0 0 0-.536-.606H2.99a.557.557 0 0 0-.497.568v15.933a.58.58 0 0 0 .537.607h11.144a.55.55 0 0 0 .497-.57v-4.01c0-.394.329-.722.746-.722s.745.328.745.723v3.972c.05 1.06-.825 1.994-1.948 2.043H2.99V22c-1.163-.058-2.038-.993-1.988-2.082V4.043C.952 2.993 1.827 2.058 2.95 2z"/><path d="M10.794 8.179a.767.767 0 0 1 1.054 0 .71.71 0 0 1 0 1.021L9.7 11.282h12.556c.407 0 .746.328.746.723s-.338.722-.746.722H9.7l2.148 2.083a.71.71 0 0 1 0 1.021.75.75 0 0 1-.528.212.75.75 0 0 1-.526-.212l-3.42-3.315a.6.6 0 0 1-.16-.232.67.67 0 0 1 0-.558.8.8 0 0 1 .16-.232z"/></g><defs><clipPath id="a"><path fill="currentColor" d="M0 0h24v24H0z"/></clipPath></defs></svg>