<svg xmlns="http://www.w3.org/2000/svg" fill="currentColor" viewBox="0 0 24 24"><path fill="currentColor" d="M12.236 8.691c2.372.122 4.244 2.103 4.244 4.512 0 2.19-1.546 4.024-3.607 4.433a7.04 7.04 0 0 1 5.509 4.05.75.75 0 0 1-1.363.628c-1.3-2.811-4.596-4.011-7.354-2.704v.001a5.57 5.57 0 0 0-2.673 2.703.751.751 0 0 1-1.362-.628 7.07 7.07 0 0 1 3.392-3.431 7 7 0 0 1 2.115-.62c-2.06-.408-3.607-2.243-3.607-4.432 0-2.487 1.996-4.517 4.476-4.517zm-.23 1.494c-1.636 0-2.976 1.343-2.976 3.018s1.34 3.018 2.976 3.018 2.974-1.343 2.974-3.018-1.34-3.017-2.974-3.017m-8.752.066a2.08 2.08 0 0 1 1.783 1.345h1.375l.077.004a.75.75 0 0 1-.077 1.496H5.036a2.08 2.08 0 0 1-1.95 1.35c-1.166 0-2.085-.958-2.085-2.1a2.09 2.09 0 0 1 2.086-2.102zm17.661-.007a2.09 2.09 0 0 1 2.086 2.102 2.09 2.09 0 0 1-2.086 2.1c-.842 0-1.555-.5-1.887-1.207l-.061-.143H17.58a.75.75 0 0 1 0-1.5h1.385a2.08 2.08 0 0 1 1.95-1.352m-17.828 1.5a.59.59 0 0 0-.586.602c0 .336.27.6.586.6a.59.59 0 0 0 .581-.518 1 1 0 0 1 0-.165.59.59 0 0 0-.581-.519m17.828 0a.59.59 0 0 0-.586.6v.004a.596.596 0 0 0 .586.598.59.59 0 0 0 .586-.6.59.59 0 0 0-.586-.602M5.745 3.942a2.09 2.09 0 0 1 2.086 2.101c0 .308-.066.602-.185.866l1.14 1.152a.75.75 0 0 1-1.068 1.054L6.583 7.968a2.1 2.1 0 0 1-.838.177c-1.167 0-2.086-.96-2.086-2.102 0-1.156.923-2.1 2.086-2.1m12.501 0c1.167 0 2.086.959 2.086 2.101a2.09 2.09 0 0 1-2.086 2.102c-.302 0-.588-.065-.845-.18l-1.137 1.15a.75.75 0 0 1-1.067-1.054l1.146-1.16a2.1 2.1 0 0 1-.183-.858c0-1.156.923-2.1 2.086-2.1m-6.25-2.692a2.09 2.09 0 0 1 2.086 2.102c0 .891-.55 1.658-1.336 1.961v1.638a.75.75 0 0 1-1.5 0v-1.64A2.11 2.11 0 0 1 9.91 3.351a2.09 2.09 0 0 1 2.086-2.102m-6.25 4.192a.59.59 0 0 0-.587.601c0 .337.27.601.586.602a.58.58 0 0 0 .37-.136 1 1 0 0 1 .075-.076.6.6 0 0 0 .141-.39.59.59 0 0 0-.586-.6m12.5 0a.59.59 0 0 0-.586.601c0 .337.27.601.586.602a.59.59 0 0 0 .586-.602c0-.337-.27-.6-.586-.6m-6.25-2.692a.59.59 0 0 0-.586.602c0 .336.27.6.586.6a.59.59 0 0 0 .586-.6.59.59 0 0 0-.586-.602"/></svg>