<svg xmlns="http://www.w3.org/2000/svg" fill="currentColor" viewBox="0 0 24 24"><path fill="currentColor" d="M8.315 13.3c.274 0 .537.07.769.191a6.2 6.2 0 0 0 2.927.723 6.26 6.26 0 0 0 2.926-.723c.242-.13.505-.19.768-.19l.204.014q.101.012.196.036c3.38.943 5.895 3.836 5.895 7.39C22 21.986 20.958 23 19.663 23H4.337C3.042 23 2 21.986 2 20.741c0-3.544 2.505-6.527 5.905-7.39.127-.03.264-.05.4-.05zm7.337 1.497c-1.094.612-2.357.923-3.652.923a8 8 0 0 1-3.266-.704l-.428-.21c-2.79.714-4.727 3.144-4.727 5.935 0 .412.337.753.758.753h15.326a.756.756 0 0 0 .758-.753c0-2.665-1.798-5.002-4.504-5.866zM12.01 1c3.2 0 5.79 2.47 5.79 5.522s-2.59 5.523-5.79 5.523-5.79-2.47-5.79-5.523S8.81 1 12.01 1m-.02 4.91c-.169 0-.337.03-.348.09a9 9 0 0 1-.316.813s-.158.483-.537.664c-.379.18-.726.21-1.295.21-.56 0-1.06-.117-1.073-.12-.004-.002-.411-.134-.568-.794L7.8 6.558c.02 2.202 1.896 3.98 4.21 3.981 2.326 0 4.21-1.797 4.21-4.017l-.001-.13a19 19 0 0 0-.093.391c-.155.68-.554.78-.568.783 0 0-.506.122-1.075.122-.568 0-.916-.03-1.295-.211s-.536-.664-.536-.664A9 9 0 0 1 12.336 6c-.012-.06-.179-.09-.347-.09m.02-3.404c-1.756 0-3.27 1.034-3.899 2.5.289-.019.606-.03.94-.03.874 0 1.864.08 2.664.292h.6c.81-.211 1.79-.291 2.674-.291l-.032.01c.342 0 .666.013.96.034-.623-1.474-2.137-2.515-3.907-2.515"/></svg>