<svg xmlns="http://www.w3.org/2000/svg" fill="currentColor" viewBox="0 0 24 24"><path fill="currentColor" d="M10.278 18.856a5.3 5.3 0 0 1 4.057.233 5.25 5.25 0 0 1 2.698 3.042.66.66 0 0 1-.08.596.65.65 0 0 1-.534.273H7.63a.65.65 0 0 1-.533-.273.66.66 0 0 1-.081-.596 5.26 5.26 0 0 1 3.261-3.275m5.084 2.83a3.996 3.996 0 0 0-4.66-1.596 4 4 0 0 0-2.034 1.596zM4.41 13.046c.362 0 .654.293.654.657v2.536a1.42 1.42 0 0 0 1.42 1.425h.694c.362 0 .654.293.654.657a.655.655 0 0 1-.654.657h-.695a2.74 2.74 0 0 1-2.727-2.739v-2.536c0-.364.292-.657.654-.657m15.21 0c.363 0 .654.293.654.657v2.536a2.74 2.74 0 0 1-2.727 2.74h-.695a.655.655 0 0 1-.655-.658c0-.363.292-.657.655-.657h.695a1.42 1.42 0 0 0 1.419-1.425v-2.536c0-.364.292-.657.654-.657m-7.6-.768a2.93 2.93 0 0 1 2.93 2.94 2.93 2.93 0 0 1-2.93 2.941 2.94 2.94 0 0 1-2.93-2.94 2.93 2.93 0 0 1 2.93-2.94m0 1.324c-.895 0-1.62.727-1.62 1.627a1.614 1.614 0 1 0 3.232 0 1.62 1.62 0 0 0-1.611-1.627M4.3 7.579a5.3 5.3 0 0 1 4.056.233 5.25 5.25 0 0 1 2.699 3.04.66.66 0 0 1-.08.597.65.65 0 0 1-.534.273H1.65a.65.65 0 0 1-.533-.273.66.66 0 0 1-.08-.597 5.26 5.26 0 0 1 3.26-3.273m11.909 0a5.3 5.3 0 0 1 4.057.233 5.25 5.25 0 0 1 2.698 3.04.66.66 0 0 1-.081.597.65.65 0 0 1-.533.273H13.56a.65.65 0 0 1-.535-.273.66.66 0 0 1-.08-.597 5.26 5.26 0 0 1 3.262-3.273M7.782 8.983a3.95 3.95 0 0 0-3.05-.171 4 4 0 0 0-2.027 1.586h6.688a4 4 0 0 0-1.61-1.415m13.52 1.415a4 4 0 0 0-4.661-1.596 4 4 0 0 0-2.034 1.596zM6.04 1.01a2.94 2.94 0 0 1 2.93 2.94 2.93 2.93 0 0 1-2.93 2.942v-.01A2.94 2.94 0 0 1 3.11 3.94a2.93 2.93 0 0 1 2.93-2.93M17.949 1c1.62 0 2.93 1.313 2.93 2.94a2.93 2.93 0 0 1-2.93 2.942 2.94 2.94 0 0 1-2.93-2.942c0-1.627 1.31-2.94 2.93-2.94M6.041 2.323c-.896 0-1.62.728-1.621 1.627 0 .9.725 1.628 1.621 1.628s1.61-.729 1.61-1.628-.724-1.626-1.61-1.627m11.908 0c-.896 0-1.62.728-1.62 1.627 0 .9.724 1.628 1.62 1.628S19.57 4.85 19.57 3.95s-.725-1.627-1.62-1.627"/></svg>