<svg xmlns="http://www.w3.org/2000/svg" width="24" height="24" fill="none" viewBox="0 0 24 24"><g fill="currentColor" clip-path="url(#a)"><path d="M15.47 7.839a.84.84 0 0 1 1.16-.224.84.84 0 0 1 .223 1.16l-4.859 7.23c-.2.302-.512.48-.857.514h-.09a1.14 1.14 0 0 1-.835-.369l-2.964-3.22a.82.82 0 0 1 .044-1.181.84.84 0 0 1 1.182.045l2.496 2.719 4.478-6.663z"/><path fill-rule="evenodd" d="M12.006 2C17.51 2 22.01 6.49 22.01 12.006c0 5.515-4.49 10.005-10.005 10.005S2 17.52 2 12.006 6.49 2 12.006 2m0 1.67c-4.602 0-8.335 3.723-8.335 8.324 0 4.602 3.744 8.335 8.335 8.335v.01a8.336 8.336 0 0 0 0-16.668" clip-rule="evenodd"/></g><defs><clipPath id="a"><path fill="currentColor" d="M0 0h24v24H0z"/></clipPath></defs></svg>