<svg xmlns="http://www.w3.org/2000/svg" width="24" height="24" fill="none" viewBox="0 0 24 24"><g fill="currentColor" clip-path="url(#a)"><path d="M12 16.477c.612 0 1.102.49 1.102 1.102s-.49 1.103-1.102 1.103c-.601 0-1.102-.49-1.102-1.103 0-.612.49-1.102 1.102-1.102m0-11.181a3.488 3.488 0 0 1 .835 6.871v1.882a.84.84 0 0 1-.835.835.84.84 0 0 1-.835-.835v-2.617c0-.457.379-.835.835-.835 1.125 0 1.815-.947 1.815-1.816 0-1.124-.947-1.814-1.815-1.814-1.124 0-1.815.946-1.815 1.814a.84.84 0 0 1-.835.836.84.84 0 0 1-.835-.836A3.484 3.484 0 0 1 12 5.296"/><path fill-rule="evenodd" d="M12 2c5.501 0 10 4.488 10 10s-4.488 10-10 10S2 17.512 2 12 6.488 2 12 2m0 1.67c-4.6 0-8.33 3.72-8.33 8.32 0 4.598 3.742 8.328 8.33 8.328v.012a8.33 8.33 0 0 0 0-16.66" clip-rule="evenodd"/></g><defs><clipPath id="a"><path fill="currentColor" d="M0 0h24v24H0z"/></clipPath></defs></svg>