<svg xmlns="http://www.w3.org/2000/svg" width="24" height="24" fill="none" viewBox="0 0 24 24"><g fill="currentColor" clip-path="url(#a)"><path d="M11.995 16c.512 0 1.005.483 1.005.995S12.507 18 11.995 18 11 17.507 11 16.995s.483-.995.995-.995M12 6c.551 0 1 .436 1 .97v7.06c0 .534-.449.97-1 .97s-1-.436-1-.97V6.97c0-.534.449-.97 1-.97"/><path fill-rule="evenodd" d="M12 2c5.512 0 10 4.488 10 10s-4.488 10-10 10v-.01C6.488 21.99 2 17.5 2 12S6.488 2 12 2m0 1.67A8.33 8.33 0 1 0 20.33 12c0-4.6-3.742-8.33-8.33-8.33" clip-rule="evenodd"/></g><defs><clipPath id="a"><path fill="currentColor" d="M0 0h24v24H0z"/></clipPath></defs></svg>